<?xml version="1.0" encoding="utf-8" standalone="no"?>
<!DOCTYPE svg PUBLIC "-//W3C//DTD SVG 1.1//EN"
  "http://www.w3.org/Graphics/SVG/1.1/DTD/svg11.dtd">
<svg xmlns:xlink="http://www.w3.org/1999/xlink" width="720pt" height="576pt" viewBox="0 0 720 576" xmlns="http://www.w3.org/2000/svg" version="1.1">
 <metadata>
  <rdf:RDF xmlns:dc="http://purl.org/dc/elements/1.1/" xmlns:cc="http://creativecommons.org/ns#" xmlns:rdf="http://www.w3.org/1999/02/22-rdf-syntax-ns#">
   <cc:Work>
    <dc:type rdf:resource="http://purl.org/dc/dcmitype/StillImage"/>
    <dc:date>2025-09-07T00:41:00.908594</dc:date>
    <dc:format>image/svg+xml</dc:format>
    <dc:creator>
     <cc:Agent>
      <dc:title>Matplotlib v3.10.5, https://matplotlib.org/</dc:title>
     </cc:Agent>
    </dc:creator>
   </cc:Work>
  </rdf:RDF>
 </metadata>
 <defs>
  <style type="text/css">*{stroke-linejoin: round; stroke-linecap: butt}</style>
 </defs>
 <g id="figure_1">
  <g id="patch_1">
   <path d="M 0 576 
L 720 576 
L 720 0 
L 0 0 
z
" style="fill: #ffffff"/>
  </g>
  <g id="axes_1">
   <g id="patch_2">
    <path d="M 127.69 536.335 
L 709.2 536.335 
L 709.2 26.9925 
L 127.69 26.9925 
z
" style="fill: #ffffff"/>
   </g>
   <g id="matplotlib.axis_1">
    <g id="xtick_1">
     <g id="line2d_1">
      <path d="M 127.69 536.335 
L 127.69 26.9925 
" clip-path="url(#p3e479432df)" style="fill: none; stroke: #cccccc; stroke-width: 0.8; stroke-linecap: round"/>
     </g>
     <g id="text_1">
      <!-- 0.00 -->
      <g style="fill: #262626" transform="translate(117.69 550.21) scale(0.1 -0.1)">
       <defs>
        <path id="SimHei-30" d="M 225 2537 
Q 250 3200 412 3587 
Q 575 3975 875 4225 
Q 1175 4475 1612 4475 
Q 2050 4475 2375 4112 
Q 2700 3750 2800 3200 
Q 2900 2650 2862 1937 
Q 2825 1225 2612 775 
Q 2400 325 1975 150 
Q 1550 -25 1125 187 
Q 700 400 525 750 
Q 350 1100 275 1487 
Q 200 1875 225 2537 
z
M 750 2687 
Q 675 2000 800 1462 
Q 925 925 1212 700 
Q 1500 475 1800 612 
Q 2100 750 2237 1162 
Q 2375 1575 2375 2062 
Q 2375 2550 2337 2950 
Q 2300 3350 2112 3675 
Q 1925 4000 1612 4012 
Q 1300 4025 1062 3700 
Q 825 3375 750 2687 
z
" transform="scale(0.015625)"/>
        <path id="SimHei-2e" d="M 1075 125 
L 500 125 
L 500 675 
L 1075 675 
L 1075 125 
z
" transform="scale(0.015625)"/>
       </defs>
       <use xlink:href="#SimHei-30"/>
       <use xlink:href="#SimHei-2e" transform="translate(50 0)"/>
       <use xlink:href="#SimHei-30" transform="translate(100 0)"/>
       <use xlink:href="#SimHei-30" transform="translate(150 0)"/>
      </g>
     </g>
    </g>
    <g id="xtick_2">
     <g id="line2d_2">
      <path d="M 240.909065 536.335 
L 240.909065 26.9925 
" clip-path="url(#p3e479432df)" style="fill: none; stroke: #cccccc; stroke-width: 0.8; stroke-linecap: round"/>
     </g>
     <g id="text_2">
      <!-- 0.05 -->
      <g style="fill: #262626" transform="translate(230.909065 550.21) scale(0.1 -0.1)">
       <defs>
        <path id="SimHei-35" d="M 550 1325 
Q 725 650 1150 575 
Q 1575 500 1837 662 
Q 2100 825 2212 1087 
Q 2325 1350 2312 1675 
Q 2300 2000 2137 2225 
Q 1975 2450 1725 2525 
Q 1475 2600 1162 2525 
Q 850 2450 650 2175 
L 225 2225 
Q 275 2375 700 4375 
L 2675 4375 
L 2675 3925 
L 1075 3925 
Q 950 3250 825 2850 
Q 1200 3025 1525 3012 
Q 1850 3000 2150 2862 
Q 2450 2725 2587 2487 
Q 2725 2250 2787 2012 
Q 2850 1775 2837 1500 
Q 2825 1225 2725 937 
Q 2625 650 2425 462 
Q 2225 275 1937 162 
Q 1650 50 1275 75 
Q 900 100 562 350 
Q 225 600 100 1200 
L 550 1325 
z
" transform="scale(0.015625)"/>
       </defs>
       <use xlink:href="#SimHei-30"/>
       <use xlink:href="#SimHei-2e" transform="translate(50 0)"/>
       <use xlink:href="#SimHei-30" transform="translate(100 0)"/>
       <use xlink:href="#SimHei-35" transform="translate(150 0)"/>
      </g>
     </g>
    </g>
    <g id="xtick_3">
     <g id="line2d_3">
      <path d="M 354.128129 536.335 
L 354.128129 26.9925 
" clip-path="url(#p3e479432df)" style="fill: none; stroke: #cccccc; stroke-width: 0.8; stroke-linecap: round"/>
     </g>
     <g id="text_3">
      <!-- 0.10 -->
      <g style="fill: #262626" transform="translate(344.128129 550.21) scale(0.1 -0.1)">
       <defs>
        <path id="SimHei-31" d="M 1400 3600 
Q 1075 3275 575 2975 
L 575 3450 
Q 1200 3875 1600 4450 
L 1900 4450 
L 1900 150 
L 1400 150 
L 1400 3600 
z
" transform="scale(0.015625)"/>
       </defs>
       <use xlink:href="#SimHei-30"/>
       <use xlink:href="#SimHei-2e" transform="translate(50 0)"/>
       <use xlink:href="#SimHei-31" transform="translate(100 0)"/>
       <use xlink:href="#SimHei-30" transform="translate(150 0)"/>
      </g>
     </g>
    </g>
    <g id="xtick_4">
     <g id="line2d_4">
      <path d="M 467.347194 536.335 
L 467.347194 26.9925 
" clip-path="url(#p3e479432df)" style="fill: none; stroke: #cccccc; stroke-width: 0.8; stroke-linecap: round"/>
     </g>
     <g id="text_4">
      <!-- 0.15 -->
      <g style="fill: #262626" transform="translate(457.347194 550.21) scale(0.1 -0.1)">
       <use xlink:href="#SimHei-30"/>
       <use xlink:href="#SimHei-2e" transform="translate(50 0)"/>
       <use xlink:href="#SimHei-31" transform="translate(100 0)"/>
       <use xlink:href="#SimHei-35" transform="translate(150 0)"/>
      </g>
     </g>
    </g>
    <g id="xtick_5">
     <g id="line2d_5">
      <path d="M 580.566258 536.335 
L 580.566258 26.9925 
" clip-path="url(#p3e479432df)" style="fill: none; stroke: #cccccc; stroke-width: 0.8; stroke-linecap: round"/>
     </g>
     <g id="text_5">
      <!-- 0.20 -->
      <g style="fill: #262626" transform="translate(570.566258 550.21) scale(0.1 -0.1)">
       <defs>
        <path id="SimHei-32" d="M 300 250 
Q 325 625 650 925 
Q 975 1225 1475 1862 
Q 1975 2500 2125 2850 
Q 2275 3200 2237 3450 
Q 2200 3700 2000 3862 
Q 1800 4025 1537 4000 
Q 1275 3975 1037 3800 
Q 800 3625 675 3275 
L 200 3350 
Q 400 3925 712 4187 
Q 1025 4450 1450 4475 
Q 1700 4500 1900 4462 
Q 2100 4425 2312 4287 
Q 2525 4150 2662 3875 
Q 2800 3600 2762 3212 
Q 2725 2825 2375 2287 
Q 2025 1750 1025 600 
L 2825 600 
L 2825 150 
L 300 150 
L 300 250 
z
" transform="scale(0.015625)"/>
       </defs>
       <use xlink:href="#SimHei-30"/>
       <use xlink:href="#SimHei-2e" transform="translate(50 0)"/>
       <use xlink:href="#SimHei-32" transform="translate(100 0)"/>
       <use xlink:href="#SimHei-30" transform="translate(150 0)"/>
      </g>
     </g>
    </g>
    <g id="xtick_6">
     <g id="line2d_6">
      <path d="M 693.785323 536.335 
L 693.785323 26.9925 
" clip-path="url(#p3e479432df)" style="fill: none; stroke: #cccccc; stroke-width: 0.8; stroke-linecap: round"/>
     </g>
     <g id="text_6">
      <!-- 0.25 -->
      <g style="fill: #262626" transform="translate(683.785323 550.21) scale(0.1 -0.1)">
       <use xlink:href="#SimHei-30"/>
       <use xlink:href="#SimHei-2e" transform="translate(50 0)"/>
       <use xlink:href="#SimHei-32" transform="translate(100 0)"/>
       <use xlink:href="#SimHei-35" transform="translate(150 0)"/>
      </g>
     </g>
    </g>
    <g id="text_7">
     <!-- 特征重要性 -->
     <g style="fill: #262626" transform="translate(393.445 563.545938) scale(0.1 -0.1)">
      <defs>
       <path id="SimHei-7279" d="M 4050 3150 
L 4050 4050 
L 3675 4050 
Q 3275 4050 2975 4025 
L 2975 4475 
Q 3250 4450 3675 4450 
L 4050 4450 
Q 4050 4950 4000 5200 
L 4525 5200 
Q 4500 4950 4500 4450 
L 5075 4450 
Q 5450 4450 5800 4475 
L 5800 4025 
Q 5550 4050 5075 4050 
L 4500 4050 
L 4500 3150 
L 5450 3150 
Q 5825 3150 6150 3175 
L 6150 2725 
Q 5850 2750 5500 2750 
L 5275 2750 
L 5275 2000 
Q 5825 2000 6100 2025 
L 6100 1550 
Q 5800 1575 5275 1575 
L 5275 -75 
Q 5250 -375 5050 -487 
Q 4850 -600 4275 -675 
Q 4225 -375 4075 -100 
Q 4525 -125 4675 -100 
Q 4825 -75 4825 150 
L 4825 1575 
L 3600 1575 
Q 3175 1575 2850 1550 
L 2850 2025 
Q 3125 2000 3600 2000 
L 4825 2000 
L 4825 2750 
L 3575 2750 
Q 3125 2750 2775 2725 
L 2775 3175 
Q 3125 3150 3550 3150 
L 4050 3150 
z
M 1150 4275 
Q 1050 4125 950 3600 
L 1500 3600 
L 1500 4425 
Q 1500 4800 1475 5200 
L 2000 5200 
Q 1950 4825 1950 4425 
L 1950 3600 
Q 2300 3600 2600 3625 
L 2600 3175 
Q 2325 3200 1950 3200 
L 1950 2075 
Q 2275 2200 2575 2325 
Q 2600 2125 2650 1900 
Q 2375 1800 1950 1625 
L 1950 225 
Q 1950 -175 1975 -650 
L 1475 -650 
Q 1500 -200 1500 225 
L 1500 1450 
Q 850 1200 550 1025 
Q 450 1275 275 1550 
Q 600 1575 1500 1925 
L 1500 3200 
L 850 3200 
Q 750 2775 675 2450 
Q 425 2550 225 2600 
Q 350 2950 462 3487 
Q 575 4025 600 4400 
Q 900 4325 1150 4275 
z
M 3600 1200 
Q 3800 750 3975 325 
Q 3750 275 3500 150 
Q 3325 675 3125 1025 
Q 3375 1100 3600 1200 
z
" transform="scale(0.015625)"/>
       <path id="SimHei-5f81" d="M 5050 4650 
Q 5575 4650 5975 4675 
L 5975 4175 
Q 5575 4200 5050 4200 
L 4450 4200 
L 4450 2625 
L 5000 2625 
Q 5475 2625 5875 2650 
L 5875 2175 
Q 5475 2200 5000 2200 
L 4450 2200 
L 4450 200 
L 5100 200 
Q 5575 200 6125 225 
L 6125 -250 
Q 5575 -225 5100 -225 
L 2875 -225 
Q 2275 -225 1875 -250 
L 1875 225 
Q 2225 200 2650 200 
L 2650 2100 
Q 2650 2475 2625 2925 
L 3175 2925 
Q 3150 2500 3150 2100 
L 3150 200 
L 3925 200 
L 3925 4200 
L 3425 4200 
Q 2850 4200 2425 4175 
L 2425 4675 
Q 2850 4650 3425 4650 
L 5050 4650 
z
M 2250 3450 
Q 2100 3225 1625 2575 
L 1625 450 
Q 1625 -100 1650 -700 
L 1100 -700 
Q 1125 -100 1125 450 
L 1125 2000 
Q 825 1600 550 1300 
Q 425 1550 225 1725 
Q 675 2150 1062 2650 
Q 1450 3150 1725 3775 
Q 1950 3625 2250 3450 
z
M 250 3675 
Q 675 3975 1025 4412 
Q 1375 4850 1550 5275 
Q 1825 5125 2125 4975 
Q 1900 4725 1487 4212 
Q 1075 3700 675 3275 
Q 475 3475 250 3675 
z
" transform="scale(0.015625)"/>
       <path id="SimHei-91cd" d="M 5300 4575 
Q 3900 4450 3425 4400 
L 3425 3875 
L 5150 3875 
Q 5500 3875 6000 3900 
L 6000 3450 
Q 5500 3475 5150 3475 
L 3425 3475 
L 3425 3050 
L 5150 3050 
Q 5125 2675 5125 2125 
Q 5125 1575 5150 1175 
L 3425 1175 
L 3425 750 
L 4550 750 
Q 5000 750 5500 775 
L 5500 375 
Q 5025 400 4575 400 
L 3425 400 
L 3425 -50 
L 5050 -50 
Q 5475 -50 5975 -25 
L 5975 -450 
Q 5475 -425 5075 -425 
L 1475 -425 
Q 975 -425 450 -450 
L 450 -25 
Q 975 -50 1450 -50 
L 2925 -50 
L 2925 400 
L 2050 400 
Q 1450 400 950 375 
L 950 775 
Q 1600 750 2075 750 
L 2925 750 
L 2925 1175 
L 1250 1175 
Q 1275 1800 1275 2125 
Q 1275 2450 1250 3050 
L 2925 3050 
L 2925 3475 
L 1225 3475 
Q 875 3475 400 3450 
L 400 3900 
Q 875 3875 1225 3875 
L 2925 3875 
L 2925 4375 
Q 2425 4350 1075 4250 
Q 1000 4475 875 4675 
Q 2275 4700 3362 4812 
Q 4450 4925 4925 5075 
Q 5025 4825 5300 4575 
z
M 4650 2300 
L 4650 2650 
L 3425 2650 
L 3425 2300 
L 4650 2300 
z
M 2925 2300 
L 2925 2650 
L 1750 2650 
L 1750 2300 
L 2925 2300 
z
M 4625 1575 
L 4625 1900 
L 3425 1900 
L 3425 1575 
L 4625 1575 
z
M 2925 1575 
L 2925 1900 
L 1750 1900 
L 1750 1575 
L 2925 1575 
z
" transform="scale(0.015625)"/>
       <path id="SimHei-8981" d="M 5100 5000 
Q 5475 5000 5950 5025 
L 5950 4600 
Q 5475 4625 5100 4625 
L 4100 4625 
L 4100 3975 
L 5500 3975 
Q 5475 3550 5475 3175 
Q 5475 2800 5500 2400 
L 2850 2400 
Q 3125 2225 3275 2125 
Q 3050 1975 2950 1850 
L 5300 1850 
Q 5700 1850 6150 1900 
L 6150 1425 
Q 5700 1450 5275 1450 
L 4550 1450 
Q 4300 1025 3875 525 
Q 5000 225 6000 -125 
Q 5750 -300 5600 -550 
Q 4650 -125 3500 200 
Q 3150 -50 2612 -250 
Q 2075 -450 1587 -525 
Q 1100 -600 700 -650 
Q 625 -325 375 -125 
Q 850 -150 1375 -100 
Q 1900 -50 2325 87 
Q 2750 225 3000 375 
Q 2175 575 1375 725 
Q 1750 1100 2075 1450 
L 1025 1450 
Q 600 1450 200 1425 
L 200 1875 
Q 700 1850 1025 1850 
L 2350 1850 
Q 2600 2150 2750 2400 
L 900 2400 
Q 925 2800 925 3175 
Q 925 3550 900 3975 
L 2275 3975 
L 2275 4625 
L 1300 4625 
Q 875 4625 400 4600 
L 400 5025 
Q 875 5000 1275 5000 
L 5100 5000 
z
M 2225 975 
Q 2625 900 3400 675 
Q 3700 975 4025 1450 
L 2675 1450 
Q 2450 1225 2225 975 
z
M 3650 2775 
L 3650 3575 
L 2750 3575 
L 2750 2775 
L 3650 2775 
z
M 5000 2775 
L 5000 3575 
L 4100 3575 
L 4100 2775 
L 5000 2775 
z
M 2275 2775 
L 2275 3575 
L 1400 3575 
L 1400 2775 
L 2275 2775 
z
M 3650 3975 
L 3650 4625 
L 2750 4625 
L 2750 3975 
L 3650 3975 
z
" transform="scale(0.015625)"/>
       <path id="SimHei-6027" d="M 3450 4525 
Q 3325 4075 3275 3750 
L 4050 3750 
L 4050 4275 
Q 4050 4700 4025 5100 
L 4550 5100 
Q 4525 4700 4525 4275 
L 4525 3750 
L 5025 3750 
Q 5350 3750 5800 3775 
L 5800 3300 
Q 5350 3325 5025 3325 
L 4525 3325 
L 4525 2000 
L 4975 2000 
Q 5350 2000 5725 2025 
L 5725 1550 
Q 5350 1575 4975 1575 
L 4525 1575 
L 4525 25 
L 5200 25 
Q 5625 25 6025 50 
L 6025 -400 
Q 5625 -375 5200 -375 
L 3275 -375 
Q 2825 -375 2400 -400 
L 2400 50 
Q 2825 25 3250 25 
L 4050 25 
L 4050 1575 
L 3625 1575 
Q 3300 1575 2875 1550 
L 2875 2025 
Q 3200 2000 3625 2000 
L 4050 2000 
L 4050 3325 
L 3175 3325 
Q 3100 2950 2775 2225 
Q 2500 2375 2325 2400 
Q 2675 3125 2775 3650 
Q 2875 4175 2950 4650 
Q 3200 4575 3450 4525 
z
M 1700 5150 
Q 1675 4650 1675 4175 
L 1675 425 
Q 1675 -100 1700 -625 
L 1175 -625 
Q 1200 -100 1200 425 
L 1200 4175 
Q 1200 4700 1175 5150 
L 1700 5150 
z
M 975 3725 
Q 825 2675 700 2150 
Q 450 2200 250 2250 
Q 425 2900 525 3800 
Q 725 3775 975 3725 
z
M 2125 4025 
Q 2325 3625 2525 3000 
Q 2300 2925 2125 2825 
Q 1950 3375 1750 3850 
Q 1950 3950 2125 4025 
z
" transform="scale(0.015625)"/>
      </defs>
      <use xlink:href="#SimHei-7279"/>
      <use xlink:href="#SimHei-5f81" transform="translate(100 0)"/>
      <use xlink:href="#SimHei-91cd" transform="translate(200 0)"/>
      <use xlink:href="#SimHei-8981" transform="translate(300 0)"/>
      <use xlink:href="#SimHei-6027" transform="translate(400 0)"/>
     </g>
    </g>
   </g>
   <g id="matplotlib.axis_2">
    <g id="ytick_1">
     <g id="line2d_7">
      <path d="M 127.69 65.840657 
L 709.2 65.840657 
" clip-path="url(#p3e479432df)" style="fill: none; stroke: #cccccc; stroke-width: 0.8; stroke-linecap: round"/>
     </g>
     <g id="text_8">
      <!-- X染色体浓度 -->
      <g style="fill: #262626" transform="translate(65.69 69.844563) scale(0.1 -0.1)">
       <defs>
        <path id="SimHei-58" d="M 3000 125 
L 2400 125 
L 1550 1875 
L 700 125 
L 100 125 
L 1275 2375 
L 225 4400 
L 825 4400 
L 1550 2850 
L 2275 4400 
L 2875 4400 
L 1825 2375 
L 3000 125 
z
" transform="scale(0.015625)"/>
        <path id="SimHei-67d3" d="M 5825 -450 
Q 4750 -150 4250 250 
Q 3750 650 3450 1150 
Q 3450 -300 3475 -600 
L 2950 -600 
Q 2975 -275 2975 1075 
Q 2600 550 2012 150 
Q 1425 -250 625 -575 
Q 550 -325 200 -100 
Q 1075 100 1662 487 
Q 2250 875 2475 1225 
L 1225 1225 
Q 875 1225 400 1200 
L 400 1650 
Q 875 1625 1225 1625 
L 2975 1625 
Q 2975 1825 2950 2150 
L 3475 2150 
Q 3450 1850 3450 1625 
L 5300 1625 
Q 5625 1625 6000 1650 
L 6000 1200 
Q 5625 1225 5300 1225 
L 3950 1225 
Q 4350 675 5000 400 
Q 5650 125 6175 75 
Q 5850 -250 5825 -450 
z
M 1825 2300 
Q 2550 2575 2925 3012 
Q 3300 3450 3400 4000 
Q 3025 4000 2575 3975 
L 2575 4425 
Q 3050 4400 3425 4400 
Q 3450 4925 3425 5250 
Q 3725 5175 4000 5175 
Q 3925 5025 3900 4400 
L 5125 4400 
Q 5100 4150 5075 3850 
L 5000 2850 
Q 5025 2600 5175 2600 
L 5450 2600 
Q 5575 2600 5612 2700 
Q 5650 2800 5675 3200 
Q 5875 3025 6200 3000 
Q 6100 2325 5912 2262 
Q 5725 2200 5387 2187 
Q 5050 2175 4787 2237 
Q 4525 2300 4550 2700 
L 4625 4000 
L 3875 4000 
Q 3800 3425 3475 2937 
Q 3150 2450 2275 1925 
Q 2175 2100 1825 2300 
z
M 2175 2925 
Q 1225 2175 850 1875 
Q 700 2125 500 2300 
Q 1100 2600 2000 3375 
Q 2050 3175 2175 2925 
z
M 675 4150 
Q 1375 3825 1750 3600 
Q 1575 3375 1475 3175 
Q 1225 3400 450 3750 
Q 600 3925 675 4150 
z
M 1850 4150 
Q 1475 4475 900 4775 
Q 1025 4925 1175 5125 
Q 1750 4800 2175 4550 
Q 1950 4325 1850 4150 
z
" transform="scale(0.015625)"/>
        <path id="SimHei-8272" d="M 2925 4975 
Q 2725 4875 2425 4450 
L 4750 4450 
Q 4625 4325 4375 3962 
Q 4125 3600 3900 3250 
L 5300 3250 
Q 5250 2950 5250 2250 
Q 5250 1575 5300 1175 
L 4775 1175 
L 4775 1525 
L 1750 1525 
L 1750 400 
Q 1775 50 2150 0 
L 4850 0 
Q 5375 -50 5425 550 
Q 5650 400 5925 350 
Q 5700 -450 4875 -425 
L 1975 -425 
Q 1275 -450 1250 250 
L 1250 3125 
Q 1025 2950 775 2750 
Q 600 2975 325 3125 
Q 725 3375 1075 3625 
Q 1425 3875 1787 4362 
Q 2150 4850 2250 5200 
L 2925 4975 
z
M 3325 3250 
Q 3750 3800 3850 4050 
L 2150 4050 
Q 1800 3625 1400 3250 
L 3325 3250 
z
M 3025 1900 
L 3025 2850 
L 1750 2850 
L 1750 1900 
L 3025 1900 
z
M 4775 1900 
L 4775 2850 
L 3500 2850 
L 3500 1900 
L 4775 1900 
z
" transform="scale(0.015625)"/>
        <path id="SimHei-4f53" d="M 3650 3850 
Q 3650 4750 3625 5125 
L 4125 5125 
Q 4100 4775 4100 3850 
L 5200 3850 
Q 5700 3850 5925 3875 
L 5925 3425 
Q 5700 3450 5200 3450 
L 4525 3450 
Q 4925 1850 6200 1200 
Q 5925 1050 5775 775 
Q 4425 1800 4100 3425 
L 4100 1025 
Q 4825 1025 5050 1050 
L 5050 600 
Q 4825 625 4100 625 
Q 4100 75 4125 -575 
L 3625 -575 
Q 3650 100 3650 625 
Q 3200 625 2700 600 
L 2700 1050 
Q 3200 1025 3650 1025 
L 3650 3450 
Q 3375 1800 2000 650 
Q 1850 875 1550 1025 
Q 2850 1875 3200 3450 
L 2675 3450 
Q 2275 3450 1975 3425 
L 1975 3875 
Q 2275 3850 2675 3850 
L 3650 3850 
z
M 2000 4900 
Q 1825 4675 1525 3775 
L 1525 575 
Q 1525 -200 1550 -550 
L 1050 -550 
Q 1075 -225 1075 550 
L 1075 2900 
Q 950 2625 575 2050 
Q 450 2275 225 2425 
Q 525 2725 925 3612 
Q 1325 4500 1425 5125 
Q 1700 5000 2000 4900 
z
" transform="scale(0.015625)"/>
        <path id="SimHei-6d53" d="M 5775 2250 
Q 5600 2150 5325 1937 
Q 5050 1725 4725 1425 
Q 4925 1025 5387 600 
Q 5850 175 6150 100 
Q 5875 -150 5750 -375 
Q 5025 50 4500 862 
Q 3975 1675 3650 2825 
Q 3550 2625 3325 2225 
L 3325 275 
Q 3600 500 3950 850 
Q 4125 525 4225 375 
Q 3900 150 3550 -150 
Q 3200 -450 3000 -625 
Q 2850 -375 2700 -225 
Q 2850 -75 2875 200 
L 2875 1625 
Q 2550 1175 2000 700 
Q 1800 900 1550 1025 
Q 1975 1325 2350 1725 
Q 2725 2150 3012 2625 
Q 3300 3100 3525 3950 
L 2500 3950 
L 2500 3225 
L 1975 3225 
Q 2025 3500 1975 4350 
L 3600 4350 
Q 3700 5000 3675 5250 
Q 4000 5175 4300 5150 
Q 4225 4950 4125 4350 
L 5775 4350 
Q 5750 3550 5775 3250 
L 5275 3250 
L 5275 3950 
L 4025 3950 
Q 3975 3725 3900 3525 
Q 4200 2425 4525 1825 
Q 4975 2175 5350 2700 
Q 5550 2450 5775 2250 
z
M 250 -200 
Q 450 75 725 675 
Q 1000 1275 1175 1950 
Q 1450 1750 1650 1675 
Q 1375 1050 1200 525 
Q 1025 0 850 -450 
Q 550 -250 250 -200 
z
M 1400 2475 
Q 925 2825 300 3075 
Q 400 3300 525 3550 
Q 1225 3225 1675 2925 
Q 1500 2650 1400 2475 
z
M 1550 3925 
Q 1175 4300 600 4675 
Q 725 4850 900 5075 
Q 1550 4625 1875 4325 
Q 1650 4100 1550 3925 
z
" transform="scale(0.015625)"/>
        <path id="SimHei-5ea6" d="M 1750 1675 
Q 2450 1650 2875 1650 
L 5200 1650 
Q 4975 1250 4650 850 
Q 4325 450 4025 200 
Q 4350 50 4950 -50 
Q 5550 -150 6100 -150 
Q 5950 -300 5825 -650 
Q 5100 -550 4550 -412 
Q 4000 -275 3625 -100 
Q 3100 -325 2587 -462 
Q 2075 -600 1525 -675 
Q 1450 -475 1225 -250 
Q 1675 -250 2250 -125 
Q 2825 0 3250 200 
Q 2825 550 2400 1275 
L 1750 1250 
L 1750 1675 
z
M 2975 5075 
Q 3250 5150 3475 5250 
Q 3625 4975 3775 4525 
L 4700 4525 
Q 4975 4525 5700 4550 
L 5700 4100 
Q 5000 4125 4650 4125 
L 1375 4125 
Q 1375 3000 1350 2312 
Q 1325 1625 1212 950 
Q 1100 275 725 -525 
Q 500 -375 250 -300 
Q 650 400 762 1075 
Q 875 1750 887 2800 
Q 900 3850 875 4525 
L 3200 4525 
Q 3100 4850 2975 5075 
z
M 2475 3300 
Q 2475 3700 2450 3925 
L 2975 3925 
Q 2950 3725 2950 3300 
L 4300 3300 
Q 4300 3700 4275 3950 
L 4800 3950 
Q 4775 3650 4775 3300 
Q 5325 3300 5725 3325 
L 5725 2900 
Q 5350 2925 4775 2925 
Q 4775 2250 4800 1950 
L 2450 1950 
Q 2475 2350 2475 2925 
Q 2175 2925 1600 2900 
L 1600 3325 
Q 2175 3300 2475 3300 
z
M 4300 2350 
L 4300 2925 
L 2950 2925 
L 2950 2350 
L 4300 2350 
z
M 2875 1275 
Q 3200 775 3650 425 
Q 4025 700 4425 1275 
L 2900 1275 
L 2875 1275 
z
" transform="scale(0.015625)"/>
       </defs>
       <use xlink:href="#SimHei-58"/>
       <use xlink:href="#SimHei-67d3" transform="translate(50 0)"/>
       <use xlink:href="#SimHei-8272" transform="translate(150 0)"/>
       <use xlink:href="#SimHei-4f53" transform="translate(250 0)"/>
       <use xlink:href="#SimHei-6d53" transform="translate(350 0)"/>
       <use xlink:href="#SimHei-5ea6" transform="translate(450 0)"/>
      </g>
     </g>
    </g>
    <g id="ytick_2">
     <g id="line2d_8">
      <path d="M 127.69 105.081219 
L 709.2 105.081219 
" clip-path="url(#p3e479432df)" style="fill: none; stroke: #cccccc; stroke-width: 0.8; stroke-linecap: round"/>
     </g>
     <g id="text_9">
      <!-- 孕妇BMI -->
      <g style="fill: #262626" transform="translate(85.69 109.085125) scale(0.1 -0.1)">
       <defs>
        <path id="SimHei-5b55" d="M 5750 2400 
Q 5700 2025 5400 1900 
Q 5100 1775 4775 1725 
Q 4725 2025 4600 2225 
Q 5200 2200 5275 2575 
L 5375 3475 
L 4050 3475 
Q 4100 3800 4250 4525 
L 2650 4525 
Q 2575 3975 2362 3550 
Q 2150 3125 1850 2800 
Q 2400 2750 2850 2750 
L 4625 2750 
L 4625 2350 
Q 4400 2275 4150 2125 
Q 3900 1975 3550 1750 
L 3550 1375 
L 4850 1375 
Q 5350 1375 5925 1400 
L 5925 950 
Q 5375 975 4875 975 
L 3550 975 
L 3550 -175 
Q 3525 -475 3275 -575 
Q 3025 -675 2575 -700 
Q 2550 -400 2375 -150 
Q 2875 -150 2950 -100 
Q 3025 -50 3025 125 
L 3025 975 
L 1475 975 
Q 975 975 450 950 
L 450 1400 
Q 975 1375 1475 1375 
L 3025 1375 
Q 3025 1575 3000 1850 
Q 3450 2100 3750 2350 
L 2850 2350 
Q 2425 2350 1800 2325 
L 1800 2725 
Q 1375 2300 875 2025 
Q 650 2250 400 2350 
Q 775 2500 1187 2825 
Q 1600 3150 1850 3650 
Q 2100 4150 2125 4525 
L 1800 4525 
Q 1400 4525 925 4500 
L 925 4950 
Q 1400 4925 1750 4925 
L 4875 4925 
Q 4675 4200 4625 3925 
L 5925 3925 
Q 5925 3750 5850 3225 
L 5750 2400 
z
" transform="scale(0.015625)"/>
        <path id="SimHei-5987" d="M 2950 375 
Q 2775 225 2550 0 
Q 2300 375 2050 700 
Q 1775 300 1425 0 
Q 1075 -300 650 -575 
Q 525 -375 200 -175 
Q 600 0 987 287 
Q 1375 575 1700 1025 
Q 1250 1425 825 1775 
Q 1050 2400 1250 3400 
Q 950 3400 525 3375 
L 525 3875 
Q 975 3850 1325 3850 
Q 1450 4375 1550 5225 
Q 1875 5100 2125 5075 
Q 2025 4875 1950 4525 
Q 1875 4175 1800 3850 
L 2900 3850 
Q 2825 2925 2687 2312 
Q 2550 1700 2300 1100 
Q 2625 750 2950 375 
z
M 5825 4625 
Q 5800 4075 5800 3500 
L 5800 800 
Q 5800 200 5825 -350 
L 5325 -350 
L 5325 200 
L 4075 200 
Q 3600 200 3150 175 
L 3150 675 
Q 3600 650 4075 650 
L 5325 650 
L 5325 2250 
L 4225 2250 
Q 3725 2250 3275 2225 
L 3275 2725 
Q 3725 2700 4225 2700 
L 5325 2700 
L 5325 4175 
L 4050 4175 
Q 3575 4175 3150 4150 
L 3150 4650 
Q 3575 4625 4050 4625 
L 5825 4625 
z
M 1950 1400 
Q 2125 1825 2225 2275 
Q 2325 2725 2400 3400 
L 1725 3400 
Q 1500 2500 1325 1900 
Q 1650 1675 1950 1400 
z
" transform="scale(0.015625)"/>
        <path id="SimHei-42" d="M 2950 1400 
Q 2950 675 2550 400 
Q 2150 125 1525 125 
L 275 125 
L 275 4400 
L 1575 4400 
Q 2200 4400 2512 4075 
Q 2825 3750 2825 3300 
Q 2825 2850 2612 2637 
Q 2400 2425 2175 2350 
Q 2475 2275 2712 2037 
Q 2950 1800 2950 1400 
z
M 2250 3300 
Q 2250 3625 2062 3775 
Q 1875 3925 1600 3925 
L 850 3925 
L 850 2600 
L 1575 2600 
Q 1850 2600 2050 2762 
Q 2250 2925 2250 3300 
z
M 2350 1400 
Q 2350 1800 2087 1962 
Q 1825 2125 1500 2125 
L 850 2125 
L 850 600 
L 1425 600 
Q 1875 600 2112 775 
Q 2350 950 2350 1400 
z
" transform="scale(0.015625)"/>
        <path id="SimHei-4d" d="M 2925 125 
L 2425 125 
L 2425 3175 
L 2375 3175 
L 1775 125 
L 1375 125 
L 775 3175 
L 725 3175 
L 725 125 
L 225 125 
L 225 4400 
L 1000 4400 
L 1550 1575 
L 1600 1575 
L 2150 4400 
L 2925 4400 
L 2925 125 
z
" transform="scale(0.015625)"/>
        <path id="SimHei-49" d="M 1850 125 
L 1275 125 
L 1275 4400 
L 1850 4400 
L 1850 125 
z
" transform="scale(0.015625)"/>
       </defs>
       <use xlink:href="#SimHei-5b55"/>
       <use xlink:href="#SimHei-5987" transform="translate(100 0)"/>
       <use xlink:href="#SimHei-42" transform="translate(200 0)"/>
       <use xlink:href="#SimHei-4d" transform="translate(250 0)"/>
       <use xlink:href="#SimHei-49" transform="translate(300 0)"/>
      </g>
     </g>
    </g>
    <g id="ytick_3">
     <g id="line2d_9">
      <path d="M 127.69 144.321782 
L 709.2 144.321782 
" clip-path="url(#p3e479432df)" style="fill: none; stroke: #cccccc; stroke-width: 0.8; stroke-linecap: round"/>
     </g>
     <g id="text_10">
      <!-- 18号染色体的GC含量 -->
      <g style="fill: #262626" transform="translate(30.69 148.306157) scale(0.1 -0.1)">
       <defs>
        <path id="SimHei-38" d="M 175 1375 
Q 175 1675 325 1962 
Q 475 2250 825 2425 
Q 525 2600 425 2812 
Q 325 3025 312 3300 
Q 300 3575 387 3775 
Q 475 3975 650 4150 
Q 825 4325 1037 4387 
Q 1250 4450 1500 4450 
Q 1750 4450 1950 4400 
Q 2150 4350 2375 4187 
Q 2600 4025 2700 3725 
Q 2800 3425 2687 3025 
Q 2575 2625 2100 2400 
Q 2525 2275 2700 2012 
Q 2875 1750 2875 1375 
Q 2875 1000 2762 775 
Q 2650 550 2512 400 
Q 2375 250 2137 162 
Q 1900 75 1537 75 
Q 1175 75 912 162 
Q 650 250 475 425 
Q 300 600 237 837 
Q 175 1075 175 1375 
z
M 687 1400 
Q 675 1100 787 875 
Q 900 650 1200 587 
Q 1500 525 1825 600 
Q 2150 675 2275 950 
Q 2400 1225 2362 1500 
Q 2325 1775 2050 1962 
Q 1775 2150 1450 2125 
Q 1125 2100 912 1900 
Q 700 1700 687 1400 
z
M 775 3350 
Q 775 3100 950 2875 
Q 1125 2650 1500 2650 
Q 1875 2650 2062 2875 
Q 2250 3100 2237 3412 
Q 2225 3725 2012 3875 
Q 1800 4025 1437 4000 
Q 1075 3975 925 3787 
Q 775 3600 775 3350 
z
" transform="scale(0.015625)"/>
        <path id="SimHei-53f7" d="M 5025 4925 
Q 5000 4550 5000 4075 
Q 5000 3600 5025 3175 
L 1400 3175 
Q 1425 3525 1425 4000 
Q 1425 4500 1400 4925 
L 5025 4925 
z
M 5175 2625 
Q 5650 2625 6025 2650 
L 6025 2200 
Q 5650 2225 5175 2225 
L 2450 2225 
Q 2350 1875 2225 1450 
L 5175 1450 
Q 5100 1050 5062 775 
Q 5025 500 4950 112 
Q 4875 -275 4650 -412 
Q 4425 -550 3225 -625 
Q 3125 -350 2975 -50 
Q 3875 -75 4112 -50 
Q 4350 -25 4425 212 
Q 4500 450 4575 1025 
L 1600 1025 
Q 1825 1625 1950 2225 
L 1350 2225 
Q 825 2225 375 2200 
L 375 2650 
Q 825 2625 1350 2625 
L 5175 2625 
z
M 4525 3575 
L 4525 4525 
L 1900 4525 
L 1900 3575 
L 4525 3575 
z
" transform="scale(0.015625)"/>
        <path id="SimHei-7684" d="M 2100 4975 
Q 1975 4750 1750 3950 
L 2875 3950 
Q 2850 3525 2850 2875 
L 2850 675 
Q 2850 300 2875 -400 
L 2375 -400 
L 2375 100 
L 1100 100 
L 1100 -450 
L 600 -450 
Q 625 350 625 550 
L 625 2850 
Q 625 3525 600 3950 
L 1325 3950 
Q 1450 4525 1525 5150 
Q 1875 5025 2100 4975 
z
M 5825 3075 
Q 5800 1550 5700 175 
Q 5650 -275 5225 -425 
Q 4800 -575 4275 -625 
Q 4250 -350 4050 -50 
Q 4550 -75 4837 -25 
Q 5125 25 5200 200 
Q 5275 375 5312 1225 
Q 5350 2075 5375 3600 
L 3925 3600 
Q 3725 3125 3350 2475 
Q 3175 2650 2925 2750 
Q 3150 3050 3350 3475 
Q 3550 3900 3700 4400 
Q 3850 4900 3875 5175 
Q 4225 5025 4475 4950 
Q 4350 4750 4262 4512 
Q 4175 4275 4075 4050 
L 5850 4050 
Q 5825 3525 5825 3075 
z
M 2375 525 
L 2375 1850 
L 1100 1850 
L 1100 525 
L 2375 525 
z
M 2375 2275 
L 2375 3525 
L 1100 3525 
L 1100 2275 
L 2375 2275 
z
M 4350 2050 
Q 4500 1750 4700 1275 
Q 4525 1200 4225 1025 
Q 4050 1500 3900 1837 
Q 3750 2175 3600 2400 
Q 3775 2500 4050 2650 
L 4350 2050 
z
" transform="scale(0.015625)"/>
        <path id="SimHei-47" d="M 2850 75 
L 2425 75 
L 2350 425 
Q 2250 275 2037 175 
Q 1825 75 1575 75 
Q 1050 75 637 562 
Q 225 1050 225 2125 
Q 225 3300 600 3875 
Q 975 4450 1625 4450 
Q 2200 4450 2525 4025 
Q 2850 3600 2850 2925 
L 2300 2925 
Q 2300 3450 2125 3712 
Q 1950 3975 1625 3975 
Q 1225 3975 1025 3562 
Q 825 3150 825 2175 
Q 825 1250 1075 900 
Q 1325 550 1650 550 
Q 1975 550 2162 787 
Q 2350 1025 2350 1525 
L 2350 1800 
L 1575 1800 
L 1575 2275 
L 2850 2275 
L 2850 75 
z
" transform="scale(0.015625)"/>
        <path id="SimHei-43" d="M 2975 1825 
Q 2950 875 2575 475 
Q 2200 75 1675 75 
Q 1075 75 650 562 
Q 225 1050 225 2125 
Q 225 3300 637 3875 
Q 1050 4450 1700 4450 
Q 2250 4450 2612 4037 
Q 2975 3625 2950 2875 
L 2400 2875 
Q 2400 3425 2225 3700 
Q 2050 3975 1700 3975 
Q 1300 3975 1062 3562 
Q 825 3150 825 2175 
Q 825 1275 1062 912 
Q 1300 550 1675 550 
Q 1950 550 2175 812 
Q 2400 1075 2400 1825 
L 2975 1825 
z
" transform="scale(0.015625)"/>
        <path id="SimHei-542b" d="M 4525 -575 
L 4525 -200 
L 1850 -200 
L 1850 -625 
L 1325 -625 
Q 1350 -275 1350 275 
Q 1350 850 1325 1450 
L 5050 1450 
Q 5025 1175 5025 425 
Q 5025 -300 5050 -575 
L 4525 -575 
z
M 3350 4850 
Q 3625 4525 4325 4062 
Q 5025 3600 6150 3300 
Q 5850 3075 5750 2750 
Q 5050 3025 4337 3462 
Q 3625 3900 3125 4500 
Q 2500 3800 1912 3387 
Q 1325 2975 625 2650 
Q 550 2850 275 3100 
Q 1100 3325 1862 3925 
Q 2625 4525 2975 5275 
Q 3325 5150 3525 5050 
L 3350 4850 
z
M 4525 200 
L 4525 1050 
L 1850 1050 
L 1850 200 
L 4525 200 
z
M 4775 2875 
Q 4525 2600 4200 2200 
Q 3875 1800 3600 1500 
Q 3425 1675 3250 1750 
Q 3525 2025 3875 2500 
L 1975 2500 
Q 1750 2500 1350 2475 
L 1350 2900 
Q 1750 2875 1975 2875 
L 4775 2875 
z
M 3050 3925 
Q 3425 3400 3475 3225 
Q 3375 3200 3050 3025 
Q 2850 3475 2675 3700 
Q 2925 3800 3050 3925 
z
" transform="scale(0.015625)"/>
        <path id="SimHei-91cf" d="M 5250 2500 
Q 5225 2200 5225 1700 
Q 5225 1225 5250 950 
L 3425 950 
L 3425 625 
L 4575 625 
Q 5000 625 5375 650 
L 5375 275 
Q 5025 300 4575 300 
L 3425 300 
L 3425 -75 
L 5125 -75 
Q 5525 -75 5925 -50 
L 5925 -425 
Q 5525 -400 5125 -400 
L 1275 -400 
Q 900 -400 475 -425 
L 475 -50 
Q 925 -50 1275 -75 
L 2975 -75 
L 2975 300 
L 1725 300 
Q 1350 300 975 250 
L 975 650 
Q 1375 625 1725 625 
L 2975 625 
L 2975 950 
L 1150 950 
Q 1175 1375 1175 1775 
Q 1175 2175 1150 2500 
L 5250 2500 
z
M 5200 4950 
Q 5175 4575 5175 4250 
Q 5175 3925 5200 3400 
L 1200 3400 
Q 1225 3925 1225 4250 
Q 1225 4575 1200 4950 
L 5200 4950 
z
M 4900 3100 
Q 5500 3125 6000 3150 
L 6000 2750 
Q 5500 2775 4925 2775 
L 1650 2775 
Q 975 2775 325 2750 
L 325 3150 
Q 975 3125 1650 3100 
L 4900 3100 
z
M 4725 3700 
L 4725 4025 
L 1675 4025 
L 1675 3700 
L 4725 3700 
z
M 4725 4350 
L 4725 4650 
L 1675 4650 
L 1675 4350 
L 4725 4350 
z
M 4750 1875 
L 4750 2175 
L 3425 2175 
L 3425 1875 
L 4750 1875 
z
M 2975 1875 
L 2975 2175 
L 1650 2175 
L 1650 1875 
L 2975 1875 
z
M 2975 1275 
L 2975 1550 
L 1650 1550 
L 1650 1275 
L 2975 1275 
z
M 4750 1275 
L 4750 1550 
L 3425 1550 
L 3425 1275 
L 4750 1275 
z
" transform="scale(0.015625)"/>
       </defs>
       <use xlink:href="#SimHei-31"/>
       <use xlink:href="#SimHei-38" transform="translate(50 0)"/>
       <use xlink:href="#SimHei-53f7" transform="translate(100 0)"/>
       <use xlink:href="#SimHei-67d3" transform="translate(200 0)"/>
       <use xlink:href="#SimHei-8272" transform="translate(300 0)"/>
       <use xlink:href="#SimHei-4f53" transform="translate(400 0)"/>
       <use xlink:href="#SimHei-7684" transform="translate(500 0)"/>
       <use xlink:href="#SimHei-47" transform="translate(600 0)"/>
       <use xlink:href="#SimHei-43" transform="translate(650 0)"/>
       <use xlink:href="#SimHei-542b" transform="translate(700 0)"/>
       <use xlink:href="#SimHei-91cf" transform="translate(800 0)"/>
      </g>
     </g>
    </g>
    <g id="ytick_4">
     <g id="line2d_10">
      <path d="M 127.69 183.562344 
L 709.2 183.562344 
" clip-path="url(#p3e479432df)" style="fill: none; stroke: #cccccc; stroke-width: 0.8; stroke-linecap: round"/>
     </g>
     <g id="text_11">
      <!-- 13号染色体的GC含量 -->
      <g style="fill: #262626" transform="translate(30.69 187.546719) scale(0.1 -0.1)">
       <defs>
        <path id="SimHei-33" d="M 250 1225 
L 700 1300 
Q 800 975 1025 762 
Q 1250 550 1587 562 
Q 1925 575 2125 837 
Q 2325 1100 2300 1437 
Q 2275 1775 2037 1962 
Q 1800 2150 1275 2225 
L 1275 2550 
Q 1800 2600 2037 2825 
Q 2275 3050 2250 3412 
Q 2225 3775 1925 3937 
Q 1625 4100 1287 3975 
Q 950 3850 750 3275 
L 300 3350 
Q 450 3800 712 4100 
Q 975 4400 1425 4450 
Q 1875 4500 2212 4337 
Q 2550 4175 2687 3837 
Q 2825 3500 2725 3100 
Q 2625 2700 2150 2400 
Q 2500 2250 2687 1950 
Q 2875 1650 2812 1162 
Q 2750 675 2375 375 
Q 2000 75 1525 87 
Q 1050 100 700 387 
Q 350 675 250 1225 
z
" transform="scale(0.015625)"/>
       </defs>
       <use xlink:href="#SimHei-31"/>
       <use xlink:href="#SimHei-33" transform="translate(50 0)"/>
       <use xlink:href="#SimHei-53f7" transform="translate(100 0)"/>
       <use xlink:href="#SimHei-67d3" transform="translate(200 0)"/>
       <use xlink:href="#SimHei-8272" transform="translate(300 0)"/>
       <use xlink:href="#SimHei-4f53" transform="translate(400 0)"/>
       <use xlink:href="#SimHei-7684" transform="translate(500 0)"/>
       <use xlink:href="#SimHei-47" transform="translate(600 0)"/>
       <use xlink:href="#SimHei-43" transform="translate(650 0)"/>
       <use xlink:href="#SimHei-542b" transform="translate(700 0)"/>
       <use xlink:href="#SimHei-91cf" transform="translate(800 0)"/>
      </g>
     </g>
    </g>
    <g id="ytick_5">
     <g id="line2d_11">
      <path d="M 127.69 222.802906 
L 709.2 222.802906 
" clip-path="url(#p3e479432df)" style="fill: none; stroke: #cccccc; stroke-width: 0.8; stroke-linecap: round"/>
     </g>
     <g id="text_12">
      <!-- 21号染色体的GC含量 -->
      <g style="fill: #262626" transform="translate(30.69 226.787281) scale(0.1 -0.1)">
       <use xlink:href="#SimHei-32"/>
       <use xlink:href="#SimHei-31" transform="translate(50 0)"/>
       <use xlink:href="#SimHei-53f7" transform="translate(100 0)"/>
       <use xlink:href="#SimHei-67d3" transform="translate(200 0)"/>
       <use xlink:href="#SimHei-8272" transform="translate(300 0)"/>
       <use xlink:href="#SimHei-4f53" transform="translate(400 0)"/>
       <use xlink:href="#SimHei-7684" transform="translate(500 0)"/>
       <use xlink:href="#SimHei-47" transform="translate(600 0)"/>
       <use xlink:href="#SimHei-43" transform="translate(650 0)"/>
       <use xlink:href="#SimHei-542b" transform="translate(700 0)"/>
       <use xlink:href="#SimHei-91cf" transform="translate(800 0)"/>
      </g>
     </g>
    </g>
    <g id="ytick_6">
     <g id="line2d_12">
      <path d="M 127.69 262.043469 
L 709.2 262.043469 
" clip-path="url(#p3e479432df)" style="fill: none; stroke: #cccccc; stroke-width: 0.8; stroke-linecap: round"/>
     </g>
     <g id="text_13">
      <!-- 18号染色体的Z值 -->
      <g style="fill: #262626" transform="translate(45.69 266.008313) scale(0.1 -0.1)">
       <defs>
        <path id="SimHei-5a" d="M 2900 125 
L 225 125 
L 225 600 
L 2250 3925 
L 375 3925 
L 375 4400 
L 2825 4400 
L 2825 3925 
L 800 600 
L 2900 600 
L 2900 125 
z
" transform="scale(0.015625)"/>
        <path id="SimHei-503c" d="M 3675 4450 
L 3675 5100 
Q 3975 5075 4350 5050 
Q 4225 4875 4200 4450 
L 5125 4450 
Q 5550 4450 5875 4475 
L 5875 4025 
Q 5525 4050 5125 4050 
L 4175 4050 
L 4125 3500 
L 5400 3500 
Q 5375 3200 5375 2700 
L 5375 150 
Q 5875 150 6100 175 
L 6100 -275 
Q 5775 -250 5200 -250 
L 2850 -250 
Q 2275 -250 1900 -275 
L 1900 175 
Q 2125 150 2600 150 
L 2600 2700 
Q 2600 3175 2575 3500 
L 3600 3500 
L 3650 4050 
L 3200 4050 
Q 2575 4050 2225 4025 
L 2225 4475 
Q 2550 4450 3200 4450 
L 3675 4450 
z
M 2225 4900 
Q 2025 4675 1650 3750 
L 1650 450 
Q 1650 -75 1675 -550 
L 1150 -550 
Q 1175 -125 1175 375 
L 1175 2950 
Q 875 2450 625 2150 
Q 425 2425 250 2575 
Q 500 2825 937 3537 
Q 1375 4250 1625 5150 
Q 1975 4975 2225 4900 
z
M 4925 2650 
L 4925 3150 
L 3075 3150 
L 3075 2650 
L 4925 2650 
z
M 4925 150 
L 4925 625 
L 3075 625 
L 3075 150 
L 4925 150 
z
M 4925 1000 
L 4925 1450 
L 3075 1450 
L 3075 1000 
L 4925 1000 
z
M 4925 1825 
L 4925 2275 
L 3075 2275 
L 3075 1825 
L 4925 1825 
z
" transform="scale(0.015625)"/>
       </defs>
       <use xlink:href="#SimHei-31"/>
       <use xlink:href="#SimHei-38" transform="translate(50 0)"/>
       <use xlink:href="#SimHei-53f7" transform="translate(100 0)"/>
       <use xlink:href="#SimHei-67d3" transform="translate(200 0)"/>
       <use xlink:href="#SimHei-8272" transform="translate(300 0)"/>
       <use xlink:href="#SimHei-4f53" transform="translate(400 0)"/>
       <use xlink:href="#SimHei-7684" transform="translate(500 0)"/>
       <use xlink:href="#SimHei-5a" transform="translate(600 0)"/>
       <use xlink:href="#SimHei-503c" transform="translate(650 0)"/>
      </g>
     </g>
    </g>
    <g id="ytick_7">
     <g id="line2d_13">
      <path d="M 127.69 301.284031 
L 709.2 301.284031 
" clip-path="url(#p3e479432df)" style="fill: none; stroke: #cccccc; stroke-width: 0.8; stroke-linecap: round"/>
     </g>
     <g id="text_14">
      <!-- 参考基因实际读段数 -->
      <g style="fill: #262626" transform="translate(30.69 305.287937) scale(0.1 -0.1)">
       <defs>
        <path id="SimHei-53c2" d="M 3325 4850 
Q 3100 4725 2850 4500 
Q 2600 4275 2175 3925 
Q 2850 3950 3275 3950 
Q 3700 3950 4200 3975 
Q 3950 4200 3600 4450 
Q 3800 4625 3925 4775 
Q 4900 4100 5325 3675 
Q 5100 3475 4925 3300 
Q 4750 3475 4550 3625 
Q 3625 3600 3200 3575 
Q 3025 3250 2925 3125 
L 5075 3125 
Q 5575 3125 5950 3150 
L 5950 2700 
Q 5600 2725 5075 2725 
L 4325 2725 
Q 4675 2350 5187 2075 
Q 5700 1800 6150 1700 
Q 5850 1550 5675 1225 
Q 5100 1525 4612 1900 
Q 4125 2275 3800 2725 
L 2725 2725 
Q 2325 2300 1812 1962 
Q 1300 1625 650 1325 
Q 525 1525 250 1700 
Q 725 1825 1237 2100 
Q 1750 2375 2100 2725 
L 1475 2725 
Q 950 2725 375 2700 
L 375 3150 
Q 875 3125 1475 3125 
L 2400 3125 
L 2550 3350 
L 2650 3550 
Q 1925 3500 1775 3475 
Q 1625 3450 1500 3425 
Q 1375 3725 1300 3875 
Q 1600 3950 2050 4337 
Q 2500 4725 2825 5225 
Q 3025 5050 3325 4850 
z
M 5350 800 
Q 5025 650 4612 437 
Q 4200 225 3850 75 
Q 3500 -75 3062 -212 
Q 2625 -350 2150 -450 
Q 1675 -550 1225 -600 
Q 1150 -350 900 -150 
Q 1675 -125 2362 25 
Q 3050 175 3512 387 
Q 3975 600 4312 800 
Q 4650 1000 4900 1250 
Q 5100 1025 5350 800 
z
M 4550 1450 
Q 4350 1375 4037 1200 
Q 3725 1025 3350 862 
Q 2975 700 2512 550 
Q 2050 400 1575 325 
Q 1450 575 1250 775 
Q 1775 800 2175 900 
Q 2575 1000 3075 1212 
Q 3575 1425 4125 1850 
Q 4300 1675 4550 1450 
z
M 3900 2075 
Q 3575 1950 3350 1825 
Q 3125 1700 2687 1525 
Q 2250 1350 1750 1200 
Q 1625 1425 1450 1600 
Q 2025 1700 2587 1937 
Q 3150 2175 3500 2500 
Q 3700 2275 3900 2075 
z
" transform="scale(0.015625)"/>
        <path id="SimHei-8003" d="M 5175 1300 
Q 5125 1000 5012 425 
Q 4900 -150 4775 -300 
Q 4650 -450 4250 -525 
Q 3850 -600 3150 -650 
Q 3125 -325 2975 -100 
Q 4300 -150 4412 75 
Q 4525 300 4600 900 
L 3225 900 
Q 2700 900 2375 800 
Q 2325 1025 2200 1225 
Q 2375 1250 2500 1412 
Q 2625 1575 2775 1900 
L 2275 1900 
Q 2000 1750 1562 1550 
Q 1125 1350 550 1125 
Q 475 1325 250 1550 
Q 825 1700 1600 2037 
Q 2375 2375 3125 2950 
L 1425 2950 
Q 1100 2950 450 2925 
L 450 3375 
Q 1100 3350 1425 3350 
L 2725 3350 
L 2725 4150 
L 2025 4150 
Q 1800 4150 1350 4125 
L 1350 4550 
Q 1800 4525 2000 4525 
L 2725 4525 
Q 2725 5000 2700 5225 
L 3175 5225 
Q 3150 4875 3150 4525 
L 3525 4525 
Q 3700 4525 4325 4550 
L 4325 4125 
Q 3650 4150 3550 4150 
L 3150 4150 
L 3150 3350 
L 3625 3350 
Q 4100 3750 4487 4150 
Q 4875 4550 5075 4850 
Q 5275 4650 5550 4500 
Q 5375 4375 5012 4062 
Q 4650 3750 4225 3350 
L 5250 3350 
Q 5600 3350 6025 3375 
L 6025 2925 
Q 5600 2950 5250 2950 
L 3775 2950 
Q 3475 2725 2900 2300 
L 4675 2300 
Q 5075 2300 5300 2325 
L 5300 1875 
Q 5075 1900 4700 1900 
L 3250 1900 
Q 3125 1625 2950 1300 
L 5175 1300 
z
" transform="scale(0.015625)"/>
        <path id="SimHei-57fa" d="M 1800 4550 
Q 1800 4900 1775 5200 
L 2300 5200 
Q 2275 4875 2275 4550 
L 4075 4550 
Q 4075 4900 4050 5200 
L 4575 5200 
Q 4550 4875 4550 4550 
L 4925 4550 
Q 5200 4550 5625 4575 
L 5625 4175 
Q 5200 4200 4925 4200 
L 4550 4200 
L 4550 2225 
L 5100 2225 
Q 5600 2225 6025 2250 
L 6025 1800 
Q 5625 1850 5125 1850 
L 4500 1850 
Q 4875 1450 5225 1237 
Q 5575 1025 6125 900 
Q 5900 625 5850 350 
Q 5200 650 4737 1037 
Q 4275 1425 4000 1850 
L 2500 1850 
Q 2200 1375 1712 1000 
Q 1225 625 550 350 
Q 475 575 275 825 
Q 700 925 1212 1212 
Q 1725 1500 1950 1850 
L 1300 1850 
Q 850 1850 400 1800 
L 400 2250 
Q 850 2225 1300 2225 
L 1800 2225 
L 1800 4200 
Q 1200 4200 775 4175 
L 775 4575 
Q 1200 4550 1625 4550 
L 1800 4550 
z
M 2950 950 
Q 2950 1200 2925 1575 
L 3475 1575 
Q 3425 1300 3425 950 
L 3900 950 
Q 4250 950 4575 975 
L 4575 500 
Q 4250 550 3875 550 
L 3425 550 
L 3425 -100 
L 4500 -100 
Q 5075 -100 5550 -75 
L 5550 -525 
Q 5075 -500 4500 -500 
L 1800 -500 
Q 1300 -500 850 -525 
L 850 -75 
Q 1275 -100 1800 -100 
L 2950 -100 
L 2950 550 
L 2550 550 
Q 2125 550 1775 525 
L 1775 975 
Q 2125 950 2500 950 
L 2950 950 
z
M 4075 2225 
L 4075 2650 
L 2275 2650 
L 2275 2225 
L 4075 2225 
z
M 4075 3775 
L 4075 4200 
L 2275 4200 
L 2275 3775 
L 4075 3775 
z
M 4075 3025 
L 4075 3375 
L 2275 3375 
L 2275 3025 
L 4075 3025 
z
" transform="scale(0.015625)"/>
        <path id="SimHei-56e0" d="M 5775 4950 
Q 5750 4325 5750 3600 
L 5750 850 
Q 5750 200 5775 -550 
L 5275 -550 
L 5275 -100 
L 1150 -100 
L 1150 -600 
L 650 -600 
Q 675 100 675 850 
L 675 3600 
Q 675 4275 650 4950 
L 5775 4950 
z
M 5275 325 
L 5275 4550 
L 1150 4550 
L 1150 325 
L 5275 325 
z
M 2975 3350 
Q 2975 3975 2950 4275 
Q 3225 4250 3525 4250 
Q 3450 3975 3450 3750 
L 3450 3350 
L 4025 3350 
Q 4425 3350 4950 3375 
L 4950 2900 
Q 4425 2925 4025 2925 
L 3425 2925 
Q 3400 2750 3325 2425 
Q 3625 2250 3975 1975 
Q 4325 1700 4900 1225 
Q 4700 1050 4475 800 
Q 4225 1100 3862 1450 
Q 3500 1800 3200 2025 
Q 3025 1700 2700 1375 
Q 2375 1050 1900 700 
Q 1750 925 1475 1075 
Q 2200 1400 2537 1875 
Q 2875 2350 2925 2925 
L 2475 2925 
Q 2025 2925 1525 2900 
L 1525 3375 
Q 2025 3350 2450 3350 
L 2975 3350 
z
" transform="scale(0.015625)"/>
        <path id="SimHei-5b9e" d="M 4125 3500 
Q 4050 3200 4000 2675 
Q 3950 2150 3850 1550 
L 5025 1550 
Q 5475 1550 5975 1575 
L 5975 1100 
Q 5450 1125 5000 1125 
L 3725 1125 
Q 3500 625 3050 250 
Q 2600 -125 2000 -337 
Q 1400 -550 925 -675 
Q 825 -375 500 -200 
Q 1225 -125 2050 212 
Q 2875 550 3200 1125 
L 1425 1125 
Q 975 1125 425 1100 
L 425 1575 
Q 1000 1550 1425 1550 
L 3375 1550 
Q 3450 1975 3487 2462 
Q 3525 2950 3500 3650 
Q 3800 3550 4125 3500 
z
M 3250 5250 
Q 3450 4850 3600 4375 
L 5775 4375 
Q 5750 4100 5750 3825 
Q 5750 3575 5775 3275 
L 5200 3275 
L 5200 3975 
L 1225 3975 
L 1225 3225 
L 675 3225 
Q 700 3525 700 3800 
Q 700 4100 675 4375 
L 2975 4375 
Q 2900 4675 2700 5075 
Q 2900 5150 3250 5250 
z
M 4000 825 
Q 4550 525 5050 262 
Q 5550 0 5925 -225 
Q 5750 -425 5550 -650 
Q 5100 -325 4575 -37 
Q 4050 250 3675 400 
Q 3875 650 4000 825 
z
M 1175 2750 
Q 1600 2550 2350 2050 
Q 2250 1900 2050 1650 
Q 1350 2175 925 2350 
Q 1075 2500 1175 2750 
z
M 3150 2825 
Q 2975 2625 2850 2425 
Q 2050 3000 1675 3125 
Q 1800 3300 1950 3525 
L 3150 2825 
z
" transform="scale(0.015625)"/>
        <path id="SimHei-9645" d="M 2500 4900 
Q 2425 4700 2250 4100 
Q 2075 3500 1875 2900 
Q 2200 2400 2312 2050 
Q 2425 1700 2362 1412 
Q 2300 1125 2012 912 
Q 1725 700 1350 650 
Q 1225 1050 1125 1225 
Q 1675 1225 1787 1412 
Q 1900 1600 1837 1862 
Q 1775 2125 1662 2375 
Q 1550 2625 1350 2875 
Q 1475 3225 1600 3650 
Q 1725 4075 1850 4475 
L 1025 4475 
L 1025 -525 
L 500 -525 
Q 525 175 525 850 
L 525 3825 
Q 525 4375 500 4900 
L 2500 4900 
z
M 5250 3300 
Q 5650 3300 6050 3325 
L 6050 2850 
Q 5725 2875 5325 2875 
L 4500 2875 
L 4500 75 
Q 4500 -325 4225 -387 
Q 3950 -450 3475 -525 
Q 3450 -225 3275 75 
Q 3775 75 3887 100 
Q 4000 125 4000 275 
L 4000 2875 
L 3375 2875 
Q 2825 2875 2475 2850 
L 2475 3325 
Q 3025 3300 3375 3300 
L 5250 3300 
z
M 4975 4775 
Q 5375 4775 5675 4825 
L 5675 4350 
Q 5375 4375 4975 4375 
L 3650 4375 
Q 3225 4375 2900 4350 
L 2900 4825 
Q 3200 4775 3700 4775 
L 4975 4775 
z
M 2150 200 
Q 2450 700 2662 1187 
Q 2875 1675 3050 2175 
Q 3250 2100 3575 1950 
Q 3325 1500 3112 1000 
Q 2900 500 2650 -25 
Q 2450 75 2150 200 
z
M 5275 2200 
Q 5900 975 6200 350 
Q 5950 250 5675 100 
Q 5300 1025 4800 1925 
Q 4950 2000 5275 2200 
z
" transform="scale(0.015625)"/>
        <path id="SimHei-8bfb" d="M 2250 3600 
Q 2775 3575 3875 3575 
L 3875 4100 
Q 2975 4100 2450 4075 
L 2450 4500 
Q 2775 4475 3875 4475 
Q 3875 4825 3850 5150 
L 4350 5150 
Q 4325 4750 4325 4475 
Q 5375 4475 5825 4500 
L 5825 4075 
Q 5425 4100 4325 4100 
L 4325 3575 
L 6025 3575 
Q 5675 2725 5550 2400 
Q 5375 2475 5125 2575 
Q 5300 3000 5375 3200 
L 3300 3200 
Q 2775 3200 2250 3175 
L 2250 3600 
z
M 4375 925 
Q 4175 425 3850 125 
Q 3525 -175 3162 -362 
Q 2800 -550 2525 -650 
Q 2375 -450 2200 -250 
Q 2850 -125 3312 225 
Q 3775 575 3900 925 
L 3275 925 
Q 2800 925 2275 900 
L 2275 1350 
Q 2725 1325 3275 1325 
L 4025 1325 
Q 4075 1725 4112 2187 
Q 4150 2650 4150 3000 
Q 4375 2925 4675 2900 
Q 4600 2625 4562 2200 
Q 4525 1775 4450 1325 
L 5050 1325 
Q 5500 1325 6075 1350 
L 6075 900 
Q 5600 925 5075 925 
L 4375 925 
z
M 1600 3275 
Q 1575 2850 1575 2350 
L 1575 700 
Q 1775 925 2000 1200 
Q 2075 1000 2250 775 
Q 1900 425 1650 150 
Q 1400 -125 1225 -350 
Q 1100 -150 850 25 
Q 1075 200 1125 425 
L 1125 2875 
Q 825 2875 325 2850 
L 325 3300 
Q 775 3275 1150 3275 
L 1600 3275 
z
M 4650 675 
Q 5575 75 5975 -225 
Q 5800 -400 5650 -625 
Q 5200 -200 4400 275 
Q 4575 500 4650 675 
z
M 1050 5050 
Q 1475 4600 1775 4175 
Q 1575 4050 1375 3875 
Q 1050 4400 675 4750 
Q 900 4900 1050 5050 
z
M 2925 3100 
Q 3575 2675 3900 2475 
Q 3775 2300 3625 2075 
Q 3125 2500 2700 2725 
Q 2825 2925 2925 3100 
z
M 2475 2375 
Q 3050 2050 3450 1800 
Q 3325 1625 3175 1400 
Q 2550 1850 2250 2000 
Q 2375 2175 2475 2375 
z
" transform="scale(0.015625)"/>
        <path id="SimHei-6bb5" d="M 5500 2475 
Q 5350 1775 5100 1237 
Q 4850 700 4600 400 
Q 4825 225 5250 87 
Q 5675 -50 6125 -125 
Q 5950 -275 5825 -650 
Q 5150 -450 4825 -287 
Q 4500 -125 4225 75 
Q 3825 -175 3450 -337 
Q 3075 -500 2625 -650 
Q 2525 -400 2325 -225 
Q 2675 -150 3100 0 
Q 3525 150 3925 425 
Q 3725 675 3525 1150 
Q 3325 1600 3225 2075 
Q 3050 2075 2900 2075 
L 2900 2500 
Q 3375 2475 3800 2475 
L 5500 2475 
z
M 2650 4625 
Q 2300 4550 1887 4475 
Q 1475 4400 1300 4375 
L 1300 3550 
Q 2050 3550 2525 3600 
L 2525 3125 
Q 2050 3150 1300 3150 
L 1300 2350 
Q 2050 2350 2525 2375 
L 2525 1900 
Q 2050 1925 1300 1925 
L 1300 975 
Q 1950 1075 2625 1250 
Q 2600 1000 2600 775 
Q 1900 675 1300 525 
L 1300 100 
Q 1300 -200 1325 -625 
L 800 -625 
Q 825 -200 825 100 
L 825 425 
Q 575 375 350 300 
Q 300 650 250 825 
Q 500 850 825 900 
L 825 3800 
Q 825 4225 800 4725 
Q 1100 4725 1575 4825 
Q 2050 4925 2375 5125 
Q 2475 4850 2650 4625 
z
M 5100 4975 
Q 5075 4600 5075 4275 
L 5075 3650 
Q 5075 3425 5237 3387 
Q 5400 3350 5975 3400 
Q 5875 3225 5850 2950 
L 5075 2950 
Q 4650 2950 4625 3375 
L 4625 4575 
L 3775 4575 
Q 3775 3925 3675 3525 
Q 3575 3125 3200 2725 
Q 3025 2900 2800 3050 
Q 3275 3400 3300 3937 
Q 3325 4475 3300 4975 
L 5100 4975 
z
M 3675 2100 
Q 3775 1675 3962 1287 
Q 4150 900 4275 775 
Q 4450 950 4625 1312 
Q 4800 1675 4900 2100 
L 3800 2100 
L 3675 2100 
z
" transform="scale(0.015625)"/>
        <path id="SimHei-6570" d="M 4525 4925 
Q 4475 4800 4400 4587 
Q 4325 4375 4175 3825 
L 5325 3825 
Q 5575 3825 5925 3850 
L 5925 3400 
Q 5650 3425 5500 3425 
Q 5500 3025 5362 2162 
Q 5225 1300 4875 675 
Q 5125 375 5437 137 
Q 5750 -100 6025 -200 
Q 5725 -425 5625 -625 
Q 5325 -450 5075 -225 
Q 4825 0 4575 325 
Q 4300 25 3987 -187 
Q 3675 -400 3200 -650 
Q 3075 -425 2850 -300 
Q 3225 -150 3650 125 
Q 4075 400 4300 675 
Q 4125 1025 3962 1425 
Q 3800 1825 3675 2475 
Q 3600 2275 3425 1950 
Q 3250 2050 3000 2150 
Q 3400 2850 3650 3675 
Q 3900 4500 3975 5100 
Q 4275 4975 4525 4925 
z
M 2100 2250 
Q 2000 2150 1875 1925 
L 3250 1925 
Q 3100 1300 2725 675 
Q 3125 525 3350 400 
Q 3225 225 3125 25 
Q 2900 175 2450 325 
Q 1950 -225 725 -650 
Q 600 -375 400 -275 
Q 1575 0 2000 475 
Q 1300 650 850 775 
Q 1000 1000 1250 1525 
Q 1000 1525 425 1500 
L 425 1950 
Q 900 1925 1400 1925 
Q 1500 2150 1550 2425 
Q 1825 2325 2100 2250 
z
M 1775 3950 
Q 1775 4550 1750 5100 
L 2250 5100 
Q 2225 4575 2225 3950 
Q 3075 3950 3425 3975 
L 3425 3525 
Q 3075 3550 2225 3550 
Q 2225 2825 2250 2425 
L 1750 2425 
Q 1775 2775 1775 3300 
Q 1650 3100 1300 2787 
Q 950 2475 650 2300 
Q 525 2525 275 2625 
Q 500 2700 875 2975 
Q 1250 3250 1450 3550 
Q 950 3550 500 3525 
L 500 3975 
Q 925 3950 1775 3950 
z
M 3975 3175 
Q 4200 1700 4600 1125 
Q 4850 1700 4937 2287 
Q 5025 2875 5050 3425 
L 4075 3425 
L 3975 3175 
z
M 1450 1000 
Q 1750 925 2275 800 
Q 2475 1050 2650 1525 
L 1725 1525 
Q 1600 1275 1450 1000 
z
M 3325 4825 
Q 3200 4625 3125 4450 
Q 3050 4275 2925 4025 
Q 2725 4125 2525 4175 
Q 2725 4500 2900 5000 
Q 3150 4875 3325 4825 
z
M 2575 3375 
Q 2900 3050 3200 2725 
Q 3050 2600 2875 2425 
Q 2525 2850 2300 3100 
Q 2450 3225 2575 3375 
z
M 925 5000 
Q 1275 4650 1500 4300 
L 1125 4075 
Q 950 4425 600 4725 
Q 825 4875 925 5000 
z
" transform="scale(0.015625)"/>
       </defs>
       <use xlink:href="#SimHei-53c2"/>
       <use xlink:href="#SimHei-8003" transform="translate(100 0)"/>
       <use xlink:href="#SimHei-57fa" transform="translate(200 0)"/>
       <use xlink:href="#SimHei-56e0" transform="translate(300 0)"/>
       <use xlink:href="#SimHei-5b9e" transform="translate(400 0)"/>
       <use xlink:href="#SimHei-9645" transform="translate(500 0)"/>
       <use xlink:href="#SimHei-8bfb" transform="translate(600 0)"/>
       <use xlink:href="#SimHei-6bb5" transform="translate(700 0)"/>
       <use xlink:href="#SimHei-6570" transform="translate(800 0)"/>
      </g>
     </g>
    </g>
    <g id="ytick_8">
     <g id="line2d_14">
      <path d="M 127.69 340.524594 
L 709.2 340.524594 
" clip-path="url(#p3e479432df)" style="fill: none; stroke: #cccccc; stroke-width: 0.8; stroke-linecap: round"/>
     </g>
     <g id="text_15">
      <!-- 13号染色体的Z值 -->
      <g style="fill: #262626" transform="translate(45.69 344.489437) scale(0.1 -0.1)">
       <use xlink:href="#SimHei-31"/>
       <use xlink:href="#SimHei-33" transform="translate(50 0)"/>
       <use xlink:href="#SimHei-53f7" transform="translate(100 0)"/>
       <use xlink:href="#SimHei-67d3" transform="translate(200 0)"/>
       <use xlink:href="#SimHei-8272" transform="translate(300 0)"/>
       <use xlink:href="#SimHei-4f53" transform="translate(400 0)"/>
       <use xlink:href="#SimHei-7684" transform="translate(500 0)"/>
       <use xlink:href="#SimHei-5a" transform="translate(600 0)"/>
       <use xlink:href="#SimHei-503c" transform="translate(650 0)"/>
      </g>
     </g>
    </g>
    <g id="ytick_9">
     <g id="line2d_15">
      <path d="M 127.69 379.765156 
L 709.2 379.765156 
" clip-path="url(#p3e479432df)" style="fill: none; stroke: #cccccc; stroke-width: 0.8; stroke-linecap: round"/>
     </g>
     <g id="text_16">
      <!-- 参考基因唯一比对读段数 -->
      <g style="fill: #262626" transform="translate(10.69 383.808125) scale(0.1 -0.1)">
       <defs>
        <path id="SimHei-552f" d="M 3750 5075 
Q 3575 4900 3325 4175 
L 5000 4175 
Q 5500 4175 5950 4200 
L 5950 3775 
Q 5475 3800 5000 3800 
L 4725 3800 
L 4725 2925 
Q 5400 2925 5800 2950 
L 5800 2500 
Q 5400 2525 4725 2525 
L 4725 1625 
Q 5425 1625 5825 1650 
L 5825 1225 
Q 5425 1250 4725 1250 
L 4725 350 
L 5125 350 
Q 5650 350 6175 375 
L 6175 -75 
Q 5650 -50 5125 -50 
L 3275 -50 
L 3275 -700 
L 2800 -700 
Q 2825 0 2825 500 
L 2825 3000 
Q 2675 2625 2450 2275 
Q 2325 2425 2075 2525 
L 2075 1850 
Q 2075 1325 2100 500 
L 1625 500 
L 1625 975 
L 925 975 
L 925 -50 
L 450 -50 
Q 475 750 475 1400 
L 475 3500 
Q 475 4050 450 4600 
L 2100 4600 
Q 2075 4050 2075 3500 
L 2075 2575 
Q 2425 3050 2712 3837 
Q 3000 4625 3125 5275 
Q 3500 5125 3750 5075 
z
M 1625 1375 
L 1625 4200 
L 925 4200 
L 925 1375 
L 1625 1375 
z
M 4275 1625 
L 4275 2525 
L 3275 2525 
L 3275 1625 
L 4275 1625 
z
M 4275 350 
L 4275 1250 
L 3275 1250 
L 3275 350 
L 4275 350 
z
M 4275 2925 
L 4275 3800 
L 3275 3800 
L 3275 2925 
L 4275 2925 
z
M 4125 5000 
Q 4325 5100 4525 5275 
Q 4800 4875 4975 4500 
Q 4750 4400 4500 4250 
Q 4400 4575 4125 5000 
z
" transform="scale(0.015625)"/>
        <path id="SimHei-4e00" d="M 4875 2675 
Q 5525 2675 6050 2700 
L 6050 2050 
Q 5525 2075 4900 2075 
L 1600 2075 
Q 950 2075 350 2050 
L 350 2700 
Q 950 2675 1600 2675 
L 4875 2675 
z
" transform="scale(0.015625)"/>
        <path id="SimHei-6bd4" d="M 3775 5100 
Q 3750 4575 3750 4100 
L 3750 3050 
Q 4925 3600 5475 4175 
Q 5675 3900 5900 3675 
Q 5600 3500 5037 3187 
Q 4475 2875 3750 2550 
L 3750 450 
Q 3750 100 4050 100 
L 5000 100 
Q 5175 100 5262 250 
Q 5350 400 5450 900 
Q 5650 775 6025 675 
Q 5850 0 5650 -175 
Q 5450 -350 5225 -350 
L 3900 -350 
Q 3250 -350 3250 275 
L 3250 4000 
Q 3250 4550 3225 5100 
L 3775 5100 
z
M 1275 4975 
Q 1250 4575 1250 4000 
L 1250 3150 
L 1850 3150 
Q 2325 3150 2875 3175 
L 2875 2650 
Q 2325 2675 1850 2675 
L 1250 2675 
L 1250 475 
Q 1650 650 1962 812 
Q 2275 975 2850 1275 
Q 2900 950 2950 750 
Q 2375 475 1762 175 
Q 1150 -125 925 -325 
Q 750 -100 575 200 
Q 700 300 750 600 
L 750 3950 
Q 750 4550 725 4975 
L 1275 4975 
z
" transform="scale(0.015625)"/>
        <path id="SimHei-5bf9" d="M 525 4250 
Q 900 4225 1400 4225 
L 2825 4225 
Q 2575 2625 2200 1750 
Q 2825 875 3125 400 
Q 2950 275 2725 75 
Q 2200 975 1950 1300 
Q 1650 775 1350 425 
Q 1050 75 600 -350 
Q 425 -125 200 -25 
Q 625 275 975 675 
Q 1325 1075 1650 1700 
Q 1050 2425 550 2900 
Q 700 3025 900 3225 
Q 1625 2425 1875 2150 
Q 2200 3050 2300 3825 
L 1400 3825 
Q 900 3825 525 3800 
L 525 4250 
z
M 2925 3700 
Q 3525 3675 3750 3675 
L 4825 3675 
L 4825 4425 
Q 4825 4750 4775 5125 
L 5350 5125 
Q 5325 4825 5325 4375 
L 5325 3675 
Q 5575 3675 6150 3700 
L 6150 3250 
Q 5575 3275 5325 3275 
L 5325 125 
Q 5350 -350 5012 -475 
Q 4675 -600 4250 -650 
Q 4175 -350 4025 -100 
Q 4575 -100 4712 -37 
Q 4850 25 4825 325 
L 4825 3275 
L 3775 3275 
Q 3550 3275 2925 3225 
L 2925 3700 
z
M 3450 2725 
Q 3875 1975 4175 1325 
Q 3850 1200 3700 1075 
Q 3475 1750 3050 2475 
Q 3225 2550 3450 2725 
z
" transform="scale(0.015625)"/>
       </defs>
       <use xlink:href="#SimHei-53c2"/>
       <use xlink:href="#SimHei-8003" transform="translate(100 0)"/>
       <use xlink:href="#SimHei-57fa" transform="translate(200 0)"/>
       <use xlink:href="#SimHei-56e0" transform="translate(300 0)"/>
       <use xlink:href="#SimHei-552f" transform="translate(400 0)"/>
       <use xlink:href="#SimHei-4e00" transform="translate(500 0)"/>
       <use xlink:href="#SimHei-6bd4" transform="translate(600 0)"/>
       <use xlink:href="#SimHei-5bf9" transform="translate(700 0)"/>
       <use xlink:href="#SimHei-8bfb" transform="translate(800 0)"/>
       <use xlink:href="#SimHei-6bb5" transform="translate(900 0)"/>
       <use xlink:href="#SimHei-6570" transform="translate(1000 0)"/>
      </g>
     </g>
    </g>
    <g id="ytick_10">
     <g id="line2d_16">
      <path d="M 127.69 419.005718 
L 709.2 419.005718 
" clip-path="url(#p3e479432df)" style="fill: none; stroke: #cccccc; stroke-width: 0.8; stroke-linecap: round"/>
     </g>
     <g id="text_17">
      <!-- 21号染色体的Z值 -->
      <g style="fill: #262626" transform="translate(45.69 422.970562) scale(0.1 -0.1)">
       <use xlink:href="#SimHei-32"/>
       <use xlink:href="#SimHei-31" transform="translate(50 0)"/>
       <use xlink:href="#SimHei-53f7" transform="translate(100 0)"/>
       <use xlink:href="#SimHei-67d3" transform="translate(200 0)"/>
       <use xlink:href="#SimHei-8272" transform="translate(300 0)"/>
       <use xlink:href="#SimHei-4f53" transform="translate(400 0)"/>
       <use xlink:href="#SimHei-7684" transform="translate(500 0)"/>
       <use xlink:href="#SimHei-5a" transform="translate(600 0)"/>
       <use xlink:href="#SimHei-503c" transform="translate(650 0)"/>
      </g>
     </g>
    </g>
    <g id="ytick_11">
     <g id="line2d_17">
      <path d="M 127.69 458.246281 
L 709.2 458.246281 
" clip-path="url(#p3e479432df)" style="fill: none; stroke: #cccccc; stroke-width: 0.8; stroke-linecap: round"/>
     </g>
     <g id="text_18">
      <!-- 参考基因读段数 -->
      <g style="fill: #262626" transform="translate(50.69 462.211125) scale(0.1 -0.1)">
       <use xlink:href="#SimHei-53c2"/>
       <use xlink:href="#SimHei-8003" transform="translate(100 0)"/>
       <use xlink:href="#SimHei-57fa" transform="translate(200 0)"/>
       <use xlink:href="#SimHei-56e0" transform="translate(300 0)"/>
       <use xlink:href="#SimHei-8bfb" transform="translate(400 0)"/>
       <use xlink:href="#SimHei-6bb5" transform="translate(500 0)"/>
       <use xlink:href="#SimHei-6570" transform="translate(600 0)"/>
      </g>
     </g>
    </g>
    <g id="ytick_12">
     <g id="line2d_18">
      <path d="M 127.69 497.486843 
L 709.2 497.486843 
" clip-path="url(#p3e479432df)" style="fill: none; stroke: #cccccc; stroke-width: 0.8; stroke-linecap: round"/>
     </g>
     <g id="text_19">
      <!-- X染色体的Z值 -->
      <g style="fill: #262626" transform="translate(60.69 501.451687) scale(0.1 -0.1)">
       <use xlink:href="#SimHei-58"/>
       <use xlink:href="#SimHei-67d3" transform="translate(50 0)"/>
       <use xlink:href="#SimHei-8272" transform="translate(150 0)"/>
       <use xlink:href="#SimHei-4f53" transform="translate(250 0)"/>
       <use xlink:href="#SimHei-7684" transform="translate(350 0)"/>
       <use xlink:href="#SimHei-5a" transform="translate(450 0)"/>
       <use xlink:href="#SimHei-503c" transform="translate(500 0)"/>
      </g>
     </g>
    </g>
   </g>
   <g id="patch_3">
    <path d="M 127.69 50.144432 
L 681.509048 50.144432 
L 681.509048 81.536882 
L 127.69 81.536882 
z
" clip-path="url(#p3e479432df)" style="fill: #1f77b4; stroke: #ffffff; stroke-linejoin: miter"/>
   </g>
   <g id="patch_4">
    <path d="M 127.69 89.384994 
L 493.752556 89.384994 
L 493.752556 120.777444 
L 127.69 120.777444 
z
" clip-path="url(#p3e479432df)" style="fill: #1f77b4; stroke: #ffffff; stroke-linejoin: miter"/>
   </g>
   <g id="patch_5">
    <path d="M 127.69 128.625557 
L 357.365586 128.625557 
L 357.365586 160.018007 
L 127.69 160.018007 
z
" clip-path="url(#p3e479432df)" style="fill: #1f77b4; stroke: #ffffff; stroke-linejoin: miter"/>
   </g>
   <g id="patch_6">
    <path d="M 127.69 167.866119 
L 342.859909 167.866119 
L 342.859909 199.258569 
L 127.69 199.258569 
z
" clip-path="url(#p3e479432df)" style="fill: #1f77b4; stroke: #ffffff; stroke-linejoin: miter"/>
   </g>
   <g id="patch_7">
    <path d="M 127.69 207.106681 
L 302.145358 207.106681 
L 302.145358 238.499131 
L 127.69 238.499131 
z
" clip-path="url(#p3e479432df)" style="fill: #1f77b4; stroke: #ffffff; stroke-linejoin: miter"/>
   </g>
   <g id="patch_8">
    <path d="M 127.69 246.347244 
L 288.175169 246.347244 
L 288.175169 277.739694 
L 127.69 277.739694 
z
" clip-path="url(#p3e479432df)" style="fill: #1f77b4; stroke: #ffffff; stroke-linejoin: miter"/>
   </g>
   <g id="patch_9">
    <path d="M 127.69 285.587806 
L 247.521784 285.587806 
L 247.521784 316.980256 
L 127.69 316.980256 
z
" clip-path="url(#p3e479432df)" style="fill: #1f77b4; stroke: #ffffff; stroke-linejoin: miter"/>
   </g>
   <g id="patch_10">
    <path d="M 127.69 324.828369 
L 226.303004 324.828369 
L 226.303004 356.220819 
L 127.69 356.220819 
z
" clip-path="url(#p3e479432df)" style="fill: #1f77b4; stroke: #ffffff; stroke-linejoin: miter"/>
   </g>
   <g id="patch_11">
    <path d="M 127.69 364.068931 
L 225.422354 364.068931 
L 225.422354 395.461381 
L 127.69 395.461381 
z
" clip-path="url(#p3e479432df)" style="fill: #1f77b4; stroke: #ffffff; stroke-linejoin: miter"/>
   </g>
   <g id="patch_12">
    <path d="M 127.69 403.309493 
L 218.595447 403.309493 
L 218.595447 434.701943 
L 127.69 434.701943 
z
" clip-path="url(#p3e479432df)" style="fill: #1f77b4; stroke: #ffffff; stroke-linejoin: miter"/>
   </g>
   <g id="patch_13">
    <path d="M 127.69 442.550056 
L 214.1822 442.550056 
L 214.1822 473.942506 
L 127.69 473.942506 
z
" clip-path="url(#p3e479432df)" style="fill: #1f77b4; stroke: #ffffff; stroke-linejoin: miter"/>
   </g>
   <g id="patch_14">
    <path d="M 127.69 481.790618 
L 198.828876 481.790618 
L 198.828876 513.183068 
L 127.69 513.183068 
z
" clip-path="url(#p3e479432df)" style="fill: #1f77b4; stroke: #ffffff; stroke-linejoin: miter"/>
   </g>
   <g id="patch_15">
    <path d="M 127.69 536.335 
L 127.69 26.9925 
" style="fill: none; stroke: #cccccc; stroke-width: 0.8; stroke-linejoin: miter; stroke-linecap: square"/>
   </g>
   <g id="patch_16">
    <path d="M 709.2 536.335 
L 709.2 26.9925 
" style="fill: none; stroke: #cccccc; stroke-width: 0.8; stroke-linejoin: miter; stroke-linecap: square"/>
   </g>
   <g id="patch_17">
    <path d="M 127.69 536.335 
L 709.2 536.335 
" style="fill: none; stroke: #cccccc; stroke-width: 0.8; stroke-linejoin: miter; stroke-linecap: square"/>
   </g>
   <g id="patch_18">
    <path d="M 127.69 26.9925 
L 709.2 26.9925 
" style="fill: none; stroke: #cccccc; stroke-width: 0.8; stroke-linejoin: miter; stroke-linecap: square"/>
   </g>
   <g id="text_20">
    <!-- 随机森林特征重要性排序 -->
    <g style="fill: #262626" transform="translate(352.445 20.9925) scale(0.12 -0.12)">
     <defs>
      <path id="SimHei-968f" d="M 4050 4425 
Q 4325 5025 4350 5300 
Q 4675 5150 4950 5075 
Q 4825 4925 4525 4400 
L 5350 4400 
Q 5725 4400 6075 4425 
L 6075 4000 
Q 5775 4025 5350 4025 
L 4400 4025 
Q 4200 3675 3975 3350 
L 5800 3350 
Q 5775 3000 5775 2525 
L 5775 850 
Q 5775 600 5612 525 
Q 5450 450 5050 375 
Q 5025 600 4900 850 
Q 5350 775 5300 1250 
L 4175 1250 
L 4175 425 
L 3700 425 
Q 3725 775 3725 1200 
L 3725 3000 
L 3550 2725 
Q 3350 2900 3125 3000 
Q 3525 3350 3875 4025 
Q 3675 4025 3325 4000 
L 3325 4450 
Q 3675 4425 4050 4425 
z
M 2225 4900 
Q 2125 4725 1575 2925 
Q 1875 2525 2037 2150 
Q 2200 1775 2187 1462 
Q 2175 1150 1900 937 
Q 1625 725 1325 650 
Q 1275 875 1075 1200 
Q 1500 1200 1612 1350 
Q 1725 1500 1625 1900 
Q 1525 2300 1075 2875 
Q 1475 4025 1575 4550 
L 875 4550 
L 875 -625 
L 400 -625 
Q 425 0 425 675 
L 425 3800 
Q 425 4425 400 4900 
L 2225 4900 
z
M 3100 2825 
Q 3075 2475 3075 2050 
L 3075 525 
Q 3125 300 3750 175 
Q 4375 50 4787 37 
Q 5200 25 5500 37 
Q 5800 50 6175 125 
Q 6025 -150 6025 -425 
Q 5350 -425 4837 -387 
Q 4325 -350 3912 -262 
Q 3500 -175 3200 -25 
Q 2900 125 2737 -12 
Q 2575 -150 2300 -475 
Q 2150 -275 1950 -125 
Q 2275 175 2625 400 
L 2625 2425 
L 2175 2425 
L 2175 2850 
Q 2425 2825 3100 2825 
z
M 5300 1600 
L 5300 2125 
L 4175 2125 
L 4175 1600 
L 5300 1600 
z
M 5300 2475 
L 5300 3000 
L 4175 3000 
L 4175 2475 
L 5300 2475 
z
M 2750 4575 
Q 2975 4000 3125 3425 
Q 2875 3400 2625 3275 
Q 2500 3900 2275 4425 
Q 2525 4475 2750 4575 
z
" transform="scale(0.015625)"/>
      <path id="SimHei-673a" d="M 5100 4775 
Q 5075 4075 5075 3575 
L 5075 325 
Q 5075 0 5225 -25 
Q 5375 -50 5475 -37 
Q 5575 -25 5612 137 
Q 5650 300 5650 625 
Q 5875 500 6175 425 
Q 6075 -100 5975 -275 
Q 5875 -450 5650 -450 
L 5125 -450 
Q 4825 -450 4687 -312 
Q 4550 -175 4575 250 
L 4575 4350 
L 3625 4350 
Q 3625 2925 3587 2137 
Q 3550 1350 3362 712 
Q 3175 75 2625 -575 
Q 2500 -425 2175 -175 
Q 2525 100 2737 500 
Q 2950 900 3025 1325 
Q 3100 1750 3125 2225 
Q 3150 2700 3150 3425 
Q 3150 4175 3125 4775 
L 5100 4775 
z
M 2150 2725 
Q 2550 2175 2750 1875 
Q 2575 1725 2325 1550 
Q 2175 1875 1800 2425 
L 1800 600 
Q 1800 100 1825 -525 
L 1275 -525 
Q 1300 100 1300 600 
L 1300 2200 
Q 1175 1825 1025 1487 
Q 875 1150 600 725 
Q 375 975 200 1125 
Q 400 1350 725 2000 
Q 1050 2650 1225 3450 
L 1075 3450 
Q 725 3450 375 3400 
L 375 3875 
Q 725 3850 1050 3850 
L 1300 3850 
L 1300 4350 
Q 1300 4750 1275 5100 
L 1850 5100 
Q 1800 4850 1800 4350 
L 1800 3850 
L 2075 3850 
Q 2350 3850 2700 3875 
L 2700 3425 
Q 2150 3450 1800 3450 
L 1800 2450 
Q 1950 2575 2150 2725 
z
" transform="scale(0.015625)"/>
      <path id="SimHei-68ee" d="M 2950 4475 
Q 2950 4875 2925 5100 
L 3425 5100 
Q 3400 4850 3400 4475 
L 4850 4475 
Q 5225 4475 5625 4500 
L 5625 4050 
Q 5225 4075 4875 4075 
L 4000 4075 
Q 4225 3675 4750 3437 
Q 5275 3200 5875 3175 
Q 5650 2925 5575 2700 
Q 4675 2875 4162 3275 
Q 3650 3675 3500 4075 
L 3400 4075 
Q 3400 2950 3425 2500 
L 2925 2500 
Q 2950 2875 2950 4075 
L 2925 4075 
Q 2600 3600 2150 3250 
Q 1700 2900 925 2550 
Q 850 2775 575 2975 
Q 1075 3100 1562 3375 
Q 2050 3650 2375 4075 
Q 1150 4075 800 4050 
L 800 4500 
Q 1200 4475 1725 4475 
L 2950 4475 
z
M 4100 2075 
Q 4100 2325 4075 2625 
L 4550 2625 
Q 4525 2350 4525 2075 
Q 5500 2075 5925 2100 
L 5925 1675 
Q 5475 1700 4850 1700 
Q 5000 1300 5337 887 
Q 5675 475 6125 250 
Q 5875 75 5725 -125 
Q 5475 75 5150 425 
Q 4825 775 4525 1400 
L 4525 425 
Q 4525 0 4550 -500 
L 4075 -500 
Q 4100 -75 4100 400 
L 4100 1300 
Q 3900 775 3625 387 
Q 3350 0 3100 -275 
Q 2900 -75 2600 25 
Q 3125 400 3387 837 
Q 3650 1275 3775 1700 
Q 3550 1700 3200 1675 
L 3200 2100 
Q 3525 2075 4100 2075 
z
M 1700 2075 
Q 1700 2325 1675 2600 
L 2150 2600 
Q 2125 2300 2125 2075 
Q 2525 2075 2875 2100 
L 2875 1675 
Q 2500 1700 2125 1700 
L 2125 400 
Q 2125 -25 2150 -525 
L 1675 -525 
Q 1700 -125 1700 400 
L 1700 1250 
Q 1450 775 1237 487 
Q 1025 200 750 -100 
Q 650 125 325 225 
Q 675 500 950 875 
Q 1225 1250 1400 1700 
Q 850 1700 425 1675 
L 425 2100 
Q 850 2075 1700 2075 
z
M 2525 1450 
Q 2850 1175 3125 900 
Q 2925 750 2750 600 
Q 2600 800 2200 1175 
Q 2375 1275 2525 1450 
z
" transform="scale(0.015625)"/>
      <path id="SimHei-6797" d="M 2925 3850 
Q 3200 3825 3500 3825 
L 3950 3825 
L 3950 4575 
Q 3950 4925 3900 5200 
L 4475 5200 
Q 4450 5050 4450 4550 
L 4450 3825 
L 5200 3825 
Q 5575 3825 5925 3875 
L 5925 3400 
Q 5600 3425 5250 3425 
L 4525 3425 
Q 4700 2850 4925 2475 
Q 5150 2100 5387 1825 
Q 5625 1550 5850 1400 
Q 6075 1250 6200 1175 
Q 6075 1025 5975 912 
Q 5875 800 5775 650 
Q 5125 1250 4825 1750 
Q 4525 2225 4450 2525 
L 4450 325 
Q 4450 -50 4475 -500 
L 3925 -500 
Q 3950 50 3950 325 
L 3950 2525 
Q 3600 1700 3300 1200 
Q 3000 700 2775 475 
Q 2550 650 2275 825 
Q 2600 1125 2862 1500 
Q 3125 1875 3350 2287 
Q 3575 2700 3825 3425 
L 3525 3425 
Q 3225 3425 2925 3400 
L 2925 3850 
z
M 1250 4450 
Q 1250 4825 1225 5175 
L 1800 5175 
Q 1775 4875 1775 4450 
L 1775 3825 
Q 2150 3825 2600 3850 
L 2600 3400 
Q 2150 3425 1775 3425 
L 1775 2575 
Q 1950 2700 2175 2800 
Q 2325 2575 2675 1950 
Q 2475 1850 2200 1675 
Q 2075 2000 1775 2500 
L 1775 550 
Q 1775 25 1800 -500 
L 1225 -500 
Q 1250 50 1250 550 
L 1250 2250 
Q 1025 1575 600 875 
Q 525 1000 250 1425 
Q 500 1725 737 2162 
Q 975 2600 1200 3425 
Q 775 3425 375 3400 
L 375 3850 
Q 875 3825 1250 3825 
L 1250 4450 
z
" transform="scale(0.015625)"/>
      <path id="SimHei-6392" d="M 225 1825 
Q 675 1900 1150 2075 
L 1150 3425 
L 950 3425 
Q 650 3425 350 3400 
L 350 3850 
Q 600 3825 950 3825 
L 1150 3825 
L 1150 4500 
Q 1150 4850 1125 5175 
L 1675 5175 
Q 1625 4900 1625 4500 
L 1625 3825 
Q 2075 3825 2275 3850 
L 2275 3400 
Q 1875 3425 1625 3425 
L 1625 2225 
Q 1950 2325 2275 2500 
Q 2275 2200 2300 2050 
Q 2075 1975 1625 1800 
L 1625 -100 
Q 1600 -425 1412 -500 
Q 1225 -575 700 -650 
Q 600 -225 450 -75 
Q 875 -125 1000 -112 
Q 1125 -100 1150 75 
L 1150 1650 
Q 850 1550 450 1300 
Q 375 1525 225 1825 
z
M 5050 5125 
Q 5025 4800 5025 4300 
L 5025 4000 
Q 5700 4000 6100 4050 
L 6100 3575 
Q 5725 3600 5525 3600 
L 5025 3600 
L 5025 2625 
Q 5625 2625 5950 2650 
L 5950 2175 
Q 5625 2200 5025 2200 
L 5025 1075 
Q 5750 1075 6150 1100 
L 6150 625 
Q 5850 650 5025 650 
L 5025 275 
Q 5025 75 5050 -600 
L 4550 -600 
L 4550 4300 
Q 4550 4850 4525 5125 
L 5050 5125 
z
M 3425 4350 
Q 3425 4925 3400 5150 
L 3925 5150 
Q 3900 4800 3900 4250 
L 3900 -600 
L 3400 -600 
Q 3425 -50 3425 275 
L 3425 650 
Q 2625 650 2225 625 
L 2225 1100 
Q 2550 1075 3425 1075 
L 3425 2200 
Q 2775 2200 2525 2150 
L 2525 2650 
Q 2750 2625 3425 2625 
L 3425 3600 
Q 2700 3600 2450 3575 
L 2450 4050 
Q 2725 4000 3425 4000 
L 3425 4350 
z
" transform="scale(0.015625)"/>
      <path id="SimHei-5e8f" d="M 4000 2075 
L 5975 2075 
Q 5750 1525 5575 1025 
Q 5325 1100 5050 1150 
Q 5175 1450 5275 1700 
L 4050 1700 
L 4050 150 
Q 4050 -375 3762 -462 
Q 3475 -550 2950 -575 
Q 2875 -300 2750 0 
Q 3350 -75 3475 25 
Q 3600 125 3575 375 
L 3575 1700 
L 2450 1700 
Q 2050 1700 1675 1675 
L 1675 2100 
Q 2100 2075 2425 2075 
L 3675 2075 
Q 3325 2400 2875 2775 
Q 2975 2875 3250 3100 
Q 3400 2975 3725 2725 
L 4575 3275 
L 3000 3275 
Q 2400 3275 1950 3250 
L 1950 3700 
Q 2400 3675 3000 3675 
L 5400 3675 
L 5400 3250 
Q 4700 2875 4025 2450 
L 4275 2250 
L 4000 2075 
z
M 3725 5275 
Q 3825 4925 3925 4525 
L 4850 4525 
Q 5425 4525 6000 4550 
L 6000 4125 
Q 5425 4150 4850 4150 
L 1400 4150 
Q 1400 2750 1362 2137 
Q 1325 1525 1200 887 
Q 1075 250 775 -350 
Q 625 -250 250 -125 
Q 475 300 600 700 
Q 725 1100 800 1637 
Q 875 2175 875 2825 
Q 875 3500 850 4525 
L 3350 4525 
Q 3275 4825 3150 5150 
Q 3425 5200 3725 5275 
z
" transform="scale(0.015625)"/>
     </defs>
     <use xlink:href="#SimHei-968f"/>
     <use xlink:href="#SimHei-673a" transform="translate(100 0)"/>
     <use xlink:href="#SimHei-68ee" transform="translate(200 0)"/>
     <use xlink:href="#SimHei-6797" transform="translate(300 0)"/>
     <use xlink:href="#SimHei-7279" transform="translate(400 0)"/>
     <use xlink:href="#SimHei-5f81" transform="translate(500 0)"/>
     <use xlink:href="#SimHei-91cd" transform="translate(600 0)"/>
     <use xlink:href="#SimHei-8981" transform="translate(700 0)"/>
     <use xlink:href="#SimHei-6027" transform="translate(800 0)"/>
     <use xlink:href="#SimHei-6392" transform="translate(900 0)"/>
     <use xlink:href="#SimHei-5e8f" transform="translate(1000 0)"/>
    </g>
   </g>
  </g>
 </g>
 <defs>
  <clipPath id="p3e479432df">
   <rect x="127.69" y="26.9925" width="581.51" height="509.3425"/>
  </clipPath>
 </defs>
</svg>
