<?xml version="1.0" encoding="utf-8" standalone="no"?>
<!DOCTYPE svg PUBLIC "-//W3C//DTD SVG 1.1//EN"
  "http://www.w3.org/Graphics/SVG/1.1/DTD/svg11.dtd">
<svg xmlns:xlink="http://www.w3.org/1999/xlink" width="784.47625pt" height="568.270154pt" viewBox="0 0 784.47625 568.270154" xmlns="http://www.w3.org/2000/svg" version="1.1">
 <metadata>
  <rdf:RDF xmlns:dc="http://purl.org/dc/elements/1.1/" xmlns:cc="http://creativecommons.org/ns#" xmlns:rdf="http://www.w3.org/1999/02/22-rdf-syntax-ns#">
   <cc:Work>
    <dc:type rdf:resource="http://purl.org/dc/dcmitype/StillImage"/>
    <dc:date>2025-09-07T14:54:06.764227</dc:date>
    <dc:format>image/svg+xml</dc:format>
    <dc:creator>
     <cc:Agent>
      <dc:title>Matplotlib v3.10.5, https://matplotlib.org/</dc:title>
     </cc:Agent>
    </dc:creator>
   </cc:Work>
  </rdf:RDF>
 </metadata>
 <defs>
  <style type="text/css">*{stroke-linejoin: round; stroke-linecap: butt}</style>
 </defs>
 <g id="figure_1">
  <g id="patch_1">
   <path d="M -0 568.270154 
L 784.47625 568.270154 
L 784.47625 0 
L -0 0 
z
" style="fill: #ffffff"/>
  </g>
  <g id="axes_1">
   <g id="patch_2">
    <path d="M 54.16875 461.656964 
L 777.27625 461.656964 
L 777.27625 26.075 
L 54.16875 26.075 
z
" style="fill: #ffffff"/>
   </g>
   <g id="patch_3">
    <path d="M 87.037273 243.865982 
L 125.145705 243.865982 
L 125.145705 256.493905 
L 87.037273 256.493905 
z
" clip-path="url(#p5a12b3d460)" style="fill: #ff0000; opacity: 0.7"/>
   </g>
   <g id="patch_4">
    <path d="M 134.672813 243.865982 
L 172.781245 243.865982 
L 172.781245 232.001307 
L 134.672813 232.001307 
z
" clip-path="url(#p5a12b3d460)" style="fill: #0000ff; opacity: 0.7"/>
   </g>
   <g id="patch_5">
    <path d="M 182.308353 243.865982 
L 220.416785 243.865982 
L 220.416785 252.974142 
L 182.308353 252.974142 
z
" clip-path="url(#p5a12b3d460)" style="fill: #ff0000; opacity: 0.7"/>
   </g>
   <g id="patch_6">
    <path d="M 229.943893 243.865982 
L 268.052325 243.865982 
L 268.052325 252.213549 
L 229.943893 252.213549 
z
" clip-path="url(#p5a12b3d460)" style="fill: #ff0000; opacity: 0.7"/>
   </g>
   <g id="patch_7">
    <path d="M 277.579433 243.865982 
L 315.687866 243.865982 
L 315.687866 251.676019 
L 277.579433 251.676019 
z
" clip-path="url(#p5a12b3d460)" style="fill: #ff0000; opacity: 0.7"/>
   </g>
   <g id="patch_8">
    <path d="M 325.214974 243.865982 
L 363.323406 243.865982 
L 363.323406 251.221327 
L 325.214974 251.221327 
z
" clip-path="url(#p5a12b3d460)" style="fill: #ff0000; opacity: 0.7"/>
   </g>
   <g id="patch_9">
    <path d="M 372.850514 243.865982 
L 410.958946 243.865982 
L 410.958946 238.846693 
L 372.850514 238.846693 
z
" clip-path="url(#p5a12b3d460)" style="fill: #0000ff; opacity: 0.7"/>
   </g>
   <g id="patch_10">
    <path d="M 420.486054 243.865982 
L 458.594486 243.865982 
L 458.594486 239.788286 
L 420.486054 239.788286 
z
" clip-path="url(#p5a12b3d460)" style="fill: #0000ff; opacity: 0.7"/>
   </g>
   <g id="patch_11">
    <path d="M 468.121594 243.865982 
L 506.230026 243.865982 
L 506.230026 247.697588 
L 468.121594 247.697588 
z
" clip-path="url(#p5a12b3d460)" style="fill: #ff0000; opacity: 0.7"/>
   </g>
   <g id="patch_12">
    <path d="M 515.757134 243.865982 
L 553.865567 243.865982 
L 553.865567 247.599588 
L 515.757134 247.599588 
z
" clip-path="url(#p5a12b3d460)" style="fill: #ff0000; opacity: 0.7"/>
   </g>
   <g id="patch_13">
    <path d="M 563.392675 243.865982 
L 601.501107 243.865982 
L 601.501107 240.205892 
L 563.392675 240.205892 
z
" clip-path="url(#p5a12b3d460)" style="fill: #0000ff; opacity: 0.7"/>
   </g>
   <g id="patch_14">
    <path d="M 611.028215 243.865982 
L 649.136647 243.865982 
L 649.136647 246.295323 
L 611.028215 246.295323 
z
" clip-path="url(#p5a12b3d460)" style="fill: #ff0000; opacity: 0.7"/>
   </g>
   <g id="patch_15">
    <path d="M 658.663755 243.865982 
L 696.772187 243.865982 
L 696.772187 245.988054 
L 658.663755 245.988054 
z
" clip-path="url(#p5a12b3d460)" style="fill: #ff0000; opacity: 0.7"/>
   </g>
   <g id="patch_16">
    <path d="M 706.299295 243.865982 
L 744.407727 243.865982 
L 744.407727 244.377993 
L 706.299295 244.377993 
z
" clip-path="url(#p5a12b3d460)" style="fill: #ff0000; opacity: 0.7"/>
   </g>
   <g id="matplotlib.axis_1">
    <g id="xtick_1">
     <g id="line2d_1">
      <defs>
       <path id="m7d57b53723" d="M 0 0 
L 0 3.5 
" style="stroke: #000000; stroke-width: 0.8"/>
      </defs>
      <g>
       <use xlink:href="#m7d57b53723" x="106.091489" y="461.656964" style="stroke: #000000; stroke-width: 0.8"/>
      </g>
     </g>
     <g id="text_1">
      <!-- 13号染色体的Z值 -->
      <g transform="translate(52.174597 527.297108) rotate(-45) scale(0.1 -0.1)">
       <defs>
        <path id="SimHei-31" d="M 1400 3600 
Q 1075 3275 575 2975 
L 575 3450 
Q 1200 3875 1600 4450 
L 1900 4450 
L 1900 150 
L 1400 150 
L 1400 3600 
z
" transform="scale(0.015625)"/>
        <path id="SimHei-33" d="M 250 1225 
L 700 1300 
Q 800 975 1025 762 
Q 1250 550 1587 562 
Q 1925 575 2125 837 
Q 2325 1100 2300 1437 
Q 2275 1775 2037 1962 
Q 1800 2150 1275 2225 
L 1275 2550 
Q 1800 2600 2037 2825 
Q 2275 3050 2250 3412 
Q 2225 3775 1925 3937 
Q 1625 4100 1287 3975 
Q 950 3850 750 3275 
L 300 3350 
Q 450 3800 712 4100 
Q 975 4400 1425 4450 
Q 1875 4500 2212 4337 
Q 2550 4175 2687 3837 
Q 2825 3500 2725 3100 
Q 2625 2700 2150 2400 
Q 2500 2250 2687 1950 
Q 2875 1650 2812 1162 
Q 2750 675 2375 375 
Q 2000 75 1525 87 
Q 1050 100 700 387 
Q 350 675 250 1225 
z
" transform="scale(0.015625)"/>
        <path id="SimHei-53f7" d="M 5025 4925 
Q 5000 4550 5000 4075 
Q 5000 3600 5025 3175 
L 1400 3175 
Q 1425 3525 1425 4000 
Q 1425 4500 1400 4925 
L 5025 4925 
z
M 5175 2625 
Q 5650 2625 6025 2650 
L 6025 2200 
Q 5650 2225 5175 2225 
L 2450 2225 
Q 2350 1875 2225 1450 
L 5175 1450 
Q 5100 1050 5062 775 
Q 5025 500 4950 112 
Q 4875 -275 4650 -412 
Q 4425 -550 3225 -625 
Q 3125 -350 2975 -50 
Q 3875 -75 4112 -50 
Q 4350 -25 4425 212 
Q 4500 450 4575 1025 
L 1600 1025 
Q 1825 1625 1950 2225 
L 1350 2225 
Q 825 2225 375 2200 
L 375 2650 
Q 825 2625 1350 2625 
L 5175 2625 
z
M 4525 3575 
L 4525 4525 
L 1900 4525 
L 1900 3575 
L 4525 3575 
z
" transform="scale(0.015625)"/>
        <path id="SimHei-67d3" d="M 5825 -450 
Q 4750 -150 4250 250 
Q 3750 650 3450 1150 
Q 3450 -300 3475 -600 
L 2950 -600 
Q 2975 -275 2975 1075 
Q 2600 550 2012 150 
Q 1425 -250 625 -575 
Q 550 -325 200 -100 
Q 1075 100 1662 487 
Q 2250 875 2475 1225 
L 1225 1225 
Q 875 1225 400 1200 
L 400 1650 
Q 875 1625 1225 1625 
L 2975 1625 
Q 2975 1825 2950 2150 
L 3475 2150 
Q 3450 1850 3450 1625 
L 5300 1625 
Q 5625 1625 6000 1650 
L 6000 1200 
Q 5625 1225 5300 1225 
L 3950 1225 
Q 4350 675 5000 400 
Q 5650 125 6175 75 
Q 5850 -250 5825 -450 
z
M 1825 2300 
Q 2550 2575 2925 3012 
Q 3300 3450 3400 4000 
Q 3025 4000 2575 3975 
L 2575 4425 
Q 3050 4400 3425 4400 
Q 3450 4925 3425 5250 
Q 3725 5175 4000 5175 
Q 3925 5025 3900 4400 
L 5125 4400 
Q 5100 4150 5075 3850 
L 5000 2850 
Q 5025 2600 5175 2600 
L 5450 2600 
Q 5575 2600 5612 2700 
Q 5650 2800 5675 3200 
Q 5875 3025 6200 3000 
Q 6100 2325 5912 2262 
Q 5725 2200 5387 2187 
Q 5050 2175 4787 2237 
Q 4525 2300 4550 2700 
L 4625 4000 
L 3875 4000 
Q 3800 3425 3475 2937 
Q 3150 2450 2275 1925 
Q 2175 2100 1825 2300 
z
M 2175 2925 
Q 1225 2175 850 1875 
Q 700 2125 500 2300 
Q 1100 2600 2000 3375 
Q 2050 3175 2175 2925 
z
M 675 4150 
Q 1375 3825 1750 3600 
Q 1575 3375 1475 3175 
Q 1225 3400 450 3750 
Q 600 3925 675 4150 
z
M 1850 4150 
Q 1475 4475 900 4775 
Q 1025 4925 1175 5125 
Q 1750 4800 2175 4550 
Q 1950 4325 1850 4150 
z
" transform="scale(0.015625)"/>
        <path id="SimHei-8272" d="M 2925 4975 
Q 2725 4875 2425 4450 
L 4750 4450 
Q 4625 4325 4375 3962 
Q 4125 3600 3900 3250 
L 5300 3250 
Q 5250 2950 5250 2250 
Q 5250 1575 5300 1175 
L 4775 1175 
L 4775 1525 
L 1750 1525 
L 1750 400 
Q 1775 50 2150 0 
L 4850 0 
Q 5375 -50 5425 550 
Q 5650 400 5925 350 
Q 5700 -450 4875 -425 
L 1975 -425 
Q 1275 -450 1250 250 
L 1250 3125 
Q 1025 2950 775 2750 
Q 600 2975 325 3125 
Q 725 3375 1075 3625 
Q 1425 3875 1787 4362 
Q 2150 4850 2250 5200 
L 2925 4975 
z
M 3325 3250 
Q 3750 3800 3850 4050 
L 2150 4050 
Q 1800 3625 1400 3250 
L 3325 3250 
z
M 3025 1900 
L 3025 2850 
L 1750 2850 
L 1750 1900 
L 3025 1900 
z
M 4775 1900 
L 4775 2850 
L 3500 2850 
L 3500 1900 
L 4775 1900 
z
" transform="scale(0.015625)"/>
        <path id="SimHei-4f53" d="M 3650 3850 
Q 3650 4750 3625 5125 
L 4125 5125 
Q 4100 4775 4100 3850 
L 5200 3850 
Q 5700 3850 5925 3875 
L 5925 3425 
Q 5700 3450 5200 3450 
L 4525 3450 
Q 4925 1850 6200 1200 
Q 5925 1050 5775 775 
Q 4425 1800 4100 3425 
L 4100 1025 
Q 4825 1025 5050 1050 
L 5050 600 
Q 4825 625 4100 625 
Q 4100 75 4125 -575 
L 3625 -575 
Q 3650 100 3650 625 
Q 3200 625 2700 600 
L 2700 1050 
Q 3200 1025 3650 1025 
L 3650 3450 
Q 3375 1800 2000 650 
Q 1850 875 1550 1025 
Q 2850 1875 3200 3450 
L 2675 3450 
Q 2275 3450 1975 3425 
L 1975 3875 
Q 2275 3850 2675 3850 
L 3650 3850 
z
M 2000 4900 
Q 1825 4675 1525 3775 
L 1525 575 
Q 1525 -200 1550 -550 
L 1050 -550 
Q 1075 -225 1075 550 
L 1075 2900 
Q 950 2625 575 2050 
Q 450 2275 225 2425 
Q 525 2725 925 3612 
Q 1325 4500 1425 5125 
Q 1700 5000 2000 4900 
z
" transform="scale(0.015625)"/>
        <path id="SimHei-7684" d="M 2100 4975 
Q 1975 4750 1750 3950 
L 2875 3950 
Q 2850 3525 2850 2875 
L 2850 675 
Q 2850 300 2875 -400 
L 2375 -400 
L 2375 100 
L 1100 100 
L 1100 -450 
L 600 -450 
Q 625 350 625 550 
L 625 2850 
Q 625 3525 600 3950 
L 1325 3950 
Q 1450 4525 1525 5150 
Q 1875 5025 2100 4975 
z
M 5825 3075 
Q 5800 1550 5700 175 
Q 5650 -275 5225 -425 
Q 4800 -575 4275 -625 
Q 4250 -350 4050 -50 
Q 4550 -75 4837 -25 
Q 5125 25 5200 200 
Q 5275 375 5312 1225 
Q 5350 2075 5375 3600 
L 3925 3600 
Q 3725 3125 3350 2475 
Q 3175 2650 2925 2750 
Q 3150 3050 3350 3475 
Q 3550 3900 3700 4400 
Q 3850 4900 3875 5175 
Q 4225 5025 4475 4950 
Q 4350 4750 4262 4512 
Q 4175 4275 4075 4050 
L 5850 4050 
Q 5825 3525 5825 3075 
z
M 2375 525 
L 2375 1850 
L 1100 1850 
L 1100 525 
L 2375 525 
z
M 2375 2275 
L 2375 3525 
L 1100 3525 
L 1100 2275 
L 2375 2275 
z
M 4350 2050 
Q 4500 1750 4700 1275 
Q 4525 1200 4225 1025 
Q 4050 1500 3900 1837 
Q 3750 2175 3600 2400 
Q 3775 2500 4050 2650 
L 4350 2050 
z
" transform="scale(0.015625)"/>
        <path id="SimHei-5a" d="M 2900 125 
L 225 125 
L 225 600 
L 2250 3925 
L 375 3925 
L 375 4400 
L 2825 4400 
L 2825 3925 
L 800 600 
L 2900 600 
L 2900 125 
z
" transform="scale(0.015625)"/>
        <path id="SimHei-503c" d="M 3675 4450 
L 3675 5100 
Q 3975 5075 4350 5050 
Q 4225 4875 4200 4450 
L 5125 4450 
Q 5550 4450 5875 4475 
L 5875 4025 
Q 5525 4050 5125 4050 
L 4175 4050 
L 4125 3500 
L 5400 3500 
Q 5375 3200 5375 2700 
L 5375 150 
Q 5875 150 6100 175 
L 6100 -275 
Q 5775 -250 5200 -250 
L 2850 -250 
Q 2275 -250 1900 -275 
L 1900 175 
Q 2125 150 2600 150 
L 2600 2700 
Q 2600 3175 2575 3500 
L 3600 3500 
L 3650 4050 
L 3200 4050 
Q 2575 4050 2225 4025 
L 2225 4475 
Q 2550 4450 3200 4450 
L 3675 4450 
z
M 2225 4900 
Q 2025 4675 1650 3750 
L 1650 450 
Q 1650 -75 1675 -550 
L 1150 -550 
Q 1175 -125 1175 375 
L 1175 2950 
Q 875 2450 625 2150 
Q 425 2425 250 2575 
Q 500 2825 937 3537 
Q 1375 4250 1625 5150 
Q 1975 4975 2225 4900 
z
M 4925 2650 
L 4925 3150 
L 3075 3150 
L 3075 2650 
L 4925 2650 
z
M 4925 150 
L 4925 625 
L 3075 625 
L 3075 150 
L 4925 150 
z
M 4925 1000 
L 4925 1450 
L 3075 1450 
L 3075 1000 
L 4925 1000 
z
M 4925 1825 
L 4925 2275 
L 3075 2275 
L 3075 1825 
L 4925 1825 
z
" transform="scale(0.015625)"/>
       </defs>
       <use xlink:href="#SimHei-31"/>
       <use xlink:href="#SimHei-33" transform="translate(50 0)"/>
       <use xlink:href="#SimHei-53f7" transform="translate(100 0)"/>
       <use xlink:href="#SimHei-67d3" transform="translate(200 0)"/>
       <use xlink:href="#SimHei-8272" transform="translate(300 0)"/>
       <use xlink:href="#SimHei-4f53" transform="translate(400 0)"/>
       <use xlink:href="#SimHei-7684" transform="translate(500 0)"/>
       <use xlink:href="#SimHei-5a" transform="translate(600 0)"/>
       <use xlink:href="#SimHei-503c" transform="translate(650 0)"/>
      </g>
     </g>
    </g>
    <g id="xtick_2">
     <g id="line2d_2">
      <g>
       <use xlink:href="#m7d57b53723" x="153.727029" y="461.656964" style="stroke: #000000; stroke-width: 0.8"/>
      </g>
     </g>
     <g id="text_2">
      <!-- 被过滤掉读段数的比例 -->
      <g transform="translate(82.132467 545.03002) rotate(-45) scale(0.1 -0.1)">
       <defs>
        <path id="SimHei-88ab" d="M 4100 4175 
Q 4100 4800 4075 5175 
L 4575 5175 
Q 4550 4825 4550 4175 
L 6025 4175 
Q 5900 3825 5725 3225 
Q 5550 3300 5225 3325 
Q 5375 3675 5400 3800 
L 4550 3800 
L 4550 2650 
L 5575 2650 
Q 5425 2075 5225 1575 
Q 5025 1075 4675 550 
Q 4925 325 5375 150 
Q 5825 -25 6125 -50 
Q 5850 -300 5775 -550 
Q 5325 -375 5000 -187 
Q 4675 0 4400 250 
Q 3975 -200 3225 -625 
Q 3050 -350 2850 -250 
Q 3575 0 4100 575 
Q 3675 1125 3400 2275 
L 3275 2275 
Q 3250 1575 3087 925 
Q 2925 275 2350 -550 
Q 2175 -400 1875 -300 
Q 2375 225 2600 825 
Q 2825 1425 2850 2150 
L 2850 3375 
Q 2850 3900 2825 4175 
L 4100 4175 
z
M 1825 2325 
Q 2075 2600 2300 2950 
Q 2500 2725 2650 2600 
Q 2425 2400 2075 2050 
L 2550 1575 
Q 2400 1450 2200 1225 
Q 1975 1575 1575 1975 
L 1575 525 
Q 1575 0 1600 -625 
L 1125 -625 
Q 1150 175 1150 700 
L 1150 2075 
Q 900 1800 525 1475 
Q 400 1675 200 1850 
Q 675 2175 1037 2600 
Q 1400 3025 1650 3525 
L 1150 3525 
Q 800 3525 400 3500 
L 400 3925 
Q 950 3900 1300 3900 
L 2350 3900 
Q 1950 3075 1550 2550 
Q 1650 2475 1825 2325 
z
M 4100 2650 
L 4100 3800 
L 3275 3800 
L 3275 2650 
L 4100 2650 
z
M 3825 2275 
Q 4050 1375 4400 900 
Q 4600 1200 4737 1512 
Q 4875 1825 5000 2275 
L 3825 2275 
z
M 1500 5250 
Q 1750 4800 1950 4375 
L 1500 4150 
Q 1325 4650 1075 5025 
Q 1300 5100 1500 5250 
z
" transform="scale(0.015625)"/>
        <path id="SimHei-8fc7" d="M 250 -200 
Q 1025 475 1275 650 
L 1275 2475 
Q 675 2475 400 2450 
L 400 2950 
Q 625 2900 1325 2900 
L 1800 2900 
Q 1775 2525 1775 2150 
L 1775 600 
Q 2500 -25 3912 -37 
Q 5325 -50 6150 75 
Q 6000 -175 5925 -550 
L 4425 -550 
Q 3800 -550 3275 -512 
Q 2750 -475 2387 -300 
Q 2025 -125 1750 75 
Q 1475 275 1237 37 
Q 1000 -200 700 -625 
Q 550 -375 250 -200 
z
M 3625 850 
Q 4200 825 4350 875 
Q 4500 925 4500 1300 
L 4500 3575 
L 2875 3575 
Q 2600 3575 2275 3550 
L 2275 4025 
Q 2600 4000 3075 4000 
L 4500 4000 
Q 4500 4650 4450 5125 
L 5025 5125 
Q 5000 4800 5000 4000 
Q 5525 4000 5950 4025 
L 5950 3550 
Q 5550 3575 5000 3575 
L 5000 1100 
Q 5000 525 4662 412 
Q 4325 300 3825 275 
Q 3775 550 3625 850 
z
M 3125 1600 
Q 2900 2275 2575 2850 
Q 2800 2950 3050 3125 
Q 3500 2225 3625 1875 
Q 3450 1775 3125 1600 
z
M 1150 4975 
Q 1400 4675 1925 3875 
Q 1675 3725 1450 3550 
Q 950 4400 700 4625 
Q 925 4750 1150 4975 
z
" transform="scale(0.015625)"/>
        <path id="SimHei-6ee4" d="M 3500 3575 
L 2500 3575 
L 2500 2375 
Q 2500 1825 2425 1287 
Q 2350 750 2175 250 
Q 2000 -250 1750 -675 
Q 1550 -475 1325 -375 
Q 1650 25 1850 637 
Q 2050 1250 2075 1862 
Q 2100 2475 2100 3000 
Q 2100 3550 2075 3950 
L 3450 3950 
L 3450 4575 
Q 3450 4800 3425 5175 
L 3900 5175 
Q 3875 4925 3875 4725 
L 4900 4725 
Q 5150 4725 5625 4750 
L 5625 4325 
Q 5150 4350 4900 4350 
L 3875 4350 
L 3875 3950 
L 5875 3950 
Q 5825 3750 5775 3575 
Q 5725 3400 5625 3000 
Q 5425 3075 5175 3125 
Q 5275 3350 5325 3575 
L 3900 3575 
L 3900 2950 
Q 4275 3025 5000 3225 
L 5075 2825 
Q 4450 2700 3900 2575 
L 3900 2300 
Q 3900 2075 4150 2075 
L 4875 2075 
Q 5150 2050 5200 2550 
Q 5425 2400 5650 2325 
Q 5475 1825 5337 1762 
Q 5200 1700 4900 1700 
L 3925 1700 
Q 3500 1700 3500 2125 
L 3500 2475 
Q 3175 2400 2725 2300 
L 2600 2725 
Q 3175 2800 3500 2875 
L 3500 3575 
z
M 5425 75 
Q 5275 -375 5125 -475 
Q 4975 -575 4825 -575 
L 3725 -575 
Q 3325 -575 3325 -125 
L 3325 400 
Q 3325 525 3300 1050 
L 3750 1050 
Q 3725 525 3725 150 
L 3725 100 
Q 3725 -175 4025 -175 
L 4600 -175 
Q 4750 -175 4850 -87 
Q 4950 0 4975 300 
Q 5200 150 5425 75 
z
M 1725 1750 
Q 1650 1625 1475 1162 
Q 1300 700 1150 375 
Q 1000 50 775 -425 
Q 525 -200 300 -150 
Q 700 375 950 987 
Q 1200 1600 1325 2000 
L 1725 1750 
z
M 650 3425 
Q 925 3250 1725 2725 
Q 1550 2550 1425 2325 
Q 1225 2500 400 3050 
Q 550 3250 650 3425 
z
M 3100 875 
Q 2975 500 2625 -375 
Q 2425 -275 2250 -150 
Q 2600 600 2700 1050 
Q 2875 975 3100 875 
z
M 850 4900 
Q 1025 4800 1300 4625 
Q 1575 4450 1900 4225 
Q 1700 4025 1600 3825 
Q 1000 4350 575 4550 
Q 725 4725 850 4900 
z
M 5475 1275 
Q 5675 1000 5825 762 
Q 5975 525 6150 250 
Q 5950 150 5775 0 
Q 5625 300 5125 1025 
Q 5300 1125 5475 1275 
z
M 4250 1550 
Q 4425 1275 4487 1175 
Q 4550 1075 4800 650 
Q 4575 575 4400 425 
Q 4225 800 3900 1325 
Q 4100 1425 4250 1550 
z
" transform="scale(0.015625)"/>
        <path id="SimHei-6389" d="M 3750 4475 
Q 3750 4950 3725 5225 
L 4250 5225 
Q 4225 4925 4225 4625 
L 5075 4625 
Q 5600 4625 5900 4650 
L 5900 4200 
Q 5600 4225 5075 4225 
L 4225 4225 
L 4225 3725 
L 5700 3725 
Q 5675 3500 5675 2675 
Q 5675 1850 5700 1500 
L 4325 1500 
L 4325 925 
L 5125 925 
Q 5775 925 6100 950 
L 6100 475 
Q 5775 525 5200 525 
L 4325 525 
L 4325 50 
Q 4325 -325 4375 -650 
L 3825 -650 
Q 3850 -225 3850 50 
L 3850 525 
L 2975 525 
Q 2400 525 2100 475 
L 2100 950 
Q 2400 925 2975 925 
L 3850 925 
L 3850 1500 
L 2600 1500 
Q 2625 2075 2625 2700 
Q 2625 3325 2600 3725 
L 3750 3725 
L 3750 4475 
z
M 1225 1825 
Q 850 1675 500 1450 
Q 425 1750 250 2000 
Q 725 2100 1225 2275 
L 1225 3350 
Q 600 3350 325 3325 
L 325 3825 
Q 675 3800 1225 3800 
L 1225 4475 
Q 1225 4875 1175 5150 
L 1725 5150 
Q 1700 4825 1700 4475 
L 1700 3800 
Q 2200 3800 2375 3825 
L 2375 3325 
Q 2200 3350 1700 3350 
L 1700 2425 
Q 2050 2525 2325 2700 
Q 2325 2450 2350 2225 
Q 1975 2100 1700 2000 
L 1700 250 
Q 1700 -225 1487 -325 
Q 1275 -425 600 -500 
Q 575 -200 450 100 
Q 925 50 1075 87 
Q 1225 125 1225 375 
L 1225 1825 
z
M 5225 2825 
L 5225 3325 
L 3100 3325 
L 3100 2825 
L 5225 2825 
z
M 5225 1925 
L 5225 2425 
L 3100 2425 
L 3100 1925 
L 5225 1925 
z
" transform="scale(0.015625)"/>
        <path id="SimHei-8bfb" d="M 2250 3600 
Q 2775 3575 3875 3575 
L 3875 4100 
Q 2975 4100 2450 4075 
L 2450 4500 
Q 2775 4475 3875 4475 
Q 3875 4825 3850 5150 
L 4350 5150 
Q 4325 4750 4325 4475 
Q 5375 4475 5825 4500 
L 5825 4075 
Q 5425 4100 4325 4100 
L 4325 3575 
L 6025 3575 
Q 5675 2725 5550 2400 
Q 5375 2475 5125 2575 
Q 5300 3000 5375 3200 
L 3300 3200 
Q 2775 3200 2250 3175 
L 2250 3600 
z
M 4375 925 
Q 4175 425 3850 125 
Q 3525 -175 3162 -362 
Q 2800 -550 2525 -650 
Q 2375 -450 2200 -250 
Q 2850 -125 3312 225 
Q 3775 575 3900 925 
L 3275 925 
Q 2800 925 2275 900 
L 2275 1350 
Q 2725 1325 3275 1325 
L 4025 1325 
Q 4075 1725 4112 2187 
Q 4150 2650 4150 3000 
Q 4375 2925 4675 2900 
Q 4600 2625 4562 2200 
Q 4525 1775 4450 1325 
L 5050 1325 
Q 5500 1325 6075 1350 
L 6075 900 
Q 5600 925 5075 925 
L 4375 925 
z
M 1600 3275 
Q 1575 2850 1575 2350 
L 1575 700 
Q 1775 925 2000 1200 
Q 2075 1000 2250 775 
Q 1900 425 1650 150 
Q 1400 -125 1225 -350 
Q 1100 -150 850 25 
Q 1075 200 1125 425 
L 1125 2875 
Q 825 2875 325 2850 
L 325 3300 
Q 775 3275 1150 3275 
L 1600 3275 
z
M 4650 675 
Q 5575 75 5975 -225 
Q 5800 -400 5650 -625 
Q 5200 -200 4400 275 
Q 4575 500 4650 675 
z
M 1050 5050 
Q 1475 4600 1775 4175 
Q 1575 4050 1375 3875 
Q 1050 4400 675 4750 
Q 900 4900 1050 5050 
z
M 2925 3100 
Q 3575 2675 3900 2475 
Q 3775 2300 3625 2075 
Q 3125 2500 2700 2725 
Q 2825 2925 2925 3100 
z
M 2475 2375 
Q 3050 2050 3450 1800 
Q 3325 1625 3175 1400 
Q 2550 1850 2250 2000 
Q 2375 2175 2475 2375 
z
" transform="scale(0.015625)"/>
        <path id="SimHei-6bb5" d="M 5500 2475 
Q 5350 1775 5100 1237 
Q 4850 700 4600 400 
Q 4825 225 5250 87 
Q 5675 -50 6125 -125 
Q 5950 -275 5825 -650 
Q 5150 -450 4825 -287 
Q 4500 -125 4225 75 
Q 3825 -175 3450 -337 
Q 3075 -500 2625 -650 
Q 2525 -400 2325 -225 
Q 2675 -150 3100 0 
Q 3525 150 3925 425 
Q 3725 675 3525 1150 
Q 3325 1600 3225 2075 
Q 3050 2075 2900 2075 
L 2900 2500 
Q 3375 2475 3800 2475 
L 5500 2475 
z
M 2650 4625 
Q 2300 4550 1887 4475 
Q 1475 4400 1300 4375 
L 1300 3550 
Q 2050 3550 2525 3600 
L 2525 3125 
Q 2050 3150 1300 3150 
L 1300 2350 
Q 2050 2350 2525 2375 
L 2525 1900 
Q 2050 1925 1300 1925 
L 1300 975 
Q 1950 1075 2625 1250 
Q 2600 1000 2600 775 
Q 1900 675 1300 525 
L 1300 100 
Q 1300 -200 1325 -625 
L 800 -625 
Q 825 -200 825 100 
L 825 425 
Q 575 375 350 300 
Q 300 650 250 825 
Q 500 850 825 900 
L 825 3800 
Q 825 4225 800 4725 
Q 1100 4725 1575 4825 
Q 2050 4925 2375 5125 
Q 2475 4850 2650 4625 
z
M 5100 4975 
Q 5075 4600 5075 4275 
L 5075 3650 
Q 5075 3425 5237 3387 
Q 5400 3350 5975 3400 
Q 5875 3225 5850 2950 
L 5075 2950 
Q 4650 2950 4625 3375 
L 4625 4575 
L 3775 4575 
Q 3775 3925 3675 3525 
Q 3575 3125 3200 2725 
Q 3025 2900 2800 3050 
Q 3275 3400 3300 3937 
Q 3325 4475 3300 4975 
L 5100 4975 
z
M 3675 2100 
Q 3775 1675 3962 1287 
Q 4150 900 4275 775 
Q 4450 950 4625 1312 
Q 4800 1675 4900 2100 
L 3800 2100 
L 3675 2100 
z
" transform="scale(0.015625)"/>
        <path id="SimHei-6570" d="M 4525 4925 
Q 4475 4800 4400 4587 
Q 4325 4375 4175 3825 
L 5325 3825 
Q 5575 3825 5925 3850 
L 5925 3400 
Q 5650 3425 5500 3425 
Q 5500 3025 5362 2162 
Q 5225 1300 4875 675 
Q 5125 375 5437 137 
Q 5750 -100 6025 -200 
Q 5725 -425 5625 -625 
Q 5325 -450 5075 -225 
Q 4825 0 4575 325 
Q 4300 25 3987 -187 
Q 3675 -400 3200 -650 
Q 3075 -425 2850 -300 
Q 3225 -150 3650 125 
Q 4075 400 4300 675 
Q 4125 1025 3962 1425 
Q 3800 1825 3675 2475 
Q 3600 2275 3425 1950 
Q 3250 2050 3000 2150 
Q 3400 2850 3650 3675 
Q 3900 4500 3975 5100 
Q 4275 4975 4525 4925 
z
M 2100 2250 
Q 2000 2150 1875 1925 
L 3250 1925 
Q 3100 1300 2725 675 
Q 3125 525 3350 400 
Q 3225 225 3125 25 
Q 2900 175 2450 325 
Q 1950 -225 725 -650 
Q 600 -375 400 -275 
Q 1575 0 2000 475 
Q 1300 650 850 775 
Q 1000 1000 1250 1525 
Q 1000 1525 425 1500 
L 425 1950 
Q 900 1925 1400 1925 
Q 1500 2150 1550 2425 
Q 1825 2325 2100 2250 
z
M 1775 3950 
Q 1775 4550 1750 5100 
L 2250 5100 
Q 2225 4575 2225 3950 
Q 3075 3950 3425 3975 
L 3425 3525 
Q 3075 3550 2225 3550 
Q 2225 2825 2250 2425 
L 1750 2425 
Q 1775 2775 1775 3300 
Q 1650 3100 1300 2787 
Q 950 2475 650 2300 
Q 525 2525 275 2625 
Q 500 2700 875 2975 
Q 1250 3250 1450 3550 
Q 950 3550 500 3525 
L 500 3975 
Q 925 3950 1775 3950 
z
M 3975 3175 
Q 4200 1700 4600 1125 
Q 4850 1700 4937 2287 
Q 5025 2875 5050 3425 
L 4075 3425 
L 3975 3175 
z
M 1450 1000 
Q 1750 925 2275 800 
Q 2475 1050 2650 1525 
L 1725 1525 
Q 1600 1275 1450 1000 
z
M 3325 4825 
Q 3200 4625 3125 4450 
Q 3050 4275 2925 4025 
Q 2725 4125 2525 4175 
Q 2725 4500 2900 5000 
Q 3150 4875 3325 4825 
z
M 2575 3375 
Q 2900 3050 3200 2725 
Q 3050 2600 2875 2425 
Q 2525 2850 2300 3100 
Q 2450 3225 2575 3375 
z
M 925 5000 
Q 1275 4650 1500 4300 
L 1125 4075 
Q 950 4425 600 4725 
Q 825 4875 925 5000 
z
" transform="scale(0.015625)"/>
        <path id="SimHei-6bd4" d="M 3775 5100 
Q 3750 4575 3750 4100 
L 3750 3050 
Q 4925 3600 5475 4175 
Q 5675 3900 5900 3675 
Q 5600 3500 5037 3187 
Q 4475 2875 3750 2550 
L 3750 450 
Q 3750 100 4050 100 
L 5000 100 
Q 5175 100 5262 250 
Q 5350 400 5450 900 
Q 5650 775 6025 675 
Q 5850 0 5650 -175 
Q 5450 -350 5225 -350 
L 3900 -350 
Q 3250 -350 3250 275 
L 3250 4000 
Q 3250 4550 3225 5100 
L 3775 5100 
z
M 1275 4975 
Q 1250 4575 1250 4000 
L 1250 3150 
L 1850 3150 
Q 2325 3150 2875 3175 
L 2875 2650 
Q 2325 2675 1850 2675 
L 1250 2675 
L 1250 475 
Q 1650 650 1962 812 
Q 2275 975 2850 1275 
Q 2900 950 2950 750 
Q 2375 475 1762 175 
Q 1150 -125 925 -325 
Q 750 -100 575 200 
Q 700 300 750 600 
L 750 3950 
Q 750 4550 725 4975 
L 1275 4975 
z
" transform="scale(0.015625)"/>
        <path id="SimHei-4f8b" d="M 3450 4725 
Q 3825 4725 4100 4750 
L 4100 4300 
Q 3825 4325 3500 4325 
L 3150 4325 
Q 3125 4025 3025 3350 
L 4050 3350 
Q 4000 2050 3612 1050 
Q 3225 50 2300 -600 
Q 2200 -400 1900 -150 
Q 2750 250 3200 1325 
Q 2975 1525 2550 1800 
Q 2700 2000 2825 2175 
Q 3200 1875 3350 1775 
Q 3500 2250 3575 2950 
L 2925 2950 
Q 2800 2425 2225 1575 
Q 2025 1775 1775 1925 
Q 2125 2275 2375 2837 
Q 2625 3400 2675 4325 
Q 2300 4325 2150 4300 
L 2150 4750 
Q 2400 4725 2800 4725 
L 3450 4725 
z
M 2050 4975 
Q 1875 4775 1550 3850 
L 1550 475 
Q 1550 -25 1575 -600 
L 1075 -600 
Q 1100 -75 1100 425 
L 1100 3000 
Q 950 2700 650 2250 
Q 550 2375 200 2625 
Q 525 2925 937 3762 
Q 1350 4600 1450 5200 
Q 1650 5075 2050 4975 
z
M 5950 5075 
Q 5900 4775 5900 4300 
L 5900 250 
Q 5900 -275 5700 -400 
Q 5500 -525 4850 -575 
Q 4825 -300 4650 50 
Q 5175 0 5300 25 
Q 5425 50 5450 300 
L 5450 4275 
Q 5450 4750 5400 5075 
L 5950 5075 
z
M 4925 4225 
Q 4875 3875 4875 3250 
L 4875 1800 
Q 4875 1200 4900 925 
L 4375 925 
Q 4425 1200 4425 1775 
L 4425 3275 
Q 4400 3850 4375 4225 
L 4925 4225 
z
" transform="scale(0.015625)"/>
       </defs>
       <use xlink:href="#SimHei-88ab"/>
       <use xlink:href="#SimHei-8fc7" transform="translate(100 0)"/>
       <use xlink:href="#SimHei-6ee4" transform="translate(200 0)"/>
       <use xlink:href="#SimHei-6389" transform="translate(300 0)"/>
       <use xlink:href="#SimHei-8bfb" transform="translate(400 0)"/>
       <use xlink:href="#SimHei-6bb5" transform="translate(500 0)"/>
       <use xlink:href="#SimHei-6570" transform="translate(600 0)"/>
       <use xlink:href="#SimHei-7684" transform="translate(700 0)"/>
       <use xlink:href="#SimHei-6bd4" transform="translate(800 0)"/>
       <use xlink:href="#SimHei-4f8b" transform="translate(900 0)"/>
      </g>
     </g>
    </g>
    <g id="xtick_3">
     <g id="line2d_3">
      <g>
       <use xlink:href="#m7d57b53723" x="201.362569" y="461.656964" style="stroke: #000000; stroke-width: 0.8"/>
      </g>
     </g>
     <g id="text_3">
      <!-- X染色体的Z值 -->
      <g transform="translate(158.052279 516.690506) rotate(-45) scale(0.1 -0.1)">
       <defs>
        <path id="SimHei-58" d="M 3000 125 
L 2400 125 
L 1550 1875 
L 700 125 
L 100 125 
L 1275 2375 
L 225 4400 
L 825 4400 
L 1550 2850 
L 2275 4400 
L 2875 4400 
L 1825 2375 
L 3000 125 
z
" transform="scale(0.015625)"/>
       </defs>
       <use xlink:href="#SimHei-58"/>
       <use xlink:href="#SimHei-67d3" transform="translate(50 0)"/>
       <use xlink:href="#SimHei-8272" transform="translate(150 0)"/>
       <use xlink:href="#SimHei-4f53" transform="translate(250 0)"/>
       <use xlink:href="#SimHei-7684" transform="translate(350 0)"/>
       <use xlink:href="#SimHei-5a" transform="translate(450 0)"/>
       <use xlink:href="#SimHei-503c" transform="translate(500 0)"/>
      </g>
     </g>
    </g>
    <g id="xtick_4">
     <g id="line2d_4">
      <g>
       <use xlink:href="#m7d57b53723" x="248.998109" y="461.656964" style="stroke: #000000; stroke-width: 0.8"/>
      </g>
     </g>
     <g id="text_4">
      <!-- 18号染色体的GC含量 -->
      <g transform="translate(184.474616 537.931331) rotate(-45) scale(0.1 -0.1)">
       <defs>
        <path id="SimHei-38" d="M 175 1375 
Q 175 1675 325 1962 
Q 475 2250 825 2425 
Q 525 2600 425 2812 
Q 325 3025 312 3300 
Q 300 3575 387 3775 
Q 475 3975 650 4150 
Q 825 4325 1037 4387 
Q 1250 4450 1500 4450 
Q 1750 4450 1950 4400 
Q 2150 4350 2375 4187 
Q 2600 4025 2700 3725 
Q 2800 3425 2687 3025 
Q 2575 2625 2100 2400 
Q 2525 2275 2700 2012 
Q 2875 1750 2875 1375 
Q 2875 1000 2762 775 
Q 2650 550 2512 400 
Q 2375 250 2137 162 
Q 1900 75 1537 75 
Q 1175 75 912 162 
Q 650 250 475 425 
Q 300 600 237 837 
Q 175 1075 175 1375 
z
M 687 1400 
Q 675 1100 787 875 
Q 900 650 1200 587 
Q 1500 525 1825 600 
Q 2150 675 2275 950 
Q 2400 1225 2362 1500 
Q 2325 1775 2050 1962 
Q 1775 2150 1450 2125 
Q 1125 2100 912 1900 
Q 700 1700 687 1400 
z
M 775 3350 
Q 775 3100 950 2875 
Q 1125 2650 1500 2650 
Q 1875 2650 2062 2875 
Q 2250 3100 2237 3412 
Q 2225 3725 2012 3875 
Q 1800 4025 1437 4000 
Q 1075 3975 925 3787 
Q 775 3600 775 3350 
z
" transform="scale(0.015625)"/>
        <path id="SimHei-47" d="M 2850 75 
L 2425 75 
L 2350 425 
Q 2250 275 2037 175 
Q 1825 75 1575 75 
Q 1050 75 637 562 
Q 225 1050 225 2125 
Q 225 3300 600 3875 
Q 975 4450 1625 4450 
Q 2200 4450 2525 4025 
Q 2850 3600 2850 2925 
L 2300 2925 
Q 2300 3450 2125 3712 
Q 1950 3975 1625 3975 
Q 1225 3975 1025 3562 
Q 825 3150 825 2175 
Q 825 1250 1075 900 
Q 1325 550 1650 550 
Q 1975 550 2162 787 
Q 2350 1025 2350 1525 
L 2350 1800 
L 1575 1800 
L 1575 2275 
L 2850 2275 
L 2850 75 
z
" transform="scale(0.015625)"/>
        <path id="SimHei-43" d="M 2975 1825 
Q 2950 875 2575 475 
Q 2200 75 1675 75 
Q 1075 75 650 562 
Q 225 1050 225 2125 
Q 225 3300 637 3875 
Q 1050 4450 1700 4450 
Q 2250 4450 2612 4037 
Q 2975 3625 2950 2875 
L 2400 2875 
Q 2400 3425 2225 3700 
Q 2050 3975 1700 3975 
Q 1300 3975 1062 3562 
Q 825 3150 825 2175 
Q 825 1275 1062 912 
Q 1300 550 1675 550 
Q 1950 550 2175 812 
Q 2400 1075 2400 1825 
L 2975 1825 
z
" transform="scale(0.015625)"/>
        <path id="SimHei-542b" d="M 4525 -575 
L 4525 -200 
L 1850 -200 
L 1850 -625 
L 1325 -625 
Q 1350 -275 1350 275 
Q 1350 850 1325 1450 
L 5050 1450 
Q 5025 1175 5025 425 
Q 5025 -300 5050 -575 
L 4525 -575 
z
M 3350 4850 
Q 3625 4525 4325 4062 
Q 5025 3600 6150 3300 
Q 5850 3075 5750 2750 
Q 5050 3025 4337 3462 
Q 3625 3900 3125 4500 
Q 2500 3800 1912 3387 
Q 1325 2975 625 2650 
Q 550 2850 275 3100 
Q 1100 3325 1862 3925 
Q 2625 4525 2975 5275 
Q 3325 5150 3525 5050 
L 3350 4850 
z
M 4525 200 
L 4525 1050 
L 1850 1050 
L 1850 200 
L 4525 200 
z
M 4775 2875 
Q 4525 2600 4200 2200 
Q 3875 1800 3600 1500 
Q 3425 1675 3250 1750 
Q 3525 2025 3875 2500 
L 1975 2500 
Q 1750 2500 1350 2475 
L 1350 2900 
Q 1750 2875 1975 2875 
L 4775 2875 
z
M 3050 3925 
Q 3425 3400 3475 3225 
Q 3375 3200 3050 3025 
Q 2850 3475 2675 3700 
Q 2925 3800 3050 3925 
z
" transform="scale(0.015625)"/>
        <path id="SimHei-91cf" d="M 5250 2500 
Q 5225 2200 5225 1700 
Q 5225 1225 5250 950 
L 3425 950 
L 3425 625 
L 4575 625 
Q 5000 625 5375 650 
L 5375 275 
Q 5025 300 4575 300 
L 3425 300 
L 3425 -75 
L 5125 -75 
Q 5525 -75 5925 -50 
L 5925 -425 
Q 5525 -400 5125 -400 
L 1275 -400 
Q 900 -400 475 -425 
L 475 -50 
Q 925 -50 1275 -75 
L 2975 -75 
L 2975 300 
L 1725 300 
Q 1350 300 975 250 
L 975 650 
Q 1375 625 1725 625 
L 2975 625 
L 2975 950 
L 1150 950 
Q 1175 1375 1175 1775 
Q 1175 2175 1150 2500 
L 5250 2500 
z
M 5200 4950 
Q 5175 4575 5175 4250 
Q 5175 3925 5200 3400 
L 1200 3400 
Q 1225 3925 1225 4250 
Q 1225 4575 1200 4950 
L 5200 4950 
z
M 4900 3100 
Q 5500 3125 6000 3150 
L 6000 2750 
Q 5500 2775 4925 2775 
L 1650 2775 
Q 975 2775 325 2750 
L 325 3150 
Q 975 3125 1650 3100 
L 4900 3100 
z
M 4725 3700 
L 4725 4025 
L 1675 4025 
L 1675 3700 
L 4725 3700 
z
M 4725 4350 
L 4725 4650 
L 1675 4650 
L 1675 4350 
L 4725 4350 
z
M 4750 1875 
L 4750 2175 
L 3425 2175 
L 3425 1875 
L 4750 1875 
z
M 2975 1875 
L 2975 2175 
L 1650 2175 
L 1650 1875 
L 2975 1875 
z
M 2975 1275 
L 2975 1550 
L 1650 1550 
L 1650 1275 
L 2975 1275 
z
M 4750 1275 
L 4750 1550 
L 3425 1550 
L 3425 1275 
L 4750 1275 
z
" transform="scale(0.015625)"/>
       </defs>
       <use xlink:href="#SimHei-31"/>
       <use xlink:href="#SimHei-38" transform="translate(50 0)"/>
       <use xlink:href="#SimHei-53f7" transform="translate(100 0)"/>
       <use xlink:href="#SimHei-67d3" transform="translate(200 0)"/>
       <use xlink:href="#SimHei-8272" transform="translate(300 0)"/>
       <use xlink:href="#SimHei-4f53" transform="translate(400 0)"/>
       <use xlink:href="#SimHei-7684" transform="translate(500 0)"/>
       <use xlink:href="#SimHei-47" transform="translate(600 0)"/>
       <use xlink:href="#SimHei-43" transform="translate(650 0)"/>
       <use xlink:href="#SimHei-542b" transform="translate(700 0)"/>
       <use xlink:href="#SimHei-91cf" transform="translate(800 0)"/>
      </g>
     </g>
    </g>
    <g id="xtick_5">
     <g id="line2d_5">
      <g>
       <use xlink:href="#m7d57b53723" x="296.63365" y="461.656964" style="stroke: #000000; stroke-width: 0.8"/>
      </g>
     </g>
     <g id="text_5">
      <!-- 13号染色体的GC含量 -->
      <g transform="translate(232.110156 537.931331) rotate(-45) scale(0.1 -0.1)">
       <use xlink:href="#SimHei-31"/>
       <use xlink:href="#SimHei-33" transform="translate(50 0)"/>
       <use xlink:href="#SimHei-53f7" transform="translate(100 0)"/>
       <use xlink:href="#SimHei-67d3" transform="translate(200 0)"/>
       <use xlink:href="#SimHei-8272" transform="translate(300 0)"/>
       <use xlink:href="#SimHei-4f53" transform="translate(400 0)"/>
       <use xlink:href="#SimHei-7684" transform="translate(500 0)"/>
       <use xlink:href="#SimHei-47" transform="translate(600 0)"/>
       <use xlink:href="#SimHei-43" transform="translate(650 0)"/>
       <use xlink:href="#SimHei-542b" transform="translate(700 0)"/>
       <use xlink:href="#SimHei-91cf" transform="translate(800 0)"/>
      </g>
     </g>
    </g>
    <g id="xtick_6">
     <g id="line2d_6">
      <g>
       <use xlink:href="#m7d57b53723" x="344.26919" y="461.656964" style="stroke: #000000; stroke-width: 0.8"/>
      </g>
     </g>
     <g id="text_6">
      <!-- 怀孕失败次数（3） -->
      <g transform="translate(283.28123 534.395797) rotate(-45) scale(0.1 -0.1)">
       <defs>
        <path id="SimHei-6000" d="M 5000 4725 
Q 5400 4725 5975 4750 
L 5975 4300 
Q 5400 4325 5000 4325 
L 4500 4325 
Q 4350 3825 4225 3550 
L 4225 475 
Q 4225 -75 4250 -575 
L 3750 -575 
Q 3775 0 3775 475 
L 3775 2550 
Q 3300 1675 2375 775 
Q 2200 1000 2000 1125 
Q 2550 1550 3100 2350 
Q 3650 3150 3975 4325 
L 3375 4325 
Q 2975 4325 2400 4300 
L 2400 4750 
Q 2850 4725 3400 4725 
L 5000 4725 
z
M 1825 5150 
Q 1800 4800 1800 4375 
L 1800 825 
Q 1800 175 1825 -575 
L 1300 -575 
Q 1325 175 1325 825 
L 1325 4375 
Q 1325 4825 1300 5150 
L 1825 5150 
z
M 4975 2975 
Q 5625 2225 6150 1375 
Q 5900 1200 5700 1050 
Q 5200 1900 4600 2675 
Q 4725 2750 4975 2975 
z
M 1100 3725 
Q 950 3100 775 2225 
Q 500 2275 275 2300 
Q 475 3025 600 3800 
Q 925 3750 1100 3725 
z
M 2350 4000 
Q 2650 3450 2850 2900 
Q 2600 2775 2400 2650 
Q 2200 3325 1950 3775 
Q 2175 3875 2350 4000 
z
" transform="scale(0.015625)"/>
        <path id="SimHei-5b55" d="M 5750 2400 
Q 5700 2025 5400 1900 
Q 5100 1775 4775 1725 
Q 4725 2025 4600 2225 
Q 5200 2200 5275 2575 
L 5375 3475 
L 4050 3475 
Q 4100 3800 4250 4525 
L 2650 4525 
Q 2575 3975 2362 3550 
Q 2150 3125 1850 2800 
Q 2400 2750 2850 2750 
L 4625 2750 
L 4625 2350 
Q 4400 2275 4150 2125 
Q 3900 1975 3550 1750 
L 3550 1375 
L 4850 1375 
Q 5350 1375 5925 1400 
L 5925 950 
Q 5375 975 4875 975 
L 3550 975 
L 3550 -175 
Q 3525 -475 3275 -575 
Q 3025 -675 2575 -700 
Q 2550 -400 2375 -150 
Q 2875 -150 2950 -100 
Q 3025 -50 3025 125 
L 3025 975 
L 1475 975 
Q 975 975 450 950 
L 450 1400 
Q 975 1375 1475 1375 
L 3025 1375 
Q 3025 1575 3000 1850 
Q 3450 2100 3750 2350 
L 2850 2350 
Q 2425 2350 1800 2325 
L 1800 2725 
Q 1375 2300 875 2025 
Q 650 2250 400 2350 
Q 775 2500 1187 2825 
Q 1600 3150 1850 3650 
Q 2100 4150 2125 4525 
L 1800 4525 
Q 1400 4525 925 4500 
L 925 4950 
Q 1400 4925 1750 4925 
L 4875 4925 
Q 4675 4200 4625 3925 
L 5925 3925 
Q 5925 3750 5850 3225 
L 5750 2400 
z
" transform="scale(0.015625)"/>
        <path id="SimHei-5931" d="M 2050 4450 
Q 1925 4325 1675 3750 
L 2950 3750 
Q 2950 4650 2925 5100 
Q 3175 5075 3500 5050 
Q 3450 4700 3437 4425 
Q 3425 4150 3425 3750 
L 4600 3750 
Q 5000 3750 5425 3775 
L 5425 3300 
Q 5025 3325 4600 3325 
L 3425 3325 
Q 3425 2775 3375 2200 
L 5050 2200 
Q 5425 2200 5875 2225 
L 5875 1750 
Q 5425 1775 5050 1775 
L 3575 1775 
Q 3875 1100 4600 675 
Q 5325 250 6025 100 
Q 5825 -150 5675 -475 
Q 4950 -200 4250 287 
Q 3550 775 3200 1475 
Q 2900 825 2325 300 
Q 1750 -225 775 -650 
Q 650 -400 400 -175 
Q 1250 50 1912 587 
Q 2575 1125 2775 1775 
L 1325 1775 
Q 925 1775 450 1750 
L 450 2225 
Q 925 2200 1325 2200 
L 2875 2200 
Q 2950 2725 2950 3325 
L 1500 3325 
Q 1200 2800 975 2450 
Q 775 2575 500 2675 
Q 950 3225 1187 3750 
Q 1425 4275 1500 4675 
Q 1800 4525 2050 4450 
z
" transform="scale(0.015625)"/>
        <path id="SimHei-8d25" d="M 3500 2300 
Q 3325 2500 3125 2575 
Q 3425 2950 3675 3612 
Q 3925 4275 4075 5175 
Q 4425 5025 4625 5000 
Q 4525 4825 4450 4575 
Q 4375 4325 4225 3900 
L 5350 3900 
Q 5825 3900 6100 3925 
L 6100 3500 
Q 5875 3525 5525 3525 
Q 5475 2775 5337 2062 
Q 5200 1350 4850 675 
Q 5025 450 5350 200 
Q 5675 -50 6150 -250 
Q 5975 -375 5800 -650 
Q 5375 -425 5037 -137 
Q 4700 150 4550 350 
Q 4325 100 3975 -162 
Q 3625 -425 3225 -675 
Q 3100 -450 2875 -300 
Q 3300 -100 3637 112 
Q 3975 325 4325 725 
Q 4000 1350 3875 1850 
Q 3750 2350 3725 2675 
Q 3600 2425 3500 2300 
z
M 3100 4625 
Q 3075 4150 3075 2925 
Q 3075 1700 3100 1200 
L 2650 1200 
L 2650 4250 
L 1100 4250 
L 1100 1175 
L 625 1175 
Q 650 1675 650 2850 
Q 650 4050 625 4625 
L 3100 4625 
z
M 2125 3675 
Q 2075 3325 2075 2925 
Q 2075 2525 2025 1800 
Q 1975 1125 1662 575 
Q 1350 25 600 -500 
Q 475 -325 225 -150 
Q 1150 375 1425 1000 
Q 1625 1575 1637 2325 
Q 1650 3075 1625 3750 
Q 1850 3700 2125 3675 
z
M 4000 3250 
Q 4100 2525 4250 2000 
Q 4400 1475 4600 1125 
Q 4800 1525 4912 2075 
Q 5025 2625 5075 3525 
L 4100 3525 
L 4000 3250 
z
M 2275 1100 
Q 2575 775 3175 175 
Q 2975 -25 2825 -200 
Q 2325 450 1975 775 
Q 2125 900 2275 1100 
z
" transform="scale(0.015625)"/>
        <path id="SimHei-6b21" d="M 4150 3025 
Q 4000 2550 4050 2187 
Q 4100 1825 4275 1450 
Q 4450 1075 4800 750 
Q 5150 425 5475 212 
Q 5800 0 6150 -150 
Q 5875 -350 5750 -625 
Q 5250 -325 4887 -25 
Q 4525 275 4275 612 
Q 4025 950 3825 1425 
Q 3525 625 2950 125 
Q 2375 -375 1850 -650 
Q 1675 -400 1475 -225 
Q 2025 0 2487 362 
Q 2950 725 3162 1100 
Q 3375 1475 3450 1825 
Q 3525 2175 3537 2400 
Q 3550 2625 3525 3125 
Q 3825 3050 4150 3025 
z
M 3700 4975 
Q 3625 4900 3475 4575 
Q 3325 4250 3250 4075 
L 5775 4075 
Q 5650 3725 5550 3362 
Q 5450 3000 5275 2500 
Q 5000 2575 4775 2600 
Q 5025 3350 5100 3650 
L 3100 3650 
Q 2975 3400 2812 3100 
Q 2650 2800 2425 2450 
Q 2275 2600 1975 2700 
Q 2300 3050 2625 3762 
Q 2950 4475 3125 5200 
Q 3450 5025 3700 4975 
z
M 2025 2000 
Q 1825 1675 1475 1087 
Q 1125 500 725 -200 
Q 500 -25 250 175 
Q 725 725 1037 1262 
Q 1350 1800 1575 2325 
Q 1750 2175 2025 2000 
z
M 900 4750 
Q 1725 3725 1950 3375 
Q 1750 3250 1500 3050 
Q 1250 3525 500 4425 
Q 700 4575 900 4750 
z
" transform="scale(0.015625)"/>
        <path id="SimHei-ff08" d="M 5425 5100 
L 5700 4775 
Q 4275 3725 4325 2350 
Q 4350 1025 5675 50 
L 5400 -275 
Q 3875 825 3925 2500 
Q 3925 3875 5425 5100 
z
" transform="scale(0.015625)"/>
        <path id="SimHei-ff09" d="M 1000 5100 
Q 2500 3875 2500 2500 
Q 2550 825 1025 -275 
L 750 50 
Q 2075 1025 2100 2350 
Q 2150 3725 725 4775 
L 1000 5100 
z
" transform="scale(0.015625)"/>
       </defs>
       <use xlink:href="#SimHei-6000"/>
       <use xlink:href="#SimHei-5b55" transform="translate(100 0)"/>
       <use xlink:href="#SimHei-5931" transform="translate(200 0)"/>
       <use xlink:href="#SimHei-8d25" transform="translate(300 0)"/>
       <use xlink:href="#SimHei-6b21" transform="translate(400 0)"/>
       <use xlink:href="#SimHei-6570" transform="translate(500 0)"/>
       <use xlink:href="#SimHei-ff08" transform="translate(600 0)"/>
       <use xlink:href="#SimHei-33" transform="translate(700 0)"/>
       <use xlink:href="#SimHei-ff09" transform="translate(750 0)"/>
      </g>
     </g>
    </g>
    <g id="xtick_7">
     <g id="line2d_7">
      <g>
       <use xlink:href="#m7d57b53723" x="391.90473" y="461.656964" style="stroke: #000000; stroke-width: 0.8"/>
      </g>
     </g>
     <g id="text_7">
      <!-- 生产次数 -->
      <g transform="translate(362.736575 502.603613) rotate(-45) scale(0.1 -0.1)">
       <defs>
        <path id="SimHei-751f" d="M 1875 4650 
Q 1725 4475 1625 4212 
Q 1525 3950 1425 3700 
L 2925 3700 
L 2925 4575 
Q 2925 4900 2900 5200 
L 3475 5200 
Q 3450 4925 3450 4575 
L 3450 3700 
L 4550 3700 
Q 4950 3700 5450 3725 
L 5450 3225 
Q 4975 3250 4550 3250 
L 3450 3250 
L 3450 2125 
L 4225 2125 
Q 4575 2125 5075 2150 
L 5075 1650 
Q 4600 1675 4225 1675 
L 3450 1675 
L 3450 175 
L 4950 175 
Q 5350 175 5875 200 
L 5875 -275 
Q 5375 -250 4950 -250 
L 1350 -250 
Q 925 -250 475 -275 
L 475 200 
Q 950 175 1350 175 
L 2925 175 
L 2925 1675 
L 2000 1675 
Q 1650 1675 1275 1650 
L 1275 2150 
Q 1650 2125 2000 2125 
L 2925 2125 
L 2925 3250 
L 1250 3250 
Q 1025 2725 800 2350 
Q 525 2475 200 2525 
Q 475 2825 787 3487 
Q 1100 4150 1225 4900 
L 1875 4650 
z
" transform="scale(0.015625)"/>
        <path id="SimHei-4ea7" d="M 5050 3700 
Q 4925 3550 4762 3262 
Q 4600 2975 4475 2725 
L 5250 2725 
Q 5775 2725 5950 2750 
L 5950 2250 
Q 5750 2275 5300 2275 
L 1525 2275 
Q 1525 300 575 -625 
Q 475 -425 200 -250 
Q 850 475 950 1262 
Q 1050 2050 1000 2725 
L 3950 2725 
Q 4275 3400 4425 3975 
Q 4750 3825 5050 3700 
z
M 3500 5275 
Q 3550 5100 3700 4475 
L 4950 4475 
Q 5400 4475 5800 4500 
L 5800 4025 
Q 5400 4050 5025 4050 
L 2000 4050 
Q 1625 4050 1050 4025 
L 1050 4500 
Q 1650 4475 1825 4475 
L 3125 4475 
Q 3050 4800 2925 5150 
Q 3225 5225 3500 5275 
z
M 2375 3950 
Q 2675 3550 2950 3025 
Q 2700 2925 2425 2775 
Q 2200 3300 1900 3675 
Q 2150 3825 2375 3950 
z
" transform="scale(0.015625)"/>
       </defs>
       <use xlink:href="#SimHei-751f"/>
       <use xlink:href="#SimHei-4ea7" transform="translate(100 0)"/>
       <use xlink:href="#SimHei-6b21" transform="translate(200 0)"/>
       <use xlink:href="#SimHei-6570" transform="translate(300 0)"/>
      </g>
     </g>
    </g>
    <g id="xtick_8">
     <g id="line2d_8">
      <g>
       <use xlink:href="#m7d57b53723" x="439.54027" y="461.656964" style="stroke: #000000; stroke-width: 0.8"/>
      </g>
     </g>
     <g id="text_8">
      <!-- IVF妊娠_编码 -->
      <g transform="translate(396.174737 516.883856) rotate(-45) scale(0.1 -0.1)">
       <defs>
        <path id="SimHei-49" d="M 1850 125 
L 1275 125 
L 1275 4400 
L 1850 4400 
L 1850 125 
z
" transform="scale(0.015625)"/>
        <path id="SimHei-56" d="M 3050 4400 
L 1800 75 
L 1300 75 
L 50 4400 
L 650 4400 
L 1525 1125 
L 1575 1125 
L 2450 4400 
L 3050 4400 
z
" transform="scale(0.015625)"/>
        <path id="SimHei-46" d="M 2925 3925 
L 875 3925 
L 875 2525 
L 2425 2525 
L 2425 2050 
L 875 2050 
L 875 125 
L 300 125 
L 300 4400 
L 2925 4400 
L 2925 3925 
z
" transform="scale(0.015625)"/>
        <path id="SimHei-598a" d="M 200 -175 
Q 525 -50 875 175 
Q 1225 400 1575 850 
Q 1275 1175 475 1675 
Q 625 2025 762 2487 
Q 900 2950 975 3375 
Q 600 3375 300 3350 
L 300 3800 
Q 625 3775 1050 3775 
Q 1150 4150 1187 4487 
Q 1225 4825 1250 5200 
Q 1575 5100 1900 5075 
Q 1750 4925 1650 4487 
Q 1550 4050 1500 3775 
L 2600 3775 
Q 2575 2925 2475 2275 
Q 2375 1625 2175 975 
Q 2575 675 2800 425 
Q 2600 250 2475 50 
Q 2200 350 1925 550 
Q 1350 -125 575 -575 
Q 500 -400 200 -175 
z
M 2725 2575 
Q 3050 2550 4150 2550 
L 4150 4200 
Q 3425 4125 3025 4025 
Q 2975 4300 2800 4500 
Q 3825 4575 4500 4712 
Q 5175 4850 5475 5000 
Q 5600 4750 5850 4450 
Q 5475 4400 4600 4250 
L 4600 2550 
Q 5800 2550 6150 2575 
L 6150 2125 
Q 5825 2150 4600 2150 
L 4600 125 
Q 5550 125 5900 150 
L 5900 -325 
Q 5575 -300 5200 -300 
L 3650 -300 
Q 3300 -300 2950 -325 
L 2950 150 
Q 3300 125 4150 125 
L 4150 2150 
Q 3050 2150 2725 2125 
L 2725 2575 
z
M 1025 1850 
Q 1550 1500 1825 1225 
Q 1925 1625 2000 2075 
Q 2075 2525 2125 3375 
L 1425 3375 
Q 1325 3000 1250 2650 
Q 1175 2300 1025 1850 
z
" transform="scale(0.015625)"/>
        <path id="SimHei-5a20" d="M 5100 4775 
Q 5450 4775 5850 4800 
L 5850 4375 
Q 5450 4400 5125 4400 
L 3150 4400 
L 3150 2700 
L 5325 2700 
Q 5675 2700 5950 2725 
L 5950 2275 
Q 5675 2300 5300 2300 
L 4750 2300 
Q 4800 1600 4950 1250 
Q 5450 1725 5575 1950 
Q 5725 1750 5950 1575 
Q 5725 1375 5125 875 
Q 5275 550 5562 287 
Q 5850 25 6175 -125 
Q 5875 -325 5725 -500 
Q 5325 -250 4875 412 
Q 4425 1075 4325 2300 
L 4000 2300 
L 4000 150 
Q 4275 300 4475 475 
Q 4550 300 4675 25 
Q 4500 -25 4187 -225 
Q 3875 -425 3650 -625 
Q 3550 -400 3375 -150 
Q 3600 50 3575 275 
L 3575 2300 
L 3150 2300 
Q 3100 1175 2937 562 
Q 2775 -50 2475 -525 
Q 2325 -400 2000 -325 
Q 2325 150 2475 637 
Q 2625 1125 2675 1725 
Q 2725 2325 2725 3150 
Q 2725 3975 2700 4775 
L 5100 4775 
z
M 1700 5025 
Q 1575 4875 1512 4450 
Q 1450 4025 1400 3775 
L 2450 3775 
Q 2325 2850 2237 2262 
Q 2150 1675 1950 1050 
Q 2100 850 2350 650 
Q 2150 475 2000 225 
Q 1850 450 1700 600 
Q 1225 -125 700 -575 
Q 575 -400 300 -250 
Q 1000 300 1375 925 
Q 1200 1100 475 1650 
Q 600 1975 687 2450 
Q 775 2925 875 3375 
Q 700 3375 400 3350 
L 400 3800 
Q 675 3775 950 3775 
Q 1125 4700 1125 5150 
Q 1475 5050 1700 5025 
z
M 975 1825 
Q 1375 1525 1575 1350 
Q 1750 1900 1825 2400 
Q 1900 2900 1950 3375 
L 1325 3375 
Q 1225 2900 1137 2525 
Q 1050 2150 975 1825 
z
M 3450 3775 
Q 4000 3750 4500 3750 
Q 5025 3750 5600 3775 
L 5600 3325 
Q 5025 3350 4500 3350 
Q 4000 3350 3450 3325 
L 3450 3775 
z
" transform="scale(0.015625)"/>
        <path id="SimHei-5f" d="M 3150 -850 
L 0 -850 
L 0 -550 
L 3150 -550 
L 3150 -850 
z
" transform="scale(0.015625)"/>
        <path id="SimHei-7f16" d="M 4275 5250 
Q 4375 4850 4475 4500 
L 5775 4500 
Q 5750 4200 5750 3825 
Q 5750 3450 5775 3175 
L 3100 3175 
Q 3075 2800 3050 2550 
L 6000 2550 
Q 5975 2150 5975 1700 
L 5975 -25 
Q 5975 -400 5812 -500 
Q 5650 -600 5275 -700 
Q 5200 -400 5050 -150 
Q 5400 -150 5475 -112 
Q 5550 -75 5550 150 
L 5550 1000 
L 5050 1000 
Q 5050 450 5075 -50 
L 4625 -50 
Q 4650 450 4650 1000 
L 4150 1000 
Q 4150 225 4175 -75 
L 3725 -75 
Q 3750 225 3750 1000 
L 3250 1000 
L 3250 -650 
L 2775 -650 
Q 2825 -175 2825 275 
L 2825 1625 
Q 2625 1075 2350 600 
Q 2175 925 2025 1100 
Q 2250 1400 2375 1700 
Q 2500 2000 2575 2525 
Q 2650 3050 2650 3575 
Q 2650 4100 2625 4500 
L 3925 4500 
Q 3875 4775 3750 5100 
Q 4075 5175 4275 5250 
z
M 1825 4875 
Q 1675 4725 1387 4150 
Q 1100 3575 875 3150 
L 1575 3175 
Q 1725 3475 1875 3850 
Q 2100 3675 2375 3500 
Q 2150 3275 1862 2812 
Q 1575 2350 1075 1675 
Q 1600 1725 2075 1800 
L 2025 1350 
Q 1725 1325 1350 1275 
Q 975 1225 550 1050 
Q 500 1325 400 1575 
Q 600 1600 825 1925 
Q 1050 2250 1400 2800 
Q 1175 2800 950 2775 
Q 725 2750 450 2650 
Q 375 2950 275 3175 
Q 525 3225 800 3862 
Q 1075 4500 1225 5125 
Q 1525 4950 1825 4875 
z
M 5325 3525 
L 5325 4150 
L 3100 4150 
L 3100 3525 
L 5325 3525 
z
M 2100 800 
Q 2075 525 2100 300 
Q 1575 175 1212 50 
Q 850 -75 400 -300 
L 200 300 
Q 500 325 1037 462 
Q 1575 600 2100 800 
z
M 4650 1350 
L 4650 2200 
L 4150 2200 
L 4150 1350 
L 4650 1350 
z
M 5550 1350 
L 5550 2200 
L 5050 2200 
L 5050 1350 
L 5550 1350 
z
M 3750 1350 
L 3750 2200 
L 3250 2200 
L 3250 1350 
L 3750 1350 
z
" transform="scale(0.015625)"/>
        <path id="SimHei-7801" d="M 1975 4750 
Q 2325 4750 2725 4775 
L 2725 4350 
Q 2300 4375 2100 4375 
L 1725 4375 
Q 1625 3775 1400 3050 
L 2600 3050 
Q 2575 2625 2575 2300 
L 2575 1100 
Q 2575 775 2600 150 
L 2150 150 
L 2150 600 
L 1400 600 
L 1400 -125 
L 925 -125 
Q 950 500 950 875 
L 950 2050 
Q 775 1725 550 1325 
Q 400 1525 200 1675 
Q 650 2275 925 3062 
Q 1200 3850 1250 4375 
Q 800 4375 350 4350 
L 350 4775 
Q 800 4750 1125 4750 
L 1975 4750 
z
M 4725 2425 
L 4975 4500 
L 3825 4500 
Q 3400 4500 2950 4475 
L 2950 4925 
Q 3400 4875 3825 4875 
L 5500 4875 
Q 5375 4200 5175 2425 
L 5975 2425 
Q 5925 2150 5887 1500 
Q 5850 850 5750 300 
Q 5650 -250 5412 -412 
Q 5175 -575 4475 -625 
Q 4450 -350 4275 -75 
Q 4925 -100 5100 -25 
Q 5275 50 5350 712 
Q 5425 1375 5450 2025 
L 3125 2025 
Q 3200 2575 3262 3112 
Q 3325 3650 3350 4150 
L 3900 4050 
Q 3800 3800 3737 3362 
Q 3675 2925 3625 2425 
L 4725 2425 
z
M 2150 1000 
L 2150 2650 
L 1400 2650 
L 1400 1000 
L 2150 1000 
z
M 4325 1325 
Q 4625 1325 5275 1350 
L 5275 900 
Q 4600 925 4150 925 
L 3500 925 
Q 3225 925 2825 900 
L 2825 1350 
Q 3100 1325 3500 1325 
L 4325 1325 
z
" transform="scale(0.015625)"/>
       </defs>
       <use xlink:href="#SimHei-49"/>
       <use xlink:href="#SimHei-56" transform="translate(50 0)"/>
       <use xlink:href="#SimHei-46" transform="translate(100 0)"/>
       <use xlink:href="#SimHei-598a" transform="translate(150 0)"/>
       <use xlink:href="#SimHei-5a20" transform="translate(250 0)"/>
       <use xlink:href="#SimHei-5f" transform="translate(350 0)"/>
       <use xlink:href="#SimHei-7f16" transform="translate(400 0)"/>
       <use xlink:href="#SimHei-7801" transform="translate(500 0)"/>
      </g>
     </g>
    </g>
    <g id="xtick_9">
     <g id="line2d_9">
      <g>
       <use xlink:href="#m7d57b53723" x="487.17581" y="461.656964" style="stroke: #000000; stroke-width: 0.8"/>
      </g>
     </g>
     <g id="text_9">
      <!-- GC含量 -->
      <g transform="translate(465.078723 495.504924) rotate(-45) scale(0.1 -0.1)">
       <use xlink:href="#SimHei-47"/>
       <use xlink:href="#SimHei-43" transform="translate(50 0)"/>
       <use xlink:href="#SimHei-542b" transform="translate(100 0)"/>
       <use xlink:href="#SimHei-91cf" transform="translate(200 0)"/>
      </g>
     </g>
    </g>
    <g id="xtick_10">
     <g id="line2d_10">
      <g>
       <use xlink:href="#m7d57b53723" x="534.81135" y="461.656964" style="stroke: #000000; stroke-width: 0.8"/>
      </g>
     </g>
     <g id="text_10">
      <!-- 怀孕失败次数（4） -->
      <g transform="translate(473.823391 534.395797) rotate(-45) scale(0.1 -0.1)">
       <defs>
        <path id="SimHei-34" d="M 2000 1100 
L 75 1100 
L 75 1525 
L 2100 4450 
L 2475 4450 
L 2475 1525 
L 3075 1525 
L 3075 1100 
L 2475 1100 
L 2475 150 
L 2000 150 
L 2000 1100 
z
M 2000 1525 
L 2000 3500 
L 600 1525 
L 2000 1525 
z
" transform="scale(0.015625)"/>
       </defs>
       <use xlink:href="#SimHei-6000"/>
       <use xlink:href="#SimHei-5b55" transform="translate(100 0)"/>
       <use xlink:href="#SimHei-5931" transform="translate(200 0)"/>
       <use xlink:href="#SimHei-8d25" transform="translate(300 0)"/>
       <use xlink:href="#SimHei-6b21" transform="translate(400 0)"/>
       <use xlink:href="#SimHei-6570" transform="translate(500 0)"/>
       <use xlink:href="#SimHei-ff08" transform="translate(600 0)"/>
       <use xlink:href="#SimHei-34" transform="translate(700 0)"/>
       <use xlink:href="#SimHei-ff09" transform="translate(750 0)"/>
      </g>
     </g>
    </g>
    <g id="xtick_11">
     <g id="line2d_11">
      <g>
       <use xlink:href="#m7d57b53723" x="582.446891" y="461.656964" style="stroke: #000000; stroke-width: 0.8"/>
      </g>
     </g>
     <g id="text_11">
      <!-- 21号染色体的Z值 -->
      <g transform="translate(528.529999 527.297108) rotate(-45) scale(0.1 -0.1)">
       <defs>
        <path id="SimHei-32" d="M 300 250 
Q 325 625 650 925 
Q 975 1225 1475 1862 
Q 1975 2500 2125 2850 
Q 2275 3200 2237 3450 
Q 2200 3700 2000 3862 
Q 1800 4025 1537 4000 
Q 1275 3975 1037 3800 
Q 800 3625 675 3275 
L 200 3350 
Q 400 3925 712 4187 
Q 1025 4450 1450 4475 
Q 1700 4500 1900 4462 
Q 2100 4425 2312 4287 
Q 2525 4150 2662 3875 
Q 2800 3600 2762 3212 
Q 2725 2825 2375 2287 
Q 2025 1750 1025 600 
L 2825 600 
L 2825 150 
L 300 150 
L 300 250 
z
" transform="scale(0.015625)"/>
       </defs>
       <use xlink:href="#SimHei-32"/>
       <use xlink:href="#SimHei-31" transform="translate(50 0)"/>
       <use xlink:href="#SimHei-53f7" transform="translate(100 0)"/>
       <use xlink:href="#SimHei-67d3" transform="translate(200 0)"/>
       <use xlink:href="#SimHei-8272" transform="translate(300 0)"/>
       <use xlink:href="#SimHei-4f53" transform="translate(400 0)"/>
       <use xlink:href="#SimHei-7684" transform="translate(500 0)"/>
       <use xlink:href="#SimHei-5a" transform="translate(600 0)"/>
       <use xlink:href="#SimHei-503c" transform="translate(650 0)"/>
      </g>
     </g>
    </g>
    <g id="xtick_12">
     <g id="line2d_12">
      <g>
       <use xlink:href="#m7d57b53723" x="630.082431" y="461.656964" style="stroke: #000000; stroke-width: 0.8"/>
      </g>
     </g>
     <g id="text_12">
      <!-- 21号染色体的GC含量 -->
      <g transform="translate(565.558937 537.931331) rotate(-45) scale(0.1 -0.1)">
       <use xlink:href="#SimHei-32"/>
       <use xlink:href="#SimHei-31" transform="translate(50 0)"/>
       <use xlink:href="#SimHei-53f7" transform="translate(100 0)"/>
       <use xlink:href="#SimHei-67d3" transform="translate(200 0)"/>
       <use xlink:href="#SimHei-8272" transform="translate(300 0)"/>
       <use xlink:href="#SimHei-4f53" transform="translate(400 0)"/>
       <use xlink:href="#SimHei-7684" transform="translate(500 0)"/>
       <use xlink:href="#SimHei-47" transform="translate(600 0)"/>
       <use xlink:href="#SimHei-43" transform="translate(650 0)"/>
       <use xlink:href="#SimHei-542b" transform="translate(700 0)"/>
       <use xlink:href="#SimHei-91cf" transform="translate(800 0)"/>
      </g>
     </g>
    </g>
    <g id="xtick_13">
     <g id="line2d_13">
      <g>
       <use xlink:href="#m7d57b53723" x="677.717971" y="461.656964" style="stroke: #000000; stroke-width: 0.8"/>
      </g>
     </g>
     <g id="text_13">
      <!-- 怀孕次数（3） -->
      <g transform="translate(630.872147 520.253662) rotate(-45) scale(0.1 -0.1)">
       <use xlink:href="#SimHei-6000"/>
       <use xlink:href="#SimHei-5b55" transform="translate(100 0)"/>
       <use xlink:href="#SimHei-6b21" transform="translate(200 0)"/>
       <use xlink:href="#SimHei-6570" transform="translate(300 0)"/>
       <use xlink:href="#SimHei-ff08" transform="translate(400 0)"/>
       <use xlink:href="#SimHei-33" transform="translate(500 0)"/>
       <use xlink:href="#SimHei-ff09" transform="translate(550 0)"/>
      </g>
     </g>
    </g>
    <g id="xtick_14">
     <g id="line2d_14">
      <g>
       <use xlink:href="#m7d57b53723" x="725.353511" y="461.656964" style="stroke: #000000; stroke-width: 0.8"/>
      </g>
     </g>
     <g id="text_14">
      <!-- 怀孕次数（4） -->
      <g transform="translate(678.507687 520.253662) rotate(-45) scale(0.1 -0.1)">
       <use xlink:href="#SimHei-6000"/>
       <use xlink:href="#SimHei-5b55" transform="translate(100 0)"/>
       <use xlink:href="#SimHei-6b21" transform="translate(200 0)"/>
       <use xlink:href="#SimHei-6570" transform="translate(300 0)"/>
       <use xlink:href="#SimHei-ff08" transform="translate(400 0)"/>
       <use xlink:href="#SimHei-34" transform="translate(500 0)"/>
       <use xlink:href="#SimHei-ff09" transform="translate(550 0)"/>
      </g>
     </g>
    </g>
    <g id="text_15">
     <!-- 变量 -->
     <g transform="translate(403.7225 559.570154) scale(0.12 -0.12)">
      <defs>
       <path id="SimHei-53d8" d="M 5200 1975 
Q 4950 1600 4537 1137 
Q 4125 675 3675 375 
Q 3925 225 4600 87 
Q 5275 -50 6000 -75 
Q 5700 -400 5650 -625 
Q 4850 -525 4212 -312 
Q 3575 -100 3225 125 
Q 2800 -125 2150 -325 
Q 1500 -525 700 -675 
Q 600 -425 400 -175 
Q 950 -150 1687 12 
Q 2425 175 2825 375 
Q 2275 775 1675 1575 
Q 1350 1575 1000 1550 
L 1000 2000 
Q 1450 1975 2075 1975 
L 5200 1975 
z
M 3225 5275 
Q 3400 4900 3550 4475 
L 4675 4475 
Q 5400 4475 5975 4500 
L 5975 4025 
Q 5375 4050 4725 4050 
L 4125 4050 
L 4125 2950 
Q 4125 2550 4150 2150 
L 3600 2150 
Q 3625 2550 3625 2950 
L 3625 4050 
L 2750 4050 
L 2750 2950 
Q 2750 2675 2775 2150 
L 2225 2150 
Q 2250 2675 2250 2950 
L 2250 4050 
L 1700 4050 
Q 975 4050 425 4025 
L 425 4500 
Q 950 4475 1700 4475 
L 2975 4475 
Q 2925 4675 2700 5125 
Q 2950 5150 3225 5275 
z
M 2200 1575 
Q 2650 975 3250 600 
Q 3850 1000 4275 1575 
L 2200 1575 
z
M 4850 3750 
Q 5375 3275 5950 2675 
Q 5750 2525 5500 2300 
Q 5075 2800 4450 3400 
Q 4675 3575 4850 3750 
z
M 1825 3500 
Q 1700 3375 1425 3025 
Q 1150 2675 825 2300 
Q 575 2475 375 2600 
Q 975 3150 1300 3825 
Q 1525 3650 1825 3500 
z
" transform="scale(0.015625)"/>
      </defs>
      <use xlink:href="#SimHei-53d8"/>
      <use xlink:href="#SimHei-91cf" transform="translate(100 0)"/>
     </g>
    </g>
   </g>
   <g id="matplotlib.axis_2">
    <g id="ytick_1">
     <g id="line2d_15">
      <path d="M 54.16875 441.857783 
L 777.27625 441.857783 
" clip-path="url(#p5a12b3d460)" style="fill: none; stroke: #b0b0b0; stroke-opacity: 0.3; stroke-width: 0.8; stroke-linecap: square"/>
     </g>
     <g id="line2d_16">
      <defs>
       <path id="m2582eba63e" d="M 0 0 
L -3.5 0 
" style="stroke: #000000; stroke-width: 0.8"/>
      </defs>
      <g>
       <use xlink:href="#m2582eba63e" x="54.16875" y="441.857783" style="stroke: #000000; stroke-width: 0.8"/>
      </g>
     </g>
     <g id="text_16">
      <!-- -1.00 -->
      <g transform="translate(22.16875 445.295283) scale(0.1 -0.1)">
       <defs>
        <path id="SimHei-2d" d="M 2975 2125 
L 125 2125 
L 125 2525 
L 2975 2525 
L 2975 2125 
z
" transform="scale(0.015625)"/>
        <path id="SimHei-2e" d="M 1075 125 
L 500 125 
L 500 675 
L 1075 675 
L 1075 125 
z
" transform="scale(0.015625)"/>
        <path id="SimHei-30" d="M 225 2537 
Q 250 3200 412 3587 
Q 575 3975 875 4225 
Q 1175 4475 1612 4475 
Q 2050 4475 2375 4112 
Q 2700 3750 2800 3200 
Q 2900 2650 2862 1937 
Q 2825 1225 2612 775 
Q 2400 325 1975 150 
Q 1550 -25 1125 187 
Q 700 400 525 750 
Q 350 1100 275 1487 
Q 200 1875 225 2537 
z
M 750 2687 
Q 675 2000 800 1462 
Q 925 925 1212 700 
Q 1500 475 1800 612 
Q 2100 750 2237 1162 
Q 2375 1575 2375 2062 
Q 2375 2550 2337 2950 
Q 2300 3350 2112 3675 
Q 1925 4000 1612 4012 
Q 1300 4025 1062 3700 
Q 825 3375 750 2687 
z
" transform="scale(0.015625)"/>
       </defs>
       <use xlink:href="#SimHei-2d"/>
       <use xlink:href="#SimHei-31" transform="translate(50 0)"/>
       <use xlink:href="#SimHei-2e" transform="translate(100 0)"/>
       <use xlink:href="#SimHei-30" transform="translate(150 0)"/>
       <use xlink:href="#SimHei-30" transform="translate(200 0)"/>
      </g>
     </g>
    </g>
    <g id="ytick_2">
     <g id="line2d_17">
      <path d="M 54.16875 392.359833 
L 777.27625 392.359833 
" clip-path="url(#p5a12b3d460)" style="fill: none; stroke: #b0b0b0; stroke-opacity: 0.3; stroke-width: 0.8; stroke-linecap: square"/>
     </g>
     <g id="line2d_18">
      <g>
       <use xlink:href="#m2582eba63e" x="54.16875" y="392.359833" style="stroke: #000000; stroke-width: 0.8"/>
      </g>
     </g>
     <g id="text_17">
      <!-- -0.75 -->
      <g transform="translate(22.16875 395.797333) scale(0.1 -0.1)">
       <defs>
        <path id="SimHei-37" d="M 850 150 
Q 1300 2050 2425 3925 
L 275 3925 
L 275 4375 
L 2950 4375 
L 2950 3950 
Q 1775 2050 1400 150 
L 850 150 
z
" transform="scale(0.015625)"/>
        <path id="SimHei-35" d="M 550 1325 
Q 725 650 1150 575 
Q 1575 500 1837 662 
Q 2100 825 2212 1087 
Q 2325 1350 2312 1675 
Q 2300 2000 2137 2225 
Q 1975 2450 1725 2525 
Q 1475 2600 1162 2525 
Q 850 2450 650 2175 
L 225 2225 
Q 275 2375 700 4375 
L 2675 4375 
L 2675 3925 
L 1075 3925 
Q 950 3250 825 2850 
Q 1200 3025 1525 3012 
Q 1850 3000 2150 2862 
Q 2450 2725 2587 2487 
Q 2725 2250 2787 2012 
Q 2850 1775 2837 1500 
Q 2825 1225 2725 937 
Q 2625 650 2425 462 
Q 2225 275 1937 162 
Q 1650 50 1275 75 
Q 900 100 562 350 
Q 225 600 100 1200 
L 550 1325 
z
" transform="scale(0.015625)"/>
       </defs>
       <use xlink:href="#SimHei-2d"/>
       <use xlink:href="#SimHei-30" transform="translate(50 0)"/>
       <use xlink:href="#SimHei-2e" transform="translate(100 0)"/>
       <use xlink:href="#SimHei-37" transform="translate(150 0)"/>
       <use xlink:href="#SimHei-35" transform="translate(200 0)"/>
      </g>
     </g>
    </g>
    <g id="ytick_3">
     <g id="line2d_19">
      <path d="M 54.16875 342.861883 
L 777.27625 342.861883 
" clip-path="url(#p5a12b3d460)" style="fill: none; stroke: #b0b0b0; stroke-opacity: 0.3; stroke-width: 0.8; stroke-linecap: square"/>
     </g>
     <g id="line2d_20">
      <g>
       <use xlink:href="#m2582eba63e" x="54.16875" y="342.861883" style="stroke: #000000; stroke-width: 0.8"/>
      </g>
     </g>
     <g id="text_18">
      <!-- -0.50 -->
      <g transform="translate(22.16875 346.299383) scale(0.1 -0.1)">
       <use xlink:href="#SimHei-2d"/>
       <use xlink:href="#SimHei-30" transform="translate(50 0)"/>
       <use xlink:href="#SimHei-2e" transform="translate(100 0)"/>
       <use xlink:href="#SimHei-35" transform="translate(150 0)"/>
       <use xlink:href="#SimHei-30" transform="translate(200 0)"/>
      </g>
     </g>
    </g>
    <g id="ytick_4">
     <g id="line2d_21">
      <path d="M 54.16875 293.363932 
L 777.27625 293.363932 
" clip-path="url(#p5a12b3d460)" style="fill: none; stroke: #b0b0b0; stroke-opacity: 0.3; stroke-width: 0.8; stroke-linecap: square"/>
     </g>
     <g id="line2d_22">
      <g>
       <use xlink:href="#m2582eba63e" x="54.16875" y="293.363932" style="stroke: #000000; stroke-width: 0.8"/>
      </g>
     </g>
     <g id="text_19">
      <!-- -0.25 -->
      <g transform="translate(22.16875 296.801432) scale(0.1 -0.1)">
       <use xlink:href="#SimHei-2d"/>
       <use xlink:href="#SimHei-30" transform="translate(50 0)"/>
       <use xlink:href="#SimHei-2e" transform="translate(100 0)"/>
       <use xlink:href="#SimHei-32" transform="translate(150 0)"/>
       <use xlink:href="#SimHei-35" transform="translate(200 0)"/>
      </g>
     </g>
    </g>
    <g id="ytick_5">
     <g id="line2d_23">
      <path d="M 54.16875 243.865982 
L 777.27625 243.865982 
" clip-path="url(#p5a12b3d460)" style="fill: none; stroke: #b0b0b0; stroke-opacity: 0.3; stroke-width: 0.8; stroke-linecap: square"/>
     </g>
     <g id="line2d_24">
      <g>
       <use xlink:href="#m2582eba63e" x="54.16875" y="243.865982" style="stroke: #000000; stroke-width: 0.8"/>
      </g>
     </g>
     <g id="text_20">
      <!-- 0.00 -->
      <g transform="translate(27.16875 247.303482) scale(0.1 -0.1)">
       <use xlink:href="#SimHei-30"/>
       <use xlink:href="#SimHei-2e" transform="translate(50 0)"/>
       <use xlink:href="#SimHei-30" transform="translate(100 0)"/>
       <use xlink:href="#SimHei-30" transform="translate(150 0)"/>
      </g>
     </g>
    </g>
    <g id="ytick_6">
     <g id="line2d_25">
      <path d="M 54.16875 194.368031 
L 777.27625 194.368031 
" clip-path="url(#p5a12b3d460)" style="fill: none; stroke: #b0b0b0; stroke-opacity: 0.3; stroke-width: 0.8; stroke-linecap: square"/>
     </g>
     <g id="line2d_26">
      <g>
       <use xlink:href="#m2582eba63e" x="54.16875" y="194.368031" style="stroke: #000000; stroke-width: 0.8"/>
      </g>
     </g>
     <g id="text_21">
      <!-- 0.25 -->
      <g transform="translate(27.16875 197.805531) scale(0.1 -0.1)">
       <use xlink:href="#SimHei-30"/>
       <use xlink:href="#SimHei-2e" transform="translate(50 0)"/>
       <use xlink:href="#SimHei-32" transform="translate(100 0)"/>
       <use xlink:href="#SimHei-35" transform="translate(150 0)"/>
      </g>
     </g>
    </g>
    <g id="ytick_7">
     <g id="line2d_27">
      <path d="M 54.16875 144.870081 
L 777.27625 144.870081 
" clip-path="url(#p5a12b3d460)" style="fill: none; stroke: #b0b0b0; stroke-opacity: 0.3; stroke-width: 0.8; stroke-linecap: square"/>
     </g>
     <g id="line2d_28">
      <g>
       <use xlink:href="#m2582eba63e" x="54.16875" y="144.870081" style="stroke: #000000; stroke-width: 0.8"/>
      </g>
     </g>
     <g id="text_22">
      <!-- 0.50 -->
      <g transform="translate(27.16875 148.307581) scale(0.1 -0.1)">
       <use xlink:href="#SimHei-30"/>
       <use xlink:href="#SimHei-2e" transform="translate(50 0)"/>
       <use xlink:href="#SimHei-35" transform="translate(100 0)"/>
       <use xlink:href="#SimHei-30" transform="translate(150 0)"/>
      </g>
     </g>
    </g>
    <g id="ytick_8">
     <g id="line2d_29">
      <path d="M 54.16875 95.372131 
L 777.27625 95.372131 
" clip-path="url(#p5a12b3d460)" style="fill: none; stroke: #b0b0b0; stroke-opacity: 0.3; stroke-width: 0.8; stroke-linecap: square"/>
     </g>
     <g id="line2d_30">
      <g>
       <use xlink:href="#m2582eba63e" x="54.16875" y="95.372131" style="stroke: #000000; stroke-width: 0.8"/>
      </g>
     </g>
     <g id="text_23">
      <!-- 0.75 -->
      <g transform="translate(27.16875 98.809631) scale(0.1 -0.1)">
       <use xlink:href="#SimHei-30"/>
       <use xlink:href="#SimHei-2e" transform="translate(50 0)"/>
       <use xlink:href="#SimHei-37" transform="translate(100 0)"/>
       <use xlink:href="#SimHei-35" transform="translate(150 0)"/>
      </g>
     </g>
    </g>
    <g id="ytick_9">
     <g id="line2d_31">
      <path d="M 54.16875 45.87418 
L 777.27625 45.87418 
" clip-path="url(#p5a12b3d460)" style="fill: none; stroke: #b0b0b0; stroke-opacity: 0.3; stroke-width: 0.8; stroke-linecap: square"/>
     </g>
     <g id="line2d_32">
      <g>
       <use xlink:href="#m2582eba63e" x="54.16875" y="45.87418" style="stroke: #000000; stroke-width: 0.8"/>
      </g>
     </g>
     <g id="text_24">
      <!-- 1.00 -->
      <g transform="translate(27.16875 49.31168) scale(0.1 -0.1)">
       <use xlink:href="#SimHei-31"/>
       <use xlink:href="#SimHei-2e" transform="translate(50 0)"/>
       <use xlink:href="#SimHei-30" transform="translate(100 0)"/>
       <use xlink:href="#SimHei-30" transform="translate(150 0)"/>
      </g>
     </g>
    </g>
    <g id="text_25">
     <!-- Pearson相关系数 -->
     <g transform="translate(16.66875 288.865982) rotate(-90) scale(0.12 -0.12)">
      <defs>
       <path id="SimHei-50" d="M 2950 3100 
Q 2950 2500 2600 2150 
Q 2250 1800 1625 1800 
L 900 1800 
L 900 125 
L 325 125 
L 325 4400 
L 1625 4400 
Q 2250 4400 2600 4050 
Q 2950 3700 2950 3100 
z
M 2375 3100 
Q 2375 3575 2150 3750 
Q 1925 3925 1475 3925 
L 900 3925 
L 900 2275 
L 1475 2275 
Q 1925 2275 2150 2450 
Q 2375 2625 2375 3100 
z
" transform="scale(0.015625)"/>
       <path id="SimHei-65" d="M 2850 1075 
Q 2800 625 2450 350 
Q 2100 75 1625 75 
Q 1025 75 637 462 
Q 250 850 250 1525 
Q 250 2200 637 2587 
Q 1025 2975 1625 2975 
Q 2150 2975 2487 2637 
Q 2825 2300 2825 1525 
L 800 1525 
Q 800 975 1037 750 
Q 1275 525 1625 525 
Q 1900 525 2075 662 
Q 2250 800 2300 1075 
L 2850 1075 
z
M 2250 1925 
Q 2200 2275 2025 2412 
Q 1850 2550 1575 2550 
Q 1325 2550 1125 2412 
Q 925 2275 825 1925 
L 2250 1925 
z
" transform="scale(0.015625)"/>
       <path id="SimHei-61" d="M 2875 125 
L 2275 125 
Q 2225 175 2200 262 
Q 2175 350 2175 475 
Q 2000 275 1750 175 
Q 1500 75 1225 75 
Q 825 75 550 275 
Q 275 475 275 850 
Q 275 1225 525 1450 
Q 775 1675 1300 1750 
Q 1650 1800 1912 1875 
Q 2175 1950 2175 2075 
Q 2175 2225 2062 2375 
Q 1950 2525 1575 2525 
Q 1275 2525 1137 2412 
Q 1000 2300 950 2100 
L 400 2100 
Q 450 2500 762 2737 
Q 1075 2975 1575 2975 
Q 2125 2975 2400 2725 
Q 2675 2475 2675 2025 
L 2675 650 
Q 2675 500 2725 375 
Q 2775 250 2875 125 
z
M 2175 1050 
L 2175 1550 
Q 2025 1500 1887 1462 
Q 1750 1425 1425 1375 
Q 1050 1325 937 1200 
Q 825 1075 825 900 
Q 825 750 937 637 
Q 1050 525 1275 525 
Q 1500 525 1762 650 
Q 2025 775 2175 1050 
z
" transform="scale(0.015625)"/>
       <path id="SimHei-72" d="M 2500 2425 
Q 2025 2500 1700 2287 
Q 1375 2075 1150 1550 
L 1150 125 
L 650 125 
L 650 2925 
L 1150 2925 
L 1150 2200 
Q 1375 2600 1712 2787 
Q 2050 2975 2500 2975 
L 2500 2425 
z
" transform="scale(0.015625)"/>
       <path id="SimHei-73" d="M 2750 900 
Q 2750 500 2437 287 
Q 2125 75 1650 75 
Q 1050 75 725 312 
Q 400 550 400 1000 
L 900 1000 
Q 900 700 1112 600 
Q 1325 500 1625 500 
Q 1925 500 2075 612 
Q 2225 725 2225 900 
Q 2225 1025 2100 1150 
Q 1975 1275 1475 1350 
Q 900 1425 687 1637 
Q 475 1850 475 2200 
Q 475 2500 762 2737 
Q 1050 2975 1600 2975 
Q 2100 2975 2387 2750 
Q 2675 2525 2675 2150 
L 2175 2150 
Q 2175 2375 2012 2462 
Q 1850 2550 1600 2550 
Q 1275 2550 1137 2437 
Q 1000 2325 1000 2175 
Q 1000 2000 1125 1900 
Q 1250 1800 1650 1750 
Q 2300 1650 2525 1437 
Q 2750 1225 2750 900 
z
" transform="scale(0.015625)"/>
       <path id="SimHei-6f" d="M 2925 1525 
Q 2925 875 2525 475 
Q 2125 75 1575 75 
Q 1025 75 625 475 
Q 225 875 225 1525 
Q 225 2175 625 2575 
Q 1025 2975 1575 2975 
Q 2125 2975 2525 2575 
Q 2925 2175 2925 1525 
z
M 2375 1525 
Q 2375 2025 2125 2275 
Q 1875 2525 1575 2525 
Q 1275 2525 1025 2275 
Q 775 2025 775 1525 
Q 775 1025 1025 775 
Q 1275 525 1575 525 
Q 1875 525 2125 775 
Q 2375 1025 2375 1525 
z
" transform="scale(0.015625)"/>
       <path id="SimHei-6e" d="M 2800 125 
L 2300 125 
L 2300 1925 
Q 2300 2225 2150 2400 
Q 2000 2575 1750 2575 
Q 1425 2575 1137 2237 
Q 850 1900 850 1400 
L 850 125 
L 350 125 
L 350 2925 
L 850 2925 
L 850 2400 
Q 1050 2675 1287 2825 
Q 1525 2975 1900 2975 
Q 2350 2975 2575 2725 
Q 2800 2475 2800 2100 
L 2800 125 
z
" transform="scale(0.015625)"/>
       <path id="SimHei-76f8" d="M 5900 4825 
Q 5875 4225 5875 3575 
L 5875 750 
Q 5875 75 5900 -575 
L 5400 -575 
L 5400 -100 
L 3525 -100 
L 3525 -625 
L 3025 -625 
Q 3050 125 3050 675 
L 3050 3600 
Q 3050 4250 3025 4825 
L 5900 4825 
z
M 1400 3825 
Q 1400 4850 1375 5200 
L 1925 5200 
Q 1900 4825 1900 3825 
Q 2500 3825 2825 3850 
L 2825 3375 
Q 2525 3400 1900 3400 
L 1900 2450 
Q 2025 2575 2175 2750 
Q 2625 2275 2950 1825 
Q 2800 1725 2575 1500 
Q 2300 1975 1900 2375 
L 1900 475 
Q 1900 50 1925 -625 
L 1375 -625 
Q 1400 50 1400 450 
L 1400 2150 
Q 1075 1225 650 675 
Q 475 950 300 1100 
Q 475 1250 800 1887 
Q 1125 2525 1300 3400 
Q 750 3400 400 3375 
L 400 3850 
Q 850 3825 1400 3825 
z
M 5400 325 
L 5400 1475 
L 3525 1475 
L 3525 325 
L 5400 325 
z
M 5400 3300 
L 5400 4400 
L 3525 4400 
L 3525 3300 
L 5400 3300 
z
M 5400 1900 
L 5400 2900 
L 3525 2900 
L 3525 1900 
L 5400 1900 
z
" transform="scale(0.015625)"/>
       <path id="SimHei-5173" d="M 4675 4850 
Q 4525 4675 4362 4375 
Q 4200 4075 4075 3825 
L 4625 3825 
Q 5150 3825 5550 3850 
L 5550 3375 
Q 5225 3400 4700 3400 
L 3400 3400 
L 3400 2150 
L 4975 2150 
Q 5475 2150 5875 2175 
L 5875 1700 
Q 5475 1725 5025 1725 
L 3500 1725 
Q 4250 450 6000 75 
Q 5775 -175 5600 -525 
Q 4025 0 3225 1300 
Q 2800 200 875 -600 
Q 775 -350 500 -150 
Q 2425 375 2875 1725 
L 1550 1725 
Q 975 1725 600 1700 
L 600 2150 
Q 875 2125 1450 2125 
L 2925 2125 
L 2925 3400 
L 1750 3400 
Q 1275 3400 900 3375 
L 900 3850 
Q 1275 3825 1775 3825 
L 3575 3825 
Q 3925 4625 4075 5150 
Q 4325 5000 4675 4850 
z
M 2125 5125 
Q 2450 4725 2800 4175 
Q 2500 4025 2325 3875 
Q 2025 4450 1725 4825 
Q 1950 4975 2125 5125 
z
" transform="scale(0.015625)"/>
       <path id="SimHei-7cfb" d="M 5300 5200 
Q 5450 4950 5725 4675 
Q 4975 4650 4437 4587 
Q 3900 4525 3125 4450 
Q 3250 4325 3475 4225 
Q 3150 4025 2837 3762 
Q 2525 3500 2225 3275 
L 3475 3275 
Q 4100 3700 4525 4050 
Q 4775 3850 5125 3700 
Q 4775 3550 4450 3375 
Q 4125 3200 3387 2737 
Q 2650 2275 2125 1975 
Q 3600 2050 4875 2100 
Q 4750 2225 4225 2625 
Q 4475 2725 4650 2875 
Q 4950 2650 5337 2312 
Q 5725 1975 6075 1650 
Q 5775 1475 5600 1325 
Q 5400 1575 5225 1725 
Q 4550 1700 3625 1650 
L 3625 150 
Q 3625 -325 3387 -412 
Q 3150 -500 2525 -600 
Q 2475 -300 2300 -25 
Q 2875 -25 3012 12 
Q 3150 50 3150 300 
L 3150 1650 
Q 1625 1625 1075 1525 
Q 1000 1775 900 2050 
Q 1450 2100 1875 2300 
Q 2300 2500 2900 2900 
Q 2325 2900 2037 2875 
Q 1750 2850 1400 2800 
Q 1325 3075 1250 3325 
Q 1675 3325 2100 3662 
Q 2525 4000 2750 4400 
Q 1350 4350 925 4300 
Q 850 4550 750 4750 
Q 2150 4750 3250 4850 
Q 4350 4950 5300 5200 
z
M 4625 1250 
Q 4925 1025 5325 737 
Q 5725 450 6000 175 
Q 5800 0 5600 -225 
Q 5275 125 4925 400 
Q 4575 675 4275 875 
Q 4500 1050 4625 1250 
z
M 2200 875 
Q 1900 725 1537 375 
Q 1175 25 800 -300 
Q 575 -75 375 25 
Q 1075 450 1675 1225 
Q 1900 1050 2200 875 
z
" transform="scale(0.015625)"/>
      </defs>
      <use xlink:href="#SimHei-50"/>
      <use xlink:href="#SimHei-65" transform="translate(50 0)"/>
      <use xlink:href="#SimHei-61" transform="translate(100 0)"/>
      <use xlink:href="#SimHei-72" transform="translate(150 0)"/>
      <use xlink:href="#SimHei-73" transform="translate(200 0)"/>
      <use xlink:href="#SimHei-6f" transform="translate(250 0)"/>
      <use xlink:href="#SimHei-6e" transform="translate(300 0)"/>
      <use xlink:href="#SimHei-76f8" transform="translate(350 0)"/>
      <use xlink:href="#SimHei-5173" transform="translate(450 0)"/>
      <use xlink:href="#SimHei-7cfb" transform="translate(550 0)"/>
      <use xlink:href="#SimHei-6570" transform="translate(650 0)"/>
     </g>
    </g>
   </g>
   <g id="line2d_33">
    <path d="M 54.16875 243.865982 
L 777.27625 243.865982 
" clip-path="url(#p5a12b3d460)" style="fill: none; stroke: #000000; stroke-opacity: 0.3; stroke-width: 1.5; stroke-linecap: square"/>
   </g>
   <g id="patch_17">
    <path d="M 54.16875 461.656964 
L 54.16875 26.075 
" style="fill: none; stroke: #000000; stroke-width: 0.8; stroke-linejoin: miter; stroke-linecap: square"/>
   </g>
   <g id="patch_18">
    <path d="M 777.27625 461.656964 
L 777.27625 26.075 
" style="fill: none; stroke: #000000; stroke-width: 0.8; stroke-linejoin: miter; stroke-linecap: square"/>
   </g>
   <g id="patch_19">
    <path d="M 54.16875 461.656964 
L 777.27625 461.656964 
" style="fill: none; stroke: #000000; stroke-width: 0.8; stroke-linejoin: miter; stroke-linecap: square"/>
   </g>
   <g id="patch_20">
    <path d="M 54.16875 26.075 
L 777.27625 26.075 
" style="fill: none; stroke: #000000; stroke-width: 0.8; stroke-linejoin: miter; stroke-linecap: square"/>
   </g>
   <g id="text_26">
    <!-- -0.064 -->
    <g transform="translate(91.091489 269.308659) scale(0.1 -0.1)">
     <defs>
      <path id="SimHei-36" d="M 250 1612 
Q 275 1975 387 2225 
Q 500 2475 725 2850 
L 1750 4450 
L 2325 4450 
L 1275 2800 
Q 1950 2975 2350 2750 
Q 2750 2525 2887 2237 
Q 3025 1950 3037 1612 
Q 3050 1275 2937 950 
Q 2825 625 2537 362 
Q 2250 100 1737 75 
Q 1225 50 862 262 
Q 500 475 362 862 
Q 225 1250 250 1612 
z
M 1025 787 
Q 1250 550 1625 525 
Q 2000 500 2250 775 
Q 2500 1050 2500 1575 
Q 2500 2100 2187 2300 
Q 1875 2500 1487 2450 
Q 1100 2400 925 2075 
Q 750 1750 775 1387 
Q 800 1025 1025 787 
z
" transform="scale(0.015625)"/>
     </defs>
     <use xlink:href="#SimHei-2d"/>
     <use xlink:href="#SimHei-30" transform="translate(50 0)"/>
     <use xlink:href="#SimHei-2e" transform="translate(100 0)"/>
     <use xlink:href="#SimHei-30" transform="translate(150 0)"/>
     <use xlink:href="#SimHei-36" transform="translate(200 0)"/>
     <use xlink:href="#SimHei-34" transform="translate(250 0)"/>
    </g>
   </g>
   <g id="text_27">
    <!-- 0.060 -->
    <g transform="translate(141.227029 226.791471) scale(0.1 -0.1)">
     <use xlink:href="#SimHei-30"/>
     <use xlink:href="#SimHei-2e" transform="translate(50 0)"/>
     <use xlink:href="#SimHei-30" transform="translate(100 0)"/>
     <use xlink:href="#SimHei-36" transform="translate(150 0)"/>
     <use xlink:href="#SimHei-30" transform="translate(200 0)"/>
    </g>
   </g>
   <g id="text_28">
    <!-- -0.046 -->
    <g transform="translate(186.362569 265.788896) scale(0.1 -0.1)">
     <use xlink:href="#SimHei-2d"/>
     <use xlink:href="#SimHei-30" transform="translate(50 0)"/>
     <use xlink:href="#SimHei-2e" transform="translate(100 0)"/>
     <use xlink:href="#SimHei-30" transform="translate(150 0)"/>
     <use xlink:href="#SimHei-34" transform="translate(200 0)"/>
     <use xlink:href="#SimHei-36" transform="translate(250 0)"/>
    </g>
   </g>
   <g id="text_29">
    <!-- -0.042 -->
    <g transform="translate(233.998109 265.028303) scale(0.1 -0.1)">
     <use xlink:href="#SimHei-2d"/>
     <use xlink:href="#SimHei-30" transform="translate(50 0)"/>
     <use xlink:href="#SimHei-2e" transform="translate(100 0)"/>
     <use xlink:href="#SimHei-30" transform="translate(150 0)"/>
     <use xlink:href="#SimHei-34" transform="translate(200 0)"/>
     <use xlink:href="#SimHei-32" transform="translate(250 0)"/>
    </g>
   </g>
   <g id="text_30">
    <!-- -0.039 -->
    <g transform="translate(281.63365 264.490773) scale(0.1 -0.1)">
     <defs>
      <path id="SimHei-39" d="M 800 75 
Q 1350 1000 1700 1750 
Q 1075 1650 662 1912 
Q 250 2175 162 2625 
Q 75 3075 175 3437 
Q 275 3800 487 4037 
Q 700 4275 1000 4375 
Q 1300 4475 1537 4475 
Q 1775 4475 2025 4375 
Q 2275 4275 2475 4075 
Q 2675 3875 2750 3662 
Q 2825 3450 2825 3112 
Q 2825 2775 2575 2250 
Q 2325 1725 1350 75 
L 800 75 
z
M 662 2875 
Q 700 2550 937 2337 
Q 1175 2125 1450 2150 
Q 1725 2175 1887 2300 
Q 2050 2425 2200 2725 
Q 2300 3100 2250 3362 
Q 2200 3625 1987 3800 
Q 1775 3975 1525 3975 
Q 1375 4000 1137 3900 
Q 900 3800 762 3500 
Q 625 3200 662 2875 
z
" transform="scale(0.015625)"/>
     </defs>
     <use xlink:href="#SimHei-2d"/>
     <use xlink:href="#SimHei-30" transform="translate(50 0)"/>
     <use xlink:href="#SimHei-2e" transform="translate(100 0)"/>
     <use xlink:href="#SimHei-30" transform="translate(150 0)"/>
     <use xlink:href="#SimHei-33" transform="translate(200 0)"/>
     <use xlink:href="#SimHei-39" transform="translate(250 0)"/>
    </g>
   </g>
   <g id="text_31">
    <!-- -0.037 -->
    <g transform="translate(329.26919 264.036081) scale(0.1 -0.1)">
     <use xlink:href="#SimHei-2d"/>
     <use xlink:href="#SimHei-30" transform="translate(50 0)"/>
     <use xlink:href="#SimHei-2e" transform="translate(100 0)"/>
     <use xlink:href="#SimHei-30" transform="translate(150 0)"/>
     <use xlink:href="#SimHei-33" transform="translate(200 0)"/>
     <use xlink:href="#SimHei-37" transform="translate(250 0)"/>
    </g>
   </g>
   <g id="text_32">
    <!-- 0.025 -->
    <g transform="translate(379.40473 233.636857) scale(0.1 -0.1)">
     <use xlink:href="#SimHei-30"/>
     <use xlink:href="#SimHei-2e" transform="translate(50 0)"/>
     <use xlink:href="#SimHei-30" transform="translate(100 0)"/>
     <use xlink:href="#SimHei-32" transform="translate(150 0)"/>
     <use xlink:href="#SimHei-35" transform="translate(200 0)"/>
    </g>
   </g>
   <g id="text_33">
    <!-- 0.021 -->
    <g transform="translate(427.04027 234.57845) scale(0.1 -0.1)">
     <use xlink:href="#SimHei-30"/>
     <use xlink:href="#SimHei-2e" transform="translate(50 0)"/>
     <use xlink:href="#SimHei-30" transform="translate(100 0)"/>
     <use xlink:href="#SimHei-32" transform="translate(150 0)"/>
     <use xlink:href="#SimHei-31" transform="translate(200 0)"/>
    </g>
   </g>
   <g id="text_34">
    <!-- -0.019 -->
    <g transform="translate(472.17581 260.512342) scale(0.1 -0.1)">
     <use xlink:href="#SimHei-2d"/>
     <use xlink:href="#SimHei-30" transform="translate(50 0)"/>
     <use xlink:href="#SimHei-2e" transform="translate(100 0)"/>
     <use xlink:href="#SimHei-30" transform="translate(150 0)"/>
     <use xlink:href="#SimHei-31" transform="translate(200 0)"/>
     <use xlink:href="#SimHei-39" transform="translate(250 0)"/>
    </g>
   </g>
   <g id="text_35">
    <!-- -0.019 -->
    <g transform="translate(519.81135 260.414343) scale(0.1 -0.1)">
     <use xlink:href="#SimHei-2d"/>
     <use xlink:href="#SimHei-30" transform="translate(50 0)"/>
     <use xlink:href="#SimHei-2e" transform="translate(100 0)"/>
     <use xlink:href="#SimHei-30" transform="translate(150 0)"/>
     <use xlink:href="#SimHei-31" transform="translate(200 0)"/>
     <use xlink:href="#SimHei-39" transform="translate(250 0)"/>
    </g>
   </g>
   <g id="text_36">
    <!-- 0.018 -->
    <g transform="translate(569.946891 234.996056) scale(0.1 -0.1)">
     <use xlink:href="#SimHei-30"/>
     <use xlink:href="#SimHei-2e" transform="translate(50 0)"/>
     <use xlink:href="#SimHei-30" transform="translate(100 0)"/>
     <use xlink:href="#SimHei-31" transform="translate(150 0)"/>
     <use xlink:href="#SimHei-38" transform="translate(200 0)"/>
    </g>
   </g>
   <g id="text_37">
    <!-- -0.012 -->
    <g transform="translate(615.082431 259.110077) scale(0.1 -0.1)">
     <use xlink:href="#SimHei-2d"/>
     <use xlink:href="#SimHei-30" transform="translate(50 0)"/>
     <use xlink:href="#SimHei-2e" transform="translate(100 0)"/>
     <use xlink:href="#SimHei-30" transform="translate(150 0)"/>
     <use xlink:href="#SimHei-31" transform="translate(200 0)"/>
     <use xlink:href="#SimHei-32" transform="translate(250 0)"/>
    </g>
   </g>
   <g id="text_38">
    <!-- -0.011 -->
    <g transform="translate(662.717971 258.802808) scale(0.1 -0.1)">
     <use xlink:href="#SimHei-2d"/>
     <use xlink:href="#SimHei-30" transform="translate(50 0)"/>
     <use xlink:href="#SimHei-2e" transform="translate(100 0)"/>
     <use xlink:href="#SimHei-30" transform="translate(150 0)"/>
     <use xlink:href="#SimHei-31" transform="translate(200 0)"/>
     <use xlink:href="#SimHei-31" transform="translate(250 0)"/>
    </g>
   </g>
   <g id="text_39">
    <!-- -0.003 -->
    <g transform="translate(710.353511 257.192747) scale(0.1 -0.1)">
     <use xlink:href="#SimHei-2d"/>
     <use xlink:href="#SimHei-30" transform="translate(50 0)"/>
     <use xlink:href="#SimHei-2e" transform="translate(100 0)"/>
     <use xlink:href="#SimHei-30" transform="translate(150 0)"/>
     <use xlink:href="#SimHei-30" transform="translate(200 0)"/>
     <use xlink:href="#SimHei-33" transform="translate(250 0)"/>
    </g>
   </g>
   <g id="text_40">
    <!-- Y染色体浓度与变量的Pearson相关系数（第二部分） -->
    <g transform="translate(231.7225 20.075) scale(0.16 -0.16)">
     <defs>
      <path id="SimHei-59" d="M 3025 4400 
L 1850 2050 
L 1850 125 
L 1275 125 
L 1275 2050 
L 100 4400 
L 675 4400 
L 1550 2575 
L 1575 2575 
L 2450 4400 
L 3025 4400 
z
" transform="scale(0.015625)"/>
      <path id="SimHei-6d53" d="M 5775 2250 
Q 5600 2150 5325 1937 
Q 5050 1725 4725 1425 
Q 4925 1025 5387 600 
Q 5850 175 6150 100 
Q 5875 -150 5750 -375 
Q 5025 50 4500 862 
Q 3975 1675 3650 2825 
Q 3550 2625 3325 2225 
L 3325 275 
Q 3600 500 3950 850 
Q 4125 525 4225 375 
Q 3900 150 3550 -150 
Q 3200 -450 3000 -625 
Q 2850 -375 2700 -225 
Q 2850 -75 2875 200 
L 2875 1625 
Q 2550 1175 2000 700 
Q 1800 900 1550 1025 
Q 1975 1325 2350 1725 
Q 2725 2150 3012 2625 
Q 3300 3100 3525 3950 
L 2500 3950 
L 2500 3225 
L 1975 3225 
Q 2025 3500 1975 4350 
L 3600 4350 
Q 3700 5000 3675 5250 
Q 4000 5175 4300 5150 
Q 4225 4950 4125 4350 
L 5775 4350 
Q 5750 3550 5775 3250 
L 5275 3250 
L 5275 3950 
L 4025 3950 
Q 3975 3725 3900 3525 
Q 4200 2425 4525 1825 
Q 4975 2175 5350 2700 
Q 5550 2450 5775 2250 
z
M 250 -200 
Q 450 75 725 675 
Q 1000 1275 1175 1950 
Q 1450 1750 1650 1675 
Q 1375 1050 1200 525 
Q 1025 0 850 -450 
Q 550 -250 250 -200 
z
M 1400 2475 
Q 925 2825 300 3075 
Q 400 3300 525 3550 
Q 1225 3225 1675 2925 
Q 1500 2650 1400 2475 
z
M 1550 3925 
Q 1175 4300 600 4675 
Q 725 4850 900 5075 
Q 1550 4625 1875 4325 
Q 1650 4100 1550 3925 
z
" transform="scale(0.015625)"/>
      <path id="SimHei-5ea6" d="M 1750 1675 
Q 2450 1650 2875 1650 
L 5200 1650 
Q 4975 1250 4650 850 
Q 4325 450 4025 200 
Q 4350 50 4950 -50 
Q 5550 -150 6100 -150 
Q 5950 -300 5825 -650 
Q 5100 -550 4550 -412 
Q 4000 -275 3625 -100 
Q 3100 -325 2587 -462 
Q 2075 -600 1525 -675 
Q 1450 -475 1225 -250 
Q 1675 -250 2250 -125 
Q 2825 0 3250 200 
Q 2825 550 2400 1275 
L 1750 1250 
L 1750 1675 
z
M 2975 5075 
Q 3250 5150 3475 5250 
Q 3625 4975 3775 4525 
L 4700 4525 
Q 4975 4525 5700 4550 
L 5700 4100 
Q 5000 4125 4650 4125 
L 1375 4125 
Q 1375 3000 1350 2312 
Q 1325 1625 1212 950 
Q 1100 275 725 -525 
Q 500 -375 250 -300 
Q 650 400 762 1075 
Q 875 1750 887 2800 
Q 900 3850 875 4525 
L 3200 4525 
Q 3100 4850 2975 5075 
z
M 2475 3300 
Q 2475 3700 2450 3925 
L 2975 3925 
Q 2950 3725 2950 3300 
L 4300 3300 
Q 4300 3700 4275 3950 
L 4800 3950 
Q 4775 3650 4775 3300 
Q 5325 3300 5725 3325 
L 5725 2900 
Q 5350 2925 4775 2925 
Q 4775 2250 4800 1950 
L 2450 1950 
Q 2475 2350 2475 2925 
Q 2175 2925 1600 2900 
L 1600 3325 
Q 2175 3300 2475 3300 
z
M 4300 2350 
L 4300 2925 
L 2950 2925 
L 2950 2350 
L 4300 2350 
z
M 2875 1275 
Q 3200 775 3650 425 
Q 4025 700 4425 1275 
L 2900 1275 
L 2875 1275 
z
" transform="scale(0.015625)"/>
      <path id="SimHei-4e0e" d="M 5350 100 
Q 5275 -300 4925 -425 
Q 4575 -550 3900 -600 
Q 3875 -375 3650 -25 
Q 4375 -50 4575 0 
Q 4775 50 4837 225 
Q 4900 400 5100 2350 
L 1125 2350 
Q 1450 4350 1475 5200 
Q 1800 5150 2075 5125 
Q 1975 4825 1900 4275 
L 4900 4275 
Q 5400 4275 5800 4300 
L 5800 3825 
Q 5400 3850 4950 3850 
L 1850 3850 
L 1700 2750 
L 5675 2750 
Q 5625 2450 5575 2050 
L 5350 100 
z
M 3675 1350 
Q 4125 1350 4500 1375 
L 4500 875 
Q 4125 900 3850 900 
L 1450 900 
Q 1000 900 500 875 
L 500 1375 
Q 1000 1350 1450 1350 
L 3675 1350 
z
" transform="scale(0.015625)"/>
      <path id="SimHei-7b2c" d="M 4475 -350 
Q 4450 -125 4250 200 
Q 4900 175 5087 262 
Q 5275 350 5275 1000 
L 3475 1000 
L 3475 175 
Q 3475 -50 3500 -675 
L 2975 -675 
Q 3000 -25 3000 175 
L 3000 775 
Q 2625 400 2037 50 
Q 1450 -300 700 -600 
Q 600 -350 325 -150 
Q 900 -25 1600 312 
Q 2300 650 2625 1000 
L 875 1000 
Q 975 1750 1000 2450 
L 3000 2450 
L 3000 3100 
L 1975 3100 
Q 1525 3100 975 3075 
L 975 3525 
Q 1525 3500 1825 3500 
L 5400 3500 
Q 5375 3050 5375 2725 
Q 5375 2400 5400 2050 
L 3475 2050 
L 3475 1400 
L 5800 1400 
Q 5725 525 5662 225 
Q 5600 -75 5275 -187 
Q 4950 -300 4475 -350 
z
M 2050 5025 
Q 1775 4800 1650 4625 
L 2500 4625 
Q 3025 4625 3325 4650 
L 3325 4225 
L 2325 4225 
Q 2475 4000 2625 3725 
Q 2400 3650 2200 3550 
Q 2050 3900 1825 4225 
L 1425 4225 
Q 1150 3825 725 3350 
Q 500 3500 250 3600 
Q 700 3975 975 4375 
Q 1250 4775 1450 5275 
Q 1825 5075 2050 5025 
z
M 3600 3550 
Q 3350 3650 3125 3750 
Q 3375 3975 3600 4387 
Q 3825 4800 3950 5200 
Q 4225 5075 4525 4975 
Q 4400 4875 4275 4650 
L 5250 4650 
Q 5425 4650 6000 4675 
L 6000 4225 
Q 5625 4250 5000 4250 
Q 5175 4000 5350 3725 
Q 5075 3650 4900 3550 
Q 4725 3900 4475 4250 
L 4075 4250 
Q 3850 3850 3600 3550 
z
M 3000 1400 
L 3000 2050 
L 1475 2050 
Q 1425 1750 1400 1400 
L 3000 1400 
z
M 4900 2450 
L 4900 3100 
L 3475 3100 
L 3475 2450 
L 4900 2450 
z
" transform="scale(0.015625)"/>
      <path id="SimHei-4e8c" d="M 5050 625 
Q 5650 625 6025 675 
L 6025 50 
Q 5625 75 5050 75 
L 1425 75 
Q 775 75 350 50 
L 350 650 
Q 800 625 1400 625 
L 5050 625 
z
M 4350 4150 
Q 4900 4175 5350 4200 
L 5350 3575 
Q 4900 3600 4375 3600 
L 2050 3600 
Q 1450 3600 1000 3575 
L 1000 4175 
Q 1450 4150 2025 4150 
L 4350 4150 
z
" transform="scale(0.015625)"/>
      <path id="SimHei-90e8" d="M 5300 2650 
Q 5750 2200 5962 1812 
Q 6175 1425 6150 1025 
Q 6125 625 5812 412 
Q 5500 200 4875 125 
Q 4825 400 4650 725 
Q 5250 725 5437 862 
Q 5625 1000 5612 1225 
Q 5600 1450 5350 1850 
Q 5100 2250 4775 2575 
Q 4975 3025 5300 4300 
L 4400 4300 
L 4400 -625 
L 3900 -625 
Q 3925 -100 3925 575 
L 3925 3625 
Q 3925 4175 3875 4725 
L 5975 4725 
Q 5575 3425 5300 2650 
z
M 3225 1775 
Q 3200 1200 3200 625 
Q 3200 50 3225 -575 
L 2725 -575 
L 2725 -75 
L 1375 -75 
L 1375 -575 
L 875 -575 
Q 900 -50 900 525 
Q 900 1125 875 1775 
L 3225 1775 
z
M 1925 5275 
Q 2325 4775 2450 4550 
Q 2300 4475 2175 4400 
Q 3225 4400 3500 4425 
L 3500 3950 
Q 3325 3950 2825 3975 
L 3250 3775 
Q 3075 3500 2750 2800 
Q 3350 2800 3675 2825 
L 3675 2350 
Q 3350 2375 3025 2375 
L 1150 2375 
Q 700 2375 400 2350 
L 400 2825 
Q 575 2800 1350 2800 
Q 1175 3225 900 3675 
Q 1100 3775 1325 3900 
Q 1575 3550 1850 3025 
Q 1600 2900 1475 2800 
L 2275 2800 
Q 2600 3575 2675 3975 
L 2075 3975 
Q 925 3975 575 3950 
L 575 4425 
Q 875 4400 1925 4400 
Q 1725 4800 1525 5025 
Q 1750 5150 1925 5275 
z
M 2725 325 
L 2725 1375 
L 1375 1375 
L 1375 325 
L 2725 325 
z
" transform="scale(0.015625)"/>
      <path id="SimHei-5206" d="M 1000 -650 
Q 825 -375 575 -225 
Q 975 -75 1300 137 
Q 1625 350 1875 662 
Q 2125 975 2250 1350 
Q 2375 1725 2425 2275 
Q 1850 2275 1500 2250 
L 1500 2775 
Q 1900 2750 2525 2750 
L 5025 2750 
Q 4975 2375 4950 2100 
L 4750 250 
Q 4700 -200 4350 -350 
Q 4000 -500 3575 -525 
Q 3550 -275 3325 50 
Q 3850 25 4037 87 
Q 4225 150 4275 525 
L 4450 2275 
L 2950 2275 
Q 2875 1625 2737 1187 
Q 2600 750 2350 425 
Q 2100 100 1750 -175 
Q 1400 -450 1000 -650 
z
M 3950 5175 
Q 4125 4650 4662 3975 
Q 5200 3300 6175 2800 
Q 5975 2625 5775 2275 
Q 5325 2600 4987 2887 
Q 4650 3175 4425 3425 
Q 4200 3675 3925 4137 
Q 3650 4600 3475 5000 
Q 3750 5075 3950 5175 
z
M 2700 4825 
Q 2475 4425 2325 4125 
Q 2175 3825 2025 3587 
Q 1875 3350 1575 2950 
Q 1275 2550 850 2125 
Q 625 2350 400 2475 
Q 900 2925 1187 3300 
Q 1475 3675 1737 4112 
Q 2000 4550 2200 5075 
Q 2400 4925 2700 4825 
z
" transform="scale(0.015625)"/>
     </defs>
     <use xlink:href="#SimHei-59"/>
     <use xlink:href="#SimHei-67d3" transform="translate(50 0)"/>
     <use xlink:href="#SimHei-8272" transform="translate(150 0)"/>
     <use xlink:href="#SimHei-4f53" transform="translate(250 0)"/>
     <use xlink:href="#SimHei-6d53" transform="translate(350 0)"/>
     <use xlink:href="#SimHei-5ea6" transform="translate(450 0)"/>
     <use xlink:href="#SimHei-4e0e" transform="translate(550 0)"/>
     <use xlink:href="#SimHei-53d8" transform="translate(650 0)"/>
     <use xlink:href="#SimHei-91cf" transform="translate(750 0)"/>
     <use xlink:href="#SimHei-7684" transform="translate(850 0)"/>
     <use xlink:href="#SimHei-50" transform="translate(950 0)"/>
     <use xlink:href="#SimHei-65" transform="translate(1000 0)"/>
     <use xlink:href="#SimHei-61" transform="translate(1050 0)"/>
     <use xlink:href="#SimHei-72" transform="translate(1100 0)"/>
     <use xlink:href="#SimHei-73" transform="translate(1150 0)"/>
     <use xlink:href="#SimHei-6f" transform="translate(1200 0)"/>
     <use xlink:href="#SimHei-6e" transform="translate(1250 0)"/>
     <use xlink:href="#SimHei-76f8" transform="translate(1300 0)"/>
     <use xlink:href="#SimHei-5173" transform="translate(1400 0)"/>
     <use xlink:href="#SimHei-7cfb" transform="translate(1500 0)"/>
     <use xlink:href="#SimHei-6570" transform="translate(1600 0)"/>
     <use xlink:href="#SimHei-ff08" transform="translate(1700 0)"/>
     <use xlink:href="#SimHei-7b2c" transform="translate(1800 0)"/>
     <use xlink:href="#SimHei-4e8c" transform="translate(1900 0)"/>
     <use xlink:href="#SimHei-90e8" transform="translate(2000 0)"/>
     <use xlink:href="#SimHei-5206" transform="translate(2100 0)"/>
     <use xlink:href="#SimHei-ff09" transform="translate(2200 0)"/>
    </g>
   </g>
  </g>
 </g>
 <defs>
  <clipPath id="p5a12b3d460">
   <rect x="54.16875" y="26.075" width="723.1075" height="435.581964"/>
  </clipPath>
 </defs>
</svg>
