<?xml version="1.0" encoding="utf-8" standalone="no"?>
<!DOCTYPE svg PUBLIC "-//W3C//DTD SVG 1.1//EN"
  "http://www.w3.org/Graphics/SVG/1.1/DTD/svg11.dtd">
<svg xmlns:xlink="http://www.w3.org/1999/xlink" width="424.523125pt" height="424.151635pt" viewBox="0 0 424.523125 424.151635" xmlns="http://www.w3.org/2000/svg" version="1.1">
 <metadata>
  <rdf:RDF xmlns:dc="http://purl.org/dc/elements/1.1/" xmlns:cc="http://creativecommons.org/ns#" xmlns:rdf="http://www.w3.org/1999/02/22-rdf-syntax-ns#">
   <cc:Work>
    <dc:type rdf:resource="http://purl.org/dc/dcmitype/StillImage"/>
    <dc:date>2025-09-07T11:37:12.039257</dc:date>
    <dc:format>image/svg+xml</dc:format>
    <dc:creator>
     <cc:Agent>
      <dc:title>Matplotlib v3.10.5, https://matplotlib.org/</dc:title>
     </cc:Agent>
    </dc:creator>
   </cc:Work>
  </rdf:RDF>
 </metadata>
 <defs>
  <style type="text/css">*{stroke-linejoin: round; stroke-linecap: butt}</style>
 </defs>
 <g id="figure_1">
  <g id="patch_1">
   <path d="M -0 424.151635 
L 424.523125 424.151635 
L 424.523125 0 
L -0 0 
z
" style="fill: #ffffff"/>
  </g>
  <g id="axes_1">
   <g id="patch_2">
    <path d="M 54.215625 327.924076 
L 417.323125 327.924076 
L 417.323125 26.075 
L 54.215625 26.075 
z
" style="fill: #ffffff"/>
   </g>
   <g id="patch_3">
    <path d="M 70.720511 176.999538 
L 140.21477 176.999538 
L 140.21477 162.898264 
L 70.720511 162.898264 
z
" clip-path="url(#pfb50e03b1b)" style="fill: #0000ff; opacity: 0.7"/>
   </g>
   <g id="patch_4">
    <path d="M 157.588334 176.999538 
L 227.082593 176.999538 
L 227.082593 184.471114 
L 157.588334 184.471114 
z
" clip-path="url(#pfb50e03b1b)" style="fill: #ff0000; opacity: 0.7"/>
   </g>
   <g id="patch_5">
    <path d="M 244.456157 176.999538 
L 313.950416 176.999538 
L 313.950416 184.337372 
L 244.456157 184.337372 
z
" clip-path="url(#pfb50e03b1b)" style="fill: #ff0000; opacity: 0.7"/>
   </g>
   <g id="patch_6">
    <path d="M 331.32398 176.999538 
L 400.818239 176.999538 
L 400.818239 182.341589 
L 331.32398 182.341589 
z
" clip-path="url(#pfb50e03b1b)" style="fill: #ff0000; opacity: 0.7"/>
   </g>
   <g id="matplotlib.axis_1">
    <g id="xtick_1">
     <g id="line2d_1">
      <defs>
       <path id="m86af334a19" d="M 0 0 
L 0 3.5 
" style="stroke: #000000; stroke-width: 0.8"/>
      </defs>
      <g>
       <use xlink:href="#m86af334a19" x="105.467641" y="327.924076" style="stroke: #000000; stroke-width: 0.8"/>
      </g>
     </g>
     <g id="text_1">
      <!-- 胎儿是否健康_编码 -->
      <g transform="translate(44.424438 400.856259) rotate(-45) scale(0.1 -0.1)">
       <defs>
        <path id="SimHei-80ce" d="M 1425 25 
Q 1725 0 1900 12 
Q 2075 25 2100 325 
L 2100 1600 
L 1225 1600 
Q 1175 975 1112 637 
Q 1050 300 937 0 
Q 825 -300 650 -625 
Q 450 -425 200 -350 
Q 450 75 600 562 
Q 750 1050 800 1875 
L 800 4025 
Q 800 4500 775 4900 
L 2600 4900 
Q 2575 4400 2575 4050 
L 2575 25 
Q 2575 -550 1575 -600 
Q 1600 -325 1425 25 
z
M 5575 1950 
Q 5550 1550 5550 700 
Q 5550 -150 5575 -650 
L 5100 -650 
L 5100 -175 
L 3525 -175 
L 3525 -675 
L 3050 -675 
Q 3075 -150 3075 625 
Q 3075 1400 3050 1950 
L 5575 1950 
z
M 4425 5000 
Q 4200 4700 3975 4187 
Q 3750 3675 3375 3000 
Q 3725 3025 4200 3075 
Q 4675 3125 5200 3175 
Q 4950 3650 4750 3875 
Q 4975 4000 5150 4150 
Q 5775 3250 6100 2675 
Q 5800 2525 5625 2350 
Q 5525 2575 5400 2800 
Q 5125 2775 4487 2687 
Q 3850 2600 3450 2537 
Q 3050 2475 2875 2425 
Q 2800 2725 2675 2975 
Q 2850 3050 3037 3300 
Q 3225 3550 3525 4237 
Q 3825 4925 3850 5225 
Q 4150 5075 4425 5000 
z
M 5100 250 
L 5100 1550 
L 3525 1550 
L 3525 250 
L 5100 250 
z
M 2100 2025 
L 2100 3050 
L 1250 3050 
L 1250 2025 
L 2100 2025 
z
M 2100 3475 
L 2100 4475 
L 1250 4475 
L 1250 3475 
L 2100 3475 
z
" transform="scale(0.015625)"/>
        <path id="SimHei-513f" d="M 4275 5000 
Q 4225 4650 4225 3975 
L 4225 625 
Q 4225 225 4625 225 
L 5125 225 
Q 5425 225 5487 437 
Q 5550 650 5575 1050 
Q 5850 750 6200 700 
Q 6025 225 5900 -12 
Q 5775 -250 5325 -275 
L 4400 -275 
Q 3725 -275 3725 425 
L 3725 4000 
Q 3725 4625 3700 5000 
L 4275 5000 
z
M 1950 4950 
Q 2325 4925 2600 4925 
Q 2525 4050 2512 3125 
Q 2500 2200 2200 1350 
Q 1900 500 775 -525 
Q 550 -300 225 -100 
Q 1275 650 1612 1375 
Q 1950 2100 1987 3112 
Q 2025 4125 1950 4950 
z
" transform="scale(0.015625)"/>
        <path id="SimHei-662f" d="M 5075 5000 
Q 5050 4625 5050 3950 
Q 5050 3300 5075 2725 
L 1350 2725 
Q 1375 3300 1375 3950 
Q 1375 4625 1350 5000 
L 5075 5000 
z
M 5075 2275 
Q 5500 2275 6025 2300 
L 6025 1850 
Q 5500 1875 5075 1875 
L 3475 1875 
L 3475 1250 
Q 4950 1250 5400 1275 
L 5400 825 
Q 4950 850 3475 850 
L 3475 100 
Q 3950 25 4650 25 
Q 5350 25 6200 125 
Q 6000 -150 5950 -475 
L 4675 -475 
Q 4125 -475 3650 -412 
Q 3175 -350 2712 -175 
Q 2250 0 1725 450 
Q 1625 250 1437 -12 
Q 1250 -275 875 -650 
Q 625 -450 375 -300 
Q 875 0 1200 575 
Q 1525 1150 1575 1650 
L 2175 1475 
Q 2100 1375 1925 900 
Q 2375 425 3000 225 
L 3000 1875 
L 1400 1875 
Q 950 1875 450 1850 
L 450 2300 
Q 975 2275 1400 2275 
L 5075 2275 
z
M 4550 3150 
L 4550 3675 
L 1875 3675 
L 1875 3150 
L 4550 3150 
z
M 4550 4100 
L 4550 4600 
L 1875 4600 
L 1875 4100 
L 4550 4100 
z
" transform="scale(0.015625)"/>
        <path id="SimHei-5426" d="M 700 4800 
Q 1075 4775 1675 4775 
L 4800 4775 
Q 5525 4775 5750 4800 
L 5750 4325 
Q 5275 4350 4775 4350 
L 3725 4350 
L 3350 3975 
L 3350 1900 
L 5200 1900 
Q 5175 1675 5175 650 
Q 5175 -375 5200 -575 
L 4650 -575 
L 4650 -125 
L 1750 -125 
L 1750 -625 
L 1200 -625 
Q 1225 -325 1225 600 
Q 1225 1550 1200 1900 
L 2800 1900 
L 2800 3400 
Q 2500 3100 1762 2700 
Q 1025 2300 600 2125 
Q 475 2400 250 2600 
Q 900 2800 1725 3300 
Q 2550 3800 3000 4350 
L 1750 4350 
Q 1175 4350 700 4325 
L 700 4800 
z
M 4650 325 
L 4650 1450 
L 1750 1450 
L 1750 325 
L 4650 325 
z
M 4075 3725 
Q 4625 3450 5075 3237 
Q 5525 3025 6125 2675 
Q 6000 2450 5800 2150 
Q 5250 2500 4762 2762 
Q 4275 3025 3800 3250 
Q 3950 3450 4075 3725 
z
" transform="scale(0.015625)"/>
        <path id="SimHei-5065" d="M 5625 4600 
Q 5600 4275 5600 3725 
Q 5825 3725 6075 3775 
L 6075 3325 
Q 5825 3350 5600 3350 
Q 5600 2875 5625 2500 
L 4575 2500 
L 4575 1950 
L 5250 1950 
Q 5550 1975 5750 1975 
L 5750 1525 
Q 5575 1575 5250 1575 
L 4575 1575 
L 4575 1100 
L 5350 1100 
Q 5625 1100 5850 1125 
L 5850 700 
Q 5650 725 5350 725 
L 4575 725 
L 4575 25 
Q 5225 -25 6100 100 
Q 5950 -150 5900 -425 
Q 4950 -450 4112 -400 
Q 3275 -350 2450 200 
Q 2225 -125 1850 -575 
Q 1650 -400 1450 -300 
Q 1875 75 2150 525 
Q 1825 975 1650 1750 
Q 1850 1800 2050 1875 
Q 2125 1375 2350 975 
Q 2575 1525 2600 2450 
Q 2100 2425 1950 2325 
Q 1875 2525 1750 2800 
Q 1975 2825 2137 3312 
Q 2300 3800 2400 4200 
Q 2100 4200 1800 4175 
L 1800 4600 
Q 2125 4575 2350 4575 
L 2975 4575 
Q 2850 4300 2425 2850 
L 3025 2850 
Q 2950 1400 2650 575 
Q 3225 75 4150 25 
L 4150 725 
Q 3700 725 3200 700 
L 3200 1125 
Q 3700 1100 4150 1100 
L 4150 1575 
Q 3775 1575 3275 1525 
L 3275 1975 
Q 3775 1950 4150 1950 
L 4150 2500 
Q 3725 2500 3300 2475 
L 3300 2900 
Q 3750 2875 4150 2875 
L 4150 3350 
L 3725 3350 
Q 3375 3350 3125 3325 
L 3125 3775 
Q 3400 3725 3750 3725 
L 4150 3725 
L 4150 4225 
Q 3750 4225 3325 4200 
L 3325 4625 
Q 3775 4600 4150 4600 
Q 4150 4900 4125 5225 
L 4600 5225 
Q 4575 4850 4575 4600 
L 5625 4600 
z
M 1700 4975 
Q 1525 4750 1375 4100 
L 1375 -525 
L 925 -525 
Q 975 -125 975 400 
L 975 3125 
Q 825 2775 600 2375 
Q 450 2525 225 2700 
Q 525 3100 825 3912 
Q 1125 4725 1150 5125 
Q 1350 5075 1700 4975 
z
M 5200 3725 
L 5200 4225 
L 4575 4225 
L 4575 3725 
L 5200 3725 
z
M 5200 2875 
L 5200 3350 
L 4575 3350 
L 4575 2875 
L 5200 2875 
z
" transform="scale(0.015625)"/>
        <path id="SimHei-5eb7" d="M 3550 5275 
Q 3725 4850 3775 4625 
L 4850 4625 
Q 5375 4625 5800 4650 
L 5800 4250 
Q 5375 4275 4850 4275 
L 3750 4275 
L 3750 3750 
L 5375 3750 
Q 5350 3400 5350 2950 
Q 5600 2950 5975 2975 
L 5975 2550 
Q 5625 2575 5350 2575 
Q 5350 2150 5375 1800 
L 3925 1800 
Q 4175 1325 4525 975 
Q 4700 1050 5100 1650 
Q 5175 1575 5500 1325 
Q 5375 1225 4800 700 
Q 4975 550 5287 350 
Q 5600 150 6100 25 
Q 5875 -100 5700 -450 
Q 5000 -150 4487 362 
Q 3975 875 3750 1400 
L 3750 150 
Q 3775 -350 3450 -462 
Q 3125 -575 2700 -600 
Q 2675 -375 2550 -50 
Q 3025 -75 3137 -25 
Q 3250 25 3275 200 
L 3275 825 
Q 2275 50 1800 -325 
Q 1575 50 1475 125 
Q 1850 300 2287 587 
Q 2725 875 3275 1275 
L 3275 1800 
L 2600 1800 
Q 2275 1800 1875 1775 
L 1875 2175 
Q 2275 2150 2550 2150 
L 3275 2150 
L 3275 2575 
L 2400 2575 
Q 1900 2575 1600 2550 
L 1600 2975 
Q 1925 2950 2350 2950 
L 3275 2950 
L 3275 3375 
L 2650 3375 
Q 2300 3375 1900 3350 
L 1900 3775 
Q 2350 3750 2600 3750 
L 3275 3750 
L 3275 4275 
L 1525 4275 
Q 1525 2275 1462 1700 
Q 1400 1125 1212 575 
Q 1025 25 625 -475 
Q 500 -325 200 -100 
Q 525 250 737 737 
Q 950 1225 1012 2087 
Q 1075 2950 1000 4625 
L 3200 4625 
Q 3150 4800 3000 5150 
Q 3150 5175 3550 5275 
z
M 4850 2150 
L 4850 2575 
L 3750 2575 
L 3750 2150 
L 4850 2150 
z
M 4850 2950 
L 4850 3375 
L 3750 3375 
L 3750 2950 
L 4850 2950 
z
M 1925 1650 
Q 2300 1400 2700 1025 
Q 2600 975 2375 700 
Q 2225 875 1650 1300 
Q 1700 1350 1925 1650 
z
" transform="scale(0.015625)"/>
        <path id="SimHei-5f" d="M 3150 -850 
L 0 -850 
L 0 -550 
L 3150 -550 
L 3150 -850 
z
" transform="scale(0.015625)"/>
        <path id="SimHei-7f16" d="M 4275 5250 
Q 4375 4850 4475 4500 
L 5775 4500 
Q 5750 4200 5750 3825 
Q 5750 3450 5775 3175 
L 3100 3175 
Q 3075 2800 3050 2550 
L 6000 2550 
Q 5975 2150 5975 1700 
L 5975 -25 
Q 5975 -400 5812 -500 
Q 5650 -600 5275 -700 
Q 5200 -400 5050 -150 
Q 5400 -150 5475 -112 
Q 5550 -75 5550 150 
L 5550 1000 
L 5050 1000 
Q 5050 450 5075 -50 
L 4625 -50 
Q 4650 450 4650 1000 
L 4150 1000 
Q 4150 225 4175 -75 
L 3725 -75 
Q 3750 225 3750 1000 
L 3250 1000 
L 3250 -650 
L 2775 -650 
Q 2825 -175 2825 275 
L 2825 1625 
Q 2625 1075 2350 600 
Q 2175 925 2025 1100 
Q 2250 1400 2375 1700 
Q 2500 2000 2575 2525 
Q 2650 3050 2650 3575 
Q 2650 4100 2625 4500 
L 3925 4500 
Q 3875 4775 3750 5100 
Q 4075 5175 4275 5250 
z
M 1825 4875 
Q 1675 4725 1387 4150 
Q 1100 3575 875 3150 
L 1575 3175 
Q 1725 3475 1875 3850 
Q 2100 3675 2375 3500 
Q 2150 3275 1862 2812 
Q 1575 2350 1075 1675 
Q 1600 1725 2075 1800 
L 2025 1350 
Q 1725 1325 1350 1275 
Q 975 1225 550 1050 
Q 500 1325 400 1575 
Q 600 1600 825 1925 
Q 1050 2250 1400 2800 
Q 1175 2800 950 2775 
Q 725 2750 450 2650 
Q 375 2950 275 3175 
Q 525 3225 800 3862 
Q 1075 4500 1225 5125 
Q 1525 4950 1825 4875 
z
M 5325 3525 
L 5325 4150 
L 3100 4150 
L 3100 3525 
L 5325 3525 
z
M 2100 800 
Q 2075 525 2100 300 
Q 1575 175 1212 50 
Q 850 -75 400 -300 
L 200 300 
Q 500 325 1037 462 
Q 1575 600 2100 800 
z
M 4650 1350 
L 4650 2200 
L 4150 2200 
L 4150 1350 
L 4650 1350 
z
M 5550 1350 
L 5550 2200 
L 5050 2200 
L 5050 1350 
L 5550 1350 
z
M 3750 1350 
L 3750 2200 
L 3250 2200 
L 3250 1350 
L 3750 1350 
z
" transform="scale(0.015625)"/>
        <path id="SimHei-7801" d="M 1975 4750 
Q 2325 4750 2725 4775 
L 2725 4350 
Q 2300 4375 2100 4375 
L 1725 4375 
Q 1625 3775 1400 3050 
L 2600 3050 
Q 2575 2625 2575 2300 
L 2575 1100 
Q 2575 775 2600 150 
L 2150 150 
L 2150 600 
L 1400 600 
L 1400 -125 
L 925 -125 
Q 950 500 950 875 
L 950 2050 
Q 775 1725 550 1325 
Q 400 1525 200 1675 
Q 650 2275 925 3062 
Q 1200 3850 1250 4375 
Q 800 4375 350 4350 
L 350 4775 
Q 800 4750 1125 4750 
L 1975 4750 
z
M 4725 2425 
L 4975 4500 
L 3825 4500 
Q 3400 4500 2950 4475 
L 2950 4925 
Q 3400 4875 3825 4875 
L 5500 4875 
Q 5375 4200 5175 2425 
L 5975 2425 
Q 5925 2150 5887 1500 
Q 5850 850 5750 300 
Q 5650 -250 5412 -412 
Q 5175 -575 4475 -625 
Q 4450 -350 4275 -75 
Q 4925 -100 5100 -25 
Q 5275 50 5350 712 
Q 5425 1375 5450 2025 
L 3125 2025 
Q 3200 2575 3262 3112 
Q 3325 3650 3350 4150 
L 3900 4050 
Q 3800 3800 3737 3362 
Q 3675 2925 3625 2425 
L 4725 2425 
z
M 2150 1000 
L 2150 2650 
L 1400 2650 
L 1400 1000 
L 2150 1000 
z
M 4325 1325 
Q 4625 1325 5275 1350 
L 5275 900 
Q 4600 925 4150 925 
L 3500 925 
Q 3225 925 2825 900 
L 2825 1350 
Q 3100 1325 3500 1325 
L 4325 1325 
z
" transform="scale(0.015625)"/>
       </defs>
       <use xlink:href="#SimHei-80ce"/>
       <use xlink:href="#SimHei-513f" transform="translate(100 0)"/>
       <use xlink:href="#SimHei-662f" transform="translate(200 0)"/>
       <use xlink:href="#SimHei-5426" transform="translate(300 0)"/>
       <use xlink:href="#SimHei-5065" transform="translate(400 0)"/>
       <use xlink:href="#SimHei-5eb7" transform="translate(500 0)"/>
       <use xlink:href="#SimHei-5f" transform="translate(600 0)"/>
       <use xlink:href="#SimHei-7f16" transform="translate(650 0)"/>
       <use xlink:href="#SimHei-7801" transform="translate(750 0)"/>
      </g>
     </g>
    </g>
    <g id="xtick_2">
     <g id="line2d_2">
      <g>
       <use xlink:href="#m86af334a19" x="192.335464" y="327.924076" style="stroke: #000000; stroke-width: 0.8"/>
      </g>
     </g>
     <g id="text_2">
      <!-- T18 -->
      <g transform="translate(180.844978 350.392037) rotate(-45) scale(0.1 -0.1)">
       <defs>
        <path id="SimHei-54" d="M 2850 3925 
L 1850 3925 
L 1850 125 
L 1275 125 
L 1275 3925 
L 275 3925 
L 275 4400 
L 2850 4400 
L 2850 3925 
z
" transform="scale(0.015625)"/>
        <path id="SimHei-31" d="M 1400 3600 
Q 1075 3275 575 2975 
L 575 3450 
Q 1200 3875 1600 4450 
L 1900 4450 
L 1900 150 
L 1400 150 
L 1400 3600 
z
" transform="scale(0.015625)"/>
        <path id="SimHei-38" d="M 175 1375 
Q 175 1675 325 1962 
Q 475 2250 825 2425 
Q 525 2600 425 2812 
Q 325 3025 312 3300 
Q 300 3575 387 3775 
Q 475 3975 650 4150 
Q 825 4325 1037 4387 
Q 1250 4450 1500 4450 
Q 1750 4450 1950 4400 
Q 2150 4350 2375 4187 
Q 2600 4025 2700 3725 
Q 2800 3425 2687 3025 
Q 2575 2625 2100 2400 
Q 2525 2275 2700 2012 
Q 2875 1750 2875 1375 
Q 2875 1000 2762 775 
Q 2650 550 2512 400 
Q 2375 250 2137 162 
Q 1900 75 1537 75 
Q 1175 75 912 162 
Q 650 250 475 425 
Q 300 600 237 837 
Q 175 1075 175 1375 
z
M 687 1400 
Q 675 1100 787 875 
Q 900 650 1200 587 
Q 1500 525 1825 600 
Q 2150 675 2275 950 
Q 2400 1225 2362 1500 
Q 2325 1775 2050 1962 
Q 1775 2150 1450 2125 
Q 1125 2100 912 1900 
Q 700 1700 687 1400 
z
M 775 3350 
Q 775 3100 950 2875 
Q 1125 2650 1500 2650 
Q 1875 2650 2062 2875 
Q 2250 3100 2237 3412 
Q 2225 3725 2012 3875 
Q 1800 4025 1437 4000 
Q 1075 3975 925 3787 
Q 775 3600 775 3350 
z
" transform="scale(0.015625)"/>
       </defs>
       <use xlink:href="#SimHei-54"/>
       <use xlink:href="#SimHei-31" transform="translate(50 0)"/>
       <use xlink:href="#SimHei-38" transform="translate(100 0)"/>
      </g>
     </g>
    </g>
    <g id="xtick_3">
     <g id="line2d_3">
      <g>
       <use xlink:href="#m86af334a19" x="279.203286" y="327.924076" style="stroke: #000000; stroke-width: 0.8"/>
      </g>
     </g>
     <g id="text_3">
      <!-- T13 -->
      <g transform="translate(267.712801 350.392037) rotate(-45) scale(0.1 -0.1)">
       <defs>
        <path id="SimHei-33" d="M 250 1225 
L 700 1300 
Q 800 975 1025 762 
Q 1250 550 1587 562 
Q 1925 575 2125 837 
Q 2325 1100 2300 1437 
Q 2275 1775 2037 1962 
Q 1800 2150 1275 2225 
L 1275 2550 
Q 1800 2600 2037 2825 
Q 2275 3050 2250 3412 
Q 2225 3775 1925 3937 
Q 1625 4100 1287 3975 
Q 950 3850 750 3275 
L 300 3350 
Q 450 3800 712 4100 
Q 975 4400 1425 4450 
Q 1875 4500 2212 4337 
Q 2550 4175 2687 3837 
Q 2825 3500 2725 3100 
Q 2625 2700 2150 2400 
Q 2500 2250 2687 1950 
Q 2875 1650 2812 1162 
Q 2750 675 2375 375 
Q 2000 75 1525 87 
Q 1050 100 700 387 
Q 350 675 250 1225 
z
" transform="scale(0.015625)"/>
       </defs>
       <use xlink:href="#SimHei-54"/>
       <use xlink:href="#SimHei-31" transform="translate(50 0)"/>
       <use xlink:href="#SimHei-33" transform="translate(100 0)"/>
      </g>
     </g>
    </g>
    <g id="xtick_4">
     <g id="line2d_4">
      <g>
       <use xlink:href="#m86af334a19" x="366.071109" y="327.924076" style="stroke: #000000; stroke-width: 0.8"/>
      </g>
     </g>
     <g id="text_4">
      <!-- T21 -->
      <g transform="translate(354.580624 350.392037) rotate(-45) scale(0.1 -0.1)">
       <defs>
        <path id="SimHei-32" d="M 300 250 
Q 325 625 650 925 
Q 975 1225 1475 1862 
Q 1975 2500 2125 2850 
Q 2275 3200 2237 3450 
Q 2200 3700 2000 3862 
Q 1800 4025 1537 4000 
Q 1275 3975 1037 3800 
Q 800 3625 675 3275 
L 200 3350 
Q 400 3925 712 4187 
Q 1025 4450 1450 4475 
Q 1700 4500 1900 4462 
Q 2100 4425 2312 4287 
Q 2525 4150 2662 3875 
Q 2800 3600 2762 3212 
Q 2725 2825 2375 2287 
Q 2025 1750 1025 600 
L 2825 600 
L 2825 150 
L 300 150 
L 300 250 
z
" transform="scale(0.015625)"/>
       </defs>
       <use xlink:href="#SimHei-54"/>
       <use xlink:href="#SimHei-32" transform="translate(50 0)"/>
       <use xlink:href="#SimHei-31" transform="translate(100 0)"/>
      </g>
     </g>
    </g>
    <g id="text_5">
     <!-- 离散变量 -->
     <g transform="translate(211.769375 415.451635) scale(0.12 -0.12)">
      <defs>
       <path id="SimHei-79bb" d="M 3000 2275 
Q 3150 2175 3425 2050 
Q 3275 1900 3150 1725 
L 5825 1725 
L 5825 0 
Q 5825 -475 5612 -537 
Q 5400 -600 4850 -650 
Q 4775 -350 4650 -100 
Q 5225 -125 5300 -87 
Q 5375 -50 5375 175 
L 5375 1350 
L 2950 1350 
Q 2825 1150 2675 962 
Q 2525 775 2350 525 
Q 2650 525 4075 675 
Q 3975 800 3850 950 
Q 3975 1075 4200 1225 
Q 4350 1075 4537 825 
Q 4725 575 4900 300 
Q 4650 200 4475 50 
Q 4350 200 4275 350 
Q 3175 225 2700 150 
Q 2225 75 1850 -25 
Q 1800 275 1675 600 
Q 1875 700 2075 900 
Q 2275 1100 2450 1350 
L 1125 1350 
L 1125 -625 
L 650 -625 
Q 675 -225 675 225 
L 675 1000 
Q 675 1450 650 1725 
L 2625 1725 
Q 2800 2000 2925 2275 
L 1025 2275 
Q 1050 2525 1050 2725 
L 1050 3325 
Q 1050 3550 1025 3800 
L 1525 3800 
Q 1500 3525 1500 3275 
L 1500 2650 
L 5050 2650 
L 5050 3325 
Q 5050 3575 5025 3775 
L 5525 3775 
Q 5500 3575 5500 3325 
L 5500 2750 
Q 5500 2550 5525 2275 
L 3000 2275 
z
M 3300 5275 
Q 3400 5000 3525 4650 
L 4950 4650 
Q 5375 4650 5950 4675 
L 5950 4275 
Q 5375 4300 4775 4300 
L 1525 4300 
Q 1050 4300 475 4275 
L 475 4675 
Q 1025 4650 1050 4650 
L 2975 4650 
Q 2900 4900 2750 5150 
Q 3025 5200 3300 5275 
z
M 2175 4125 
Q 2450 4050 2750 3937 
Q 3050 3825 3350 3725 
Q 3850 4025 4125 4250 
Q 4375 4100 4650 3925 
Q 4200 3800 3825 3550 
Q 4250 3350 4800 3100 
Q 4625 2950 4375 2775 
Q 4025 3000 3787 3112 
Q 3550 3225 3325 3300 
Q 3125 3175 2825 3050 
Q 2525 2925 2150 2775 
Q 2000 2975 1800 3125 
Q 2175 3200 2412 3287 
Q 2650 3375 2950 3475 
Q 2625 3575 2425 3637 
Q 2225 3700 1850 3775 
Q 2050 3950 2175 4125 
z
" transform="scale(0.015625)"/>
       <path id="SimHei-6563" d="M 4750 4975 
Q 4625 4850 4537 4600 
Q 4450 4350 4325 3975 
L 5350 3975 
Q 5650 3975 6050 4000 
L 6050 3550 
Q 5675 3575 5475 3575 
Q 5450 2800 5350 2112 
Q 5250 1425 4925 875 
Q 5450 250 6200 -100 
Q 5950 -200 5750 -500 
Q 5075 0 4650 500 
Q 4275 -50 3525 -600 
Q 3375 -425 3100 -300 
Q 3875 150 4375 875 
Q 3925 1575 3800 2700 
Q 3700 2525 3550 2275 
Q 3350 2425 3125 2525 
Q 3450 2975 3725 3662 
Q 4000 4350 4150 5150 
L 4750 4975 
z
M 3025 2550 
Q 3000 2075 3000 1625 
L 3000 25 
Q 3000 -450 2250 -500 
Q 2225 -275 2050 0 
Q 2525 0 2525 200 
L 2525 525 
L 1275 525 
L 1275 -550 
L 800 -550 
Q 825 -75 825 450 
L 825 1650 
Q 825 2100 800 2550 
L 3025 2550 
z
M 1075 4350 
Q 1075 4775 1050 5150 
L 1550 5150 
Q 1525 4825 1525 4350 
L 2225 4350 
Q 2225 4850 2200 5150 
L 2725 5150 
Q 2700 4850 2700 4350 
Q 2925 4350 3250 4375 
L 3250 3950 
Q 2925 3975 2700 3975 
L 2700 3375 
Q 2900 3375 3300 3400 
L 3300 2975 
Q 2925 3000 2525 3000 
L 1100 3000 
Q 750 3000 275 2975 
L 275 3400 
Q 750 3375 1075 3375 
L 1075 3975 
Q 825 3975 425 3950 
L 425 4375 
Q 800 4350 1075 4350 
z
M 4150 3375 
Q 4250 2000 4625 1300 
Q 4800 1625 4900 2187 
Q 5000 2750 5025 3575 
L 4225 3575 
L 4150 3375 
z
M 2525 900 
L 2525 1350 
L 1275 1350 
L 1275 900 
L 2525 900 
z
M 2525 1725 
L 2525 2175 
L 1275 2175 
L 1275 1725 
L 2525 1725 
z
M 2225 3375 
L 2225 3975 
L 1525 3975 
L 1525 3375 
L 2225 3375 
z
" transform="scale(0.015625)"/>
       <path id="SimHei-53d8" d="M 5200 1975 
Q 4950 1600 4537 1137 
Q 4125 675 3675 375 
Q 3925 225 4600 87 
Q 5275 -50 6000 -75 
Q 5700 -400 5650 -625 
Q 4850 -525 4212 -312 
Q 3575 -100 3225 125 
Q 2800 -125 2150 -325 
Q 1500 -525 700 -675 
Q 600 -425 400 -175 
Q 950 -150 1687 12 
Q 2425 175 2825 375 
Q 2275 775 1675 1575 
Q 1350 1575 1000 1550 
L 1000 2000 
Q 1450 1975 2075 1975 
L 5200 1975 
z
M 3225 5275 
Q 3400 4900 3550 4475 
L 4675 4475 
Q 5400 4475 5975 4500 
L 5975 4025 
Q 5375 4050 4725 4050 
L 4125 4050 
L 4125 2950 
Q 4125 2550 4150 2150 
L 3600 2150 
Q 3625 2550 3625 2950 
L 3625 4050 
L 2750 4050 
L 2750 2950 
Q 2750 2675 2775 2150 
L 2225 2150 
Q 2250 2675 2250 2950 
L 2250 4050 
L 1700 4050 
Q 975 4050 425 4025 
L 425 4500 
Q 950 4475 1700 4475 
L 2975 4475 
Q 2925 4675 2700 5125 
Q 2950 5150 3225 5275 
z
M 2200 1575 
Q 2650 975 3250 600 
Q 3850 1000 4275 1575 
L 2200 1575 
z
M 4850 3750 
Q 5375 3275 5950 2675 
Q 5750 2525 5500 2300 
Q 5075 2800 4450 3400 
Q 4675 3575 4850 3750 
z
M 1825 3500 
Q 1700 3375 1425 3025 
Q 1150 2675 825 2300 
Q 575 2475 375 2600 
Q 975 3150 1300 3825 
Q 1525 3650 1825 3500 
z
" transform="scale(0.015625)"/>
       <path id="SimHei-91cf" d="M 5250 2500 
Q 5225 2200 5225 1700 
Q 5225 1225 5250 950 
L 3425 950 
L 3425 625 
L 4575 625 
Q 5000 625 5375 650 
L 5375 275 
Q 5025 300 4575 300 
L 3425 300 
L 3425 -75 
L 5125 -75 
Q 5525 -75 5925 -50 
L 5925 -425 
Q 5525 -400 5125 -400 
L 1275 -400 
Q 900 -400 475 -425 
L 475 -50 
Q 925 -50 1275 -75 
L 2975 -75 
L 2975 300 
L 1725 300 
Q 1350 300 975 250 
L 975 650 
Q 1375 625 1725 625 
L 2975 625 
L 2975 950 
L 1150 950 
Q 1175 1375 1175 1775 
Q 1175 2175 1150 2500 
L 5250 2500 
z
M 5200 4950 
Q 5175 4575 5175 4250 
Q 5175 3925 5200 3400 
L 1200 3400 
Q 1225 3925 1225 4250 
Q 1225 4575 1200 4950 
L 5200 4950 
z
M 4900 3100 
Q 5500 3125 6000 3150 
L 6000 2750 
Q 5500 2775 4925 2775 
L 1650 2775 
Q 975 2775 325 2750 
L 325 3150 
Q 975 3125 1650 3100 
L 4900 3100 
z
M 4725 3700 
L 4725 4025 
L 1675 4025 
L 1675 3700 
L 4725 3700 
z
M 4725 4350 
L 4725 4650 
L 1675 4650 
L 1675 4350 
L 4725 4350 
z
M 4750 1875 
L 4750 2175 
L 3425 2175 
L 3425 1875 
L 4750 1875 
z
M 2975 1875 
L 2975 2175 
L 1650 2175 
L 1650 1875 
L 2975 1875 
z
M 2975 1275 
L 2975 1550 
L 1650 1550 
L 1650 1275 
L 2975 1275 
z
M 4750 1275 
L 4750 1550 
L 3425 1550 
L 3425 1275 
L 4750 1275 
z
" transform="scale(0.015625)"/>
      </defs>
      <use xlink:href="#SimHei-79bb"/>
      <use xlink:href="#SimHei-6563" transform="translate(100 0)"/>
      <use xlink:href="#SimHei-53d8" transform="translate(200 0)"/>
      <use xlink:href="#SimHei-91cf" transform="translate(300 0)"/>
     </g>
    </g>
   </g>
   <g id="matplotlib.axis_2">
    <g id="ytick_1">
     <g id="line2d_5">
      <path d="M 54.215625 314.203663 
L 417.323125 314.203663 
" clip-path="url(#pfb50e03b1b)" style="fill: none; stroke: #b0b0b0; stroke-opacity: 0.3; stroke-width: 0.8; stroke-linecap: square"/>
     </g>
     <g id="line2d_6">
      <defs>
       <path id="mcaf48ceded" d="M 0 0 
L -3.5 0 
" style="stroke: #000000; stroke-width: 0.8"/>
      </defs>
      <g>
       <use xlink:href="#mcaf48ceded" x="54.215625" y="314.203663" style="stroke: #000000; stroke-width: 0.8"/>
      </g>
     </g>
     <g id="text_6">
      <!-- -1.00 -->
      <g transform="translate(22.215625 317.641163) scale(0.1 -0.1)">
       <defs>
        <path id="SimHei-2d" d="M 2975 2125 
L 125 2125 
L 125 2525 
L 2975 2525 
L 2975 2125 
z
" transform="scale(0.015625)"/>
        <path id="SimHei-2e" d="M 1075 125 
L 500 125 
L 500 675 
L 1075 675 
L 1075 125 
z
" transform="scale(0.015625)"/>
        <path id="SimHei-30" d="M 225 2537 
Q 250 3200 412 3587 
Q 575 3975 875 4225 
Q 1175 4475 1612 4475 
Q 2050 4475 2375 4112 
Q 2700 3750 2800 3200 
Q 2900 2650 2862 1937 
Q 2825 1225 2612 775 
Q 2400 325 1975 150 
Q 1550 -25 1125 187 
Q 700 400 525 750 
Q 350 1100 275 1487 
Q 200 1875 225 2537 
z
M 750 2687 
Q 675 2000 800 1462 
Q 925 925 1212 700 
Q 1500 475 1800 612 
Q 2100 750 2237 1162 
Q 2375 1575 2375 2062 
Q 2375 2550 2337 2950 
Q 2300 3350 2112 3675 
Q 1925 4000 1612 4012 
Q 1300 4025 1062 3700 
Q 825 3375 750 2687 
z
" transform="scale(0.015625)"/>
       </defs>
       <use xlink:href="#SimHei-2d"/>
       <use xlink:href="#SimHei-31" transform="translate(50 0)"/>
       <use xlink:href="#SimHei-2e" transform="translate(100 0)"/>
       <use xlink:href="#SimHei-30" transform="translate(150 0)"/>
       <use xlink:href="#SimHei-30" transform="translate(200 0)"/>
      </g>
     </g>
    </g>
    <g id="ytick_2">
     <g id="line2d_7">
      <path d="M 54.215625 279.902632 
L 417.323125 279.902632 
" clip-path="url(#pfb50e03b1b)" style="fill: none; stroke: #b0b0b0; stroke-opacity: 0.3; stroke-width: 0.8; stroke-linecap: square"/>
     </g>
     <g id="line2d_8">
      <g>
       <use xlink:href="#mcaf48ceded" x="54.215625" y="279.902632" style="stroke: #000000; stroke-width: 0.8"/>
      </g>
     </g>
     <g id="text_7">
      <!-- -0.75 -->
      <g transform="translate(22.215625 283.340132) scale(0.1 -0.1)">
       <defs>
        <path id="SimHei-37" d="M 850 150 
Q 1300 2050 2425 3925 
L 275 3925 
L 275 4375 
L 2950 4375 
L 2950 3950 
Q 1775 2050 1400 150 
L 850 150 
z
" transform="scale(0.015625)"/>
        <path id="SimHei-35" d="M 550 1325 
Q 725 650 1150 575 
Q 1575 500 1837 662 
Q 2100 825 2212 1087 
Q 2325 1350 2312 1675 
Q 2300 2000 2137 2225 
Q 1975 2450 1725 2525 
Q 1475 2600 1162 2525 
Q 850 2450 650 2175 
L 225 2225 
Q 275 2375 700 4375 
L 2675 4375 
L 2675 3925 
L 1075 3925 
Q 950 3250 825 2850 
Q 1200 3025 1525 3012 
Q 1850 3000 2150 2862 
Q 2450 2725 2587 2487 
Q 2725 2250 2787 2012 
Q 2850 1775 2837 1500 
Q 2825 1225 2725 937 
Q 2625 650 2425 462 
Q 2225 275 1937 162 
Q 1650 50 1275 75 
Q 900 100 562 350 
Q 225 600 100 1200 
L 550 1325 
z
" transform="scale(0.015625)"/>
       </defs>
       <use xlink:href="#SimHei-2d"/>
       <use xlink:href="#SimHei-30" transform="translate(50 0)"/>
       <use xlink:href="#SimHei-2e" transform="translate(100 0)"/>
       <use xlink:href="#SimHei-37" transform="translate(150 0)"/>
       <use xlink:href="#SimHei-35" transform="translate(200 0)"/>
      </g>
     </g>
    </g>
    <g id="ytick_3">
     <g id="line2d_9">
      <path d="M 54.215625 245.601601 
L 417.323125 245.601601 
" clip-path="url(#pfb50e03b1b)" style="fill: none; stroke: #b0b0b0; stroke-opacity: 0.3; stroke-width: 0.8; stroke-linecap: square"/>
     </g>
     <g id="line2d_10">
      <g>
       <use xlink:href="#mcaf48ceded" x="54.215625" y="245.601601" style="stroke: #000000; stroke-width: 0.8"/>
      </g>
     </g>
     <g id="text_8">
      <!-- -0.50 -->
      <g transform="translate(22.215625 249.039101) scale(0.1 -0.1)">
       <use xlink:href="#SimHei-2d"/>
       <use xlink:href="#SimHei-30" transform="translate(50 0)"/>
       <use xlink:href="#SimHei-2e" transform="translate(100 0)"/>
       <use xlink:href="#SimHei-35" transform="translate(150 0)"/>
       <use xlink:href="#SimHei-30" transform="translate(200 0)"/>
      </g>
     </g>
    </g>
    <g id="ytick_4">
     <g id="line2d_11">
      <path d="M 54.215625 211.300569 
L 417.323125 211.300569 
" clip-path="url(#pfb50e03b1b)" style="fill: none; stroke: #b0b0b0; stroke-opacity: 0.3; stroke-width: 0.8; stroke-linecap: square"/>
     </g>
     <g id="line2d_12">
      <g>
       <use xlink:href="#mcaf48ceded" x="54.215625" y="211.300569" style="stroke: #000000; stroke-width: 0.8"/>
      </g>
     </g>
     <g id="text_9">
      <!-- -0.25 -->
      <g transform="translate(22.215625 214.738069) scale(0.1 -0.1)">
       <use xlink:href="#SimHei-2d"/>
       <use xlink:href="#SimHei-30" transform="translate(50 0)"/>
       <use xlink:href="#SimHei-2e" transform="translate(100 0)"/>
       <use xlink:href="#SimHei-32" transform="translate(150 0)"/>
       <use xlink:href="#SimHei-35" transform="translate(200 0)"/>
      </g>
     </g>
    </g>
    <g id="ytick_5">
     <g id="line2d_13">
      <path d="M 54.215625 176.999538 
L 417.323125 176.999538 
" clip-path="url(#pfb50e03b1b)" style="fill: none; stroke: #b0b0b0; stroke-opacity: 0.3; stroke-width: 0.8; stroke-linecap: square"/>
     </g>
     <g id="line2d_14">
      <g>
       <use xlink:href="#mcaf48ceded" x="54.215625" y="176.999538" style="stroke: #000000; stroke-width: 0.8"/>
      </g>
     </g>
     <g id="text_10">
      <!-- 0.00 -->
      <g transform="translate(27.215625 180.437038) scale(0.1 -0.1)">
       <use xlink:href="#SimHei-30"/>
       <use xlink:href="#SimHei-2e" transform="translate(50 0)"/>
       <use xlink:href="#SimHei-30" transform="translate(100 0)"/>
       <use xlink:href="#SimHei-30" transform="translate(150 0)"/>
      </g>
     </g>
    </g>
    <g id="ytick_6">
     <g id="line2d_15">
      <path d="M 54.215625 142.698507 
L 417.323125 142.698507 
" clip-path="url(#pfb50e03b1b)" style="fill: none; stroke: #b0b0b0; stroke-opacity: 0.3; stroke-width: 0.8; stroke-linecap: square"/>
     </g>
     <g id="line2d_16">
      <g>
       <use xlink:href="#mcaf48ceded" x="54.215625" y="142.698507" style="stroke: #000000; stroke-width: 0.8"/>
      </g>
     </g>
     <g id="text_11">
      <!-- 0.25 -->
      <g transform="translate(27.215625 146.136007) scale(0.1 -0.1)">
       <use xlink:href="#SimHei-30"/>
       <use xlink:href="#SimHei-2e" transform="translate(50 0)"/>
       <use xlink:href="#SimHei-32" transform="translate(100 0)"/>
       <use xlink:href="#SimHei-35" transform="translate(150 0)"/>
      </g>
     </g>
    </g>
    <g id="ytick_7">
     <g id="line2d_17">
      <path d="M 54.215625 108.397475 
L 417.323125 108.397475 
" clip-path="url(#pfb50e03b1b)" style="fill: none; stroke: #b0b0b0; stroke-opacity: 0.3; stroke-width: 0.8; stroke-linecap: square"/>
     </g>
     <g id="line2d_18">
      <g>
       <use xlink:href="#mcaf48ceded" x="54.215625" y="108.397475" style="stroke: #000000; stroke-width: 0.8"/>
      </g>
     </g>
     <g id="text_12">
      <!-- 0.50 -->
      <g transform="translate(27.215625 111.834975) scale(0.1 -0.1)">
       <use xlink:href="#SimHei-30"/>
       <use xlink:href="#SimHei-2e" transform="translate(50 0)"/>
       <use xlink:href="#SimHei-35" transform="translate(100 0)"/>
       <use xlink:href="#SimHei-30" transform="translate(150 0)"/>
      </g>
     </g>
    </g>
    <g id="ytick_8">
     <g id="line2d_19">
      <path d="M 54.215625 74.096444 
L 417.323125 74.096444 
" clip-path="url(#pfb50e03b1b)" style="fill: none; stroke: #b0b0b0; stroke-opacity: 0.3; stroke-width: 0.8; stroke-linecap: square"/>
     </g>
     <g id="line2d_20">
      <g>
       <use xlink:href="#mcaf48ceded" x="54.215625" y="74.096444" style="stroke: #000000; stroke-width: 0.8"/>
      </g>
     </g>
     <g id="text_13">
      <!-- 0.75 -->
      <g transform="translate(27.215625 77.533944) scale(0.1 -0.1)">
       <use xlink:href="#SimHei-30"/>
       <use xlink:href="#SimHei-2e" transform="translate(50 0)"/>
       <use xlink:href="#SimHei-37" transform="translate(100 0)"/>
       <use xlink:href="#SimHei-35" transform="translate(150 0)"/>
      </g>
     </g>
    </g>
    <g id="ytick_9">
     <g id="line2d_21">
      <path d="M 54.215625 39.795413 
L 417.323125 39.795413 
" clip-path="url(#pfb50e03b1b)" style="fill: none; stroke: #b0b0b0; stroke-opacity: 0.3; stroke-width: 0.8; stroke-linecap: square"/>
     </g>
     <g id="line2d_22">
      <g>
       <use xlink:href="#mcaf48ceded" x="54.215625" y="39.795413" style="stroke: #000000; stroke-width: 0.8"/>
      </g>
     </g>
     <g id="text_14">
      <!-- 1.00 -->
      <g transform="translate(27.215625 43.232913) scale(0.1 -0.1)">
       <use xlink:href="#SimHei-31"/>
       <use xlink:href="#SimHei-2e" transform="translate(50 0)"/>
       <use xlink:href="#SimHei-30" transform="translate(100 0)"/>
       <use xlink:href="#SimHei-30" transform="translate(150 0)"/>
      </g>
     </g>
    </g>
    <g id="text_15">
     <!-- 点二列相关系数 -->
     <g transform="translate(16.715625 218.999538) rotate(-90) scale(0.12 -0.12)">
      <defs>
       <path id="SimHei-70b9" d="M 3325 5200 
Q 3300 4925 3300 4375 
L 4900 4375 
Q 5275 4375 5725 4400 
L 5725 3925 
Q 5300 3950 4900 3950 
L 3300 3950 
L 3300 3225 
L 5225 3225 
Q 5200 2700 5200 2150 
Q 5200 1625 5225 1175 
L 1175 1175 
Q 1200 1625 1200 2175 
Q 1200 2725 1175 3225 
L 2775 3225 
L 2775 4500 
Q 2775 4900 2750 5200 
L 3325 5200 
z
M 4700 1600 
L 4700 2800 
L 1725 2800 
L 1725 1600 
L 4700 1600 
z
M 1500 750 
Q 1025 -250 825 -625 
Q 625 -475 325 -375 
Q 650 50 950 925 
Q 1200 800 1500 750 
z
M 5325 850 
Q 5775 150 6075 -350 
Q 5925 -425 5575 -625 
Q 5375 -150 4900 575 
Q 5150 700 5325 850 
z
M 3975 -575 
Q 3775 -100 3400 575 
Q 3575 675 3825 825 
Q 4350 -75 4450 -325 
Q 4200 -450 3975 -575 
z
M 2375 -575 
Q 2350 -300 1975 550 
Q 2200 625 2425 775 
Q 2800 -75 2900 -350 
Q 2625 -450 2375 -575 
z
" transform="scale(0.015625)"/>
       <path id="SimHei-4e8c" d="M 5050 625 
Q 5650 625 6025 675 
L 6025 50 
Q 5625 75 5050 75 
L 1425 75 
Q 775 75 350 50 
L 350 650 
Q 800 625 1400 625 
L 5050 625 
z
M 4350 4150 
Q 4900 4175 5350 4200 
L 5350 3575 
Q 4900 3600 4375 3600 
L 2050 3600 
Q 1450 3600 1000 3575 
L 1000 4175 
Q 1450 4150 2025 4150 
L 4350 4150 
z
" transform="scale(0.015625)"/>
       <path id="SimHei-5217" d="M 2950 4800 
Q 3525 4800 3825 4825 
L 3825 4400 
Q 3525 4425 2800 4425 
L 2125 4425 
Q 2075 4125 1925 3500 
L 3425 3500 
Q 3300 2500 3100 1862 
Q 2900 1225 2575 762 
Q 2250 300 1850 -12 
Q 1450 -325 925 -675 
Q 725 -375 475 -150 
Q 1125 125 1550 437 
Q 1975 750 2250 1225 
Q 2100 1350 1862 1550 
Q 1625 1750 1400 1925 
L 1750 2325 
Q 1925 2200 2100 2037 
Q 2275 1875 2500 1650 
Q 2650 2025 2737 2337 
Q 2825 2650 2875 3100 
L 1775 3100 
Q 1600 2650 1350 2237 
Q 1100 1825 775 1525 
Q 600 1675 325 1850 
Q 600 2125 825 2462 
Q 1050 2800 1200 3125 
Q 1350 3450 1425 3775 
Q 1500 4100 1550 4425 
L 1100 4425 
Q 575 4425 375 4400 
L 375 4825 
Q 575 4800 1125 4800 
L 2950 4800 
z
M 5975 5050 
Q 5925 4675 5925 4250 
L 5925 50 
Q 5925 -275 5737 -400 
Q 5550 -525 4900 -625 
Q 4825 -250 4650 25 
Q 5150 0 5287 25 
Q 5425 50 5425 325 
L 5425 4250 
Q 5425 4650 5400 5050 
L 5975 5050 
z
M 4725 4300 
Q 4675 4000 4675 3450 
L 4675 1650 
Q 4675 1200 4700 850 
L 4100 850 
Q 4150 1200 4150 1650 
L 4150 3550 
Q 4150 3975 4100 4300 
L 4725 4300 
z
" transform="scale(0.015625)"/>
       <path id="SimHei-76f8" d="M 5900 4825 
Q 5875 4225 5875 3575 
L 5875 750 
Q 5875 75 5900 -575 
L 5400 -575 
L 5400 -100 
L 3525 -100 
L 3525 -625 
L 3025 -625 
Q 3050 125 3050 675 
L 3050 3600 
Q 3050 4250 3025 4825 
L 5900 4825 
z
M 1400 3825 
Q 1400 4850 1375 5200 
L 1925 5200 
Q 1900 4825 1900 3825 
Q 2500 3825 2825 3850 
L 2825 3375 
Q 2525 3400 1900 3400 
L 1900 2450 
Q 2025 2575 2175 2750 
Q 2625 2275 2950 1825 
Q 2800 1725 2575 1500 
Q 2300 1975 1900 2375 
L 1900 475 
Q 1900 50 1925 -625 
L 1375 -625 
Q 1400 50 1400 450 
L 1400 2150 
Q 1075 1225 650 675 
Q 475 950 300 1100 
Q 475 1250 800 1887 
Q 1125 2525 1300 3400 
Q 750 3400 400 3375 
L 400 3850 
Q 850 3825 1400 3825 
z
M 5400 325 
L 5400 1475 
L 3525 1475 
L 3525 325 
L 5400 325 
z
M 5400 3300 
L 5400 4400 
L 3525 4400 
L 3525 3300 
L 5400 3300 
z
M 5400 1900 
L 5400 2900 
L 3525 2900 
L 3525 1900 
L 5400 1900 
z
" transform="scale(0.015625)"/>
       <path id="SimHei-5173" d="M 4675 4850 
Q 4525 4675 4362 4375 
Q 4200 4075 4075 3825 
L 4625 3825 
Q 5150 3825 5550 3850 
L 5550 3375 
Q 5225 3400 4700 3400 
L 3400 3400 
L 3400 2150 
L 4975 2150 
Q 5475 2150 5875 2175 
L 5875 1700 
Q 5475 1725 5025 1725 
L 3500 1725 
Q 4250 450 6000 75 
Q 5775 -175 5600 -525 
Q 4025 0 3225 1300 
Q 2800 200 875 -600 
Q 775 -350 500 -150 
Q 2425 375 2875 1725 
L 1550 1725 
Q 975 1725 600 1700 
L 600 2150 
Q 875 2125 1450 2125 
L 2925 2125 
L 2925 3400 
L 1750 3400 
Q 1275 3400 900 3375 
L 900 3850 
Q 1275 3825 1775 3825 
L 3575 3825 
Q 3925 4625 4075 5150 
Q 4325 5000 4675 4850 
z
M 2125 5125 
Q 2450 4725 2800 4175 
Q 2500 4025 2325 3875 
Q 2025 4450 1725 4825 
Q 1950 4975 2125 5125 
z
" transform="scale(0.015625)"/>
       <path id="SimHei-7cfb" d="M 5300 5200 
Q 5450 4950 5725 4675 
Q 4975 4650 4437 4587 
Q 3900 4525 3125 4450 
Q 3250 4325 3475 4225 
Q 3150 4025 2837 3762 
Q 2525 3500 2225 3275 
L 3475 3275 
Q 4100 3700 4525 4050 
Q 4775 3850 5125 3700 
Q 4775 3550 4450 3375 
Q 4125 3200 3387 2737 
Q 2650 2275 2125 1975 
Q 3600 2050 4875 2100 
Q 4750 2225 4225 2625 
Q 4475 2725 4650 2875 
Q 4950 2650 5337 2312 
Q 5725 1975 6075 1650 
Q 5775 1475 5600 1325 
Q 5400 1575 5225 1725 
Q 4550 1700 3625 1650 
L 3625 150 
Q 3625 -325 3387 -412 
Q 3150 -500 2525 -600 
Q 2475 -300 2300 -25 
Q 2875 -25 3012 12 
Q 3150 50 3150 300 
L 3150 1650 
Q 1625 1625 1075 1525 
Q 1000 1775 900 2050 
Q 1450 2100 1875 2300 
Q 2300 2500 2900 2900 
Q 2325 2900 2037 2875 
Q 1750 2850 1400 2800 
Q 1325 3075 1250 3325 
Q 1675 3325 2100 3662 
Q 2525 4000 2750 4400 
Q 1350 4350 925 4300 
Q 850 4550 750 4750 
Q 2150 4750 3250 4850 
Q 4350 4950 5300 5200 
z
M 4625 1250 
Q 4925 1025 5325 737 
Q 5725 450 6000 175 
Q 5800 0 5600 -225 
Q 5275 125 4925 400 
Q 4575 675 4275 875 
Q 4500 1050 4625 1250 
z
M 2200 875 
Q 1900 725 1537 375 
Q 1175 25 800 -300 
Q 575 -75 375 25 
Q 1075 450 1675 1225 
Q 1900 1050 2200 875 
z
" transform="scale(0.015625)"/>
       <path id="SimHei-6570" d="M 4525 4925 
Q 4475 4800 4400 4587 
Q 4325 4375 4175 3825 
L 5325 3825 
Q 5575 3825 5925 3850 
L 5925 3400 
Q 5650 3425 5500 3425 
Q 5500 3025 5362 2162 
Q 5225 1300 4875 675 
Q 5125 375 5437 137 
Q 5750 -100 6025 -200 
Q 5725 -425 5625 -625 
Q 5325 -450 5075 -225 
Q 4825 0 4575 325 
Q 4300 25 3987 -187 
Q 3675 -400 3200 -650 
Q 3075 -425 2850 -300 
Q 3225 -150 3650 125 
Q 4075 400 4300 675 
Q 4125 1025 3962 1425 
Q 3800 1825 3675 2475 
Q 3600 2275 3425 1950 
Q 3250 2050 3000 2150 
Q 3400 2850 3650 3675 
Q 3900 4500 3975 5100 
Q 4275 4975 4525 4925 
z
M 2100 2250 
Q 2000 2150 1875 1925 
L 3250 1925 
Q 3100 1300 2725 675 
Q 3125 525 3350 400 
Q 3225 225 3125 25 
Q 2900 175 2450 325 
Q 1950 -225 725 -650 
Q 600 -375 400 -275 
Q 1575 0 2000 475 
Q 1300 650 850 775 
Q 1000 1000 1250 1525 
Q 1000 1525 425 1500 
L 425 1950 
Q 900 1925 1400 1925 
Q 1500 2150 1550 2425 
Q 1825 2325 2100 2250 
z
M 1775 3950 
Q 1775 4550 1750 5100 
L 2250 5100 
Q 2225 4575 2225 3950 
Q 3075 3950 3425 3975 
L 3425 3525 
Q 3075 3550 2225 3550 
Q 2225 2825 2250 2425 
L 1750 2425 
Q 1775 2775 1775 3300 
Q 1650 3100 1300 2787 
Q 950 2475 650 2300 
Q 525 2525 275 2625 
Q 500 2700 875 2975 
Q 1250 3250 1450 3550 
Q 950 3550 500 3525 
L 500 3975 
Q 925 3950 1775 3950 
z
M 3975 3175 
Q 4200 1700 4600 1125 
Q 4850 1700 4937 2287 
Q 5025 2875 5050 3425 
L 4075 3425 
L 3975 3175 
z
M 1450 1000 
Q 1750 925 2275 800 
Q 2475 1050 2650 1525 
L 1725 1525 
Q 1600 1275 1450 1000 
z
M 3325 4825 
Q 3200 4625 3125 4450 
Q 3050 4275 2925 4025 
Q 2725 4125 2525 4175 
Q 2725 4500 2900 5000 
Q 3150 4875 3325 4825 
z
M 2575 3375 
Q 2900 3050 3200 2725 
Q 3050 2600 2875 2425 
Q 2525 2850 2300 3100 
Q 2450 3225 2575 3375 
z
M 925 5000 
Q 1275 4650 1500 4300 
L 1125 4075 
Q 950 4425 600 4725 
Q 825 4875 925 5000 
z
" transform="scale(0.015625)"/>
      </defs>
      <use xlink:href="#SimHei-70b9"/>
      <use xlink:href="#SimHei-4e8c" transform="translate(100 0)"/>
      <use xlink:href="#SimHei-5217" transform="translate(200 0)"/>
      <use xlink:href="#SimHei-76f8" transform="translate(300 0)"/>
      <use xlink:href="#SimHei-5173" transform="translate(400 0)"/>
      <use xlink:href="#SimHei-7cfb" transform="translate(500 0)"/>
      <use xlink:href="#SimHei-6570" transform="translate(600 0)"/>
     </g>
    </g>
   </g>
   <g id="line2d_23">
    <path d="M 54.215625 176.999538 
L 417.323125 176.999538 
" clip-path="url(#pfb50e03b1b)" style="fill: none; stroke: #000000; stroke-opacity: 0.3; stroke-width: 1.5; stroke-linecap: square"/>
   </g>
   <g id="patch_7">
    <path d="M 54.215625 327.924076 
L 54.215625 26.075 
" style="fill: none; stroke: #000000; stroke-width: 0.8; stroke-linejoin: miter; stroke-linecap: square"/>
   </g>
   <g id="patch_8">
    <path d="M 417.323125 327.924076 
L 417.323125 26.075 
" style="fill: none; stroke: #000000; stroke-width: 0.8; stroke-linejoin: miter; stroke-linecap: square"/>
   </g>
   <g id="patch_9">
    <path d="M 54.215625 327.924076 
L 417.323125 327.924076 
" style="fill: none; stroke: #000000; stroke-width: 0.8; stroke-linejoin: miter; stroke-linecap: square"/>
   </g>
   <g id="patch_10">
    <path d="M 54.215625 26.075 
L 417.323125 26.075 
" style="fill: none; stroke: #000000; stroke-width: 0.8; stroke-linejoin: miter; stroke-linecap: square"/>
   </g>
   <g id="text_16">
    <!-- 0.103*** -->
    <g transform="translate(85.467641 158.904181) scale(0.1 -0.1)">
     <defs>
      <path id="SimHei-2a" d="M 3075 2350 
L 2825 1900 
L 1800 2550 
L 1850 1275 
L 1350 1275 
L 1400 2550 
L 375 1900 
L 125 2350 
L 1200 2900 
L 125 3450 
L 375 3900 
L 1400 3250 
L 1350 4450 
L 1850 4450 
L 1800 3250 
L 2825 3900 
L 3075 3450 
L 2000 2900 
L 3075 2350 
z
" transform="scale(0.015625)"/>
     </defs>
     <use xlink:href="#SimHei-30"/>
     <use xlink:href="#SimHei-2e" transform="translate(50 0)"/>
     <use xlink:href="#SimHei-31" transform="translate(100 0)"/>
     <use xlink:href="#SimHei-30" transform="translate(150 0)"/>
     <use xlink:href="#SimHei-33" transform="translate(200 0)"/>
     <use xlink:href="#SimHei-2a" transform="translate(250 0)"/>
     <use xlink:href="#SimHei-2a" transform="translate(300 0)"/>
     <use xlink:href="#SimHei-2a" transform="translate(350 0)"/>
    </g>
   </g>
   <g id="text_17">
    <!-- -0.054 -->
    <g transform="translate(177.335464 195.462238) scale(0.1 -0.1)">
     <defs>
      <path id="SimHei-34" d="M 2000 1100 
L 75 1100 
L 75 1525 
L 2100 4450 
L 2475 4450 
L 2475 1525 
L 3075 1525 
L 3075 1100 
L 2475 1100 
L 2475 150 
L 2000 150 
L 2000 1100 
z
M 2000 1525 
L 2000 3500 
L 600 1525 
L 2000 1525 
z
" transform="scale(0.015625)"/>
     </defs>
     <use xlink:href="#SimHei-2d"/>
     <use xlink:href="#SimHei-30" transform="translate(50 0)"/>
     <use xlink:href="#SimHei-2e" transform="translate(100 0)"/>
     <use xlink:href="#SimHei-30" transform="translate(150 0)"/>
     <use xlink:href="#SimHei-35" transform="translate(200 0)"/>
     <use xlink:href="#SimHei-34" transform="translate(250 0)"/>
    </g>
   </g>
   <g id="text_18">
    <!-- -0.053 -->
    <g transform="translate(264.203286 195.328496) scale(0.1 -0.1)">
     <use xlink:href="#SimHei-2d"/>
     <use xlink:href="#SimHei-30" transform="translate(50 0)"/>
     <use xlink:href="#SimHei-2e" transform="translate(100 0)"/>
     <use xlink:href="#SimHei-30" transform="translate(150 0)"/>
     <use xlink:href="#SimHei-35" transform="translate(200 0)"/>
     <use xlink:href="#SimHei-33" transform="translate(250 0)"/>
    </g>
   </g>
   <g id="text_19">
    <!-- -0.039 -->
    <g transform="translate(351.071109 193.332712) scale(0.1 -0.1)">
     <defs>
      <path id="SimHei-39" d="M 800 75 
Q 1350 1000 1700 1750 
Q 1075 1650 662 1912 
Q 250 2175 162 2625 
Q 75 3075 175 3437 
Q 275 3800 487 4037 
Q 700 4275 1000 4375 
Q 1300 4475 1537 4475 
Q 1775 4475 2025 4375 
Q 2275 4275 2475 4075 
Q 2675 3875 2750 3662 
Q 2825 3450 2825 3112 
Q 2825 2775 2575 2250 
Q 2325 1725 1350 75 
L 800 75 
z
M 662 2875 
Q 700 2550 937 2337 
Q 1175 2125 1450 2150 
Q 1725 2175 1887 2300 
Q 2050 2425 2200 2725 
Q 2300 3100 2250 3362 
Q 2200 3625 1987 3800 
Q 1775 3975 1525 3975 
Q 1375 4000 1137 3900 
Q 900 3800 762 3500 
Q 625 3200 662 2875 
z
" transform="scale(0.015625)"/>
     </defs>
     <use xlink:href="#SimHei-2d"/>
     <use xlink:href="#SimHei-30" transform="translate(50 0)"/>
     <use xlink:href="#SimHei-2e" transform="translate(100 0)"/>
     <use xlink:href="#SimHei-30" transform="translate(150 0)"/>
     <use xlink:href="#SimHei-33" transform="translate(200 0)"/>
     <use xlink:href="#SimHei-39" transform="translate(250 0)"/>
    </g>
   </g>
   <g id="text_20">
    <!-- Y染色体浓度与离散变量的点二列相关系数 -->
    <g transform="translate(87.769375 20.075) scale(0.16 -0.16)">
     <defs>
      <path id="SimHei-59" d="M 3025 4400 
L 1850 2050 
L 1850 125 
L 1275 125 
L 1275 2050 
L 100 4400 
L 675 4400 
L 1550 2575 
L 1575 2575 
L 2450 4400 
L 3025 4400 
z
" transform="scale(0.015625)"/>
      <path id="SimHei-67d3" d="M 5825 -450 
Q 4750 -150 4250 250 
Q 3750 650 3450 1150 
Q 3450 -300 3475 -600 
L 2950 -600 
Q 2975 -275 2975 1075 
Q 2600 550 2012 150 
Q 1425 -250 625 -575 
Q 550 -325 200 -100 
Q 1075 100 1662 487 
Q 2250 875 2475 1225 
L 1225 1225 
Q 875 1225 400 1200 
L 400 1650 
Q 875 1625 1225 1625 
L 2975 1625 
Q 2975 1825 2950 2150 
L 3475 2150 
Q 3450 1850 3450 1625 
L 5300 1625 
Q 5625 1625 6000 1650 
L 6000 1200 
Q 5625 1225 5300 1225 
L 3950 1225 
Q 4350 675 5000 400 
Q 5650 125 6175 75 
Q 5850 -250 5825 -450 
z
M 1825 2300 
Q 2550 2575 2925 3012 
Q 3300 3450 3400 4000 
Q 3025 4000 2575 3975 
L 2575 4425 
Q 3050 4400 3425 4400 
Q 3450 4925 3425 5250 
Q 3725 5175 4000 5175 
Q 3925 5025 3900 4400 
L 5125 4400 
Q 5100 4150 5075 3850 
L 5000 2850 
Q 5025 2600 5175 2600 
L 5450 2600 
Q 5575 2600 5612 2700 
Q 5650 2800 5675 3200 
Q 5875 3025 6200 3000 
Q 6100 2325 5912 2262 
Q 5725 2200 5387 2187 
Q 5050 2175 4787 2237 
Q 4525 2300 4550 2700 
L 4625 4000 
L 3875 4000 
Q 3800 3425 3475 2937 
Q 3150 2450 2275 1925 
Q 2175 2100 1825 2300 
z
M 2175 2925 
Q 1225 2175 850 1875 
Q 700 2125 500 2300 
Q 1100 2600 2000 3375 
Q 2050 3175 2175 2925 
z
M 675 4150 
Q 1375 3825 1750 3600 
Q 1575 3375 1475 3175 
Q 1225 3400 450 3750 
Q 600 3925 675 4150 
z
M 1850 4150 
Q 1475 4475 900 4775 
Q 1025 4925 1175 5125 
Q 1750 4800 2175 4550 
Q 1950 4325 1850 4150 
z
" transform="scale(0.015625)"/>
      <path id="SimHei-8272" d="M 2925 4975 
Q 2725 4875 2425 4450 
L 4750 4450 
Q 4625 4325 4375 3962 
Q 4125 3600 3900 3250 
L 5300 3250 
Q 5250 2950 5250 2250 
Q 5250 1575 5300 1175 
L 4775 1175 
L 4775 1525 
L 1750 1525 
L 1750 400 
Q 1775 50 2150 0 
L 4850 0 
Q 5375 -50 5425 550 
Q 5650 400 5925 350 
Q 5700 -450 4875 -425 
L 1975 -425 
Q 1275 -450 1250 250 
L 1250 3125 
Q 1025 2950 775 2750 
Q 600 2975 325 3125 
Q 725 3375 1075 3625 
Q 1425 3875 1787 4362 
Q 2150 4850 2250 5200 
L 2925 4975 
z
M 3325 3250 
Q 3750 3800 3850 4050 
L 2150 4050 
Q 1800 3625 1400 3250 
L 3325 3250 
z
M 3025 1900 
L 3025 2850 
L 1750 2850 
L 1750 1900 
L 3025 1900 
z
M 4775 1900 
L 4775 2850 
L 3500 2850 
L 3500 1900 
L 4775 1900 
z
" transform="scale(0.015625)"/>
      <path id="SimHei-4f53" d="M 3650 3850 
Q 3650 4750 3625 5125 
L 4125 5125 
Q 4100 4775 4100 3850 
L 5200 3850 
Q 5700 3850 5925 3875 
L 5925 3425 
Q 5700 3450 5200 3450 
L 4525 3450 
Q 4925 1850 6200 1200 
Q 5925 1050 5775 775 
Q 4425 1800 4100 3425 
L 4100 1025 
Q 4825 1025 5050 1050 
L 5050 600 
Q 4825 625 4100 625 
Q 4100 75 4125 -575 
L 3625 -575 
Q 3650 100 3650 625 
Q 3200 625 2700 600 
L 2700 1050 
Q 3200 1025 3650 1025 
L 3650 3450 
Q 3375 1800 2000 650 
Q 1850 875 1550 1025 
Q 2850 1875 3200 3450 
L 2675 3450 
Q 2275 3450 1975 3425 
L 1975 3875 
Q 2275 3850 2675 3850 
L 3650 3850 
z
M 2000 4900 
Q 1825 4675 1525 3775 
L 1525 575 
Q 1525 -200 1550 -550 
L 1050 -550 
Q 1075 -225 1075 550 
L 1075 2900 
Q 950 2625 575 2050 
Q 450 2275 225 2425 
Q 525 2725 925 3612 
Q 1325 4500 1425 5125 
Q 1700 5000 2000 4900 
z
" transform="scale(0.015625)"/>
      <path id="SimHei-6d53" d="M 5775 2250 
Q 5600 2150 5325 1937 
Q 5050 1725 4725 1425 
Q 4925 1025 5387 600 
Q 5850 175 6150 100 
Q 5875 -150 5750 -375 
Q 5025 50 4500 862 
Q 3975 1675 3650 2825 
Q 3550 2625 3325 2225 
L 3325 275 
Q 3600 500 3950 850 
Q 4125 525 4225 375 
Q 3900 150 3550 -150 
Q 3200 -450 3000 -625 
Q 2850 -375 2700 -225 
Q 2850 -75 2875 200 
L 2875 1625 
Q 2550 1175 2000 700 
Q 1800 900 1550 1025 
Q 1975 1325 2350 1725 
Q 2725 2150 3012 2625 
Q 3300 3100 3525 3950 
L 2500 3950 
L 2500 3225 
L 1975 3225 
Q 2025 3500 1975 4350 
L 3600 4350 
Q 3700 5000 3675 5250 
Q 4000 5175 4300 5150 
Q 4225 4950 4125 4350 
L 5775 4350 
Q 5750 3550 5775 3250 
L 5275 3250 
L 5275 3950 
L 4025 3950 
Q 3975 3725 3900 3525 
Q 4200 2425 4525 1825 
Q 4975 2175 5350 2700 
Q 5550 2450 5775 2250 
z
M 250 -200 
Q 450 75 725 675 
Q 1000 1275 1175 1950 
Q 1450 1750 1650 1675 
Q 1375 1050 1200 525 
Q 1025 0 850 -450 
Q 550 -250 250 -200 
z
M 1400 2475 
Q 925 2825 300 3075 
Q 400 3300 525 3550 
Q 1225 3225 1675 2925 
Q 1500 2650 1400 2475 
z
M 1550 3925 
Q 1175 4300 600 4675 
Q 725 4850 900 5075 
Q 1550 4625 1875 4325 
Q 1650 4100 1550 3925 
z
" transform="scale(0.015625)"/>
      <path id="SimHei-5ea6" d="M 1750 1675 
Q 2450 1650 2875 1650 
L 5200 1650 
Q 4975 1250 4650 850 
Q 4325 450 4025 200 
Q 4350 50 4950 -50 
Q 5550 -150 6100 -150 
Q 5950 -300 5825 -650 
Q 5100 -550 4550 -412 
Q 4000 -275 3625 -100 
Q 3100 -325 2587 -462 
Q 2075 -600 1525 -675 
Q 1450 -475 1225 -250 
Q 1675 -250 2250 -125 
Q 2825 0 3250 200 
Q 2825 550 2400 1275 
L 1750 1250 
L 1750 1675 
z
M 2975 5075 
Q 3250 5150 3475 5250 
Q 3625 4975 3775 4525 
L 4700 4525 
Q 4975 4525 5700 4550 
L 5700 4100 
Q 5000 4125 4650 4125 
L 1375 4125 
Q 1375 3000 1350 2312 
Q 1325 1625 1212 950 
Q 1100 275 725 -525 
Q 500 -375 250 -300 
Q 650 400 762 1075 
Q 875 1750 887 2800 
Q 900 3850 875 4525 
L 3200 4525 
Q 3100 4850 2975 5075 
z
M 2475 3300 
Q 2475 3700 2450 3925 
L 2975 3925 
Q 2950 3725 2950 3300 
L 4300 3300 
Q 4300 3700 4275 3950 
L 4800 3950 
Q 4775 3650 4775 3300 
Q 5325 3300 5725 3325 
L 5725 2900 
Q 5350 2925 4775 2925 
Q 4775 2250 4800 1950 
L 2450 1950 
Q 2475 2350 2475 2925 
Q 2175 2925 1600 2900 
L 1600 3325 
Q 2175 3300 2475 3300 
z
M 4300 2350 
L 4300 2925 
L 2950 2925 
L 2950 2350 
L 4300 2350 
z
M 2875 1275 
Q 3200 775 3650 425 
Q 4025 700 4425 1275 
L 2900 1275 
L 2875 1275 
z
" transform="scale(0.015625)"/>
      <path id="SimHei-4e0e" d="M 5350 100 
Q 5275 -300 4925 -425 
Q 4575 -550 3900 -600 
Q 3875 -375 3650 -25 
Q 4375 -50 4575 0 
Q 4775 50 4837 225 
Q 4900 400 5100 2350 
L 1125 2350 
Q 1450 4350 1475 5200 
Q 1800 5150 2075 5125 
Q 1975 4825 1900 4275 
L 4900 4275 
Q 5400 4275 5800 4300 
L 5800 3825 
Q 5400 3850 4950 3850 
L 1850 3850 
L 1700 2750 
L 5675 2750 
Q 5625 2450 5575 2050 
L 5350 100 
z
M 3675 1350 
Q 4125 1350 4500 1375 
L 4500 875 
Q 4125 900 3850 900 
L 1450 900 
Q 1000 900 500 875 
L 500 1375 
Q 1000 1350 1450 1350 
L 3675 1350 
z
" transform="scale(0.015625)"/>
      <path id="SimHei-7684" d="M 2100 4975 
Q 1975 4750 1750 3950 
L 2875 3950 
Q 2850 3525 2850 2875 
L 2850 675 
Q 2850 300 2875 -400 
L 2375 -400 
L 2375 100 
L 1100 100 
L 1100 -450 
L 600 -450 
Q 625 350 625 550 
L 625 2850 
Q 625 3525 600 3950 
L 1325 3950 
Q 1450 4525 1525 5150 
Q 1875 5025 2100 4975 
z
M 5825 3075 
Q 5800 1550 5700 175 
Q 5650 -275 5225 -425 
Q 4800 -575 4275 -625 
Q 4250 -350 4050 -50 
Q 4550 -75 4837 -25 
Q 5125 25 5200 200 
Q 5275 375 5312 1225 
Q 5350 2075 5375 3600 
L 3925 3600 
Q 3725 3125 3350 2475 
Q 3175 2650 2925 2750 
Q 3150 3050 3350 3475 
Q 3550 3900 3700 4400 
Q 3850 4900 3875 5175 
Q 4225 5025 4475 4950 
Q 4350 4750 4262 4512 
Q 4175 4275 4075 4050 
L 5850 4050 
Q 5825 3525 5825 3075 
z
M 2375 525 
L 2375 1850 
L 1100 1850 
L 1100 525 
L 2375 525 
z
M 2375 2275 
L 2375 3525 
L 1100 3525 
L 1100 2275 
L 2375 2275 
z
M 4350 2050 
Q 4500 1750 4700 1275 
Q 4525 1200 4225 1025 
Q 4050 1500 3900 1837 
Q 3750 2175 3600 2400 
Q 3775 2500 4050 2650 
L 4350 2050 
z
" transform="scale(0.015625)"/>
     </defs>
     <use xlink:href="#SimHei-59"/>
     <use xlink:href="#SimHei-67d3" transform="translate(50 0)"/>
     <use xlink:href="#SimHei-8272" transform="translate(150 0)"/>
     <use xlink:href="#SimHei-4f53" transform="translate(250 0)"/>
     <use xlink:href="#SimHei-6d53" transform="translate(350 0)"/>
     <use xlink:href="#SimHei-5ea6" transform="translate(450 0)"/>
     <use xlink:href="#SimHei-4e0e" transform="translate(550 0)"/>
     <use xlink:href="#SimHei-79bb" transform="translate(650 0)"/>
     <use xlink:href="#SimHei-6563" transform="translate(750 0)"/>
     <use xlink:href="#SimHei-53d8" transform="translate(850 0)"/>
     <use xlink:href="#SimHei-91cf" transform="translate(950 0)"/>
     <use xlink:href="#SimHei-7684" transform="translate(1050 0)"/>
     <use xlink:href="#SimHei-70b9" transform="translate(1150 0)"/>
     <use xlink:href="#SimHei-4e8c" transform="translate(1250 0)"/>
     <use xlink:href="#SimHei-5217" transform="translate(1350 0)"/>
     <use xlink:href="#SimHei-76f8" transform="translate(1450 0)"/>
     <use xlink:href="#SimHei-5173" transform="translate(1550 0)"/>
     <use xlink:href="#SimHei-7cfb" transform="translate(1650 0)"/>
     <use xlink:href="#SimHei-6570" transform="translate(1750 0)"/>
    </g>
   </g>
  </g>
 </g>
 <defs>
  <clipPath id="pfb50e03b1b">
   <rect x="54.215625" y="26.075" width="363.1075" height="301.849076"/>
  </clipPath>
 </defs>
</svg>
