<?xml version="1.0" encoding="utf-8" standalone="no"?>
<!DOCTYPE svg PUBLIC "-//W3C//DTD SVG 1.1//EN"
  "http://www.w3.org/Graphics/SVG/1.1/DTD/svg11.dtd">
<svg xmlns:xlink="http://www.w3.org/1999/xlink" width="1130.4pt" height="589.354688pt" viewBox="0 0 1130.4 589.354688" xmlns="http://www.w3.org/2000/svg" version="1.1">
 <metadata>
  <rdf:RDF xmlns:dc="http://purl.org/dc/elements/1.1/" xmlns:cc="http://creativecommons.org/ns#" xmlns:rdf="http://www.w3.org/1999/02/22-rdf-syntax-ns#">
   <cc:Work>
    <dc:type rdf:resource="http://purl.org/dc/dcmitype/StillImage"/>
    <dc:date>2025-09-07T10:36:01.199124</dc:date>
    <dc:format>image/svg+xml</dc:format>
    <dc:creator>
     <cc:Agent>
      <dc:title>Matplotlib v3.10.5, https://matplotlib.org/</dc:title>
     </cc:Agent>
    </dc:creator>
   </cc:Work>
  </rdf:RDF>
 </metadata>
 <defs>
  <style type="text/css">*{stroke-linejoin: round; stroke-linecap: butt}</style>
 </defs>
 <g id="figure_1">
  <g id="patch_1">
   <path d="M 0 589.354688 
L 1130.4 589.354688 
L 1130.4 0 
L 0 0 
z
" style="fill: #ffffff"/>
  </g>
  <g id="axes_1">
   <g id="text_1">
    <!-- 基于BMI的达标时间决策树 -->
    <g transform="translate(417.06 21.754688) scale(0.18 -0.18)">
     <defs>
      <path id="SimHei-57fa" d="M 1800 4550 
Q 1800 4900 1775 5200 
L 2300 5200 
Q 2275 4875 2275 4550 
L 4075 4550 
Q 4075 4900 4050 5200 
L 4575 5200 
Q 4550 4875 4550 4550 
L 4925 4550 
Q 5200 4550 5625 4575 
L 5625 4175 
Q 5200 4200 4925 4200 
L 4550 4200 
L 4550 2225 
L 5100 2225 
Q 5600 2225 6025 2250 
L 6025 1800 
Q 5625 1850 5125 1850 
L 4500 1850 
Q 4875 1450 5225 1237 
Q 5575 1025 6125 900 
Q 5900 625 5850 350 
Q 5200 650 4737 1037 
Q 4275 1425 4000 1850 
L 2500 1850 
Q 2200 1375 1712 1000 
Q 1225 625 550 350 
Q 475 575 275 825 
Q 700 925 1212 1212 
Q 1725 1500 1950 1850 
L 1300 1850 
Q 850 1850 400 1800 
L 400 2250 
Q 850 2225 1300 2225 
L 1800 2225 
L 1800 4200 
Q 1200 4200 775 4175 
L 775 4575 
Q 1200 4550 1625 4550 
L 1800 4550 
z
M 2950 950 
Q 2950 1200 2925 1575 
L 3475 1575 
Q 3425 1300 3425 950 
L 3900 950 
Q 4250 950 4575 975 
L 4575 500 
Q 4250 550 3875 550 
L 3425 550 
L 3425 -100 
L 4500 -100 
Q 5075 -100 5550 -75 
L 5550 -525 
Q 5075 -500 4500 -500 
L 1800 -500 
Q 1300 -500 850 -525 
L 850 -75 
Q 1275 -100 1800 -100 
L 2950 -100 
L 2950 550 
L 2550 550 
Q 2125 550 1775 525 
L 1775 975 
Q 2125 950 2500 950 
L 2950 950 
z
M 4075 2225 
L 4075 2650 
L 2275 2650 
L 2275 2225 
L 4075 2225 
z
M 4075 3775 
L 4075 4200 
L 2275 4200 
L 2275 3775 
L 4075 3775 
z
M 4075 3025 
L 4075 3375 
L 2275 3375 
L 2275 3025 
L 4075 3025 
z
" transform="scale(0.015625)"/>
      <path id="SimHei-4e8e" d="M 2900 2425 
L 1150 2425 
Q 650 2425 275 2400 
L 275 2900 
Q 650 2875 1150 2875 
L 2900 2875 
L 2900 4450 
L 1675 4450 
Q 1225 4450 900 4425 
L 900 4925 
Q 1225 4900 1675 4900 
L 4525 4900 
Q 4950 4900 5375 4925 
L 5375 4425 
Q 4950 4450 4525 4450 
L 3425 4450 
L 3425 2875 
L 5050 2875 
Q 5600 2875 6050 2900 
L 6050 2400 
Q 5650 2425 5050 2425 
L 3425 2425 
L 3425 125 
Q 3425 -325 3125 -412 
Q 2825 -500 2250 -525 
Q 2225 -200 2050 150 
Q 2450 100 2675 112 
Q 2900 125 2900 325 
L 2900 2425 
z
" transform="scale(0.015625)"/>
      <path id="SimHei-42" d="M 2950 1400 
Q 2950 675 2550 400 
Q 2150 125 1525 125 
L 275 125 
L 275 4400 
L 1575 4400 
Q 2200 4400 2512 4075 
Q 2825 3750 2825 3300 
Q 2825 2850 2612 2637 
Q 2400 2425 2175 2350 
Q 2475 2275 2712 2037 
Q 2950 1800 2950 1400 
z
M 2250 3300 
Q 2250 3625 2062 3775 
Q 1875 3925 1600 3925 
L 850 3925 
L 850 2600 
L 1575 2600 
Q 1850 2600 2050 2762 
Q 2250 2925 2250 3300 
z
M 2350 1400 
Q 2350 1800 2087 1962 
Q 1825 2125 1500 2125 
L 850 2125 
L 850 600 
L 1425 600 
Q 1875 600 2112 775 
Q 2350 950 2350 1400 
z
" transform="scale(0.015625)"/>
      <path id="SimHei-4d" d="M 2925 125 
L 2425 125 
L 2425 3175 
L 2375 3175 
L 1775 125 
L 1375 125 
L 775 3175 
L 725 3175 
L 725 125 
L 225 125 
L 225 4400 
L 1000 4400 
L 1550 1575 
L 1600 1575 
L 2150 4400 
L 2925 4400 
L 2925 125 
z
" transform="scale(0.015625)"/>
      <path id="SimHei-49" d="M 1850 125 
L 1275 125 
L 1275 4400 
L 1850 4400 
L 1850 125 
z
" transform="scale(0.015625)"/>
      <path id="SimHei-7684" d="M 2100 4975 
Q 1975 4750 1750 3950 
L 2875 3950 
Q 2850 3525 2850 2875 
L 2850 675 
Q 2850 300 2875 -400 
L 2375 -400 
L 2375 100 
L 1100 100 
L 1100 -450 
L 600 -450 
Q 625 350 625 550 
L 625 2850 
Q 625 3525 600 3950 
L 1325 3950 
Q 1450 4525 1525 5150 
Q 1875 5025 2100 4975 
z
M 5825 3075 
Q 5800 1550 5700 175 
Q 5650 -275 5225 -425 
Q 4800 -575 4275 -625 
Q 4250 -350 4050 -50 
Q 4550 -75 4837 -25 
Q 5125 25 5200 200 
Q 5275 375 5312 1225 
Q 5350 2075 5375 3600 
L 3925 3600 
Q 3725 3125 3350 2475 
Q 3175 2650 2925 2750 
Q 3150 3050 3350 3475 
Q 3550 3900 3700 4400 
Q 3850 4900 3875 5175 
Q 4225 5025 4475 4950 
Q 4350 4750 4262 4512 
Q 4175 4275 4075 4050 
L 5850 4050 
Q 5825 3525 5825 3075 
z
M 2375 525 
L 2375 1850 
L 1100 1850 
L 1100 525 
L 2375 525 
z
M 2375 2275 
L 2375 3525 
L 1100 3525 
L 1100 2275 
L 2375 2275 
z
M 4350 2050 
Q 4500 1750 4700 1275 
Q 4525 1200 4225 1025 
Q 4050 1500 3900 1837 
Q 3750 2175 3600 2400 
Q 3775 2500 4050 2650 
L 4350 2050 
z
" transform="scale(0.015625)"/>
      <path id="SimHei-8fbe" d="M 1700 2975 
Q 1675 2500 1675 2225 
L 1675 775 
Q 2025 350 2600 150 
Q 3175 -50 4375 -50 
Q 5600 -50 6150 75 
Q 5975 -325 5975 -550 
Q 4925 -575 4212 -550 
Q 3500 -525 3025 -437 
Q 2550 -350 2287 -225 
Q 2025 -100 1737 137 
Q 1450 375 1212 125 
Q 975 -125 700 -475 
Q 525 -300 275 -100 
Q 625 200 1175 700 
L 1175 2550 
Q 825 2550 375 2525 
L 375 3000 
Q 900 2975 1700 2975 
z
M 3700 3700 
Q 3700 4800 3675 5225 
Q 4100 5175 4275 5150 
Q 4200 4825 4175 3700 
Q 5475 3700 5875 3725 
L 5875 3225 
Q 5475 3250 4150 3250 
Q 4075 2400 3687 1700 
Q 3300 1000 2500 375 
Q 2400 575 2125 775 
Q 2775 1225 3162 1812 
Q 3550 2400 3650 3250 
Q 2625 3250 2150 3225 
L 2150 3725 
Q 2625 3700 3700 3700 
z
M 4475 2450 
Q 5600 1225 5925 800 
Q 5675 650 5450 425 
Q 5075 1000 4100 2100 
Q 4275 2225 4475 2450 
z
M 1100 5125 
Q 1575 4575 1950 4075 
Q 1725 3900 1525 3700 
Q 1125 4325 700 4800 
Q 900 4925 1100 5125 
z
" transform="scale(0.015625)"/>
      <path id="SimHei-6807" d="M 1275 4400 
Q 1275 4800 1250 5175 
L 1750 5175 
Q 1725 4825 1725 4400 
L 1725 3800 
Q 2125 3800 2575 3825 
L 2575 3350 
Q 2125 3375 1725 3375 
L 1725 2525 
Q 1900 2650 2075 2800 
Q 2400 2275 2650 1775 
Q 2375 1650 2175 1500 
Q 2025 2000 1725 2425 
L 1725 475 
Q 1725 -50 1750 -575 
L 1250 -575 
Q 1275 -25 1275 475 
L 1275 2100 
Q 1025 1400 500 750 
Q 350 950 125 1125 
Q 550 1550 812 2187 
Q 1075 2825 1150 3375 
Q 675 3375 325 3325 
L 325 3825 
Q 800 3800 1275 3800 
L 1275 4400 
z
M 5175 3125 
Q 5675 3125 6050 3150 
L 6050 2675 
Q 5675 2700 5275 2700 
L 4500 2700 
L 4500 175 
Q 4500 -225 4275 -350 
Q 4050 -475 3475 -550 
Q 3425 -250 3275 25 
Q 3775 25 3900 62 
Q 4025 100 4025 350 
L 4025 2700 
L 3400 2700 
Q 2775 2700 2500 2650 
L 2500 3150 
Q 2825 3125 3400 3125 
L 5175 3125 
z
M 4900 4775 
Q 5425 4775 5750 4800 
L 5750 4300 
Q 5275 4350 4750 4350 
L 3525 4350 
Q 3125 4350 2750 4300 
L 2750 4800 
Q 3100 4775 3525 4775 
L 4900 4775 
z
M 5275 2025 
Q 5825 1175 6200 500 
Q 5925 375 5650 200 
Q 5375 925 4825 1725 
Q 5075 1850 5275 2025 
z
M 3600 1775 
Q 3500 1625 3225 975 
Q 2950 325 2800 50 
Q 2575 175 2300 275 
Q 2625 775 2787 1187 
Q 2950 1600 3050 2000 
Q 3325 1875 3600 1775 
z
" transform="scale(0.015625)"/>
      <path id="SimHei-65f6" d="M 2525 4575 
Q 2500 3675 2500 2400 
Q 2500 1125 2525 400 
L 2000 400 
L 2000 875 
L 1000 875 
L 1000 50 
L 475 50 
Q 500 1200 500 2350 
Q 500 3525 475 4575 
L 2525 4575 
z
M 4875 3825 
Q 4875 4575 4850 5225 
L 5400 5225 
Q 5375 4575 5375 3825 
Q 5750 3825 6175 3850 
L 6175 3375 
Q 5750 3400 5375 3400 
L 5375 50 
Q 5375 -325 5075 -425 
Q 4775 -525 4300 -575 
Q 4300 -275 4025 0 
Q 4500 -50 4687 -25 
Q 4875 0 4875 300 
L 4875 3400 
Q 3625 3400 2775 3375 
L 2775 3850 
Q 3575 3825 4875 3825 
z
M 2000 1300 
L 2000 2550 
L 1000 2550 
L 1000 1300 
L 2000 1300 
z
M 2000 2975 
L 2000 4150 
L 1000 4150 
L 1000 2975 
L 2000 2975 
z
M 3550 2725 
Q 3875 2200 4175 1600 
Q 3925 1525 3650 1375 
Q 3450 1975 3075 2500 
Q 3300 2600 3550 2725 
z
" transform="scale(0.015625)"/>
      <path id="SimHei-95f4" d="M 4450 3550 
Q 4425 3075 4425 2725 
L 4425 1400 
Q 4425 1075 4450 625 
L 1925 625 
Q 1950 1075 1950 1425 
L 1950 2725 
Q 1950 3075 1925 3550 
L 4450 3550 
z
M 5800 4875 
Q 5775 4400 5775 3925 
L 5775 250 
Q 5800 -325 5462 -450 
Q 5125 -575 4725 -625 
Q 4700 -325 4525 -25 
Q 5000 -50 5137 25 
Q 5275 100 5275 350 
L 5275 4450 
L 3775 4450 
Q 3175 4450 2650 4425 
L 2650 4900 
Q 3175 4875 3775 4875 
L 5800 4875 
z
M 550 -525 
Q 600 -25 600 525 
L 600 3150 
Q 600 3675 550 4025 
L 1125 4025 
Q 1100 3650 1100 3300 
L 1100 500 
Q 1100 0 1125 -525 
L 550 -525 
z
M 3950 1025 
L 3950 1950 
L 2425 1950 
L 2425 1025 
L 3950 1025 
z
M 3950 2350 
L 3950 3150 
L 2425 3150 
L 2425 2350 
L 3950 2350 
z
M 1525 5300 
Q 1750 5000 2225 4350 
Q 1950 4225 1700 4075 
Q 1450 4575 1075 5025 
Q 1350 5225 1525 5300 
z
" transform="scale(0.015625)"/>
      <path id="SimHei-51b3" d="M 3400 3700 
Q 2675 3700 2225 3675 
L 2225 4150 
Q 2675 4125 3400 4125 
Q 3400 4825 3375 5200 
Q 3650 5175 3950 5150 
Q 3900 4800 3900 4125 
L 5375 4125 
Q 5350 3725 5350 2300 
Q 5750 2300 6050 2325 
L 6050 1850 
Q 5675 1875 5300 1875 
L 4025 1875 
Q 4750 325 6200 50 
Q 5925 -150 5825 -525 
Q 4275 0 3700 1500 
Q 3150 150 1800 -650 
Q 1650 -400 1375 -250 
Q 2850 500 3300 1875 
L 2900 1875 
Q 2450 1875 2000 1850 
L 2000 2325 
Q 2450 2300 2900 2300 
L 3350 2300 
Q 3400 3125 3400 3700 
z
M 4850 2300 
L 4850 3700 
L 3900 3700 
Q 3875 2850 3850 2300 
L 4850 2300 
z
M 1825 2150 
Q 1550 1675 1250 1087 
Q 950 500 800 150 
Q 575 350 250 525 
Q 525 850 850 1400 
Q 1175 1950 1375 2500 
Q 1550 2300 1825 2150 
z
M 750 4725 
Q 1025 4425 1275 4125 
Q 1525 3825 1800 3500 
Q 1600 3350 1375 3125 
Q 1150 3450 350 4350 
Q 550 4525 750 4725 
z
" transform="scale(0.015625)"/>
      <path id="SimHei-7b56" d="M 4600 750 
Q 4525 1000 4325 1275 
Q 4625 1275 4787 1300 
Q 4950 1325 4950 1500 
L 4950 1950 
L 3425 1950 
L 3425 1575 
Q 3625 1250 3950 987 
Q 4275 725 4625 537 
Q 4975 350 5325 237 
Q 5675 125 6150 50 
Q 5850 -200 5725 -525 
Q 5375 -400 5050 -237 
Q 4725 -75 4437 100 
Q 4150 275 3887 487 
Q 3625 700 3425 950 
L 3425 275 
Q 3425 -75 3450 -675 
L 2950 -675 
Q 2975 -75 2975 275 
L 2975 1150 
Q 2700 750 2275 375 
Q 1850 0 1575 -175 
Q 1300 -350 825 -650 
Q 725 -475 350 -225 
Q 675 -100 975 50 
Q 1275 200 1650 462 
Q 2025 725 2387 1112 
Q 2750 1500 2950 1950 
L 1500 1950 
L 1500 825 
L 1000 825 
Q 1025 1325 1025 1675 
Q 1025 2025 1000 2325 
L 2975 2325 
L 2975 2825 
L 1425 2825 
Q 1000 2825 550 2800 
L 550 3250 
Q 1000 3225 1400 3225 
L 2975 3225 
Q 2975 3475 2950 3650 
L 3450 3650 
Q 3425 3450 3425 3225 
L 5175 3225 
Q 5500 3225 5925 3250 
L 5925 2800 
Q 5525 2825 5200 2825 
L 3425 2825 
L 3425 2325 
L 5425 2325 
Q 5400 2025 5400 1725 
Q 5400 1450 5375 1225 
Q 5350 1000 5137 900 
Q 4925 800 4600 750 
z
M 4525 5050 
Q 4300 4850 4200 4675 
L 5175 4675 
Q 5600 4675 6075 4700 
L 6075 4250 
Q 5600 4275 4875 4275 
Q 4950 4025 5050 3675 
Q 4775 3625 4550 3550 
Q 4500 3975 4400 4275 
L 3950 4275 
Q 3750 4000 3525 3700 
Q 3300 3850 3075 3925 
Q 3375 4225 3612 4612 
Q 3850 5000 3950 5300 
Q 4175 5150 4525 5050 
z
M 1950 5075 
Q 1700 4850 1550 4675 
L 2275 4675 
Q 2625 4675 3125 4700 
L 3125 4250 
Q 2625 4275 2200 4275 
Q 2275 4000 2375 3650 
Q 2150 3600 1925 3500 
Q 1850 3850 1750 4275 
L 1300 4275 
Q 1025 3950 650 3600 
Q 475 3750 225 3900 
Q 625 4175 925 4562 
Q 1225 4950 1425 5300 
Q 1675 5175 1950 5075 
z
" transform="scale(0.015625)"/>
      <path id="SimHei-6811" d="M 1100 4475 
Q 1100 4825 1075 5125 
L 1625 5125 
Q 1550 4775 1550 4325 
L 1550 3850 
Q 1800 3850 2125 3875 
L 2125 3425 
Q 1825 3450 1550 3450 
L 1550 2525 
Q 1675 2675 1775 2775 
Q 2150 2300 2450 1750 
Q 2200 1650 2050 1525 
Q 1800 2025 1550 2400 
L 1550 400 
Q 1550 -50 1575 -575 
L 1075 -575 
Q 1100 -50 1100 400 
L 1100 2000 
Q 950 1525 550 850 
Q 450 1075 225 1300 
Q 550 1725 775 2362 
Q 1000 3000 1050 3450 
Q 725 3450 375 3425 
L 375 3875 
Q 750 3850 1100 3850 
L 1100 4475 
z
M 3850 4325 
Q 3775 3525 3650 2950 
Q 3525 2375 3400 2075 
Q 3775 1500 4200 800 
Q 3975 675 3775 475 
Q 3600 900 3200 1550 
Q 3025 1175 2787 787 
Q 2550 400 2225 50 
Q 2000 250 1775 375 
Q 2175 700 2450 1125 
Q 2725 1550 2900 2000 
Q 2775 2300 2200 3100 
Q 2400 3175 2550 3325 
Q 2875 2925 3100 2525 
Q 3300 3225 3350 3925 
L 2800 3925 
Q 2450 3925 2200 3900 
L 2200 4350 
Q 2425 4325 2800 4325 
L 3850 4325 
z
M 5050 3825 
Q 5025 4750 5025 5125 
L 5525 5125 
Q 5500 4750 5500 3825 
Q 5750 3825 6050 3875 
L 6050 3400 
Q 5725 3425 5500 3425 
L 5500 -100 
Q 5475 -350 5300 -462 
Q 5125 -575 4675 -625 
Q 4625 -350 4450 -75 
Q 4825 -100 4950 -62 
Q 5075 -25 5050 275 
L 5050 3425 
Q 4325 3425 3975 3400 
L 3975 3850 
Q 4300 3825 5050 3825 
z
M 4325 2825 
Q 4675 2100 4950 1525 
Q 4625 1375 4525 1275 
Q 4275 1975 3900 2600 
Q 4200 2775 4325 2825 
z
" transform="scale(0.015625)"/>
     </defs>
     <use xlink:href="#SimHei-57fa"/>
     <use xlink:href="#SimHei-4e8e" transform="translate(100 0)"/>
     <use xlink:href="#SimHei-42" transform="translate(200 0)"/>
     <use xlink:href="#SimHei-4d" transform="translate(250 0)"/>
     <use xlink:href="#SimHei-49" transform="translate(300 0)"/>
     <use xlink:href="#SimHei-7684" transform="translate(350 0)"/>
     <use xlink:href="#SimHei-8fbe" transform="translate(450 0)"/>
     <use xlink:href="#SimHei-6807" transform="translate(550 0)"/>
     <use xlink:href="#SimHei-65f6" transform="translate(650 0)"/>
     <use xlink:href="#SimHei-95f4" transform="translate(750 0)"/>
     <use xlink:href="#SimHei-51b3" transform="translate(850 0)"/>
     <use xlink:href="#SimHei-7b56" transform="translate(950 0)"/>
     <use xlink:href="#SimHei-6811" transform="translate(1050 0)"/>
    </g>
   </g>
   <g id="patch_2">
    <path d="M 583.024702 505.463043 
Q 619.610395 461.843455 656.914568 417.367255 
" style="fill: none; stroke: #000000; stroke-linecap: round"/>
    <path d="M 587.127571 503.683585 
L 583.024702 505.463043 
L 584.062857 501.113073 
" style="fill: none; stroke: #000000; stroke-linecap: round"/>
   </g>
   <g id="text_2">
    <g id="patch_3">
     <path d="M 520.2 545.077969 
L 610.2 545.077969 
Q 613.2 545.077969 613.2 542.077969 
L 613.2 511.351406 
Q 613.2 508.351406 610.2 508.351406 
L 520.2 508.351406 
Q 517.2 508.351406 517.2 511.351406 
L 517.2 542.077969 
Q 517.2 545.077969 520.2 545.077969 
z
" style="fill: #f7dac5; stroke: #000000; stroke-linejoin: miter"/>
    </g>
    <!-- 平方误差 = 704.292 -->
    <g transform="translate(520.2 519.437344) scale(0.1 -0.1)">
     <defs>
      <path id="SimHei-5e73" d="M 4525 4825 
Q 4900 4825 5450 4850 
L 5450 4375 
Q 4925 4400 4525 4400 
L 3475 4400 
L 3475 2025 
L 5000 2025 
Q 5550 2025 6025 2050 
L 6025 1575 
Q 5550 1600 5000 1600 
L 3475 1600 
L 3475 450 
Q 3475 -100 3500 -600 
L 2925 -600 
Q 2950 -100 2950 450 
L 2950 1600 
L 1125 1600 
Q 775 1600 375 1575 
L 375 2050 
Q 775 2025 1175 2025 
L 2950 2025 
L 2950 4400 
L 1775 4400 
Q 1400 4400 875 4375 
L 875 4850 
Q 1400 4825 1750 4825 
L 4525 4825 
z
M 3925 2600 
Q 4500 3300 4900 4125 
Q 5150 3950 5400 3825 
Q 4775 2850 4350 2300 
Q 4150 2475 3925 2600 
z
M 1975 2350 
Q 1600 3100 1050 3725 
Q 1250 3875 1450 4050 
Q 2075 3300 2450 2725 
Q 2150 2500 1975 2350 
z
" transform="scale(0.015625)"/>
      <path id="SimHei-65b9" d="M 425 3975 
Q 825 3950 1300 3950 
L 5025 3950 
Q 5625 3950 6000 3975 
L 6000 3475 
Q 5675 3500 5100 3500 
L 2525 3500 
Q 2525 3225 2500 2500 
L 5300 2500 
Q 5250 2175 5200 1550 
L 5050 175 
Q 5000 -275 4625 -412 
Q 4250 -550 3525 -625 
Q 3500 -300 3325 -50 
Q 3900 -75 4200 0 
Q 4500 75 4575 425 
L 4725 2050 
L 2475 2050 
Q 2375 1350 2162 875 
Q 1950 400 1575 0 
Q 1200 -400 825 -700 
Q 725 -550 375 -350 
Q 700 -175 1062 200 
Q 1425 575 1662 1050 
Q 1900 1525 1962 2100 
Q 2025 2675 2025 3500 
L 1325 3500 
Q 775 3500 425 3475 
L 425 3975 
z
M 3075 4075 
Q 2850 4575 2575 5000 
Q 2800 5125 3025 5275 
Q 3300 4850 3575 4350 
Q 3325 4250 3075 4075 
z
" transform="scale(0.015625)"/>
      <path id="SimHei-8bef" d="M 4625 2750 
Q 5325 2750 5800 2775 
L 5800 2350 
Q 5300 2375 4625 2375 
L 4150 2375 
Q 4150 2125 4100 1650 
L 5025 1650 
Q 5575 1650 6100 1675 
L 6100 1225 
Q 5575 1250 5025 1250 
L 4250 1250 
Q 4575 600 5050 287 
Q 5525 -25 6125 -125 
Q 5900 -350 5775 -625 
Q 4875 -275 4450 175 
Q 4025 625 3900 1000 
Q 3600 325 3125 -62 
Q 2650 -450 2025 -675 
Q 1975 -450 1725 -200 
Q 2475 -75 2937 437 
Q 3400 950 3475 1250 
L 2975 1250 
Q 2400 1250 2025 1225 
L 2025 1675 
Q 2475 1650 2900 1650 
L 3600 1650 
Q 3650 2025 3650 2375 
L 3325 2375 
Q 2675 2375 2225 2350 
L 2225 2775 
Q 2700 2750 3150 2750 
L 4625 2750 
z
M 5425 4875 
Q 5400 4550 5400 4075 
Q 5400 3600 5425 3325 
L 2450 3325 
Q 2475 3575 2475 4050 
Q 2475 4525 2450 4875 
L 5425 4875 
z
M 1550 3325 
Q 1525 3000 1525 2500 
L 1525 675 
L 1900 1100 
Q 2025 875 2225 700 
Q 1675 300 1250 -325 
Q 1100 -100 825 50 
Q 1025 250 1050 500 
L 1050 2900 
Q 700 2900 325 2875 
L 325 3350 
Q 550 3325 750 3325 
L 1550 3325 
z
M 4975 3700 
L 4975 4475 
L 2900 4475 
L 2900 3700 
L 4975 3700 
z
M 975 5125 
Q 1150 5000 1900 4275 
Q 1725 4125 1550 3925 
Q 1150 4400 675 4775 
Q 875 4975 975 5125 
z
" transform="scale(0.015625)"/>
      <path id="SimHei-5dee" d="M 4725 4975 
Q 4500 4725 4250 4275 
L 4850 4275 
Q 5450 4275 5825 4300 
L 5825 3850 
Q 5425 3875 4850 3875 
L 3275 3875 
Q 3225 3600 3150 3275 
L 4525 3275 
Q 5075 3275 5525 3300 
L 5525 2850 
Q 5075 2875 4500 2875 
L 3050 2875 
Q 2975 2650 2850 2325 
L 5125 2325 
Q 5675 2325 6025 2350 
L 6025 1900 
Q 5700 1925 5150 1925 
L 2650 1925 
Q 2425 1550 2250 1300 
Q 2650 1275 3100 1275 
L 4525 1275 
Q 4975 1275 5350 1300 
L 5350 850 
Q 4975 875 4575 875 
L 3925 875 
L 3925 -50 
L 5000 -50 
Q 5200 -50 5900 -25 
L 5900 -500 
Q 5275 -475 5025 -475 
L 2100 -475 
Q 1700 -475 1400 -500 
L 1400 -25 
Q 1775 -50 2125 -50 
L 3425 -50 
L 3425 875 
L 3100 875 
Q 2625 875 2175 850 
L 2175 1200 
Q 1925 875 1487 475 
Q 1050 75 625 -250 
Q 425 -25 200 150 
Q 750 475 1262 925 
Q 1775 1375 2100 1925 
L 1325 1925 
Q 750 1925 375 1900 
L 375 2350 
Q 750 2325 1350 2325 
L 2325 2325 
Q 2450 2575 2550 2875 
L 1725 2875 
Q 1375 2875 1000 2850 
L 1000 3300 
Q 1500 3275 1700 3275 
L 2650 3275 
Q 2725 3575 2775 3875 
L 1500 3875 
Q 1100 3875 650 3850 
L 650 4300 
Q 1025 4275 1425 4275 
L 2275 4275 
Q 2075 4675 1850 4950 
Q 2025 5050 2250 5225 
Q 2450 4975 2725 4550 
Q 2525 4450 2325 4275 
L 3750 4275 
Q 4000 4700 4150 5250 
Q 4400 5100 4725 4975 
z
" transform="scale(0.015625)"/>
      <path id="SimHei-20" transform="scale(0.015625)"/>
      <path id="SimHei-3d" d="M 2975 2900 
L 125 2900 
L 125 3300 
L 2975 3300 
L 2975 2900 
z
M 2975 1375 
L 125 1375 
L 125 1775 
L 2975 1775 
L 2975 1375 
z
" transform="scale(0.015625)"/>
      <path id="SimHei-37" d="M 850 150 
Q 1300 2050 2425 3925 
L 275 3925 
L 275 4375 
L 2950 4375 
L 2950 3950 
Q 1775 2050 1400 150 
L 850 150 
z
" transform="scale(0.015625)"/>
      <path id="SimHei-30" d="M 225 2537 
Q 250 3200 412 3587 
Q 575 3975 875 4225 
Q 1175 4475 1612 4475 
Q 2050 4475 2375 4112 
Q 2700 3750 2800 3200 
Q 2900 2650 2862 1937 
Q 2825 1225 2612 775 
Q 2400 325 1975 150 
Q 1550 -25 1125 187 
Q 700 400 525 750 
Q 350 1100 275 1487 
Q 200 1875 225 2537 
z
M 750 2687 
Q 675 2000 800 1462 
Q 925 925 1212 700 
Q 1500 475 1800 612 
Q 2100 750 2237 1162 
Q 2375 1575 2375 2062 
Q 2375 2550 2337 2950 
Q 2300 3350 2112 3675 
Q 1925 4000 1612 4012 
Q 1300 4025 1062 3700 
Q 825 3375 750 2687 
z
" transform="scale(0.015625)"/>
      <path id="SimHei-34" d="M 2000 1100 
L 75 1100 
L 75 1525 
L 2100 4450 
L 2475 4450 
L 2475 1525 
L 3075 1525 
L 3075 1100 
L 2475 1100 
L 2475 150 
L 2000 150 
L 2000 1100 
z
M 2000 1525 
L 2000 3500 
L 600 1525 
L 2000 1525 
z
" transform="scale(0.015625)"/>
      <path id="SimHei-2e" d="M 1075 125 
L 500 125 
L 500 675 
L 1075 675 
L 1075 125 
z
" transform="scale(0.015625)"/>
      <path id="SimHei-32" d="M 300 250 
Q 325 625 650 925 
Q 975 1225 1475 1862 
Q 1975 2500 2125 2850 
Q 2275 3200 2237 3450 
Q 2200 3700 2000 3862 
Q 1800 4025 1537 4000 
Q 1275 3975 1037 3800 
Q 800 3625 675 3275 
L 200 3350 
Q 400 3925 712 4187 
Q 1025 4450 1450 4475 
Q 1700 4500 1900 4462 
Q 2100 4425 2312 4287 
Q 2525 4150 2662 3875 
Q 2800 3600 2762 3212 
Q 2725 2825 2375 2287 
Q 2025 1750 1025 600 
L 2825 600 
L 2825 150 
L 300 150 
L 300 250 
z
" transform="scale(0.015625)"/>
      <path id="SimHei-39" d="M 800 75 
Q 1350 1000 1700 1750 
Q 1075 1650 662 1912 
Q 250 2175 162 2625 
Q 75 3075 175 3437 
Q 275 3800 487 4037 
Q 700 4275 1000 4375 
Q 1300 4475 1537 4475 
Q 1775 4475 2025 4375 
Q 2275 4275 2475 4075 
Q 2675 3875 2750 3662 
Q 2825 3450 2825 3112 
Q 2825 2775 2575 2250 
Q 2325 1725 1350 75 
L 800 75 
z
M 662 2875 
Q 700 2550 937 2337 
Q 1175 2125 1450 2150 
Q 1725 2175 1887 2300 
Q 2050 2425 2200 2725 
Q 2300 3100 2250 3362 
Q 2200 3625 1987 3800 
Q 1775 3975 1525 3975 
Q 1375 4000 1137 3900 
Q 900 3800 762 3500 
Q 625 3200 662 2875 
z
" transform="scale(0.015625)"/>
     </defs>
     <use xlink:href="#SimHei-5e73"/>
     <use xlink:href="#SimHei-65b9" transform="translate(100 0)"/>
     <use xlink:href="#SimHei-8bef" transform="translate(200 0)"/>
     <use xlink:href="#SimHei-5dee" transform="translate(300 0)"/>
     <use xlink:href="#SimHei-20" transform="translate(400 0)"/>
     <use xlink:href="#SimHei-3d" transform="translate(450 0)"/>
     <use xlink:href="#SimHei-20" transform="translate(500 0)"/>
     <use xlink:href="#SimHei-37" transform="translate(550 0)"/>
     <use xlink:href="#SimHei-30" transform="translate(600 0)"/>
     <use xlink:href="#SimHei-34" transform="translate(650 0)"/>
     <use xlink:href="#SimHei-2e" transform="translate(700 0)"/>
     <use xlink:href="#SimHei-32" transform="translate(750 0)"/>
     <use xlink:href="#SimHei-39" transform="translate(800 0)"/>
     <use xlink:href="#SimHei-32" transform="translate(850 0)"/>
    </g>
    <!-- 样本数 = 106 -->
    <g transform="translate(535.2 530.202969) scale(0.1 -0.1)">
     <defs>
      <path id="SimHei-6837" d="M 4350 4025 
Q 4600 4575 4850 5225 
Q 5250 5075 5375 5000 
Q 5150 4725 4850 4025 
L 4950 4025 
Q 5650 4050 5950 4050 
L 5950 3600 
Q 5675 3625 5175 3625 
L 4550 3625 
L 4550 2650 
L 4950 2650 
Q 5525 2675 5800 2675 
L 5800 2225 
Q 5475 2250 5025 2250 
L 4550 2250 
L 4550 1225 
L 5325 1225 
Q 5800 1250 6100 1250 
L 6100 800 
Q 5825 825 5325 825 
L 4550 825 
L 4550 275 
Q 4550 -250 4575 -600 
L 4075 -600 
L 4075 825 
L 3475 825 
Q 3000 825 2550 800 
L 2550 1275 
Q 3000 1250 3500 1225 
L 4075 1225 
L 4075 2250 
L 3650 2250 
Q 3225 2250 2900 2225 
L 2900 2700 
Q 3200 2675 3675 2650 
L 4075 2650 
L 4075 3625 
L 3475 3625 
Q 3050 3625 2750 3600 
L 2750 4075 
Q 3050 4050 3475 4025 
L 4350 4025 
z
M 1325 4350 
Q 1325 4775 1300 5125 
L 1825 5125 
Q 1800 4725 1800 4350 
L 1800 3750 
Q 2125 3750 2475 3775 
L 2475 3325 
Q 2125 3350 1800 3350 
L 1800 2425 
Q 2000 2600 2100 2675 
Q 2375 2325 2725 1775 
Q 2575 1700 2300 1475 
Q 2025 1975 1800 2350 
L 1800 475 
Q 1800 -50 1825 -575 
L 1300 -575 
Q 1325 -25 1325 475 
L 1325 2250 
Q 925 1300 525 725 
Q 425 950 225 1175 
Q 950 2150 1225 3350 
Q 825 3350 350 3325 
L 350 3775 
Q 825 3750 1325 3750 
L 1325 4350 
z
M 3575 5200 
Q 3800 4775 3950 4350 
Q 3650 4250 3525 4175 
Q 3350 4600 3150 5000 
Q 3425 5125 3575 5200 
z
" transform="scale(0.015625)"/>
      <path id="SimHei-672c" d="M 2950 3925 
L 2950 4425 
Q 2950 4825 2925 5175 
L 3475 5175 
Q 3450 4900 3450 4450 
L 3450 3925 
L 4850 3925 
Q 5275 3925 5850 3950 
L 5850 3475 
Q 5300 3500 4875 3500 
L 3850 3500 
Q 4200 2350 4862 1687 
Q 5525 1025 6075 800 
Q 5850 625 5650 325 
Q 4800 900 4262 1637 
Q 3725 2375 3450 3350 
L 3450 1000 
L 3775 1000 
Q 4175 1000 4600 1025 
L 4600 550 
Q 4175 575 3750 575 
L 3450 575 
Q 3450 0 3475 -600 
L 2925 -600 
Q 2950 0 2950 575 
L 2625 575 
Q 2225 575 1825 550 
L 1825 1025 
Q 2225 1000 2625 1000 
L 2950 1000 
L 2950 3300 
Q 2550 2275 2062 1575 
Q 1575 875 750 175 
Q 550 450 275 575 
Q 1100 1075 1650 1825 
Q 2200 2575 2525 3500 
L 1425 3500 
Q 1025 3500 575 3475 
L 575 3950 
Q 1025 3925 1400 3925 
L 2950 3925 
z
" transform="scale(0.015625)"/>
      <path id="SimHei-6570" d="M 4525 4925 
Q 4475 4800 4400 4587 
Q 4325 4375 4175 3825 
L 5325 3825 
Q 5575 3825 5925 3850 
L 5925 3400 
Q 5650 3425 5500 3425 
Q 5500 3025 5362 2162 
Q 5225 1300 4875 675 
Q 5125 375 5437 137 
Q 5750 -100 6025 -200 
Q 5725 -425 5625 -625 
Q 5325 -450 5075 -225 
Q 4825 0 4575 325 
Q 4300 25 3987 -187 
Q 3675 -400 3200 -650 
Q 3075 -425 2850 -300 
Q 3225 -150 3650 125 
Q 4075 400 4300 675 
Q 4125 1025 3962 1425 
Q 3800 1825 3675 2475 
Q 3600 2275 3425 1950 
Q 3250 2050 3000 2150 
Q 3400 2850 3650 3675 
Q 3900 4500 3975 5100 
Q 4275 4975 4525 4925 
z
M 2100 2250 
Q 2000 2150 1875 1925 
L 3250 1925 
Q 3100 1300 2725 675 
Q 3125 525 3350 400 
Q 3225 225 3125 25 
Q 2900 175 2450 325 
Q 1950 -225 725 -650 
Q 600 -375 400 -275 
Q 1575 0 2000 475 
Q 1300 650 850 775 
Q 1000 1000 1250 1525 
Q 1000 1525 425 1500 
L 425 1950 
Q 900 1925 1400 1925 
Q 1500 2150 1550 2425 
Q 1825 2325 2100 2250 
z
M 1775 3950 
Q 1775 4550 1750 5100 
L 2250 5100 
Q 2225 4575 2225 3950 
Q 3075 3950 3425 3975 
L 3425 3525 
Q 3075 3550 2225 3550 
Q 2225 2825 2250 2425 
L 1750 2425 
Q 1775 2775 1775 3300 
Q 1650 3100 1300 2787 
Q 950 2475 650 2300 
Q 525 2525 275 2625 
Q 500 2700 875 2975 
Q 1250 3250 1450 3550 
Q 950 3550 500 3525 
L 500 3975 
Q 925 3950 1775 3950 
z
M 3975 3175 
Q 4200 1700 4600 1125 
Q 4850 1700 4937 2287 
Q 5025 2875 5050 3425 
L 4075 3425 
L 3975 3175 
z
M 1450 1000 
Q 1750 925 2275 800 
Q 2475 1050 2650 1525 
L 1725 1525 
Q 1600 1275 1450 1000 
z
M 3325 4825 
Q 3200 4625 3125 4450 
Q 3050 4275 2925 4025 
Q 2725 4125 2525 4175 
Q 2725 4500 2900 5000 
Q 3150 4875 3325 4825 
z
M 2575 3375 
Q 2900 3050 3200 2725 
Q 3050 2600 2875 2425 
Q 2525 2850 2300 3100 
Q 2450 3225 2575 3375 
z
M 925 5000 
Q 1275 4650 1500 4300 
L 1125 4075 
Q 950 4425 600 4725 
Q 825 4875 925 5000 
z
" transform="scale(0.015625)"/>
      <path id="SimHei-31" d="M 1400 3600 
Q 1075 3275 575 2975 
L 575 3450 
Q 1200 3875 1600 4450 
L 1900 4450 
L 1900 150 
L 1400 150 
L 1400 3600 
z
" transform="scale(0.015625)"/>
      <path id="SimHei-36" d="M 250 1612 
Q 275 1975 387 2225 
Q 500 2475 725 2850 
L 1750 4450 
L 2325 4450 
L 1275 2800 
Q 1950 2975 2350 2750 
Q 2750 2525 2887 2237 
Q 3025 1950 3037 1612 
Q 3050 1275 2937 950 
Q 2825 625 2537 362 
Q 2250 100 1737 75 
Q 1225 50 862 262 
Q 500 475 362 862 
Q 225 1250 250 1612 
z
M 1025 787 
Q 1250 550 1625 525 
Q 2000 500 2250 775 
Q 2500 1050 2500 1575 
Q 2500 2100 2187 2300 
Q 1875 2500 1487 2450 
Q 1100 2400 925 2075 
Q 750 1750 775 1387 
Q 800 1025 1025 787 
z
" transform="scale(0.015625)"/>
     </defs>
     <use xlink:href="#SimHei-6837"/>
     <use xlink:href="#SimHei-672c" transform="translate(100 0)"/>
     <use xlink:href="#SimHei-6570" transform="translate(200 0)"/>
     <use xlink:href="#SimHei-20" transform="translate(300 0)"/>
     <use xlink:href="#SimHei-3d" transform="translate(350 0)"/>
     <use xlink:href="#SimHei-20" transform="translate(400 0)"/>
     <use xlink:href="#SimHei-31" transform="translate(450 0)"/>
     <use xlink:href="#SimHei-30" transform="translate(500 0)"/>
     <use xlink:href="#SimHei-36" transform="translate(550 0)"/>
    </g>
    <!-- 预期天数 = 117.83 -->
    <g transform="translate(522.7 540.827969) scale(0.1 -0.1)">
     <defs>
      <path id="SimHei-9884" d="M 5200 4800 
Q 5575 4800 5950 4825 
L 5950 4400 
Q 5575 4425 5200 4425 
L 4500 4425 
Q 4425 4050 4350 3600 
L 5725 3600 
Q 5700 3225 5700 2800 
L 5700 1725 
Q 5700 1300 5725 850 
L 5250 850 
L 5250 3225 
L 3550 3225 
L 3550 800 
L 3075 800 
Q 3100 1375 3100 1725 
L 3100 2775 
Q 3100 3175 3075 3600 
L 3900 3600 
Q 4000 4150 4000 4425 
L 3725 4425 
Q 3300 4425 2850 4400 
L 2850 4825 
Q 3325 4800 3725 4800 
L 5200 4800 
z
M 2600 1775 
Q 2350 1825 2150 1825 
Q 2250 2250 2300 2450 
L 1750 2450 
L 1750 125 
Q 1725 -300 1425 -400 
Q 1125 -500 750 -500 
Q 700 -225 575 25 
Q 1125 -25 1212 37 
Q 1300 100 1300 350 
L 1300 2450 
L 1025 2450 
Q 700 2450 350 2425 
L 350 2850 
Q 700 2825 1000 2825 
L 2850 2825 
Q 2725 2325 2600 1775 
z
M 4725 2875 
Q 4625 2575 4600 2100 
Q 4575 1625 4462 1037 
Q 4350 450 3962 62 
Q 3575 -325 2925 -675 
Q 2700 -500 2475 -350 
Q 3075 -125 3437 200 
Q 3800 525 3950 937 
Q 4100 1350 4137 1850 
Q 4175 2350 4175 2925 
L 4725 2875 
z
M 1625 2900 
Q 1275 3275 800 3650 
Q 925 3775 1075 3950 
Q 1250 3825 1425 3675 
Q 1750 4150 1950 4375 
L 1400 4375 
Q 900 4375 450 4350 
L 450 4775 
Q 900 4750 1375 4750 
L 2575 4750 
L 2575 4375 
Q 2200 4100 1725 3400 
L 1950 3200 
Q 1750 3025 1625 2900 
z
M 4775 725 
Q 5725 0 6075 -325 
Q 5850 -500 5725 -650 
Q 5400 -325 5137 -87 
Q 4875 150 4525 350 
Q 4650 525 4775 725 
z
" transform="scale(0.015625)"/>
      <path id="SimHei-671f" d="M 4900 -25 
Q 5475 -100 5425 175 
L 5425 1575 
L 4325 1575 
Q 4275 975 4050 425 
Q 3825 -125 3400 -600 
Q 3225 -375 2925 -275 
Q 3350 150 3562 625 
Q 3775 1100 3812 1575 
Q 3850 2050 3850 3125 
Q 3850 4225 3825 4875 
L 5950 4875 
Q 5925 4400 5925 3725 
L 5925 50 
Q 5925 -300 5700 -425 
Q 5475 -550 5100 -600 
Q 5100 -325 4900 -25 
z
M 950 4300 
Q 950 4675 925 5125 
L 1450 5125 
Q 1425 4625 1425 4300 
L 2550 4300 
Q 2550 4775 2525 5125 
L 3075 5125 
Q 3050 4700 3050 4300 
Q 3225 4300 3500 4325 
L 3500 3900 
Q 3250 3925 3050 3925 
L 3050 1550 
Q 3250 1550 3500 1575 
L 3500 1150 
Q 3025 1175 2575 1175 
L 1225 1175 
Q 675 1175 275 1150 
L 275 1575 
Q 650 1550 950 1550 
L 950 3925 
Q 725 3925 425 3900 
L 425 4325 
Q 700 4300 950 4300 
z
M 5425 3375 
L 5425 4500 
L 4350 4500 
L 4350 3375 
L 5425 3375 
z
M 5425 1950 
L 5425 3000 
L 4350 3000 
L 4350 1950 
L 5425 1950 
z
M 1600 725 
Q 1425 650 1162 287 
Q 900 -75 650 -350 
Q 400 -175 225 -75 
Q 450 100 700 412 
Q 950 725 1100 1025 
L 1600 725 
z
M 2550 3375 
L 2550 3925 
L 1425 3925 
L 1425 3375 
L 2550 3375 
z
M 2550 1550 
L 2550 2100 
L 1425 2100 
L 1425 1550 
L 2550 1550 
z
M 2550 2475 
L 2550 3000 
L 1425 3000 
L 1425 2475 
L 2550 2475 
z
M 2850 -75 
Q 2450 525 2225 725 
Q 2375 825 2550 1025 
Q 2850 725 3250 275 
Q 3050 125 2850 -75 
z
" transform="scale(0.015625)"/>
      <path id="SimHei-5929" d="M 4475 4900 
Q 4925 4900 5375 4925 
L 5375 4400 
Q 4925 4425 4475 4425 
L 3450 4425 
L 3450 3075 
L 5050 3075 
Q 5525 3075 5900 3100 
L 5900 2575 
Q 5550 2600 5075 2600 
L 3525 2600 
Q 3875 1650 4525 975 
Q 5175 300 6200 50 
Q 5850 -225 5775 -450 
Q 5000 -175 4350 412 
Q 3700 1000 3225 2100 
Q 2925 1075 2275 462 
Q 1625 -150 650 -575 
Q 550 -325 225 -100 
Q 950 100 1750 737 
Q 2550 1375 2875 2600 
L 1500 2600 
Q 950 2600 575 2575 
L 575 3100 
Q 975 3075 1500 3075 
L 2950 3075 
L 2950 4425 
L 1900 4425 
Q 1375 4425 1000 4400 
L 1000 4925 
Q 1400 4900 1900 4900 
L 4475 4900 
z
" transform="scale(0.015625)"/>
      <path id="SimHei-38" d="M 175 1375 
Q 175 1675 325 1962 
Q 475 2250 825 2425 
Q 525 2600 425 2812 
Q 325 3025 312 3300 
Q 300 3575 387 3775 
Q 475 3975 650 4150 
Q 825 4325 1037 4387 
Q 1250 4450 1500 4450 
Q 1750 4450 1950 4400 
Q 2150 4350 2375 4187 
Q 2600 4025 2700 3725 
Q 2800 3425 2687 3025 
Q 2575 2625 2100 2400 
Q 2525 2275 2700 2012 
Q 2875 1750 2875 1375 
Q 2875 1000 2762 775 
Q 2650 550 2512 400 
Q 2375 250 2137 162 
Q 1900 75 1537 75 
Q 1175 75 912 162 
Q 650 250 475 425 
Q 300 600 237 837 
Q 175 1075 175 1375 
z
M 687 1400 
Q 675 1100 787 875 
Q 900 650 1200 587 
Q 1500 525 1825 600 
Q 2150 675 2275 950 
Q 2400 1225 2362 1500 
Q 2325 1775 2050 1962 
Q 1775 2150 1450 2125 
Q 1125 2100 912 1900 
Q 700 1700 687 1400 
z
M 775 3350 
Q 775 3100 950 2875 
Q 1125 2650 1500 2650 
Q 1875 2650 2062 2875 
Q 2250 3100 2237 3412 
Q 2225 3725 2012 3875 
Q 1800 4025 1437 4000 
Q 1075 3975 925 3787 
Q 775 3600 775 3350 
z
" transform="scale(0.015625)"/>
      <path id="SimHei-33" d="M 250 1225 
L 700 1300 
Q 800 975 1025 762 
Q 1250 550 1587 562 
Q 1925 575 2125 837 
Q 2325 1100 2300 1437 
Q 2275 1775 2037 1962 
Q 1800 2150 1275 2225 
L 1275 2550 
Q 1800 2600 2037 2825 
Q 2275 3050 2250 3412 
Q 2225 3775 1925 3937 
Q 1625 4100 1287 3975 
Q 950 3850 750 3275 
L 300 3350 
Q 450 3800 712 4100 
Q 975 4400 1425 4450 
Q 1875 4500 2212 4337 
Q 2550 4175 2687 3837 
Q 2825 3500 2725 3100 
Q 2625 2700 2150 2400 
Q 2500 2250 2687 1950 
Q 2875 1650 2812 1162 
Q 2750 675 2375 375 
Q 2000 75 1525 87 
Q 1050 100 700 387 
Q 350 675 250 1225 
z
" transform="scale(0.015625)"/>
     </defs>
     <use xlink:href="#SimHei-9884"/>
     <use xlink:href="#SimHei-671f" transform="translate(100 0)"/>
     <use xlink:href="#SimHei-5929" transform="translate(200 0)"/>
     <use xlink:href="#SimHei-6570" transform="translate(300 0)"/>
     <use xlink:href="#SimHei-20" transform="translate(400 0)"/>
     <use xlink:href="#SimHei-3d" transform="translate(450 0)"/>
     <use xlink:href="#SimHei-20" transform="translate(500 0)"/>
     <use xlink:href="#SimHei-31" transform="translate(550 0)"/>
     <use xlink:href="#SimHei-31" transform="translate(600 0)"/>
     <use xlink:href="#SimHei-37" transform="translate(650 0)"/>
     <use xlink:href="#SimHei-2e" transform="translate(700 0)"/>
     <use xlink:href="#SimHei-38" transform="translate(750 0)"/>
     <use xlink:href="#SimHei-33" transform="translate(800 0)"/>
    </g>
   </g>
   <g id="patch_4">
    <path d="M 733.375298 505.463043 
Q 696.789605 461.843455 659.485432 417.367255 
" style="fill: none; stroke: #000000; stroke-linecap: round"/>
    <path d="M 732.337143 501.113073 
L 733.375298 505.463043 
L 729.272429 503.683585 
" style="fill: none; stroke: #000000; stroke-linecap: round"/>
   </g>
   <g id="text_3">
    <g id="patch_5">
     <path d="M 706.2 545.077969 
L 796.2 545.077969 
Q 799.2 545.077969 799.2 542.077969 
L 799.2 511.351406 
Q 799.2 508.351406 796.2 508.351406 
L 706.2 508.351406 
Q 703.2 508.351406 703.2 511.351406 
L 703.2 542.077969 
Q 703.2 545.077969 706.2 545.077969 
z
" style="fill: #f4c9aa; stroke: #000000; stroke-linejoin: miter"/>
    </g>
    <!-- 平方误差 = 684.276 -->
    <g transform="translate(706.2 519.437344) scale(0.1 -0.1)">
     <use xlink:href="#SimHei-5e73"/>
     <use xlink:href="#SimHei-65b9" transform="translate(100 0)"/>
     <use xlink:href="#SimHei-8bef" transform="translate(200 0)"/>
     <use xlink:href="#SimHei-5dee" transform="translate(300 0)"/>
     <use xlink:href="#SimHei-20" transform="translate(400 0)"/>
     <use xlink:href="#SimHei-3d" transform="translate(450 0)"/>
     <use xlink:href="#SimHei-20" transform="translate(500 0)"/>
     <use xlink:href="#SimHei-36" transform="translate(550 0)"/>
     <use xlink:href="#SimHei-38" transform="translate(600 0)"/>
     <use xlink:href="#SimHei-34" transform="translate(650 0)"/>
     <use xlink:href="#SimHei-2e" transform="translate(700 0)"/>
     <use xlink:href="#SimHei-32" transform="translate(750 0)"/>
     <use xlink:href="#SimHei-37" transform="translate(800 0)"/>
     <use xlink:href="#SimHei-36" transform="translate(850 0)"/>
    </g>
    <!-- 样本数 = 177 -->
    <g transform="translate(721.2 530.202969) scale(0.1 -0.1)">
     <use xlink:href="#SimHei-6837"/>
     <use xlink:href="#SimHei-672c" transform="translate(100 0)"/>
     <use xlink:href="#SimHei-6570" transform="translate(200 0)"/>
     <use xlink:href="#SimHei-20" transform="translate(300 0)"/>
     <use xlink:href="#SimHei-3d" transform="translate(350 0)"/>
     <use xlink:href="#SimHei-20" transform="translate(400 0)"/>
     <use xlink:href="#SimHei-31" transform="translate(450 0)"/>
     <use xlink:href="#SimHei-37" transform="translate(500 0)"/>
     <use xlink:href="#SimHei-37" transform="translate(550 0)"/>
    </g>
    <!-- 预期天数 = 120.921 -->
    <g transform="translate(706.2 540.827969) scale(0.1 -0.1)">
     <use xlink:href="#SimHei-9884"/>
     <use xlink:href="#SimHei-671f" transform="translate(100 0)"/>
     <use xlink:href="#SimHei-5929" transform="translate(200 0)"/>
     <use xlink:href="#SimHei-6570" transform="translate(300 0)"/>
     <use xlink:href="#SimHei-20" transform="translate(400 0)"/>
     <use xlink:href="#SimHei-3d" transform="translate(450 0)"/>
     <use xlink:href="#SimHei-20" transform="translate(500 0)"/>
     <use xlink:href="#SimHei-31" transform="translate(550 0)"/>
     <use xlink:href="#SimHei-32" transform="translate(600 0)"/>
     <use xlink:href="#SimHei-30" transform="translate(650 0)"/>
     <use xlink:href="#SimHei-2e" transform="translate(700 0)"/>
     <use xlink:href="#SimHei-39" transform="translate(750 0)"/>
     <use xlink:href="#SimHei-32" transform="translate(800 0)"/>
     <use xlink:href="#SimHei-31" transform="translate(850 0)"/>
    </g>
   </g>
   <g id="patch_6">
    <path d="M 118.024702 394.583043 
Q 154.610395 350.963455 191.914568 306.487255 
" style="fill: none; stroke: #000000; stroke-linecap: round"/>
    <path d="M 122.127571 392.803585 
L 118.024702 394.583043 
L 119.062857 390.233073 
" style="fill: none; stroke: #000000; stroke-linecap: round"/>
   </g>
   <g id="text_4">
    <g id="patch_7">
     <path d="M 55.2 434.197969 
L 145.2 434.197969 
Q 148.2 434.197969 148.2 431.197969 
L 148.2 400.471406 
Q 148.2 397.471406 145.2 397.471406 
L 55.2 397.471406 
Q 52.2 397.471406 52.2 400.471406 
L 52.2 431.197969 
Q 52.2 434.197969 55.2 434.197969 
z
" style="fill: #ffffff; stroke: #000000; stroke-linejoin: miter"/>
    </g>
    <!-- 平方误差 = 600.57 -->
    <g transform="translate(57.7 408.557344) scale(0.1 -0.1)">
     <defs>
      <path id="SimHei-35" d="M 550 1325 
Q 725 650 1150 575 
Q 1575 500 1837 662 
Q 2100 825 2212 1087 
Q 2325 1350 2312 1675 
Q 2300 2000 2137 2225 
Q 1975 2450 1725 2525 
Q 1475 2600 1162 2525 
Q 850 2450 650 2175 
L 225 2225 
Q 275 2375 700 4375 
L 2675 4375 
L 2675 3925 
L 1075 3925 
Q 950 3250 825 2850 
Q 1200 3025 1525 3012 
Q 1850 3000 2150 2862 
Q 2450 2725 2587 2487 
Q 2725 2250 2787 2012 
Q 2850 1775 2837 1500 
Q 2825 1225 2725 937 
Q 2625 650 2425 462 
Q 2225 275 1937 162 
Q 1650 50 1275 75 
Q 900 100 562 350 
Q 225 600 100 1200 
L 550 1325 
z
" transform="scale(0.015625)"/>
     </defs>
     <use xlink:href="#SimHei-5e73"/>
     <use xlink:href="#SimHei-65b9" transform="translate(100 0)"/>
     <use xlink:href="#SimHei-8bef" transform="translate(200 0)"/>
     <use xlink:href="#SimHei-5dee" transform="translate(300 0)"/>
     <use xlink:href="#SimHei-20" transform="translate(400 0)"/>
     <use xlink:href="#SimHei-3d" transform="translate(450 0)"/>
     <use xlink:href="#SimHei-20" transform="translate(500 0)"/>
     <use xlink:href="#SimHei-36" transform="translate(550 0)"/>
     <use xlink:href="#SimHei-30" transform="translate(600 0)"/>
     <use xlink:href="#SimHei-30" transform="translate(650 0)"/>
     <use xlink:href="#SimHei-2e" transform="translate(700 0)"/>
     <use xlink:href="#SimHei-35" transform="translate(750 0)"/>
     <use xlink:href="#SimHei-37" transform="translate(800 0)"/>
    </g>
    <!-- 样本数 = 118 -->
    <g transform="translate(70.2 419.322969) scale(0.1 -0.1)">
     <use xlink:href="#SimHei-6837"/>
     <use xlink:href="#SimHei-672c" transform="translate(100 0)"/>
     <use xlink:href="#SimHei-6570" transform="translate(200 0)"/>
     <use xlink:href="#SimHei-20" transform="translate(300 0)"/>
     <use xlink:href="#SimHei-3d" transform="translate(350 0)"/>
     <use xlink:href="#SimHei-20" transform="translate(400 0)"/>
     <use xlink:href="#SimHei-31" transform="translate(450 0)"/>
     <use xlink:href="#SimHei-31" transform="translate(500 0)"/>
     <use xlink:href="#SimHei-38" transform="translate(550 0)"/>
    </g>
    <!-- 预期天数 = 111.178 -->
    <g transform="translate(55.2 429.947969) scale(0.1 -0.1)">
     <use xlink:href="#SimHei-9884"/>
     <use xlink:href="#SimHei-671f" transform="translate(100 0)"/>
     <use xlink:href="#SimHei-5929" transform="translate(200 0)"/>
     <use xlink:href="#SimHei-6570" transform="translate(300 0)"/>
     <use xlink:href="#SimHei-20" transform="translate(400 0)"/>
     <use xlink:href="#SimHei-3d" transform="translate(450 0)"/>
     <use xlink:href="#SimHei-20" transform="translate(500 0)"/>
     <use xlink:href="#SimHei-31" transform="translate(550 0)"/>
     <use xlink:href="#SimHei-31" transform="translate(600 0)"/>
     <use xlink:href="#SimHei-31" transform="translate(650 0)"/>
     <use xlink:href="#SimHei-2e" transform="translate(700 0)"/>
     <use xlink:href="#SimHei-31" transform="translate(750 0)"/>
     <use xlink:href="#SimHei-37" transform="translate(800 0)"/>
     <use xlink:href="#SimHei-38" transform="translate(850 0)"/>
    </g>
   </g>
   <g id="patch_8">
    <path d="M 268.375298 394.583043 
Q 231.789605 350.963455 194.485432 306.487255 
" style="fill: none; stroke: #000000; stroke-linecap: round"/>
    <path d="M 267.337143 390.233073 
L 268.375298 394.583043 
L 264.272429 392.803585 
" style="fill: none; stroke: #000000; stroke-linecap: round"/>
   </g>
   <g id="text_5">
    <g id="patch_9">
     <path d="M 241.2 434.197969 
L 331.2 434.197969 
Q 334.2 434.197969 334.2 431.197969 
L 334.2 400.471406 
Q 334.2 397.471406 331.2 397.471406 
L 241.2 397.471406 
Q 238.2 397.471406 238.2 400.471406 
L 238.2 431.197969 
Q 238.2 434.197969 241.2 434.197969 
z
" style="fill: #fdf5f0; stroke: #000000; stroke-linejoin: miter"/>
    </g>
    <!-- 平方误差 = 501.972 -->
    <g transform="translate(241.2 408.557344) scale(0.1 -0.1)">
     <use xlink:href="#SimHei-5e73"/>
     <use xlink:href="#SimHei-65b9" transform="translate(100 0)"/>
     <use xlink:href="#SimHei-8bef" transform="translate(200 0)"/>
     <use xlink:href="#SimHei-5dee" transform="translate(300 0)"/>
     <use xlink:href="#SimHei-20" transform="translate(400 0)"/>
     <use xlink:href="#SimHei-3d" transform="translate(450 0)"/>
     <use xlink:href="#SimHei-20" transform="translate(500 0)"/>
     <use xlink:href="#SimHei-35" transform="translate(550 0)"/>
     <use xlink:href="#SimHei-30" transform="translate(600 0)"/>
     <use xlink:href="#SimHei-31" transform="translate(650 0)"/>
     <use xlink:href="#SimHei-2e" transform="translate(700 0)"/>
     <use xlink:href="#SimHei-39" transform="translate(750 0)"/>
     <use xlink:href="#SimHei-37" transform="translate(800 0)"/>
     <use xlink:href="#SimHei-32" transform="translate(850 0)"/>
    </g>
    <!-- 样本数 = 120 -->
    <g transform="translate(256.2 419.322969) scale(0.1 -0.1)">
     <use xlink:href="#SimHei-6837"/>
     <use xlink:href="#SimHei-672c" transform="translate(100 0)"/>
     <use xlink:href="#SimHei-6570" transform="translate(200 0)"/>
     <use xlink:href="#SimHei-20" transform="translate(300 0)"/>
     <use xlink:href="#SimHei-3d" transform="translate(350 0)"/>
     <use xlink:href="#SimHei-20" transform="translate(400 0)"/>
     <use xlink:href="#SimHei-31" transform="translate(450 0)"/>
     <use xlink:href="#SimHei-32" transform="translate(500 0)"/>
     <use xlink:href="#SimHei-30" transform="translate(550 0)"/>
    </g>
    <!-- 预期天数 = 112.942 -->
    <g transform="translate(241.2 429.947969) scale(0.1 -0.1)">
     <use xlink:href="#SimHei-9884"/>
     <use xlink:href="#SimHei-671f" transform="translate(100 0)"/>
     <use xlink:href="#SimHei-5929" transform="translate(200 0)"/>
     <use xlink:href="#SimHei-6570" transform="translate(300 0)"/>
     <use xlink:href="#SimHei-20" transform="translate(400 0)"/>
     <use xlink:href="#SimHei-3d" transform="translate(450 0)"/>
     <use xlink:href="#SimHei-20" transform="translate(500 0)"/>
     <use xlink:href="#SimHei-31" transform="translate(550 0)"/>
     <use xlink:href="#SimHei-31" transform="translate(600 0)"/>
     <use xlink:href="#SimHei-32" transform="translate(650 0)"/>
     <use xlink:href="#SimHei-2e" transform="translate(700 0)"/>
     <use xlink:href="#SimHei-39" transform="translate(750 0)"/>
     <use xlink:href="#SimHei-34" transform="translate(800 0)"/>
     <use xlink:href="#SimHei-32" transform="translate(850 0)"/>
    </g>
   </g>
   <g id="patch_10">
    <path d="M 490.024702 394.583043 
Q 526.610395 350.963455 563.914568 306.487255 
" style="fill: none; stroke: #000000; stroke-linecap: round"/>
    <path d="M 494.127571 392.803585 
L 490.024702 394.583043 
L 491.062857 390.233073 
" style="fill: none; stroke: #000000; stroke-linecap: round"/>
   </g>
   <g id="text_6">
    <g id="patch_11">
     <path d="M 427.2 434.197969 
L 517.2 434.197969 
Q 520.2 434.197969 520.2 431.197969 
L 520.2 400.471406 
Q 520.2 397.471406 517.2 397.471406 
L 427.2 397.471406 
Q 424.2 397.471406 424.2 400.471406 
L 424.2 431.197969 
Q 424.2 434.197969 427.2 434.197969 
z
" style="fill: #eda673; stroke: #000000; stroke-linejoin: miter"/>
    </g>
    <!-- 平方误差 = 711.844 -->
    <g transform="translate(427.2 408.557344) scale(0.1 -0.1)">
     <use xlink:href="#SimHei-5e73"/>
     <use xlink:href="#SimHei-65b9" transform="translate(100 0)"/>
     <use xlink:href="#SimHei-8bef" transform="translate(200 0)"/>
     <use xlink:href="#SimHei-5dee" transform="translate(300 0)"/>
     <use xlink:href="#SimHei-20" transform="translate(400 0)"/>
     <use xlink:href="#SimHei-3d" transform="translate(450 0)"/>
     <use xlink:href="#SimHei-20" transform="translate(500 0)"/>
     <use xlink:href="#SimHei-37" transform="translate(550 0)"/>
     <use xlink:href="#SimHei-31" transform="translate(600 0)"/>
     <use xlink:href="#SimHei-31" transform="translate(650 0)"/>
     <use xlink:href="#SimHei-2e" transform="translate(700 0)"/>
     <use xlink:href="#SimHei-38" transform="translate(750 0)"/>
     <use xlink:href="#SimHei-34" transform="translate(800 0)"/>
     <use xlink:href="#SimHei-34" transform="translate(850 0)"/>
    </g>
    <!-- 样本数 = 184 -->
    <g transform="translate(442.2 419.322969) scale(0.1 -0.1)">
     <use xlink:href="#SimHei-6837"/>
     <use xlink:href="#SimHei-672c" transform="translate(100 0)"/>
     <use xlink:href="#SimHei-6570" transform="translate(200 0)"/>
     <use xlink:href="#SimHei-20" transform="translate(300 0)"/>
     <use xlink:href="#SimHei-3d" transform="translate(350 0)"/>
     <use xlink:href="#SimHei-20" transform="translate(400 0)"/>
     <use xlink:href="#SimHei-31" transform="translate(450 0)"/>
     <use xlink:href="#SimHei-38" transform="translate(500 0)"/>
     <use xlink:href="#SimHei-34" transform="translate(550 0)"/>
    </g>
    <!-- 预期天数 = 127.31 -->
    <g transform="translate(429.7 429.947969) scale(0.1 -0.1)">
     <use xlink:href="#SimHei-9884"/>
     <use xlink:href="#SimHei-671f" transform="translate(100 0)"/>
     <use xlink:href="#SimHei-5929" transform="translate(200 0)"/>
     <use xlink:href="#SimHei-6570" transform="translate(300 0)"/>
     <use xlink:href="#SimHei-20" transform="translate(400 0)"/>
     <use xlink:href="#SimHei-3d" transform="translate(450 0)"/>
     <use xlink:href="#SimHei-20" transform="translate(500 0)"/>
     <use xlink:href="#SimHei-31" transform="translate(550 0)"/>
     <use xlink:href="#SimHei-32" transform="translate(600 0)"/>
     <use xlink:href="#SimHei-37" transform="translate(650 0)"/>
     <use xlink:href="#SimHei-2e" transform="translate(700 0)"/>
     <use xlink:href="#SimHei-33" transform="translate(750 0)"/>
     <use xlink:href="#SimHei-31" transform="translate(800 0)"/>
    </g>
   </g>
   <g id="patch_12">
    <path d="M 635.817714 389.149226 
Q 601.511403 348.24725 566.486612 306.488661 
" style="fill: none; stroke: #000000; stroke-linecap: round"/>
    <path d="M 634.779559 384.799257 
L 635.817714 389.149226 
L 631.714845 387.369769 
" style="fill: none; stroke: #000000; stroke-linecap: round"/>
   </g>
   <g id="text_7">
    <g id="patch_13">
     <path d="M 613.2 439.635469 
L 703.2 439.635469 
Q 706.2 439.635469 706.2 436.635469 
L 706.2 395.033906 
Q 706.2 392.033906 703.2 392.033906 
L 613.2 392.033906 
Q 610.2 392.033906 610.2 395.033906 
L 610.2 436.635469 
Q 610.2 439.635469 613.2 439.635469 
z
" style="fill: #f5cfb4; stroke: #000000; stroke-linejoin: miter"/>
    </g>
    <!-- 孕妇BMI &lt;= 32.732 -->
    <g transform="translate(615.7 403.041719) scale(0.1 -0.1)">
     <defs>
      <path id="SimHei-5b55" d="M 5750 2400 
Q 5700 2025 5400 1900 
Q 5100 1775 4775 1725 
Q 4725 2025 4600 2225 
Q 5200 2200 5275 2575 
L 5375 3475 
L 4050 3475 
Q 4100 3800 4250 4525 
L 2650 4525 
Q 2575 3975 2362 3550 
Q 2150 3125 1850 2800 
Q 2400 2750 2850 2750 
L 4625 2750 
L 4625 2350 
Q 4400 2275 4150 2125 
Q 3900 1975 3550 1750 
L 3550 1375 
L 4850 1375 
Q 5350 1375 5925 1400 
L 5925 950 
Q 5375 975 4875 975 
L 3550 975 
L 3550 -175 
Q 3525 -475 3275 -575 
Q 3025 -675 2575 -700 
Q 2550 -400 2375 -150 
Q 2875 -150 2950 -100 
Q 3025 -50 3025 125 
L 3025 975 
L 1475 975 
Q 975 975 450 950 
L 450 1400 
Q 975 1375 1475 1375 
L 3025 1375 
Q 3025 1575 3000 1850 
Q 3450 2100 3750 2350 
L 2850 2350 
Q 2425 2350 1800 2325 
L 1800 2725 
Q 1375 2300 875 2025 
Q 650 2250 400 2350 
Q 775 2500 1187 2825 
Q 1600 3150 1850 3650 
Q 2100 4150 2125 4525 
L 1800 4525 
Q 1400 4525 925 4500 
L 925 4950 
Q 1400 4925 1750 4925 
L 4875 4925 
Q 4675 4200 4625 3925 
L 5925 3925 
Q 5925 3750 5850 3225 
L 5750 2400 
z
" transform="scale(0.015625)"/>
      <path id="SimHei-5987" d="M 2950 375 
Q 2775 225 2550 0 
Q 2300 375 2050 700 
Q 1775 300 1425 0 
Q 1075 -300 650 -575 
Q 525 -375 200 -175 
Q 600 0 987 287 
Q 1375 575 1700 1025 
Q 1250 1425 825 1775 
Q 1050 2400 1250 3400 
Q 950 3400 525 3375 
L 525 3875 
Q 975 3850 1325 3850 
Q 1450 4375 1550 5225 
Q 1875 5100 2125 5075 
Q 2025 4875 1950 4525 
Q 1875 4175 1800 3850 
L 2900 3850 
Q 2825 2925 2687 2312 
Q 2550 1700 2300 1100 
Q 2625 750 2950 375 
z
M 5825 4625 
Q 5800 4075 5800 3500 
L 5800 800 
Q 5800 200 5825 -350 
L 5325 -350 
L 5325 200 
L 4075 200 
Q 3600 200 3150 175 
L 3150 675 
Q 3600 650 4075 650 
L 5325 650 
L 5325 2250 
L 4225 2250 
Q 3725 2250 3275 2225 
L 3275 2725 
Q 3725 2700 4225 2700 
L 5325 2700 
L 5325 4175 
L 4050 4175 
Q 3575 4175 3150 4150 
L 3150 4650 
Q 3575 4625 4050 4625 
L 5825 4625 
z
M 1950 1400 
Q 2125 1825 2225 2275 
Q 2325 2725 2400 3400 
L 1725 3400 
Q 1500 2500 1325 1900 
Q 1650 1675 1950 1400 
z
" transform="scale(0.015625)"/>
      <path id="SimHei-3c" d="M 2950 250 
L 2725 -25 
L 200 2250 
L 2700 4550 
L 2950 4300 
L 700 2250 
L 2950 250 
z
" transform="scale(0.015625)"/>
     </defs>
     <use xlink:href="#SimHei-5b55"/>
     <use xlink:href="#SimHei-5987" transform="translate(100 0)"/>
     <use xlink:href="#SimHei-42" transform="translate(200 0)"/>
     <use xlink:href="#SimHei-4d" transform="translate(250 0)"/>
     <use xlink:href="#SimHei-49" transform="translate(300 0)"/>
     <use xlink:href="#SimHei-20" transform="translate(350 0)"/>
     <use xlink:href="#SimHei-3c" transform="translate(400 0)"/>
     <use xlink:href="#SimHei-3d" transform="translate(450 0)"/>
     <use xlink:href="#SimHei-20" transform="translate(500 0)"/>
     <use xlink:href="#SimHei-33" transform="translate(550 0)"/>
     <use xlink:href="#SimHei-32" transform="translate(600 0)"/>
     <use xlink:href="#SimHei-2e" transform="translate(650 0)"/>
     <use xlink:href="#SimHei-37" transform="translate(700 0)"/>
     <use xlink:href="#SimHei-33" transform="translate(750 0)"/>
     <use xlink:href="#SimHei-32" transform="translate(800 0)"/>
    </g>
    <!-- 平方误差 = 694.011 -->
    <g transform="translate(613.2 413.994844) scale(0.1 -0.1)">
     <use xlink:href="#SimHei-5e73"/>
     <use xlink:href="#SimHei-65b9" transform="translate(100 0)"/>
     <use xlink:href="#SimHei-8bef" transform="translate(200 0)"/>
     <use xlink:href="#SimHei-5dee" transform="translate(300 0)"/>
     <use xlink:href="#SimHei-20" transform="translate(400 0)"/>
     <use xlink:href="#SimHei-3d" transform="translate(450 0)"/>
     <use xlink:href="#SimHei-20" transform="translate(500 0)"/>
     <use xlink:href="#SimHei-36" transform="translate(550 0)"/>
     <use xlink:href="#SimHei-39" transform="translate(600 0)"/>
     <use xlink:href="#SimHei-34" transform="translate(650 0)"/>
     <use xlink:href="#SimHei-2e" transform="translate(700 0)"/>
     <use xlink:href="#SimHei-30" transform="translate(750 0)"/>
     <use xlink:href="#SimHei-31" transform="translate(800 0)"/>
     <use xlink:href="#SimHei-31" transform="translate(850 0)"/>
    </g>
    <!-- 样本数 = 283 -->
    <g transform="translate(628.2 424.760469) scale(0.1 -0.1)">
     <use xlink:href="#SimHei-6837"/>
     <use xlink:href="#SimHei-672c" transform="translate(100 0)"/>
     <use xlink:href="#SimHei-6570" transform="translate(200 0)"/>
     <use xlink:href="#SimHei-20" transform="translate(300 0)"/>
     <use xlink:href="#SimHei-3d" transform="translate(350 0)"/>
     <use xlink:href="#SimHei-20" transform="translate(400 0)"/>
     <use xlink:href="#SimHei-32" transform="translate(450 0)"/>
     <use xlink:href="#SimHei-38" transform="translate(500 0)"/>
     <use xlink:href="#SimHei-33" transform="translate(550 0)"/>
    </g>
    <!-- 预期天数 = 119.763 -->
    <g transform="translate(613.2 435.385469) scale(0.1 -0.1)">
     <use xlink:href="#SimHei-9884"/>
     <use xlink:href="#SimHei-671f" transform="translate(100 0)"/>
     <use xlink:href="#SimHei-5929" transform="translate(200 0)"/>
     <use xlink:href="#SimHei-6570" transform="translate(300 0)"/>
     <use xlink:href="#SimHei-20" transform="translate(400 0)"/>
     <use xlink:href="#SimHei-3d" transform="translate(450 0)"/>
     <use xlink:href="#SimHei-20" transform="translate(500 0)"/>
     <use xlink:href="#SimHei-31" transform="translate(550 0)"/>
     <use xlink:href="#SimHei-31" transform="translate(600 0)"/>
     <use xlink:href="#SimHei-39" transform="translate(650 0)"/>
     <use xlink:href="#SimHei-2e" transform="translate(700 0)"/>
     <use xlink:href="#SimHei-37" transform="translate(750 0)"/>
     <use xlink:href="#SimHei-36" transform="translate(800 0)"/>
     <use xlink:href="#SimHei-33" transform="translate(850 0)"/>
    </g>
   </g>
   <g id="patch_14">
    <path d="M 862.024702 394.583043 
Q 898.610395 350.963455 935.914568 306.487255 
" style="fill: none; stroke: #000000; stroke-linecap: round"/>
    <path d="M 866.127571 392.803585 
L 862.024702 394.583043 
L 863.062857 390.233073 
" style="fill: none; stroke: #000000; stroke-linecap: round"/>
   </g>
   <g id="text_8">
    <g id="patch_15">
     <path d="M 799.2 434.197969 
L 889.2 434.197969 
Q 892.2 434.197969 892.2 431.197969 
L 892.2 400.471406 
Q 892.2 397.471406 889.2 397.471406 
L 799.2 397.471406 
Q 796.2 397.471406 796.2 400.471406 
L 796.2 431.197969 
Q 796.2 434.197969 799.2 434.197969 
z
" style="fill: #ea985e; stroke: #000000; stroke-linejoin: miter"/>
    </g>
    <!-- 平方误差 = 777.407 -->
    <g transform="translate(799.2 408.557344) scale(0.1 -0.1)">
     <use xlink:href="#SimHei-5e73"/>
     <use xlink:href="#SimHei-65b9" transform="translate(100 0)"/>
     <use xlink:href="#SimHei-8bef" transform="translate(200 0)"/>
     <use xlink:href="#SimHei-5dee" transform="translate(300 0)"/>
     <use xlink:href="#SimHei-20" transform="translate(400 0)"/>
     <use xlink:href="#SimHei-3d" transform="translate(450 0)"/>
     <use xlink:href="#SimHei-20" transform="translate(500 0)"/>
     <use xlink:href="#SimHei-37" transform="translate(550 0)"/>
     <use xlink:href="#SimHei-37" transform="translate(600 0)"/>
     <use xlink:href="#SimHei-37" transform="translate(650 0)"/>
     <use xlink:href="#SimHei-2e" transform="translate(700 0)"/>
     <use xlink:href="#SimHei-34" transform="translate(750 0)"/>
     <use xlink:href="#SimHei-30" transform="translate(800 0)"/>
     <use xlink:href="#SimHei-37" transform="translate(850 0)"/>
    </g>
    <!-- 样本数 = 122 -->
    <g transform="translate(814.2 419.322969) scale(0.1 -0.1)">
     <use xlink:href="#SimHei-6837"/>
     <use xlink:href="#SimHei-672c" transform="translate(100 0)"/>
     <use xlink:href="#SimHei-6570" transform="translate(200 0)"/>
     <use xlink:href="#SimHei-20" transform="translate(300 0)"/>
     <use xlink:href="#SimHei-3d" transform="translate(350 0)"/>
     <use xlink:href="#SimHei-20" transform="translate(400 0)"/>
     <use xlink:href="#SimHei-31" transform="translate(450 0)"/>
     <use xlink:href="#SimHei-32" transform="translate(500 0)"/>
     <use xlink:href="#SimHei-32" transform="translate(550 0)"/>
    </g>
    <!-- 预期天数 = 129.738 -->
    <g transform="translate(799.2 429.947969) scale(0.1 -0.1)">
     <use xlink:href="#SimHei-9884"/>
     <use xlink:href="#SimHei-671f" transform="translate(100 0)"/>
     <use xlink:href="#SimHei-5929" transform="translate(200 0)"/>
     <use xlink:href="#SimHei-6570" transform="translate(300 0)"/>
     <use xlink:href="#SimHei-20" transform="translate(400 0)"/>
     <use xlink:href="#SimHei-3d" transform="translate(450 0)"/>
     <use xlink:href="#SimHei-20" transform="translate(500 0)"/>
     <use xlink:href="#SimHei-31" transform="translate(550 0)"/>
     <use xlink:href="#SimHei-32" transform="translate(600 0)"/>
     <use xlink:href="#SimHei-39" transform="translate(650 0)"/>
     <use xlink:href="#SimHei-2e" transform="translate(700 0)"/>
     <use xlink:href="#SimHei-37" transform="translate(750 0)"/>
     <use xlink:href="#SimHei-33" transform="translate(800 0)"/>
     <use xlink:href="#SimHei-38" transform="translate(850 0)"/>
    </g>
   </g>
   <g id="patch_16">
    <path d="M 1012.375298 394.583043 
Q 975.789605 350.963455 938.485432 306.487255 
" style="fill: none; stroke: #000000; stroke-linecap: round"/>
    <path d="M 1011.337143 390.233073 
L 1012.375298 394.583043 
L 1008.272429 392.803585 
" style="fill: none; stroke: #000000; stroke-linecap: round"/>
   </g>
   <g id="text_9">
    <g id="patch_17">
     <path d="M 985.2 434.197969 
L 1075.2 434.197969 
Q 1078.2 434.197969 1078.2 431.197969 
L 1078.2 400.471406 
Q 1078.2 397.471406 1075.2 397.471406 
L 985.2 397.471406 
Q 982.2 397.471406 982.2 400.471406 
L 982.2 431.197969 
Q 982.2 434.197969 985.2 434.197969 
z
" style="fill: #e58139; stroke: #000000; stroke-linejoin: miter"/>
    </g>
    <!-- 平方误差 = 786.405 -->
    <g transform="translate(985.2 408.557344) scale(0.1 -0.1)">
     <use xlink:href="#SimHei-5e73"/>
     <use xlink:href="#SimHei-65b9" transform="translate(100 0)"/>
     <use xlink:href="#SimHei-8bef" transform="translate(200 0)"/>
     <use xlink:href="#SimHei-5dee" transform="translate(300 0)"/>
     <use xlink:href="#SimHei-20" transform="translate(400 0)"/>
     <use xlink:href="#SimHei-3d" transform="translate(450 0)"/>
     <use xlink:href="#SimHei-20" transform="translate(500 0)"/>
     <use xlink:href="#SimHei-37" transform="translate(550 0)"/>
     <use xlink:href="#SimHei-38" transform="translate(600 0)"/>
     <use xlink:href="#SimHei-36" transform="translate(650 0)"/>
     <use xlink:href="#SimHei-2e" transform="translate(700 0)"/>
     <use xlink:href="#SimHei-34" transform="translate(750 0)"/>
     <use xlink:href="#SimHei-30" transform="translate(800 0)"/>
     <use xlink:href="#SimHei-35" transform="translate(850 0)"/>
    </g>
    <!-- 样本数 = 125 -->
    <g transform="translate(1000.2 419.322969) scale(0.1 -0.1)">
     <use xlink:href="#SimHei-6837"/>
     <use xlink:href="#SimHei-672c" transform="translate(100 0)"/>
     <use xlink:href="#SimHei-6570" transform="translate(200 0)"/>
     <use xlink:href="#SimHei-20" transform="translate(300 0)"/>
     <use xlink:href="#SimHei-3d" transform="translate(350 0)"/>
     <use xlink:href="#SimHei-20" transform="translate(400 0)"/>
     <use xlink:href="#SimHei-31" transform="translate(450 0)"/>
     <use xlink:href="#SimHei-32" transform="translate(500 0)"/>
     <use xlink:href="#SimHei-35" transform="translate(550 0)"/>
    </g>
    <!-- 预期天数 = 133.944 -->
    <g transform="translate(985.2 429.947969) scale(0.1 -0.1)">
     <use xlink:href="#SimHei-9884"/>
     <use xlink:href="#SimHei-671f" transform="translate(100 0)"/>
     <use xlink:href="#SimHei-5929" transform="translate(200 0)"/>
     <use xlink:href="#SimHei-6570" transform="translate(300 0)"/>
     <use xlink:href="#SimHei-20" transform="translate(400 0)"/>
     <use xlink:href="#SimHei-3d" transform="translate(450 0)"/>
     <use xlink:href="#SimHei-20" transform="translate(500 0)"/>
     <use xlink:href="#SimHei-31" transform="translate(550 0)"/>
     <use xlink:href="#SimHei-33" transform="translate(600 0)"/>
     <use xlink:href="#SimHei-33" transform="translate(650 0)"/>
     <use xlink:href="#SimHei-2e" transform="translate(700 0)"/>
     <use xlink:href="#SimHei-39" transform="translate(750 0)"/>
     <use xlink:href="#SimHei-34" transform="translate(800 0)"/>
     <use xlink:href="#SimHei-34" transform="translate(850 0)"/>
    </g>
   </g>
   <g id="patch_18">
    <path d="M 215.582286 278.269226 
Q 249.888597 237.36725 284.913388 195.608661 
" style="fill: none; stroke: #000000; stroke-linecap: round"/>
    <path d="M 219.685155 276.489769 
L 215.582286 278.269226 
L 216.620441 273.919257 
" style="fill: none; stroke: #000000; stroke-linecap: round"/>
   </g>
   <g id="text_10">
    <g id="patch_19">
     <path d="M 148.2 328.755469 
L 238.2 328.755469 
Q 241.2 328.755469 241.2 325.755469 
L 241.2 284.153906 
Q 241.2 281.153906 238.2 281.153906 
L 148.2 281.153906 
Q 145.2 281.153906 145.2 284.153906 
L 145.2 325.755469 
Q 145.2 328.755469 148.2 328.755469 
z
" style="fill: #fefaf7; stroke: #000000; stroke-linejoin: miter"/>
    </g>
    <!-- 孕妇BMI &lt;= 29.143 -->
    <g transform="translate(150.7 292.161719) scale(0.1 -0.1)">
     <use xlink:href="#SimHei-5b55"/>
     <use xlink:href="#SimHei-5987" transform="translate(100 0)"/>
     <use xlink:href="#SimHei-42" transform="translate(200 0)"/>
     <use xlink:href="#SimHei-4d" transform="translate(250 0)"/>
     <use xlink:href="#SimHei-49" transform="translate(300 0)"/>
     <use xlink:href="#SimHei-20" transform="translate(350 0)"/>
     <use xlink:href="#SimHei-3c" transform="translate(400 0)"/>
     <use xlink:href="#SimHei-3d" transform="translate(450 0)"/>
     <use xlink:href="#SimHei-20" transform="translate(500 0)"/>
     <use xlink:href="#SimHei-32" transform="translate(550 0)"/>
     <use xlink:href="#SimHei-39" transform="translate(600 0)"/>
     <use xlink:href="#SimHei-2e" transform="translate(650 0)"/>
     <use xlink:href="#SimHei-31" transform="translate(700 0)"/>
     <use xlink:href="#SimHei-34" transform="translate(750 0)"/>
     <use xlink:href="#SimHei-33" transform="translate(800 0)"/>
    </g>
    <!-- 平方误差 = 551.634 -->
    <g transform="translate(148.2 303.114844) scale(0.1 -0.1)">
     <use xlink:href="#SimHei-5e73"/>
     <use xlink:href="#SimHei-65b9" transform="translate(100 0)"/>
     <use xlink:href="#SimHei-8bef" transform="translate(200 0)"/>
     <use xlink:href="#SimHei-5dee" transform="translate(300 0)"/>
     <use xlink:href="#SimHei-20" transform="translate(400 0)"/>
     <use xlink:href="#SimHei-3d" transform="translate(450 0)"/>
     <use xlink:href="#SimHei-20" transform="translate(500 0)"/>
     <use xlink:href="#SimHei-35" transform="translate(550 0)"/>
     <use xlink:href="#SimHei-35" transform="translate(600 0)"/>
     <use xlink:href="#SimHei-31" transform="translate(650 0)"/>
     <use xlink:href="#SimHei-2e" transform="translate(700 0)"/>
     <use xlink:href="#SimHei-36" transform="translate(750 0)"/>
     <use xlink:href="#SimHei-33" transform="translate(800 0)"/>
     <use xlink:href="#SimHei-34" transform="translate(850 0)"/>
    </g>
    <!-- 样本数 = 238 -->
    <g transform="translate(163.2 313.880469) scale(0.1 -0.1)">
     <use xlink:href="#SimHei-6837"/>
     <use xlink:href="#SimHei-672c" transform="translate(100 0)"/>
     <use xlink:href="#SimHei-6570" transform="translate(200 0)"/>
     <use xlink:href="#SimHei-20" transform="translate(300 0)"/>
     <use xlink:href="#SimHei-3d" transform="translate(350 0)"/>
     <use xlink:href="#SimHei-20" transform="translate(400 0)"/>
     <use xlink:href="#SimHei-32" transform="translate(450 0)"/>
     <use xlink:href="#SimHei-33" transform="translate(500 0)"/>
     <use xlink:href="#SimHei-38" transform="translate(550 0)"/>
    </g>
    <!-- 预期天数 = 112.067 -->
    <g transform="translate(148.2 324.505469) scale(0.1 -0.1)">
     <use xlink:href="#SimHei-9884"/>
     <use xlink:href="#SimHei-671f" transform="translate(100 0)"/>
     <use xlink:href="#SimHei-5929" transform="translate(200 0)"/>
     <use xlink:href="#SimHei-6570" transform="translate(300 0)"/>
     <use xlink:href="#SimHei-20" transform="translate(400 0)"/>
     <use xlink:href="#SimHei-3d" transform="translate(450 0)"/>
     <use xlink:href="#SimHei-20" transform="translate(500 0)"/>
     <use xlink:href="#SimHei-31" transform="translate(550 0)"/>
     <use xlink:href="#SimHei-31" transform="translate(600 0)"/>
     <use xlink:href="#SimHei-32" transform="translate(650 0)"/>
     <use xlink:href="#SimHei-2e" transform="translate(700 0)"/>
     <use xlink:href="#SimHei-30" transform="translate(750 0)"/>
     <use xlink:href="#SimHei-36" transform="translate(800 0)"/>
     <use xlink:href="#SimHei-37" transform="translate(850 0)"/>
    </g>
   </g>
   <g id="patch_20">
    <path d="M 361.375298 283.703043 
Q 324.789605 240.083455 287.485432 195.607255 
" style="fill: none; stroke: #000000; stroke-linecap: round"/>
    <path d="M 360.337143 279.353073 
L 361.375298 283.703043 
L 357.272429 281.923585 
" style="fill: none; stroke: #000000; stroke-linecap: round"/>
   </g>
   <g id="text_11">
    <g id="patch_21">
     <path d="M 334.2 323.317969 
L 424.2 323.317969 
Q 427.2 323.317969 427.2 320.317969 
L 427.2 289.591406 
Q 427.2 286.591406 424.2 286.591406 
L 334.2 286.591406 
Q 331.2 286.591406 331.2 289.591406 
L 331.2 320.317969 
Q 331.2 323.317969 334.2 323.317969 
z
" style="fill: #f7d9c4; stroke: #000000; stroke-linejoin: miter"/>
    </g>
    <!-- 平方误差 = 715.892 -->
    <g transform="translate(334.2 297.677344) scale(0.1 -0.1)">
     <use xlink:href="#SimHei-5e73"/>
     <use xlink:href="#SimHei-65b9" transform="translate(100 0)"/>
     <use xlink:href="#SimHei-8bef" transform="translate(200 0)"/>
     <use xlink:href="#SimHei-5dee" transform="translate(300 0)"/>
     <use xlink:href="#SimHei-20" transform="translate(400 0)"/>
     <use xlink:href="#SimHei-3d" transform="translate(450 0)"/>
     <use xlink:href="#SimHei-20" transform="translate(500 0)"/>
     <use xlink:href="#SimHei-37" transform="translate(550 0)"/>
     <use xlink:href="#SimHei-31" transform="translate(600 0)"/>
     <use xlink:href="#SimHei-35" transform="translate(650 0)"/>
     <use xlink:href="#SimHei-2e" transform="translate(700 0)"/>
     <use xlink:href="#SimHei-38" transform="translate(750 0)"/>
     <use xlink:href="#SimHei-39" transform="translate(800 0)"/>
     <use xlink:href="#SimHei-32" transform="translate(850 0)"/>
    </g>
    <!-- 样本数 = 130 -->
    <g transform="translate(349.2 308.442969) scale(0.1 -0.1)">
     <use xlink:href="#SimHei-6837"/>
     <use xlink:href="#SimHei-672c" transform="translate(100 0)"/>
     <use xlink:href="#SimHei-6570" transform="translate(200 0)"/>
     <use xlink:href="#SimHei-20" transform="translate(300 0)"/>
     <use xlink:href="#SimHei-3d" transform="translate(350 0)"/>
     <use xlink:href="#SimHei-20" transform="translate(400 0)"/>
     <use xlink:href="#SimHei-31" transform="translate(450 0)"/>
     <use xlink:href="#SimHei-33" transform="translate(500 0)"/>
     <use xlink:href="#SimHei-30" transform="translate(550 0)"/>
    </g>
    <!-- 预期天数 = 117.985 -->
    <g transform="translate(334.2 319.067969) scale(0.1 -0.1)">
     <use xlink:href="#SimHei-9884"/>
     <use xlink:href="#SimHei-671f" transform="translate(100 0)"/>
     <use xlink:href="#SimHei-5929" transform="translate(200 0)"/>
     <use xlink:href="#SimHei-6570" transform="translate(300 0)"/>
     <use xlink:href="#SimHei-20" transform="translate(400 0)"/>
     <use xlink:href="#SimHei-3d" transform="translate(450 0)"/>
     <use xlink:href="#SimHei-20" transform="translate(500 0)"/>
     <use xlink:href="#SimHei-31" transform="translate(550 0)"/>
     <use xlink:href="#SimHei-31" transform="translate(600 0)"/>
     <use xlink:href="#SimHei-37" transform="translate(650 0)"/>
     <use xlink:href="#SimHei-2e" transform="translate(700 0)"/>
     <use xlink:href="#SimHei-39" transform="translate(750 0)"/>
     <use xlink:href="#SimHei-38" transform="translate(800 0)"/>
     <use xlink:href="#SimHei-35" transform="translate(850 0)"/>
    </g>
   </g>
   <g id="patch_22">
    <path d="M 608.641968 279.057669 
Q 678.58127 237.36482 749.480915 195.099484 
" style="fill: none; stroke: #000000; stroke-linecap: round"/>
    <path d="M 613.101891 278.727387 
L 608.641968 279.057669 
L 611.053696 275.291561 
" style="fill: none; stroke: #000000; stroke-linecap: round"/>
   </g>
   <g id="text_12">
    <g id="patch_23">
     <path d="M 520.2 328.755469 
L 610.2 328.755469 
Q 613.2 328.755469 613.2 325.755469 
L 613.2 284.153906 
Q 613.2 281.153906 610.2 281.153906 
L 520.2 281.153906 
Q 517.2 281.153906 517.2 284.153906 
L 517.2 325.755469 
Q 517.2 328.755469 520.2 328.755469 
z
" style="fill: #f2bf9a; stroke: #000000; stroke-linejoin: miter"/>
    </g>
    <!-- 孕妇BMI &lt;= 31.98 -->
    <g transform="translate(525.2 292.161719) scale(0.1 -0.1)">
     <use xlink:href="#SimHei-5b55"/>
     <use xlink:href="#SimHei-5987" transform="translate(100 0)"/>
     <use xlink:href="#SimHei-42" transform="translate(200 0)"/>
     <use xlink:href="#SimHei-4d" transform="translate(250 0)"/>
     <use xlink:href="#SimHei-49" transform="translate(300 0)"/>
     <use xlink:href="#SimHei-20" transform="translate(350 0)"/>
     <use xlink:href="#SimHei-3c" transform="translate(400 0)"/>
     <use xlink:href="#SimHei-3d" transform="translate(450 0)"/>
     <use xlink:href="#SimHei-20" transform="translate(500 0)"/>
     <use xlink:href="#SimHei-33" transform="translate(550 0)"/>
     <use xlink:href="#SimHei-31" transform="translate(600 0)"/>
     <use xlink:href="#SimHei-2e" transform="translate(650 0)"/>
     <use xlink:href="#SimHei-39" transform="translate(700 0)"/>
     <use xlink:href="#SimHei-38" transform="translate(750 0)"/>
    </g>
    <!-- 平方误差 = 714.635 -->
    <g transform="translate(520.2 303.114844) scale(0.1 -0.1)">
     <use xlink:href="#SimHei-5e73"/>
     <use xlink:href="#SimHei-65b9" transform="translate(100 0)"/>
     <use xlink:href="#SimHei-8bef" transform="translate(200 0)"/>
     <use xlink:href="#SimHei-5dee" transform="translate(300 0)"/>
     <use xlink:href="#SimHei-20" transform="translate(400 0)"/>
     <use xlink:href="#SimHei-3d" transform="translate(450 0)"/>
     <use xlink:href="#SimHei-20" transform="translate(500 0)"/>
     <use xlink:href="#SimHei-37" transform="translate(550 0)"/>
     <use xlink:href="#SimHei-31" transform="translate(600 0)"/>
     <use xlink:href="#SimHei-34" transform="translate(650 0)"/>
     <use xlink:href="#SimHei-2e" transform="translate(700 0)"/>
     <use xlink:href="#SimHei-36" transform="translate(750 0)"/>
     <use xlink:href="#SimHei-33" transform="translate(800 0)"/>
     <use xlink:href="#SimHei-35" transform="translate(850 0)"/>
    </g>
    <!-- 样本数 = 467 -->
    <g transform="translate(535.2 313.880469) scale(0.1 -0.1)">
     <use xlink:href="#SimHei-6837"/>
     <use xlink:href="#SimHei-672c" transform="translate(100 0)"/>
     <use xlink:href="#SimHei-6570" transform="translate(200 0)"/>
     <use xlink:href="#SimHei-20" transform="translate(300 0)"/>
     <use xlink:href="#SimHei-3d" transform="translate(350 0)"/>
     <use xlink:href="#SimHei-20" transform="translate(400 0)"/>
     <use xlink:href="#SimHei-34" transform="translate(450 0)"/>
     <use xlink:href="#SimHei-36" transform="translate(500 0)"/>
     <use xlink:href="#SimHei-37" transform="translate(550 0)"/>
    </g>
    <!-- 预期天数 = 122.737 -->
    <g transform="translate(520.2 324.505469) scale(0.1 -0.1)">
     <use xlink:href="#SimHei-9884"/>
     <use xlink:href="#SimHei-671f" transform="translate(100 0)"/>
     <use xlink:href="#SimHei-5929" transform="translate(200 0)"/>
     <use xlink:href="#SimHei-6570" transform="translate(300 0)"/>
     <use xlink:href="#SimHei-20" transform="translate(400 0)"/>
     <use xlink:href="#SimHei-3d" transform="translate(450 0)"/>
     <use xlink:href="#SimHei-20" transform="translate(500 0)"/>
     <use xlink:href="#SimHei-31" transform="translate(550 0)"/>
     <use xlink:href="#SimHei-32" transform="translate(600 0)"/>
     <use xlink:href="#SimHei-32" transform="translate(650 0)"/>
     <use xlink:href="#SimHei-2e" transform="translate(700 0)"/>
     <use xlink:href="#SimHei-37" transform="translate(750 0)"/>
     <use xlink:href="#SimHei-33" transform="translate(800 0)"/>
     <use xlink:href="#SimHei-37" transform="translate(850 0)"/>
    </g>
   </g>
   <g id="patch_24">
    <path d="M 893.758032 279.057669 
Q 823.81873 237.36482 752.919085 195.099484 
" style="fill: none; stroke: #000000; stroke-linecap: round"/>
    <path d="M 891.346304 275.291561 
L 893.758032 279.057669 
L 889.298109 278.727387 
" style="fill: none; stroke: #000000; stroke-linecap: round"/>
   </g>
   <g id="text_13">
    <g id="patch_25">
     <path d="M 892.2 328.755469 
L 982.2 328.755469 
Q 985.2 328.755469 985.2 325.755469 
L 985.2 284.153906 
Q 985.2 281.153906 982.2 281.153906 
L 892.2 281.153906 
Q 889.2 281.153906 889.2 284.153906 
L 889.2 325.755469 
Q 889.2 328.755469 892.2 328.755469 
z
" style="fill: #e78c4b; stroke: #000000; stroke-linejoin: miter"/>
    </g>
    <!-- 孕妇BMI &lt;= 35.724 -->
    <g transform="translate(894.7 292.161719) scale(0.1 -0.1)">
     <use xlink:href="#SimHei-5b55"/>
     <use xlink:href="#SimHei-5987" transform="translate(100 0)"/>
     <use xlink:href="#SimHei-42" transform="translate(200 0)"/>
     <use xlink:href="#SimHei-4d" transform="translate(250 0)"/>
     <use xlink:href="#SimHei-49" transform="translate(300 0)"/>
     <use xlink:href="#SimHei-20" transform="translate(350 0)"/>
     <use xlink:href="#SimHei-3c" transform="translate(400 0)"/>
     <use xlink:href="#SimHei-3d" transform="translate(450 0)"/>
     <use xlink:href="#SimHei-20" transform="translate(500 0)"/>
     <use xlink:href="#SimHei-33" transform="translate(550 0)"/>
     <use xlink:href="#SimHei-35" transform="translate(600 0)"/>
     <use xlink:href="#SimHei-2e" transform="translate(650 0)"/>
     <use xlink:href="#SimHei-37" transform="translate(700 0)"/>
     <use xlink:href="#SimHei-32" transform="translate(750 0)"/>
     <use xlink:href="#SimHei-34" transform="translate(800 0)"/>
    </g>
    <!-- 平方误差 = 786.383 -->
    <g transform="translate(892.2 303.114844) scale(0.1 -0.1)">
     <use xlink:href="#SimHei-5e73"/>
     <use xlink:href="#SimHei-65b9" transform="translate(100 0)"/>
     <use xlink:href="#SimHei-8bef" transform="translate(200 0)"/>
     <use xlink:href="#SimHei-5dee" transform="translate(300 0)"/>
     <use xlink:href="#SimHei-20" transform="translate(400 0)"/>
     <use xlink:href="#SimHei-3d" transform="translate(450 0)"/>
     <use xlink:href="#SimHei-20" transform="translate(500 0)"/>
     <use xlink:href="#SimHei-37" transform="translate(550 0)"/>
     <use xlink:href="#SimHei-38" transform="translate(600 0)"/>
     <use xlink:href="#SimHei-36" transform="translate(650 0)"/>
     <use xlink:href="#SimHei-2e" transform="translate(700 0)"/>
     <use xlink:href="#SimHei-33" transform="translate(750 0)"/>
     <use xlink:href="#SimHei-38" transform="translate(800 0)"/>
     <use xlink:href="#SimHei-33" transform="translate(850 0)"/>
    </g>
    <!-- 样本数 = 247 -->
    <g transform="translate(907.2 313.880469) scale(0.1 -0.1)">
     <use xlink:href="#SimHei-6837"/>
     <use xlink:href="#SimHei-672c" transform="translate(100 0)"/>
     <use xlink:href="#SimHei-6570" transform="translate(200 0)"/>
     <use xlink:href="#SimHei-20" transform="translate(300 0)"/>
     <use xlink:href="#SimHei-3d" transform="translate(350 0)"/>
     <use xlink:href="#SimHei-20" transform="translate(400 0)"/>
     <use xlink:href="#SimHei-32" transform="translate(450 0)"/>
     <use xlink:href="#SimHei-34" transform="translate(500 0)"/>
     <use xlink:href="#SimHei-37" transform="translate(550 0)"/>
    </g>
    <!-- 预期天数 = 131.866 -->
    <g transform="translate(892.2 324.505469) scale(0.1 -0.1)">
     <use xlink:href="#SimHei-9884"/>
     <use xlink:href="#SimHei-671f" transform="translate(100 0)"/>
     <use xlink:href="#SimHei-5929" transform="translate(200 0)"/>
     <use xlink:href="#SimHei-6570" transform="translate(300 0)"/>
     <use xlink:href="#SimHei-20" transform="translate(400 0)"/>
     <use xlink:href="#SimHei-3d" transform="translate(450 0)"/>
     <use xlink:href="#SimHei-20" transform="translate(500 0)"/>
     <use xlink:href="#SimHei-31" transform="translate(550 0)"/>
     <use xlink:href="#SimHei-33" transform="translate(600 0)"/>
     <use xlink:href="#SimHei-31" transform="translate(650 0)"/>
     <use xlink:href="#SimHei-2e" transform="translate(700 0)"/>
     <use xlink:href="#SimHei-38" transform="translate(750 0)"/>
     <use xlink:href="#SimHei-36" transform="translate(800 0)"/>
     <use xlink:href="#SimHei-36" transform="translate(850 0)"/>
    </g>
   </g>
   <g id="patch_26">
    <path d="M 336.841542 169.923573 
Q 426.363522 127.230252 516.894651 84.055664 
" style="fill: none; stroke: #000000; stroke-linecap: round"/>
    <path d="M 341.3129 170.006963 
L 336.841542 169.923573 
L 339.591068 166.39652 
" style="fill: none; stroke: #000000; stroke-linecap: round"/>
   </g>
   <g id="text_14">
    <g id="patch_27">
     <path d="M 241.2 217.875469 
L 331.2 217.875469 
Q 334.2 217.875469 334.2 214.875469 
L 334.2 173.273906 
Q 334.2 170.273906 331.2 170.273906 
L 241.2 170.273906 
Q 238.2 170.273906 238.2 173.273906 
L 238.2 214.875469 
Q 238.2 217.875469 241.2 217.875469 
z
" style="fill: #fcefe5; stroke: #000000; stroke-linejoin: miter"/>
    </g>
    <!-- 孕妇BMI &lt;= 30.045 -->
    <g transform="translate(243.7 181.281719) scale(0.1 -0.1)">
     <use xlink:href="#SimHei-5b55"/>
     <use xlink:href="#SimHei-5987" transform="translate(100 0)"/>
     <use xlink:href="#SimHei-42" transform="translate(200 0)"/>
     <use xlink:href="#SimHei-4d" transform="translate(250 0)"/>
     <use xlink:href="#SimHei-49" transform="translate(300 0)"/>
     <use xlink:href="#SimHei-20" transform="translate(350 0)"/>
     <use xlink:href="#SimHei-3c" transform="translate(400 0)"/>
     <use xlink:href="#SimHei-3d" transform="translate(450 0)"/>
     <use xlink:href="#SimHei-20" transform="translate(500 0)"/>
     <use xlink:href="#SimHei-33" transform="translate(550 0)"/>
     <use xlink:href="#SimHei-30" transform="translate(600 0)"/>
     <use xlink:href="#SimHei-2e" transform="translate(650 0)"/>
     <use xlink:href="#SimHei-30" transform="translate(700 0)"/>
     <use xlink:href="#SimHei-34" transform="translate(750 0)"/>
     <use xlink:href="#SimHei-35" transform="translate(800 0)"/>
    </g>
    <!-- 平方误差 = 617.66 -->
    <g transform="translate(243.7 192.234844) scale(0.1 -0.1)">
     <use xlink:href="#SimHei-5e73"/>
     <use xlink:href="#SimHei-65b9" transform="translate(100 0)"/>
     <use xlink:href="#SimHei-8bef" transform="translate(200 0)"/>
     <use xlink:href="#SimHei-5dee" transform="translate(300 0)"/>
     <use xlink:href="#SimHei-20" transform="translate(400 0)"/>
     <use xlink:href="#SimHei-3d" transform="translate(450 0)"/>
     <use xlink:href="#SimHei-20" transform="translate(500 0)"/>
     <use xlink:href="#SimHei-36" transform="translate(550 0)"/>
     <use xlink:href="#SimHei-31" transform="translate(600 0)"/>
     <use xlink:href="#SimHei-37" transform="translate(650 0)"/>
     <use xlink:href="#SimHei-2e" transform="translate(700 0)"/>
     <use xlink:href="#SimHei-36" transform="translate(750 0)"/>
     <use xlink:href="#SimHei-36" transform="translate(800 0)"/>
    </g>
    <!-- 样本数 = 368 -->
    <g transform="translate(256.2 203.000469) scale(0.1 -0.1)">
     <use xlink:href="#SimHei-6837"/>
     <use xlink:href="#SimHei-672c" transform="translate(100 0)"/>
     <use xlink:href="#SimHei-6570" transform="translate(200 0)"/>
     <use xlink:href="#SimHei-20" transform="translate(300 0)"/>
     <use xlink:href="#SimHei-3d" transform="translate(350 0)"/>
     <use xlink:href="#SimHei-20" transform="translate(400 0)"/>
     <use xlink:href="#SimHei-33" transform="translate(450 0)"/>
     <use xlink:href="#SimHei-36" transform="translate(500 0)"/>
     <use xlink:href="#SimHei-38" transform="translate(550 0)"/>
    </g>
    <!-- 预期天数 = 114.158 -->
    <g transform="translate(241.2 213.625469) scale(0.1 -0.1)">
     <use xlink:href="#SimHei-9884"/>
     <use xlink:href="#SimHei-671f" transform="translate(100 0)"/>
     <use xlink:href="#SimHei-5929" transform="translate(200 0)"/>
     <use xlink:href="#SimHei-6570" transform="translate(300 0)"/>
     <use xlink:href="#SimHei-20" transform="translate(400 0)"/>
     <use xlink:href="#SimHei-3d" transform="translate(450 0)"/>
     <use xlink:href="#SimHei-20" transform="translate(500 0)"/>
     <use xlink:href="#SimHei-31" transform="translate(550 0)"/>
     <use xlink:href="#SimHei-31" transform="translate(600 0)"/>
     <use xlink:href="#SimHei-34" transform="translate(650 0)"/>
     <use xlink:href="#SimHei-2e" transform="translate(700 0)"/>
     <use xlink:href="#SimHei-31" transform="translate(750 0)"/>
     <use xlink:href="#SimHei-35" transform="translate(800 0)"/>
     <use xlink:href="#SimHei-38" transform="translate(850 0)"/>
    </g>
   </g>
   <g id="text_15">
    <!-- True   -->
    <g transform="translate(372.45 138.634688) scale(0.1 -0.1)">
     <defs>
      <path id="SimHei-54" d="M 2850 3925 
L 1850 3925 
L 1850 125 
L 1275 125 
L 1275 3925 
L 275 3925 
L 275 4400 
L 2850 4400 
L 2850 3925 
z
" transform="scale(0.015625)"/>
      <path id="SimHei-72" d="M 2500 2425 
Q 2025 2500 1700 2287 
Q 1375 2075 1150 1550 
L 1150 125 
L 650 125 
L 650 2925 
L 1150 2925 
L 1150 2200 
Q 1375 2600 1712 2787 
Q 2050 2975 2500 2975 
L 2500 2425 
z
" transform="scale(0.015625)"/>
      <path id="SimHei-75" d="M 2800 125 
L 2300 125 
L 2300 650 
Q 2100 375 1862 225 
Q 1625 75 1250 75 
Q 800 75 575 325 
Q 350 575 350 950 
L 350 2925 
L 850 2925 
L 850 1125 
Q 850 825 1000 650 
Q 1150 475 1400 475 
Q 1725 475 2012 812 
Q 2300 1150 2300 1650 
L 2300 2925 
L 2800 2925 
L 2800 125 
z
" transform="scale(0.015625)"/>
      <path id="SimHei-65" d="M 2850 1075 
Q 2800 625 2450 350 
Q 2100 75 1625 75 
Q 1025 75 637 462 
Q 250 850 250 1525 
Q 250 2200 637 2587 
Q 1025 2975 1625 2975 
Q 2150 2975 2487 2637 
Q 2825 2300 2825 1525 
L 800 1525 
Q 800 975 1037 750 
Q 1275 525 1625 525 
Q 1900 525 2075 662 
Q 2250 800 2300 1075 
L 2850 1075 
z
M 2250 1925 
Q 2200 2275 2025 2412 
Q 1850 2550 1575 2550 
Q 1325 2550 1125 2412 
Q 925 2275 825 1925 
L 2250 1925 
z
" transform="scale(0.015625)"/>
     </defs>
     <use xlink:href="#SimHei-54"/>
     <use xlink:href="#SimHei-72" transform="translate(50 0)"/>
     <use xlink:href="#SimHei-75" transform="translate(100 0)"/>
     <use xlink:href="#SimHei-65" transform="translate(150 0)"/>
     <use xlink:href="#SimHei-20" transform="translate(200 0)"/>
     <use xlink:href="#SimHei-20" transform="translate(250 0)"/>
    </g>
   </g>
   <g id="patch_28">
    <path d="M 700.558458 169.923573 
Q 611.036478 127.230252 520.505349 84.055664 
" style="fill: none; stroke: #000000; stroke-linecap: round"/>
    <path d="M 697.808932 166.39652 
L 700.558458 169.923573 
L 696.0871 170.006963 
" style="fill: none; stroke: #000000; stroke-linecap: round"/>
   </g>
   <g id="text_16">
    <g id="patch_29">
     <path d="M 706.2 217.875469 
L 796.2 217.875469 
Q 799.2 217.875469 799.2 214.875469 
L 799.2 173.273906 
Q 799.2 170.273906 796.2 170.273906 
L 706.2 170.273906 
Q 703.2 170.273906 703.2 173.273906 
L 703.2 214.875469 
Q 703.2 217.875469 706.2 217.875469 
z
" style="fill: #eeae7f; stroke: #000000; stroke-linejoin: miter"/>
    </g>
    <!-- 孕妇BMI &lt;= 34.17 -->
    <g transform="translate(711.2 181.281719) scale(0.1 -0.1)">
     <use xlink:href="#SimHei-5b55"/>
     <use xlink:href="#SimHei-5987" transform="translate(100 0)"/>
     <use xlink:href="#SimHei-42" transform="translate(200 0)"/>
     <use xlink:href="#SimHei-4d" transform="translate(250 0)"/>
     <use xlink:href="#SimHei-49" transform="translate(300 0)"/>
     <use xlink:href="#SimHei-20" transform="translate(350 0)"/>
     <use xlink:href="#SimHei-3c" transform="translate(400 0)"/>
     <use xlink:href="#SimHei-3d" transform="translate(450 0)"/>
     <use xlink:href="#SimHei-20" transform="translate(500 0)"/>
     <use xlink:href="#SimHei-33" transform="translate(550 0)"/>
     <use xlink:href="#SimHei-34" transform="translate(600 0)"/>
     <use xlink:href="#SimHei-2e" transform="translate(650 0)"/>
     <use xlink:href="#SimHei-31" transform="translate(700 0)"/>
     <use xlink:href="#SimHei-37" transform="translate(750 0)"/>
    </g>
    <!-- 平方误差 = 758.315 -->
    <g transform="translate(706.2 192.234844) scale(0.1 -0.1)">
     <use xlink:href="#SimHei-5e73"/>
     <use xlink:href="#SimHei-65b9" transform="translate(100 0)"/>
     <use xlink:href="#SimHei-8bef" transform="translate(200 0)"/>
     <use xlink:href="#SimHei-5dee" transform="translate(300 0)"/>
     <use xlink:href="#SimHei-20" transform="translate(400 0)"/>
     <use xlink:href="#SimHei-3d" transform="translate(450 0)"/>
     <use xlink:href="#SimHei-20" transform="translate(500 0)"/>
     <use xlink:href="#SimHei-37" transform="translate(550 0)"/>
     <use xlink:href="#SimHei-35" transform="translate(600 0)"/>
     <use xlink:href="#SimHei-38" transform="translate(650 0)"/>
     <use xlink:href="#SimHei-2e" transform="translate(700 0)"/>
     <use xlink:href="#SimHei-33" transform="translate(750 0)"/>
     <use xlink:href="#SimHei-31" transform="translate(800 0)"/>
     <use xlink:href="#SimHei-35" transform="translate(850 0)"/>
    </g>
    <!-- 样本数 = 714 -->
    <g transform="translate(721.2 203.000469) scale(0.1 -0.1)">
     <use xlink:href="#SimHei-6837"/>
     <use xlink:href="#SimHei-672c" transform="translate(100 0)"/>
     <use xlink:href="#SimHei-6570" transform="translate(200 0)"/>
     <use xlink:href="#SimHei-20" transform="translate(300 0)"/>
     <use xlink:href="#SimHei-3d" transform="translate(350 0)"/>
     <use xlink:href="#SimHei-20" transform="translate(400 0)"/>
     <use xlink:href="#SimHei-37" transform="translate(450 0)"/>
     <use xlink:href="#SimHei-31" transform="translate(500 0)"/>
     <use xlink:href="#SimHei-34" transform="translate(550 0)"/>
    </g>
    <!-- 预期天数 = 125.895 -->
    <g transform="translate(706.2 213.625469) scale(0.1 -0.1)">
     <use xlink:href="#SimHei-9884"/>
     <use xlink:href="#SimHei-671f" transform="translate(100 0)"/>
     <use xlink:href="#SimHei-5929" transform="translate(200 0)"/>
     <use xlink:href="#SimHei-6570" transform="translate(300 0)"/>
     <use xlink:href="#SimHei-20" transform="translate(400 0)"/>
     <use xlink:href="#SimHei-3d" transform="translate(450 0)"/>
     <use xlink:href="#SimHei-20" transform="translate(500 0)"/>
     <use xlink:href="#SimHei-31" transform="translate(550 0)"/>
     <use xlink:href="#SimHei-32" transform="translate(600 0)"/>
     <use xlink:href="#SimHei-35" transform="translate(650 0)"/>
     <use xlink:href="#SimHei-2e" transform="translate(700 0)"/>
     <use xlink:href="#SimHei-38" transform="translate(750 0)"/>
     <use xlink:href="#SimHei-39" transform="translate(800 0)"/>
     <use xlink:href="#SimHei-35" transform="translate(850 0)"/>
    </g>
   </g>
   <g id="text_17">
    <!--   False -->
    <g transform="translate(634.95 138.634688) scale(0.1 -0.1)">
     <defs>
      <path id="SimHei-46" d="M 2925 3925 
L 875 3925 
L 875 2525 
L 2425 2525 
L 2425 2050 
L 875 2050 
L 875 125 
L 300 125 
L 300 4400 
L 2925 4400 
L 2925 3925 
z
" transform="scale(0.015625)"/>
      <path id="SimHei-61" d="M 2875 125 
L 2275 125 
Q 2225 175 2200 262 
Q 2175 350 2175 475 
Q 2000 275 1750 175 
Q 1500 75 1225 75 
Q 825 75 550 275 
Q 275 475 275 850 
Q 275 1225 525 1450 
Q 775 1675 1300 1750 
Q 1650 1800 1912 1875 
Q 2175 1950 2175 2075 
Q 2175 2225 2062 2375 
Q 1950 2525 1575 2525 
Q 1275 2525 1137 2412 
Q 1000 2300 950 2100 
L 400 2100 
Q 450 2500 762 2737 
Q 1075 2975 1575 2975 
Q 2125 2975 2400 2725 
Q 2675 2475 2675 2025 
L 2675 650 
Q 2675 500 2725 375 
Q 2775 250 2875 125 
z
M 2175 1050 
L 2175 1550 
Q 2025 1500 1887 1462 
Q 1750 1425 1425 1375 
Q 1050 1325 937 1200 
Q 825 1075 825 900 
Q 825 750 937 637 
Q 1050 525 1275 525 
Q 1500 525 1762 650 
Q 2025 775 2175 1050 
z
" transform="scale(0.015625)"/>
      <path id="SimHei-6c" d="M 1825 125 
L 1325 125 
L 1325 4400 
L 1825 4400 
L 1825 125 
z
" transform="scale(0.015625)"/>
      <path id="SimHei-73" d="M 2750 900 
Q 2750 500 2437 287 
Q 2125 75 1650 75 
Q 1050 75 725 312 
Q 400 550 400 1000 
L 900 1000 
Q 900 700 1112 600 
Q 1325 500 1625 500 
Q 1925 500 2075 612 
Q 2225 725 2225 900 
Q 2225 1025 2100 1150 
Q 1975 1275 1475 1350 
Q 900 1425 687 1637 
Q 475 1850 475 2200 
Q 475 2500 762 2737 
Q 1050 2975 1600 2975 
Q 2100 2975 2387 2750 
Q 2675 2525 2675 2150 
L 2175 2150 
Q 2175 2375 2012 2462 
Q 1850 2550 1600 2550 
Q 1275 2550 1137 2437 
Q 1000 2325 1000 2175 
Q 1000 2000 1125 1900 
Q 1250 1800 1650 1750 
Q 2300 1650 2525 1437 
Q 2750 1225 2750 900 
z
" transform="scale(0.015625)"/>
     </defs>
     <use xlink:href="#SimHei-20"/>
     <use xlink:href="#SimHei-20" transform="translate(50 0)"/>
     <use xlink:href="#SimHei-46" transform="translate(100 0)"/>
     <use xlink:href="#SimHei-61" transform="translate(150 0)"/>
     <use xlink:href="#SimHei-6c" transform="translate(200 0)"/>
     <use xlink:href="#SimHei-73" transform="translate(250 0)"/>
     <use xlink:href="#SimHei-65" transform="translate(300 0)"/>
    </g>
   </g>
   <g id="patch_30">
    <path d="M 518.7 83.194688 
Q 518.7 83.194688 518.7 83.194688 
" style="fill: none; stroke: #000000; stroke-linecap: round"/>
   </g>
   <g id="text_18">
    <g id="patch_31">
     <path d="M 473.7 106.995469 
L 563.7 106.995469 
Q 566.7 106.995469 566.7 103.995469 
L 566.7 62.393906 
Q 566.7 59.393906 563.7 59.393906 
L 473.7 59.393906 
Q 470.7 59.393906 470.7 62.393906 
L 470.7 103.995469 
Q 470.7 106.995469 473.7 106.995469 
z
" style="fill: #f3c4a2; stroke: #000000; stroke-linejoin: miter"/>
    </g>
    <!-- 孕妇BMI &lt;= 30.761 -->
    <g transform="translate(476.2 70.401719) scale(0.1 -0.1)">
     <use xlink:href="#SimHei-5b55"/>
     <use xlink:href="#SimHei-5987" transform="translate(100 0)"/>
     <use xlink:href="#SimHei-42" transform="translate(200 0)"/>
     <use xlink:href="#SimHei-4d" transform="translate(250 0)"/>
     <use xlink:href="#SimHei-49" transform="translate(300 0)"/>
     <use xlink:href="#SimHei-20" transform="translate(350 0)"/>
     <use xlink:href="#SimHei-3c" transform="translate(400 0)"/>
     <use xlink:href="#SimHei-3d" transform="translate(450 0)"/>
     <use xlink:href="#SimHei-20" transform="translate(500 0)"/>
     <use xlink:href="#SimHei-33" transform="translate(550 0)"/>
     <use xlink:href="#SimHei-30" transform="translate(600 0)"/>
     <use xlink:href="#SimHei-2e" transform="translate(650 0)"/>
     <use xlink:href="#SimHei-37" transform="translate(700 0)"/>
     <use xlink:href="#SimHei-36" transform="translate(750 0)"/>
     <use xlink:href="#SimHei-31" transform="translate(800 0)"/>
    </g>
    <!-- 平方误差 = 741.396 -->
    <g transform="translate(473.7 81.354844) scale(0.1 -0.1)">
     <use xlink:href="#SimHei-5e73"/>
     <use xlink:href="#SimHei-65b9" transform="translate(100 0)"/>
     <use xlink:href="#SimHei-8bef" transform="translate(200 0)"/>
     <use xlink:href="#SimHei-5dee" transform="translate(300 0)"/>
     <use xlink:href="#SimHei-20" transform="translate(400 0)"/>
     <use xlink:href="#SimHei-3d" transform="translate(450 0)"/>
     <use xlink:href="#SimHei-20" transform="translate(500 0)"/>
     <use xlink:href="#SimHei-37" transform="translate(550 0)"/>
     <use xlink:href="#SimHei-34" transform="translate(600 0)"/>
     <use xlink:href="#SimHei-31" transform="translate(650 0)"/>
     <use xlink:href="#SimHei-2e" transform="translate(700 0)"/>
     <use xlink:href="#SimHei-33" transform="translate(750 0)"/>
     <use xlink:href="#SimHei-39" transform="translate(800 0)"/>
     <use xlink:href="#SimHei-36" transform="translate(850 0)"/>
    </g>
    <!-- 样本数 = 1082 -->
    <g transform="translate(486.2 92.120469) scale(0.1 -0.1)">
     <use xlink:href="#SimHei-6837"/>
     <use xlink:href="#SimHei-672c" transform="translate(100 0)"/>
     <use xlink:href="#SimHei-6570" transform="translate(200 0)"/>
     <use xlink:href="#SimHei-20" transform="translate(300 0)"/>
     <use xlink:href="#SimHei-3d" transform="translate(350 0)"/>
     <use xlink:href="#SimHei-20" transform="translate(400 0)"/>
     <use xlink:href="#SimHei-31" transform="translate(450 0)"/>
     <use xlink:href="#SimHei-30" transform="translate(500 0)"/>
     <use xlink:href="#SimHei-38" transform="translate(550 0)"/>
     <use xlink:href="#SimHei-32" transform="translate(600 0)"/>
    </g>
    <!-- 预期天数 = 121.903 -->
    <g transform="translate(473.7 102.745469) scale(0.1 -0.1)">
     <use xlink:href="#SimHei-9884"/>
     <use xlink:href="#SimHei-671f" transform="translate(100 0)"/>
     <use xlink:href="#SimHei-5929" transform="translate(200 0)"/>
     <use xlink:href="#SimHei-6570" transform="translate(300 0)"/>
     <use xlink:href="#SimHei-20" transform="translate(400 0)"/>
     <use xlink:href="#SimHei-3d" transform="translate(450 0)"/>
     <use xlink:href="#SimHei-20" transform="translate(500 0)"/>
     <use xlink:href="#SimHei-31" transform="translate(550 0)"/>
     <use xlink:href="#SimHei-32" transform="translate(600 0)"/>
     <use xlink:href="#SimHei-31" transform="translate(650 0)"/>
     <use xlink:href="#SimHei-2e" transform="translate(700 0)"/>
     <use xlink:href="#SimHei-39" transform="translate(750 0)"/>
     <use xlink:href="#SimHei-30" transform="translate(800 0)"/>
     <use xlink:href="#SimHei-33" transform="translate(850 0)"/>
    </g>
   </g>
  </g>
 </g>
</svg>
